%FSDAX23Y23*%
%MOIN*%
%SFA1B1*%

%IPPOS*%
%ADD12R,0.043300X0.039400*%
%ADD31C,0.059100*%
%ADD36C,0.030000*%
%ADD37C,0.010000*%
%ADD38C,0.050000*%
%ADD39C,0.100000*%
%ADD40C,0.020000*%
%ADD42C,0.040000*%
%ADD47R,0.066900X0.066900*%
%ADD48C,0.066900*%
%ADD49C,0.098400*%
%ADD50R,0.059100X0.059100*%
%ADD51R,0.059100X0.059100*%
%ADD52R,0.063000X0.063000*%
%ADD53C,0.063000*%
%ADD54C,0.053100*%
%ADD55R,0.053100X0.053100*%
%ADD56C,0.065000*%
%ADD57C,0.060000*%
%ADD58C,0.078700*%
%ADD59R,0.072800X0.072800*%
%ADD60C,0.072800*%
%ADD61C,0.053100*%
%ADD62C,0.031500*%
%ADD63R,0.024800X0.032700*%
%ADD64C,0.060000*%
%ADD65R,3.420000X0.160000*%
%ADD66R,3.420000X0.275000*%
%ADD67R,3.420000X0.165000*%
%ADD68R,3.420000X0.260000*%
%ADD69R,0.680000X0.220000*%
%ADD70R,0.120000X1.570000*%
%ADD71R,0.055000X0.510000*%
%ADD72R,1.125000X0.285000*%
%ADD73R,0.770000X0.230000*%
%ADD74R,0.925000X0.205000*%
%ADD75R,1.395000X0.400000*%
%ADD76R,0.245000X0.695000*%
%ADD77R,0.125000X1.225000*%
%ADD78R,0.115000X1.240000*%
%ADD79R,3.570000X0.135000*%
%ADD80R,0.090000X0.815000*%
%ADD81R,0.455000X0.480600*%
%ADD82R,0.440000X0.090000*%
%ADD83R,0.295000X0.170000*%
%ADD84R,0.290000X0.325000*%
%ADD85R,0.085000X0.805000*%
%ADD86R,0.105000X0.530000*%
%ADD87R,3.760000X0.140000*%
%ADD88R,0.075000X0.090000*%
%ADD89R,0.120000X0.260000*%
%LNde-130817-1*%
%LPD*%
G36*
X01615Y08495D02*
Y07735D01*
X02147*
X02171Y07711*
X02179Y07705*
X02189Y07701*
X02200Y07699*
X02790*
X03420*
X04680*
X05305*
X05940*
X06476*
X06486Y07701*
X06496Y07705*
X06504Y07711*
X06528Y07735*
X06596*
X06598Y07730*
X06490Y07622*
X06166*
X06161Y07623*
X06155Y07622*
X05701*
X05696Y07623*
X05690Y07622*
X04626*
X04618Y07621*
X04610Y07618*
X04604Y07613*
X04533Y07542*
X04508*
X04507Y07544*
X04498Y07551*
X04487Y07555*
X04475Y07557*
X04463Y07555*
X04452Y07551*
X04443Y07544*
X04436Y07534*
X04431Y07523*
X04429Y07512*
X04431Y07500*
X04436Y07489*
X04443Y07479*
X04452Y07472*
X04463Y07468*
X04475Y07466*
X04487Y07468*
X04498Y07472*
X04507Y07479*
X04508Y07481*
X04546*
X04553Y07482*
X04561Y07485*
X04567Y07490*
X04638Y07561*
X05690*
X05696Y07561*
X05701Y07561*
X06155*
X06161Y07561*
X06166Y07561*
X06503*
X06510Y07562*
X06518Y07565*
X06524Y07570*
X06688Y07735*
X07120*
Y06095*
X06222*
Y06209*
X06226Y06211*
X06230Y06209*
X06240Y06205*
X06245Y06204*
Y06243*
Y06282*
X06240Y06282*
X06230Y06278*
X06226Y06275*
X06222Y06277*
Y06395*
X06279*
X06285Y06396*
X06290Y06400*
X06294Y06405*
X06295Y06410*
Y06470*
X06294Y06475*
X06290Y06480*
X06285Y06484*
X06279Y06485*
X06220*
X06214Y06484*
X06210Y06480*
X06200*
X06190Y06479*
X06180Y06475*
X06171Y06469*
X06153Y06450*
X06146Y06442*
X06142Y06432*
X06141Y06421*
Y06190*
X05740*
Y06412*
X05740Y06413*
X05745Y06424*
X05747Y06437*
X05745Y06449*
X05740Y06460*
X05733Y06470*
X05723Y06477*
X05712Y06482*
X05700Y06483*
X05688Y06482*
X05676Y06477*
X05667Y06470*
X05659Y06460*
X05655Y06449*
X05653Y06437*
X05655Y06424*
X05659Y06413*
Y06190*
X05615*
X05604Y06189*
X05594Y06184*
X05586Y06178*
X05523Y06115*
X05516Y06106*
X05512Y06097*
X05512Y06095*
X04705*
X04704Y06100*
X04707Y06101*
X04716Y06108*
X04723Y06117*
X04728Y06128*
X04729Y06140*
X04728Y06151*
X04723Y06162*
X04716Y06171*
X04707Y06178*
X04696Y06183*
X04685Y06184*
X04673Y06183*
X04662Y06178*
X04653Y06171*
X04646Y06162*
X04641Y06151*
X04640Y06140*
X04641Y06128*
X04646Y06117*
X04653Y06108*
X04662Y06101*
X04665Y06100*
X04664Y06095*
X04605*
X04604Y06100*
X04607Y06101*
X04616Y06108*
X04623Y06117*
X04628Y06128*
X04629Y06140*
X04628Y06151*
X04623Y06162*
X04616Y06171*
X04607Y06178*
X04596Y06183*
X04585Y06184*
X04573Y06183*
X04562Y06178*
X04553Y06171*
X04546Y06162*
X04541Y06151*
X04540Y06140*
X04541Y06128*
X04546Y06117*
X04553Y06108*
X04562Y06101*
X04565Y06100*
X04564Y06095*
X03473*
X03471Y06100*
X03473Y06101*
X03477Y06107*
X03480Y06113*
X03480Y06115*
X03430*
X03430Y06113*
X03432Y06107*
X03437Y06101*
X03439Y06100*
X03437Y06095*
X03330*
X03328Y06100*
X03331Y06104*
X03335Y06112*
X03336Y06120*
X03335Y06128*
X03331Y06135*
X03326Y06141*
X03320Y06146*
X03313Y06150*
X03305Y06151*
X03303Y06150*
X03288Y06165*
X03282Y06169*
X03274Y06171*
X03172*
X03098Y06245*
X03091Y06249*
X03084Y06251*
X02546*
X02538Y06249*
X02531Y06245*
X02446Y06160*
X02442Y06154*
X02440Y06146*
Y06099*
X02441Y06098*
X02437Y06095*
X02365*
X02363Y06100*
X02364Y06100*
X02521Y06257*
X02844*
X02852Y06259*
X02859Y06263*
X02919Y06323*
X02923Y06330*
X02925Y06338*
Y06516*
X02949Y06540*
X02953Y06547*
X02955Y06555*
Y06934*
X03000Y06979*
X03606*
X03611Y06974*
X03617Y06970*
X03625Y06968*
X03762*
X03770Y06960*
X03777Y06956*
X03785Y06954*
X03876*
X04065Y06765*
X04065Y06763*
X04064Y06760*
X03873*
X03871Y06765*
X03873Y06766*
X03877Y06772*
X03880Y06778*
X03880Y06780*
X03829*
X03829Y06778*
X03832Y06772*
X03836Y06766*
X03838Y06765*
X03836Y06760*
X03783*
X03776Y06767*
Y06768*
X03781Y06774*
X03785Y06782*
X03786Y06790*
X03785Y06798*
X03781Y06805*
X03776Y06811*
X03770Y06816*
X03763Y06820*
X03755Y06821*
X03747Y06820*
X03739Y06816*
X03733Y06811*
X03728Y06805*
X03725Y06798*
X03724Y06790*
X03725Y06782*
X03728Y06774*
X03733Y06768*
X03734Y06766*
Y06760*
X03736Y06752*
X03740Y06745*
X03760Y06725*
X03767Y06721*
X03775Y06719*
X04080*
X04087Y06721*
X04094Y06725*
X04097Y06728*
X04154*
X04162Y06730*
X04168Y06734*
X04169Y06735*
X04175Y06738*
X04181Y06743*
X04186Y06749*
X04190Y06757*
X04191Y06765*
X04190Y06773*
X04186Y06780*
X04181Y06786*
X04175Y06791*
X04168Y06795*
X04160Y06796*
X04152Y06795*
X04148Y06793*
X04141Y06795*
X04136Y06801*
X04130Y06806*
X04123Y06810*
X04115Y06811*
X04107Y06810*
X04099Y06806*
X04093Y06801*
X04087Y06801*
X04003Y06885*
X04005Y06889*
X04569*
X04571Y06885*
X04570Y06884*
X04566Y06877*
X04564Y06870*
Y06768*
X04531Y06735*
X04530Y06736*
X04522Y06735*
X04514Y06731*
X04508Y06726*
X04503Y06720*
X04502Y06717*
X04497Y06716*
X04482Y06731*
X04475Y06735*
X04468Y06737*
X04460*
X04458Y06738*
X04452Y06743*
X04445Y06747*
X04437Y06748*
X04429Y06747*
X04421Y06743*
X04415Y06738*
X04410Y06732*
X04407Y06725*
X04406Y06717*
X04407Y06709*
X04410Y06701*
X04415Y06695*
X04421Y06690*
X04429Y06687*
X04437Y06686*
X04445Y06687*
X04452Y06690*
X04458Y06695*
X04461Y06695*
X04531Y06624*
X04537Y06620*
X04545Y06618*
X04572*
X04580Y06620*
X04581Y06620*
X04582Y06621*
X04589Y06625*
X04597Y06633*
X04602Y06633*
X04603Y06633*
X04603Y06632*
X04603Y06627*
X04587Y06611*
X04290*
X04282Y06609*
X04276Y06605*
X04260Y06589*
X04256Y06582*
X04254Y06575*
Y06463*
X04246Y06455*
X04075*
X04067Y06453*
X04060Y06449*
X04020Y06409*
X04016Y06402*
X04014Y06395*
Y06368*
X04012Y06366*
X03737*
X03733Y06365*
X03688*
X03670Y06383*
Y06840*
X03668Y06847*
X03664Y06854*
X03643Y06875*
X03637Y06879*
X03629Y06881*
X03565*
X03557Y06879*
X03550Y06875*
X03529Y06853*
X03500*
X03498Y06858*
X03501Y06860*
X03505Y06866*
X03508Y06872*
X03508Y06874*
X03457*
X03457Y06872*
X03460Y06866*
X03464Y06860*
X03467Y06858*
X03465Y06853*
X03370*
X03335Y06888*
X03336Y06890*
X03335Y06898*
X03331Y06905*
X03326Y06911*
X03320Y06916*
X03313Y06920*
X03305Y06921*
X03297Y06920*
X03289Y06916*
X03283Y06911*
X03278Y06905*
X03275Y06898*
X03274Y06890*
X03275Y06882*
X03278Y06874*
X03283Y06868*
X03289Y06863*
X03297Y06860*
X03305Y06859*
X03306Y06859*
X03326Y06840*
X03324Y06835*
X03288*
X03235Y06888*
X03236Y06890*
X03235Y06898*
X03231Y06905*
X03226Y06911*
X03220Y06916*
X03213Y06920*
X03205Y06921*
X03197Y06920*
X03189Y06916*
X03183Y06911*
X03178Y06905*
X03175Y06898*
X03174Y06890*
X03175Y06882*
X03178Y06874*
X03183Y06868*
X03189Y06863*
X03197Y06860*
X03205Y06859*
X03206Y06859*
X03265Y06800*
X03272Y06796*
X03280Y06794*
X03545*
X03552Y06796*
X03559Y06800*
X03568Y06809*
X03591*
X03593Y06808*
X03599Y06803*
X03607Y06800*
X03615Y06799*
X03623Y06800*
X03625Y06801*
X03629Y06798*
Y06375*
X03630Y06371*
X03625Y06369*
X03611Y06383*
Y06399*
X03609Y06407*
X03605Y06414*
X03559Y06460*
X03552Y06464*
X03544Y06466*
X03386*
X03385Y06473*
X03382Y06480*
X03377Y06486*
X03370Y06491*
X03363Y06495*
X03355Y06496*
X03347Y06495*
X03339Y06491*
X03333Y06486*
X03332Y06486*
X03327*
X03326Y06486*
X03320Y06491*
X03313Y06495*
X03305Y06496*
X03297Y06495*
X03289Y06491*
X03283Y06487*
X03281Y06486*
X03278*
X03276Y06487*
X03270Y06491*
X03263Y06495*
X03255Y06496*
X03247Y06495*
X03239Y06491*
X03233Y06486*
X03228Y06480*
X03225Y06473*
X03224Y06465*
X03225Y06457*
X03228Y06449*
X03233Y06443*
X03239Y06438*
X03247Y06435*
X03255Y06434*
X03257Y06434*
X03295Y06395*
X03302Y06391*
X03310Y06389*
X03521*
X03534Y06376*
Y06288*
X03533Y06286*
X03528Y06280*
X03525Y06273*
X03524Y06265*
X03525Y06257*
X03528Y06249*
X03533Y06243*
X03539Y06238*
X03547Y06235*
X03555Y06234*
X03563Y06235*
X03570Y06238*
X03576Y06243*
X03581Y06249*
X03585Y06257*
X03586Y06265*
X03585Y06270*
X03585Y06270*
X03589Y06274*
X03589Y06274*
X03595Y06274*
X03603Y06275*
X03610Y06278*
X03616Y06283*
X03621Y06289*
X03625Y06297*
X03625Y06304*
X03630Y06306*
X03636Y06300*
X03643Y06296*
X03651Y06294*
X03726*
X03728Y06293*
X03734Y06288*
X03742Y06285*
X03750Y06284*
X03758Y06285*
X03765Y06288*
X03771Y06293*
X03776Y06299*
X03780Y06307*
X03781Y06315*
X03780Y06320*
X03783Y06325*
X04020*
X04028Y06326*
X04035Y06331*
X04049Y06345*
X04051Y06345*
X04054Y06343*
X04062Y06340*
X04070Y06339*
X04078Y06340*
X04085Y06343*
X04091Y06348*
X04092Y06348*
X04347*
X04442Y06253*
X04441Y06251*
X04440Y06240*
X04441Y06228*
X04446Y06217*
X04453Y06208*
X04462Y06201*
X04473Y06196*
X04485Y06195*
X04496Y06196*
X04507Y06201*
X04516Y06208*
X04523Y06217*
X04528Y06228*
X04529Y06240*
X04528Y06251*
X04523Y06262*
X04521Y06265*
X04524Y06269*
X04546*
X04548Y06265*
X04546Y06262*
X04541Y06251*
X04540Y06240*
X04541Y06228*
X04546Y06217*
X04553Y06208*
X04562Y06201*
X04573Y06196*
X04585Y06195*
X04596Y06196*
X04607Y06201*
X04616Y06208*
X04623Y06217*
X04628Y06228*
X04629Y06240*
X04628Y06251*
X04623Y06262*
X04621Y06265*
X04624Y06269*
X04640*
X04640Y06269*
Y06210*
X04641Y06204*
X04644Y06199*
X04649Y06196*
X04655Y06195*
X04714*
X04720Y06196*
X04725Y06199*
X04728Y06204*
X04729Y06210*
Y06269*
X04730Y06269*
X04842*
X04914Y06197*
Y06182*
X04913Y06181*
X04906Y06172*
X04901Y06161*
X04900Y06150*
X04901Y06138*
X04906Y06127*
X04913Y06118*
X04922Y06111*
X04933Y06106*
X04945Y06105*
X04956Y06106*
X04967Y06111*
X04976Y06118*
X04983Y06127*
X04988Y06138*
X04989Y06150*
X04988Y06161*
X04983Y06172*
X04978Y06180*
X04978Y06180*
X04983Y06182*
X05000Y06166*
Y06120*
X05001Y06114*
X05004Y06109*
X05009Y06106*
X05015Y06105*
X05074*
X05080Y06106*
X05085Y06109*
X05088Y06114*
X05089Y06120*
Y06179*
X05088Y06185*
X05085Y06190*
X05080Y06193*
X05074Y06194*
X05029*
X04874Y06349*
X04867Y06353*
X04860Y06355*
X04788*
X04777Y06366*
Y06414*
X04782Y06417*
X04794Y06410*
X04809Y06406*
X04825Y06404*
X04840Y06406*
X04855Y06410*
X04869Y06418*
X04882Y06428*
X04892Y06440*
X04899Y06454*
X04904Y06469*
X04905Y06485*
X04904Y06500*
X04899Y06515*
X04892Y06529*
X04882Y06542*
X04869Y06552*
X04855Y06559*
X04840Y06564*
X04825Y06565*
X04809Y06564*
X04794Y06559*
X04780Y06552*
X04770Y06543*
X04765Y06546*
Y06646*
X04778Y06659*
X04941*
X04943Y06658*
X04949Y06653*
X04957Y06650*
X04965Y06649*
X04973Y06650*
X04980Y06653*
X04986Y06658*
X04991Y06664*
X04994Y06669*
X04999Y06671*
X05019Y06651*
Y06550*
X05021Y06542*
X05025Y06535*
X05045Y06515*
X05052Y06511*
X05060Y06509*
X05170*
X05177Y06511*
X05184Y06515*
X05215Y06546*
X05220Y06553*
X05221Y06561*
Y06612*
X05243Y06634*
X06191*
X06299Y06526*
Y06500*
X06301Y06492*
X06305Y06485*
X06320Y06470*
X06327Y06466*
X06335Y06464*
X06410*
X06417Y06466*
X06424Y06470*
X06434Y06480*
X06438Y06487*
X06440Y06495*
Y06761*
X06454Y06775*
X06458Y06782*
X06460Y06790*
Y06792*
X06464Y06795*
X06471*
Y06822*
Y06848*
X06464*
X06460Y06851*
Y06892*
X06464Y06895*
X06471*
Y06922*
Y06948*
X06464*
X06460Y06951*
Y06992*
X06464Y06995*
X06471*
Y07022*
Y07048*
X06464*
X06460Y07047*
X06456Y07045*
X06451Y07047*
X06401Y07097*
Y07098*
X06406Y07104*
X06410Y07112*
X06411Y07120*
X06410Y07128*
X06406Y07135*
X06401Y07141*
X06395Y07146*
X06388Y07150*
X06380Y07151*
X06372Y07150*
X06364Y07146*
X06358Y07141*
X06353Y07135*
X06350Y07128*
X06349Y07120*
X06350Y07112*
X06353Y07104*
X06358Y07098*
X06359Y07096*
Y07090*
X06361Y07082*
X06365Y07075*
X06385Y07055*
X06383Y07050*
X06380Y07051*
X06372Y07050*
X06364Y07046*
X06358Y07041*
X06353Y07035*
X06350Y07028*
X06349Y07020*
X06350Y07012*
X06353Y07004*
X06358Y06998*
X06363Y06994*
X06365Y06990*
X06399Y06956*
Y06949*
X06394Y06947*
X06388Y06950*
X06380Y06951*
X06372Y06950*
X06364Y06946*
X06358Y06941*
X06353Y06935*
X06350Y06928*
X06349Y06920*
X06349Y06917*
X06345Y06913*
X06340Y06915*
Y07151*
X06378Y07189*
X06380Y07189*
X06388Y07190*
X06395Y07193*
X06401Y07198*
X06406Y07204*
X06410Y07212*
X06411Y07220*
X06410Y07228*
X06406Y07235*
X06401Y07241*
X06395Y07246*
X06388Y07250*
X06380Y07251*
X06372Y07250*
X06364Y07246*
X06358Y07241*
X06353Y07235*
X06350Y07228*
X06349Y07220*
X06349Y07218*
X06305Y07174*
X06301Y07167*
X06299Y07160*
Y06893*
X06236Y06830*
X05518*
X05370Y06978*
X05363Y06983*
X05355Y06984*
X05347*
X05344Y06989*
X05344Y06990*
X05293*
Y06989*
X05290Y06984*
X05219*
X05184Y07019*
X05184Y07019*
X05158Y07045*
X05157Y07046*
X05154Y07049*
X05147Y07053*
X05140Y07055*
X05048*
X05008Y07095*
X05002Y07099*
X04994Y07101*
X04962*
X04954Y07099*
X04947Y07095*
X04920Y07067*
X04918Y07067*
X04917Y07073*
X04973Y07129*
X04981*
X04983Y07128*
X04989Y07123*
X04997Y07120*
X05005Y07119*
X05013Y07120*
X05020Y07123*
X05026Y07128*
X05029Y07131*
X05035*
X05038Y07128*
X05044Y07123*
X05052Y07120*
X05060Y07119*
X05068Y07120*
X05075Y07123*
X05081Y07128*
X05086Y07134*
X05090Y07142*
X05091Y07150*
X05090Y07158*
X05086Y07165*
X05081Y07171*
X05075Y07176*
X05068Y07180*
X05060Y07181*
X05058Y07180*
X05043Y07195*
X05037Y07199*
X05029Y07201*
X04970*
X04962Y07199*
X04955Y07195*
X04876Y07115*
X04483*
X04471Y07127*
X04464Y07131*
X04457Y07133*
X04343*
X04335Y07131*
X04329Y07127*
X04273Y07072*
X04269Y07074*
Y07179*
X04453*
X04456Y07175*
X04455Y07173*
X04454Y07165*
X04455Y07157*
X04458Y07149*
X04463Y07143*
X04469Y07138*
X04477Y07135*
X04485Y07134*
X04493Y07135*
X04500Y07138*
X04506Y07143*
X04508Y07144*
X04551*
X04553Y07143*
X04559Y07138*
X04567Y07135*
X04575Y07134*
X04583Y07135*
X04590Y07138*
X04593Y07140*
X04597Y07142*
X04601Y07140*
X04604Y07138*
X04612Y07135*
X04620Y07134*
X04628Y07135*
X04635Y07138*
X04641Y07143*
X04646Y07149*
X04650Y07157*
X04651Y07165*
X04650Y07170*
Y07179*
X04750*
X04760Y07181*
X04770Y07185*
X04778Y07191*
X04816Y07229*
X05088*
X05104Y07213*
Y07175*
X05106Y07164*
X05110Y07154*
X05116Y07146*
X05146Y07116*
X05154Y07110*
X05164Y07106*
X05175Y07104*
X05235*
X05245Y07106*
X05255Y07110*
X05263Y07116*
X05283Y07136*
X05289Y07144*
X05294Y07154*
X05295Y07165*
Y07220*
X05300Y07221*
X05300Y07221*
X05305Y07217*
X05312Y07214*
X05313Y07214*
Y07240*
Y07265*
X05312Y07265*
X05305Y07262*
X05300Y07258*
X05300Y07258*
X05295Y07260*
Y07273*
X05317Y07295*
X05450*
Y06963*
X05452Y06951*
X05456Y06940*
X05463Y06930*
X05464Y06930*
Y06925*
X05465Y06919*
X05469Y06914*
X05474Y06910*
X05480Y06909*
X06160*
X06165Y06910*
X06170Y06914*
X06174Y06919*
X06175Y06925*
Y07145*
X06174Y07150*
X06170Y07155*
X06165Y07159*
X06160Y07160*
X05541*
Y07329*
X05541Y07330*
X05545Y07332*
X05691Y07186*
X05699Y07180*
X05709Y07176*
X05720Y07174*
X06065*
X06075Y07176*
X06085Y07180*
X06093Y07186*
X06099Y07194*
X06104Y07204*
X06105Y07215*
X06104Y07225*
X06099Y07235*
X06093Y07243*
X06085Y07249*
X06075Y07254*
X06065Y07255*
X05736*
X05551Y07440*
X05543Y07446*
X05533Y07451*
X05523Y07452*
X04495*
X04487Y07455*
X04475Y07457*
X04463Y07455*
X04455Y07452*
X04081*
X03862Y07671*
X03854Y07677*
X03844Y07682*
X03834Y07683*
X02206*
X02195Y07682*
X02185Y07677*
X02177Y07671*
X02023Y07517*
X02017Y07509*
X02013Y07499*
X02011Y07489*
Y07150*
X02009Y07148*
X01525*
Y07480*
X01524Y07490*
X01519Y07500*
X01513Y07508*
X01503Y07518*
X01495Y07524*
X01485Y07529*
X01475Y07530*
X01445*
Y07571*
X01448Y07578*
X01450Y07590*
X01448Y07601*
X01444Y07612*
X01437Y07621*
X01427Y07628*
X01416Y07633*
X01405Y07634*
X01393Y07633*
X01382Y07628*
X01373Y07621*
X01366Y07612*
X01361Y07601*
X01360Y07590*
X01361Y07578*
X01365Y07571*
Y07509*
X01361Y07501*
X01360Y07490*
X01361Y07478*
X01366Y07467*
X01373Y07458*
X01382Y07451*
X01393Y07446*
X01405Y07445*
X01416Y07446*
X01424Y07449*
X01444*
Y07420*
X01439Y07418*
X01437Y07421*
X01427Y07428*
X01416Y07433*
X01405Y07434*
X01393Y07433*
X01382Y07428*
X01373Y07421*
X01366Y07412*
X01361Y07401*
X01360Y07390*
X01361Y07378*
X01366Y07367*
X01373Y07358*
X01382Y07351*
X01393Y07346*
X01405Y07345*
X01416Y07346*
X01427Y07351*
X01437Y07358*
X01439Y07361*
X01444Y07359*
Y07320*
X01439Y07318*
X01437Y07321*
X01427Y07328*
X01416Y07333*
X01405Y07334*
X01393Y07333*
X01382Y07328*
X01373Y07321*
X01366Y07312*
X01361Y07301*
X01360Y07290*
X01361Y07278*
X01366Y07267*
X01373Y07258*
X01382Y07251*
X01393Y07246*
X01405Y07245*
X01416Y07246*
X01427Y07251*
X01437Y07258*
X01439Y07261*
X01444Y07259*
Y07220*
X01439Y07218*
X01437Y07221*
X01427Y07228*
X01416Y07233*
X01405Y07234*
X01393Y07233*
X01382Y07228*
X01373Y07221*
X01366Y07212*
X01361Y07201*
X01360Y07190*
X01361Y07178*
X01366Y07167*
X01373Y07158*
X01382Y07151*
X01393Y07146*
X01405Y07145*
X01416Y07146*
X01427Y07151*
X01437Y07158*
X01439Y07161*
X01444Y07159*
Y07131*
X01439Y07128*
X01438Y07128*
X01434Y07129*
X01410*
Y07090*
Y07050*
X01434*
X01438Y07051*
X01439Y07051*
X01444Y07049*
Y07000*
X01446Y06989*
X01450Y06979*
X01456Y06971*
X01464Y06965*
X01474Y06961*
X01485Y06959*
X01495Y06961*
X01505Y06965*
X01513Y06971*
X01519Y06979*
X01524Y06989*
X01525Y07000*
Y07067*
X01669*
X01671Y07063*
X01543Y06935*
X01335*
X01324Y06934*
X01314Y06929*
X01306Y06923*
X01260Y06877*
X01255Y06879*
Y07685*
Y08500*
X01610*
X01615Y08495*
G37*
G36*
X05172Y07266D02*
X05167Y07264D01*
X05133Y07298*
X05125Y07304*
X05115Y07309*
X05105Y07310*
X04800*
X04789Y07309*
X04779Y07304*
X04771Y07298*
X04733Y07260*
X04191*
X04085Y07367*
X04086Y07371*
X04455*
X04463Y07368*
X04475Y07366*
X04487Y07368*
X04495Y07371*
X05172*
Y07266*
G37*
G36*
X04645Y06475D02*
X04645Y06473D01*
Y06450*
X04665*
X04665Y06451*
X04664Y06452*
X04668Y06456*
X04673Y06455*
X04676*
X04679Y06450*
X04679Y06445*
X04679Y06439*
Y06407*
X04645Y06372*
X04640Y06375*
X04641Y06380*
X04640Y06388*
X04636Y06395*
X04631Y06401*
X04625Y06406*
X04618Y06410*
X04610Y06411*
X04602Y06410*
X04594Y06406*
X04588Y06401*
X04586Y06400*
X04503*
X04379Y06524*
X04372Y06528*
X04365Y06530*
X04333*
X04331Y06531*
X04332Y06536*
X04335Y06539*
X04581*
X04645Y06475*
G37*
G36*
X03026Y06099D02*
X03024Y06095D01*
X02777*
X02776Y06100*
X02778Y06101*
X02782Y06107*
X02785Y06113*
X02785Y06115*
X02760*
Y06125*
X02785*
X02785Y06126*
X02782Y06133*
X02782Y06133*
X02784Y06138*
X02987*
X03026Y06099*
G37*
G36*
X03629Y07336D02*
X03629Y07335D01*
X03630Y07327*
X03633Y07319*
X03638Y07313*
X03641Y07310*
X03639Y07305*
X02755*
X02747Y07303*
X02740Y07299*
X02580Y07139*
X02576Y07132*
X02574Y07125*
Y06498*
X02526Y06450*
X02461*
X02453Y06448*
X02446Y06444*
X02442Y06439*
X02438Y06442*
X02440Y06447*
X02441Y06455*
X02440Y06463*
X02436Y06470*
X02435Y06472*
Y06917*
X02436Y06919*
X02440Y06927*
X02441Y06935*
X02440Y06943*
X02436Y06950*
X02431Y06956*
X02425Y06961*
X02418Y06965*
X02410Y06966*
X02402Y06965*
X02394Y06961*
X02388Y06956*
X02383Y06950*
X02380Y06943*
X02379Y06935*
X02380Y06927*
X02383Y06919*
X02384Y06917*
Y06472*
X02383Y06470*
X02380Y06463*
X02379Y06455*
X02380Y06447*
X02383Y06439*
X02388Y06433*
X02394Y06428*
X02402Y06425*
X02410Y06424*
X02418Y06425*
X02422Y06426*
X02425Y06422*
X02297Y06295*
X01981*
X01979Y06299*
X01980Y06302*
X01981Y06310*
X01980Y06318*
X01976Y06325*
X01971Y06331*
X01965Y06336*
X01958Y06340*
X01950Y06341*
X01944Y06340*
X01437*
X01435Y06342*
Y06459*
X01437Y06460*
X01444Y06469*
X01448Y06480*
X01450Y06492*
X01448Y06503*
X01444Y06514*
X01437Y06523*
X01427Y06530*
X01416Y06535*
X01405Y06536*
X01393Y06535*
X01382Y06530*
X01373Y06523*
X01372Y06522*
X01313*
Y06816*
X01351Y06854*
X01432*
X01434Y06849*
X01419Y06834*
X01416Y06835*
X01405Y06836*
X01393Y06835*
X01382Y06830*
X01373Y06823*
X01366Y06814*
X01361Y06803*
X01360Y06792*
X01361Y06780*
X01366Y06769*
X01373Y06760*
X01382Y06753*
X01393Y06748*
X01405Y06747*
X01416Y06748*
X01427Y06753*
X01437Y06760*
X01444Y06769*
X01448Y06780*
X01450Y06792*
X01448Y06803*
X01447Y06805*
X01460Y06818*
X01462Y06817*
X01463Y06817*
X01465Y06812*
X01461Y06803*
X01460Y06792*
X01461Y06780*
X01466Y06769*
X01473Y06760*
X01482Y06753*
X01493Y06748*
X01505Y06747*
X01516Y06748*
X01527Y06753*
X01537Y06760*
X01544Y06769*
X01548Y06780*
X01550Y06792*
X01548Y06803*
X01544Y06814*
X01543Y06815*
X01545Y06819*
X01584*
Y06725*
X01554Y06695*
X01549Y06697*
X01548Y06703*
X01544Y06714*
X01537Y06723*
X01527Y06730*
X01516Y06735*
X01505Y06736*
X01493Y06735*
X01482Y06730*
X01473Y06723*
X01466Y06714*
X01461Y06703*
X01460Y06692*
X01461Y06680*
X01466Y06670*
X01464Y06665*
X01460*
X01452Y06663*
X01445Y06659*
X01439Y06652*
X01433Y06649*
X01419Y06634*
X01416Y06635*
X01405Y06636*
X01393Y06635*
X01382Y06630*
X01373Y06623*
X01366Y06614*
X01361Y06603*
X01360Y06592*
X01361Y06580*
X01366Y06569*
X01373Y06560*
X01382Y06553*
X01393Y06548*
X01405Y06547*
X01416Y06548*
X01427Y06553*
X01437Y06560*
X01444Y06569*
X01448Y06580*
X01450Y06592*
X01448Y06603*
X01447Y06605*
X01459Y06617*
X01464Y06620*
X01466Y06622*
X01469Y06619*
X01466Y06614*
X01461Y06603*
X01460Y06592*
X01461Y06580*
X01466Y06569*
X01473Y06560*
X01482Y06553*
X01493Y06548*
X01505Y06547*
X01516Y06548*
X01527Y06553*
X01537Y06560*
X01544Y06569*
X01548Y06580*
X01550Y06592*
X01548Y06603*
X01547Y06605*
X01639Y06697*
X01643Y06703*
X01645Y06711*
Y06810*
X01748Y06914*
X01796*
X01799Y06909*
X01796Y06901*
X01795Y06890*
X01796Y06878*
X01801Y06867*
X01808Y06858*
X01817Y06851*
X01828Y06846*
X01840Y06845*
X01851Y06846*
X01862Y06851*
X01871Y06858*
X01878Y06867*
X01879Y06869*
X02074*
X02076Y06865*
X02021Y06810*
X01879*
X01878Y06812*
X01871Y06821*
X01862Y06828*
X01851Y06833*
X01840Y06834*
X01828Y06833*
X01817Y06828*
X01808Y06821*
X01801Y06812*
X01796Y06801*
X01795Y06790*
X01796Y06778*
X01801Y06767*
X01808Y06758*
X01817Y06751*
X01828Y06746*
X01840Y06745*
X01851Y06746*
X01862Y06751*
X01871Y06758*
X01878Y06767*
X01879Y06769*
X02004*
X02006Y06765*
X01951Y06710*
X01879*
X01878Y06712*
X01871Y06721*
X01862Y06728*
X01851Y06733*
X01840Y06734*
X01828Y06733*
X01817Y06728*
X01808Y06721*
X01801Y06712*
X01796Y06701*
X01795Y06690*
X01796Y06678*
X01801Y06667*
X01808Y06658*
X01817Y06651*
X01828Y06646*
X01840Y06645*
X01851Y06646*
X01862Y06651*
X01871Y06658*
X01878Y06667*
X01879Y06669*
X01960*
X01967Y06671*
X01974Y06675*
X02264Y06965*
X02268Y06972*
X02270Y06980*
Y07391*
X02277Y07398*
X02282Y07397*
X02283Y07394*
X02288Y07388*
X02294Y07383*
X02302Y07380*
X02309Y07379*
X02309Y07375*
X02310Y07367*
X02311Y07364*
X02308Y07360*
X02307Y07360*
X02299Y07356*
X02293Y07351*
X02288Y07345*
X02285Y07338*
X02284Y07330*
X02285Y07322*
X02288Y07314*
X02293Y07308*
X02299Y07303*
X02307Y07300*
X02315Y07299*
X02323Y07300*
X02330Y07303*
X02336Y07308*
X02338Y07309*
X02365*
X02372Y07311*
X02379Y07315*
X02428Y07364*
X02856*
X02858Y07359*
X02857Y07358*
X02854Y07351*
X02854Y07350*
X02880*
Y07345*
X02885*
Y07319*
X02886Y07319*
X02893Y07322*
X02898Y07326*
X02902Y07332*
X02905Y07338*
X02905Y07340*
X02907Y07341*
X02910Y07342*
X02917Y07340*
X02925Y07339*
X02933Y07340*
X02940Y07343*
X02946Y07348*
X02951Y07354*
X02955Y07362*
X02956Y07370*
X02955Y07378*
X02954Y07380*
X02956Y07384*
X03046*
X03059Y07371*
X03059Y07370*
X03060Y07362*
X03063Y07354*
X03068Y07348*
X03074Y07343*
X03082Y07340*
X03090Y07339*
X03098Y07340*
X03105Y07343*
X03111Y07348*
X03116Y07354*
X03120Y07362*
X03121Y07370*
X03120Y07378*
X03116Y07385*
X03111Y07391*
X03105Y07396*
X03101Y07398*
X03102Y07403*
X03562*
X03629Y07336*
G37*
G36*
X01375Y06329D02*
X01376Y06321D01*
X01379Y06314*
X01383Y06308*
X01392Y06300*
X01390Y06295*
X01323*
X01315Y06293*
X01308Y06289*
X01270Y06251*
X01266Y06244*
X01264Y06236*
Y05669*
X01266Y05661*
X01270Y05655*
X01361Y05564*
X01360Y05557*
X01361Y05545*
X01366Y05534*
X01373Y05525*
X01382Y05518*
X01393Y05513*
X01405Y05512*
X01416Y05513*
X01427Y05518*
X01437Y05525*
X01444Y05534*
X01448Y05545*
X01450Y05557*
X01448Y05568*
X01444Y05579*
X01440Y05584*
X01442Y05589*
X01456*
X01459Y05587*
X01460Y05584*
Y05527*
X01461Y05521*
X01465Y05516*
X01469Y05513*
X01475Y05512*
X01534*
X01540Y05513*
X01545Y05516*
X01549Y05521*
X01550Y05527*
Y05586*
X01549Y05592*
X01545Y05597*
X01540Y05600*
X01534Y05601*
X01485*
X01483Y05606*
X01491Y05614*
X01493Y05613*
X01505Y05612*
X01516Y05613*
X01527Y05618*
X01537Y05625*
X01544Y05634*
X01548Y05645*
X01550Y05657*
X01548Y05668*
X01544Y05679*
X01537Y05688*
X01527Y05695*
X01516Y05700*
X01505Y05701*
X01493Y05700*
X01482Y05695*
X01473Y05688*
X01466Y05679*
X01461Y05668*
X01460Y05657*
X01461Y05645*
X01462Y05643*
X01451Y05631*
X01447Y05632*
X01445Y05637*
X01448Y05645*
X01450Y05657*
X01448Y05668*
X01444Y05679*
X01437Y05688*
X01427Y05695*
X01416Y05700*
X01405Y05701*
X01393Y05700*
X01389Y05698*
X01345Y05743*
Y05781*
X01350Y05783*
X01362Y05770*
X01361Y05768*
X01360Y05757*
X01361Y05745*
X01366Y05734*
X01373Y05725*
X01382Y05718*
X01393Y05713*
X01405Y05712*
X01416Y05713*
X01427Y05718*
X01437Y05725*
X01444Y05734*
X01448Y05745*
X01450Y05757*
X01448Y05768*
X01444Y05779*
X01437Y05788*
X01427Y05795*
X01416Y05800*
X01405Y05801*
X01393Y05800*
X01391Y05799*
X01367Y05823*
X01368Y05824*
X01373Y05825*
X01373Y05825*
X01382Y05818*
X01393Y05813*
X01405Y05812*
X01416Y05813*
X01427Y05818*
X01437Y05825*
X01444Y05834*
X01448Y05845*
X01450Y05857*
X01448Y05868*
X01447Y05870*
X01463Y05886*
X01465Y05886*
X01467Y05881*
X01466Y05879*
X01461Y05868*
X01460Y05857*
X01461Y05845*
X01466Y05834*
X01473Y05825*
X01482Y05818*
X01493Y05813*
X01505Y05812*
X01516Y05813*
X01527Y05818*
X01537Y05825*
X01544Y05834*
X01548Y05845*
X01550Y05857*
X01548Y05868*
X01544Y05879*
X01540Y05884*
X01542Y05889*
X01601*
X01609Y05891*
X01616Y05895*
X01665Y05944*
X01670Y05942*
Y05420*
X01605Y05355*
X01547Y05297*
X01255*
Y06410*
X01375*
Y06329*
G37*
G36*
X03794Y07171D02*
Y07100D01*
X03790Y07098*
X03778Y07110*
X03772Y07114*
X03764Y07116*
X03605*
X03597Y07114*
X03591Y07110*
X03581Y07100*
X02969*
X02961Y07098*
X02955Y07094*
X02848Y06987*
X02844Y06980*
X02842Y06973*
Y06616*
X02810Y06584*
X02806Y06577*
X02804Y06570*
Y06420*
X02799Y06416*
X02795Y06417*
X02787Y06416*
X02779Y06413*
X02777Y06412*
X02710*
Y06779*
X02777*
X02779Y06778*
X02787Y06775*
X02795Y06774*
X02803Y06775*
X02810Y06778*
X02816Y06783*
X02821Y06789*
X02825Y06797*
X02826Y06805*
X02825Y06813*
X02821Y06820*
X02816Y06826*
X02810Y06831*
X02803Y06835*
X02795Y06836*
X02787Y06835*
X02779Y06831*
X02777Y06830*
X02710*
Y07074*
X02800Y07164*
X02803Y07165*
X02810Y07168*
X02816Y07173*
X02821Y07179*
X02825Y07187*
X02826Y07195*
X02825Y07203*
X02823Y07205*
X02827Y07210*
X03337*
X03339Y07206*
X03311Y07178*
X03095*
X03090Y07179*
X03082Y07178*
X03074Y07175*
X03068Y07170*
X03064Y07165*
X03060Y07164*
X03060Y07164*
X03057Y07164*
X03053Y07168*
X03047Y07170*
X03045Y07170*
Y07145*
Y07120*
X03047Y07120*
X03053Y07123*
X03058Y07127*
X03060Y07128*
X03066*
X03068Y07126*
X03074Y07121*
X03082Y07118*
X03090Y07117*
X03095Y07118*
X03324*
X03332Y07119*
X03339Y07122*
X03345Y07127*
X03367Y07148*
X03372Y07146*
X03372Y07145*
X03372Y07138*
X03375Y07132*
X03379Y07127*
X03385Y07123*
X03391Y07120*
X03393Y07120*
Y07145*
X03398*
Y07150*
X03423*
X03423Y07152*
X03422Y07154*
X03425Y07159*
X03469*
X03505Y07123*
X03511Y07118*
X03519Y07115*
X03527Y07114*
X03564*
X03570Y07114*
X03578Y07115*
X03585Y07118*
X03591Y07123*
X03596Y07129*
X03600Y07137*
X03601Y07145*
X03600Y07153*
X03596Y07160*
X03591Y07166*
X03585Y07171*
X03578Y07175*
X03570Y07176*
X03564Y07175*
X03539*
X03508Y07206*
X03510Y07210*
X03755*
X03794Y07171*
G37*
G36*
X01751Y06190D02*
X01691Y06130D01*
X01540*
X01538Y06134*
X01539Y06137*
X01543Y06146*
X01544Y06152*
X01505*
X01466*
X01466Y06146*
X01470Y06137*
X01472Y06134*
X01470Y06130*
X01458*
X01450Y06128*
X01443Y06124*
X01419Y06099*
X01416Y06100*
X01405Y06101*
X01393Y06100*
X01382Y06095*
X01373Y06088*
X01370Y06084*
X01365Y06086*
Y06095*
Y06137*
X01370Y06138*
X01370Y06137*
X01377Y06128*
X01385Y06122*
X01395Y06118*
X01400Y06117*
Y06157*
X01405*
Y06162*
X01444*
X01443Y06167*
X01439Y06176*
X01433Y06185*
X01427Y06189*
X01429Y06194*
X01481*
X01482Y06189*
X01477Y06185*
X01470Y06176*
X01466Y06167*
X01466Y06162*
X01505*
X01544*
X01543Y06167*
X01539Y06176*
X01533Y06185*
X01527Y06189*
X01529Y06194*
X01749*
X01751Y06190*
G37*
%LNde-130817-2*%
%LPC*%
G36*
X06678Y06557D02*
X06635D01*
X06629Y06555*
X06624Y06552*
X06621Y06547*
X06616Y06548*
X06613Y06550*
X06605Y06551*
X06597Y06550*
X06591Y06547*
X06588*
X06587Y06549*
X06582Y06552*
X06576Y06553*
X06551*
X06546Y06552*
X06541Y06549*
X06537Y06544*
X06536Y06538*
Y06505*
X06537Y06499*
X06541Y06494*
X06546Y06491*
X06551Y06490*
X06576*
X06582Y06491*
X06587Y06494*
X06589Y06493*
X06597Y06490*
X06605Y06489*
X06613Y06490*
X06620Y06493*
X06623Y06492*
X06624Y06491*
X06629Y06488*
X06635Y06487*
X06678*
X06684Y06488*
X06689Y06491*
X06690Y06493*
X06694Y06495*
X06696Y06494*
X06698Y06492*
X06702Y06492*
X06718*
Y06522*
Y06551*
X06702*
X06698Y06551*
X06696Y06550*
X06694Y06548*
X06690Y06551*
X06689Y06552*
X06684Y06555*
X06678Y06557*
G37*
G36*
X05722Y06585D02*
X05721Y06585D01*
X05714Y06582*
X05709Y06578*
X05705Y06573*
X05702Y06566*
X05702Y06565*
X05722*
Y06585*
G37*
G36*
X05732D02*
Y06565D01*
X05753*
X05753Y06566*
X05750Y06573*
X05746Y06578*
X05740Y06582*
X05734Y06585*
X05732Y06585*
G37*
G36*
X03460Y06581D02*
Y06561D01*
X03480*
X03480Y06562*
X03477Y06569*
X03473Y06574*
X03468Y06578*
X03462Y06581*
X03460Y06581*
G37*
G36*
X03450D02*
X03448Y06581D01*
X03442Y06578*
X03437Y06574*
X03432Y06569*
X03430Y06562*
X03430Y06561*
X03450*
Y06581*
G37*
G36*
X06745Y06551D02*
X06728D01*
Y06527*
X06755*
Y06541*
X06754Y06545*
X06752Y06548*
X06749Y06551*
X06745Y06551*
G37*
G36*
X06471Y06548D02*
X06464D01*
X06460Y06547*
X06456Y06545*
X06454Y06542*
X06453Y06538*
Y06527*
X06471*
Y06548*
G37*
G36*
X06488D02*
X06481D01*
Y06527*
X06499*
Y06538*
X06498Y06542*
X06496Y06545*
X06492Y06547*
X06488Y06548*
G37*
G36*
X06499Y06517D02*
X06481D01*
Y06495*
X06488*
X06492Y06496*
X06496Y06498*
X06498Y06501*
X06499Y06505*
Y06517*
G37*
G36*
X05753Y06555D02*
X05732D01*
Y06534*
X05734Y06534*
X05740Y06537*
X05746Y06541*
X05750Y06547*
X05753Y06553*
X05753Y06555*
G37*
G36*
X06030D02*
X06009D01*
X06009Y06553*
X06012Y06547*
X06016Y06541*
X06022Y06537*
X06028Y06534*
X06030Y06534*
Y06555*
G37*
G36*
X06060D02*
X06040D01*
Y06534*
X06041Y06534*
X06048Y06537*
X06053Y06541*
X06057Y06547*
X06060Y06553*
X06060Y06555*
G37*
G36*
X03450Y06551D02*
X03430D01*
X03430Y06549*
X03432Y06543*
X03437Y06537*
X03442Y06533*
X03448Y06530*
X03450Y06530*
Y06551*
G37*
G36*
X03480D02*
X03460D01*
Y06530*
X03462Y06530*
X03468Y06533*
X03473Y06537*
X03477Y06543*
X03480Y06549*
X03480Y06551*
G37*
G36*
X05722Y06555D02*
X05702D01*
X05702Y06553*
X05705Y06547*
X05709Y06541*
X05714Y06537*
X05721Y06534*
X05722Y06534*
Y06555*
G37*
G36*
X06030Y06585D02*
X06028Y06585D01*
X06022Y06582*
X06016Y06578*
X06012Y06573*
X06009Y06566*
X06009Y06565*
X06030*
Y06585*
G37*
G36*
X06471Y06648D02*
X06464D01*
X06460Y06647*
X06456Y06645*
X06454Y06642*
X06453Y06638*
Y06627*
X06471*
Y06648*
G37*
G36*
X06488D02*
X06481D01*
Y06627*
X06499*
Y06638*
X06498Y06642*
X06496Y06645*
X06492Y06647*
X06488Y06648*
G37*
G36*
X06678Y06657D02*
X06635D01*
X06629Y06655*
X06624Y06652*
X06621Y06647*
X06616Y06648*
X06613Y06650*
X06605Y06651*
X06597Y06650*
X06591Y06647*
X06588*
X06587Y06649*
X06582Y06652*
X06576Y06653*
X06551*
X06546Y06652*
X06541Y06649*
X06537Y06644*
X06536Y06638*
Y06605*
X06537Y06599*
X06541Y06594*
X06546Y06591*
X06551Y06590*
X06576*
X06582Y06591*
X06587Y06594*
X06589Y06593*
X06597Y06590*
X06605Y06589*
X06613Y06590*
X06620Y06593*
X06623Y06592*
X06624Y06591*
X06629Y06588*
X06635Y06587*
X06678*
X06684Y06588*
X06689Y06591*
X06690Y06593*
X06694Y06595*
X06696Y06594*
X06698Y06592*
X06702Y06592*
X06718*
Y06622*
Y06651*
X06702*
X06698Y06651*
X06696Y06650*
X06694Y06648*
X06690Y06651*
X06689Y06652*
X06684Y06655*
X06678Y06657*
G37*
G36*
X06471Y06717D02*
X06453D01*
Y06705*
X06454Y06701*
X06456Y06698*
X06460Y06696*
X06464Y06695*
X06471*
Y06717*
G37*
G36*
X06499D02*
X06481D01*
Y06695*
X06488*
X06492Y06696*
X06496Y06698*
X06498Y06701*
X06499Y06705*
Y06717*
G37*
G36*
X06755D02*
X06728D01*
Y06692*
X06745*
X06749Y06692*
X06752Y06695*
X06754Y06698*
X06755Y06702*
Y06717*
G37*
G36*
X04200Y06716D02*
X04192Y06715D01*
X04184Y06711*
X04178Y06706*
X04173Y06700*
X04170Y06693*
X04169Y06685*
X04170Y06677*
X04173Y06669*
X04178Y06663*
X04184Y06658*
X04192Y06655*
X04200Y06654*
X04208Y06655*
X04215Y06658*
X04221Y06663*
X04226Y06669*
X04230Y06677*
X04231Y06685*
X04230Y06693*
X04226Y06700*
X04221Y06706*
X04215Y06711*
X04208Y06715*
X04200Y06716*
G37*
G36*
X06830Y06766D02*
X06818Y06765D01*
X06807Y06760*
X06798Y06753*
X06791Y06744*
X06786Y06733*
X06785Y06722*
X06786Y06710*
X06791Y06699*
X06798Y06690*
X06807Y06683*
X06818Y06678*
X06830Y06677*
X06841Y06678*
X06852Y06683*
X06862Y06690*
X06869Y06699*
X06873Y06710*
X06875Y06722*
X06873Y06733*
X06869Y06744*
X06862Y06753*
X06852Y06760*
X06841Y06765*
X06830Y06766*
G37*
G36*
X06755Y06617D02*
X06728D01*
Y06592*
X06745*
X06749Y06592*
X06752Y06595*
X06754Y06598*
X06755Y06602*
Y06617*
G37*
G36*
X06040Y06585D02*
Y06565D01*
X06060*
X06060Y06566*
X06057Y06573*
X06053Y06578*
X06048Y06582*
X06041Y06585*
X06040Y06585*
G37*
G36*
X06830Y06666D02*
X06818Y06665D01*
X06807Y06660*
X06798Y06653*
X06791Y06644*
X06786Y06633*
X06785Y06622*
X06786Y06610*
X06791Y06599*
X06798Y06590*
X06807Y06583*
X06818Y06578*
X06830Y06577*
X06841Y06578*
X06852Y06583*
X06862Y06590*
X06869Y06599*
X06873Y06610*
X06875Y06622*
X06873Y06633*
X06869Y06644*
X06862Y06653*
X06852Y06660*
X06841Y06665*
X06830Y06666*
G37*
G36*
X06471Y06617D02*
X06453D01*
Y06605*
X06454Y06601*
X06456Y06598*
X06460Y06596*
X06464Y06595*
X06471*
Y06617*
G37*
G36*
X04275Y06676D02*
X04267Y06675D01*
X04259Y06671*
X04253Y06666*
X04248Y06660*
X04245Y06653*
X04244Y06645*
X04245Y06637*
X04248Y06629*
X04253Y06623*
X04259Y06618*
X04267Y06615*
X04275Y06614*
X04283Y06615*
X04290Y06618*
X04296Y06623*
X04301Y06629*
X04305Y06637*
X04306Y06645*
X04305Y06653*
X04301Y06660*
X04296Y06666*
X04290Y06671*
X04283Y06675*
X04275Y06676*
G37*
G36*
X06745Y06651D02*
X06728D01*
Y06627*
X06755*
Y06641*
X06754Y06645*
X06752Y06648*
X06749Y06651*
X06745Y06651*
G37*
G36*
X06499Y06617D02*
X06481D01*
Y06595*
X06488*
X06492Y06596*
X06496Y06598*
X06498Y06601*
X06499Y06605*
Y06617*
G37*
G36*
X06471Y06517D02*
X06453D01*
Y06505*
X06454Y06501*
X06456Y06498*
X06460Y06496*
X06464Y06495*
X06471*
Y06517*
G37*
G36*
X06870Y06242D02*
X06835D01*
Y06207*
X06859*
X06863Y06208*
X06867Y06210*
X06869Y06213*
X06870Y06217*
Y06242*
G37*
G36*
X06725D02*
X06691D01*
X06691Y06236*
X06695Y06227*
X06702Y06218*
X06710Y06212*
X06720Y06208*
X06725Y06207*
Y06242*
G37*
G36*
X06825D02*
X06790D01*
Y06217*
X06791Y06213*
X06793Y06210*
X06796Y06208*
X06800Y06207*
X06825*
Y06242*
G37*
G36*
X04490Y06179D02*
Y06145D01*
X04524*
X04523Y06150*
X04519Y06159*
X04513Y06168*
X04504Y06174*
X04495Y06178*
X04490Y06179*
G37*
G36*
X06289Y06238D02*
X06255D01*
Y06204*
X06260Y06205*
X06270Y06209*
X06278Y06215*
X06284Y06223*
X06288Y06233*
X06289Y06238*
G37*
G36*
X06725Y06286D02*
X06720Y06285D01*
X06710Y06281*
X06702Y06275*
X06695Y06266*
X06691Y06257*
X06691Y06252*
X06725*
Y06286*
G37*
G36*
X06735D02*
Y06252D01*
X06769*
X06768Y06257*
X06764Y06266*
X06758Y06275*
X06750Y06281*
X06740Y06285*
X06735Y06286*
G37*
G36*
X06825Y06286D02*
X06800D01*
X06796Y06285*
X06793Y06283*
X06791Y06280*
X06790Y06276*
Y06252*
X06825*
Y06286*
G37*
G36*
X06769Y06242D02*
X06735D01*
Y06207*
X06740Y06208*
X06750Y06212*
X06758Y06218*
X06764Y06227*
X06768Y06236*
X06769Y06242*
G37*
G36*
X06255Y06282D02*
Y06248D01*
X06289*
X06288Y06253*
X06284Y06263*
X06278Y06271*
X06270Y06278*
X06260Y06282*
X06255Y06282*
G37*
G36*
X04480Y06179D02*
X04474Y06178D01*
X04465Y06174*
X04456Y06168*
X04450Y06159*
X04446Y06150*
X04445Y06145*
X04480*
Y06179*
G37*
G36*
X03450Y06145D02*
X03448Y06145D01*
X03442Y06142*
X03437Y06138*
X03432Y06133*
X03430Y06126*
X03430Y06125*
X03450*
Y06145*
G37*
G36*
X03460D02*
Y06125D01*
X03480*
X03480Y06126*
X03477Y06133*
X03473Y06138*
X03468Y06142*
X03462Y06145*
X03460Y06145*
G37*
G36*
X04480Y06135D02*
X04445D01*
X04446Y06129*
X04450Y06120*
X04456Y06111*
X04465Y06105*
X04474Y06101*
X04480Y06100*
Y06135*
G37*
G36*
X04524D02*
X04490D01*
Y06100*
X04495Y06101*
X04504Y06105*
X04513Y06111*
X04519Y06120*
X04523Y06129*
X04524Y06135*
G37*
G36*
X06755Y06517D02*
X06728D01*
Y06492*
X06745*
X06749Y06492*
X06752Y06495*
X06754Y06498*
X06755Y06502*
Y06517*
G37*
G36*
X03045Y06513D02*
Y06493D01*
X03065*
X03065Y06494*
X03062Y06501*
X03058Y06506*
X03053Y06510*
X03047Y06513*
X03045Y06513*
G37*
G36*
X06859Y06566D02*
X06800D01*
X06794Y06565*
X06790Y06562*
X06786Y06557*
X06785Y06551*
Y06492*
X06786Y06486*
X06790Y06481*
X06794Y06478*
X06800Y06477*
X06859*
X06865Y06478*
X06870Y06481*
X06874Y06486*
X06875Y06492*
Y06551*
X06874Y06557*
X06870Y06562*
X06865Y06565*
X06859Y06566*
G37*
G36*
X03065Y06483D02*
X03045D01*
Y06462*
X03047Y06462*
X03053Y06465*
X03058Y06469*
X03062Y06475*
X03065Y06481*
X03065Y06483*
G37*
G36*
X05931Y06483D02*
X05868D01*
X05863Y06482*
X05858Y06479*
X05854Y06474*
X05853Y06468*
Y06405*
X05854Y06399*
X05858Y06394*
X05863Y06391*
X05868Y06390*
X05931*
X05937Y06391*
X05942Y06394*
X05945Y06399*
X05947Y06405*
Y06468*
X05945Y06474*
X05942Y06479*
X05937Y06482*
X05931Y06483*
G37*
G36*
X06769Y06342D02*
X06735D01*
Y06307*
X06740Y06308*
X06750Y06312*
X06758Y06318*
X06764Y06327*
X06768Y06336*
X06769Y06342*
G37*
G36*
X06869D02*
X06835D01*
Y06307*
X06840Y06308*
X06850Y06312*
X06858Y06318*
X06864Y06327*
X06868Y06336*
X06869Y06342*
G37*
G36*
X06825D02*
X06791D01*
X06791Y06336*
X06795Y06327*
X06802Y06318*
X06810Y06312*
X06820Y06308*
X06825Y06307*
Y06342*
G37*
G36*
X06859Y06286D02*
X06835D01*
Y06252*
X06870*
Y06276*
X06869Y06280*
X06867Y06283*
X06863Y06285*
X06859Y06286*
G37*
G36*
X06725Y06342D02*
X06691D01*
X06691Y06336*
X06695Y06327*
X06702Y06318*
X06710Y06312*
X06720Y06308*
X06725Y06307*
Y06342*
G37*
G36*
X06835Y06386D02*
Y06352D01*
X06869*
X06868Y06357*
X06864Y06366*
X06858Y06375*
X06850Y06381*
X06840Y06385*
X06835Y06386*
G37*
G36*
X05800Y06483D02*
X05788Y06482D01*
X05776Y06477*
X05767Y06470*
X05759Y06460*
X05755Y06449*
X05753Y06437*
X05755Y06424*
X05759Y06413*
X05767Y06403*
X05776Y06396*
X05788Y06391*
X05800Y06390*
X05812Y06391*
X05823Y06396*
X05833Y06403*
X05840Y06413*
X05845Y06424*
X05847Y06437*
X05845Y06449*
X05840Y06460*
X05833Y06470*
X05823Y06477*
X05812Y06482*
X05800Y06483*
G37*
G36*
X06735Y06386D02*
Y06352D01*
X06769*
X06768Y06357*
X06764Y06366*
X06758Y06375*
X06750Y06381*
X06740Y06385*
X06735Y06386*
G37*
G36*
X06725D02*
X06720Y06385D01*
X06710Y06381*
X06702Y06375*
X06695Y06366*
X06691Y06357*
X06691Y06352*
X06725*
Y06386*
G37*
G36*
X06825D02*
X06820Y06385D01*
X06810Y06381*
X06802Y06375*
X06795Y06366*
X06791Y06357*
X06791Y06352*
X06825*
Y06386*
G37*
G36*
X06830Y07266D02*
X06818Y07265D01*
X06807Y07260*
X06798Y07253*
X06791Y07244*
X06786Y07233*
X06785Y07222*
X06786Y07210*
X06791Y07199*
X06798Y07190*
X06807Y07183*
X06818Y07178*
X06830Y07177*
X06841Y07178*
X06852Y07183*
X06862Y07190*
X06869Y07199*
X06873Y07210*
X06875Y07222*
X06873Y07233*
X06869Y07244*
X06862Y07253*
X06852Y07260*
X06841Y07265*
X06830Y07266*
G37*
G36*
X06678Y07157D02*
X06635D01*
X06629Y07155*
X06624Y07152*
X06621Y07147*
X06616Y07148*
X06613Y07150*
X06605Y07151*
X06597Y07150*
X06591Y07147*
X06588*
X06587Y07149*
X06582Y07152*
X06576Y07153*
X06551*
X06546Y07152*
X06541Y07149*
X06537Y07144*
X06536Y07138*
Y07105*
X06537Y07099*
X06541Y07094*
X06546Y07091*
X06551Y07090*
X06576*
X06582Y07091*
X06587Y07094*
X06589Y07093*
X06597Y07090*
X06605Y07089*
X06613Y07090*
X06620Y07093*
X06623Y07092*
X06624Y07091*
X06629Y07088*
X06635Y07087*
X06678*
X06684Y07088*
X06689Y07091*
X06690Y07093*
X06694Y07095*
X06696Y07094*
X06698Y07092*
X06702Y07092*
X06718*
Y07122*
Y07151*
X06702*
X06698Y07151*
X06696Y07150*
X06694Y07148*
X06690Y07151*
X06689Y07152*
X06684Y07155*
X06678Y07157*
G37*
G36*
X06471Y07148D02*
X06464D01*
X06460Y07147*
X06456Y07145*
X06454Y07142*
X06453Y07138*
Y07127*
X06471*
Y07148*
G37*
G36*
X06488D02*
X06481D01*
Y07127*
X06499*
Y07138*
X06498Y07142*
X06496Y07145*
X06492Y07147*
X06488Y07148*
G37*
G36*
X06755Y07217D02*
X06728D01*
Y07192*
X06745*
X06749Y07192*
X06752Y07195*
X06754Y07198*
X06755Y07202*
Y07217*
G37*
G36*
X06745Y07251D02*
X06728D01*
Y07227*
X06755*
Y07241*
X06754Y07245*
X06752Y07248*
X06749Y07251*
X06745Y07251*
G37*
G36*
X06471Y07248D02*
X06464D01*
X06460Y07247*
X06456Y07245*
X06454Y07242*
X06453Y07238*
Y07227*
X06471*
Y07248*
G37*
G36*
X05344Y07235D02*
X05323D01*
Y07214*
X05325Y07214*
X05331Y07217*
X05337Y07221*
X05341Y07227*
X05343Y07233*
X05344Y07235*
G37*
G36*
X06471Y07217D02*
X06453D01*
Y07205*
X06454Y07201*
X06456Y07198*
X06460Y07196*
X06464Y07195*
X06471*
Y07217*
G37*
G36*
X06499D02*
X06481D01*
Y07195*
X06488*
X06492Y07196*
X06496Y07198*
X06498Y07201*
X06499Y07205*
Y07217*
G37*
G36*
X01400Y07129D02*
X01375D01*
X01371Y07128*
X01368Y07126*
X01366Y07123*
X01365Y07119*
Y07095*
X01400*
Y07129*
G37*
G36*
X06471Y07117D02*
X06453D01*
Y07105*
X06454Y07101*
X06456Y07098*
X06460Y07096*
X06464Y07095*
X06471*
Y07117*
G37*
G36*
X06755D02*
X06728D01*
Y07092*
X06745*
X06749Y07092*
X06752Y07095*
X06754Y07098*
X06755Y07102*
Y07117*
G37*
G36*
X05315Y07100D02*
X05294D01*
X05294Y07098*
X05297Y07092*
X05301Y07086*
X05307Y07082*
X05313Y07079*
X05315Y07079*
Y07100*
G37*
G36*
X05345D02*
X05325D01*
Y07079*
X05326Y07079*
X05333Y07082*
X05338Y07086*
X05342Y07092*
X05345Y07098*
X05345Y07100*
G37*
G36*
X06499Y07117D02*
X06481D01*
Y07095*
X06488*
X06492Y07096*
X06496Y07098*
X06498Y07101*
X06499Y07105*
Y07117*
G37*
G36*
X06745Y07151D02*
X06728D01*
Y07127*
X06755*
Y07141*
X06754Y07145*
X06752Y07148*
X06749Y07151*
X06745Y07151*
G37*
G36*
X05315Y07130D02*
X05313Y07130D01*
X05307Y07127*
X05301Y07123*
X05297Y07118*
X05294Y07111*
X05294Y07110*
X05315*
Y07130*
G37*
G36*
X05325D02*
Y07110D01*
X05345*
X05345Y07111*
X05342Y07118*
X05338Y07123*
X05333Y07127*
X05326Y07130*
X05325Y07130*
G37*
G36*
X01445Y07858D02*
X01410D01*
Y07823*
X01434*
X01438Y07824*
X01442Y07826*
X01444Y07829*
X01445Y07833*
Y07858*
G37*
G36*
X01400Y07902D02*
X01375D01*
X01371Y07902*
X01368Y07899*
X01366Y07896*
X01365Y07892*
Y07868*
X01400*
Y07902*
G37*
G36*
Y07858D02*
X01365D01*
Y07833*
X01366Y07829*
X01368Y07826*
X01371Y07824*
X01375Y07823*
X01400*
Y07858*
G37*
G36*
X06830Y07536D02*
X06818Y07535D01*
X06807Y07530*
X06798Y07523*
X06791Y07514*
X06786Y07503*
X06785Y07492*
X06786Y07480*
X06791Y07469*
X06798Y07460*
X06807Y07453*
X06818Y07448*
X06830Y07447*
X06841Y07448*
X06852Y07453*
X06862Y07460*
X06869Y07469*
X06873Y07480*
X06875Y07492*
X06873Y07503*
X06869Y07514*
X06862Y07523*
X06852Y07530*
X06841Y07535*
X06830Y07536*
G37*
G36*
X04475Y07657D02*
X04463Y07655D01*
X04452Y07651*
X04443Y07644*
X04436Y07634*
X04431Y07623*
X04429Y07612*
X04431Y07600*
X04436Y07589*
X04443Y07579*
X04452Y07572*
X04463Y07568*
X04475Y07566*
X04487Y07568*
X04498Y07572*
X04507Y07579*
X04514Y07589*
X04519Y07600*
X04520Y07612*
X04519Y07623*
X04514Y07634*
X04507Y07644*
X04498Y07651*
X04487Y07655*
X04475Y07657*
G37*
G36*
X01434Y07902D02*
X01410D01*
Y07868*
X01445*
Y07892*
X01444Y07896*
X01442Y07899*
X01438Y07902*
X01434Y07902*
G37*
G36*
X01405Y08308D02*
X01393Y08306D01*
X01382Y08302*
X01373Y08294*
X01366Y08285*
X01361Y08274*
X01360Y08263*
X01361Y08251*
X01366Y08240*
X01373Y08231*
X01382Y08224*
X01393Y08219*
X01405Y08218*
X01416Y08219*
X01427Y08224*
X01437Y08231*
X01444Y08240*
X01448Y08251*
X01450Y08263*
X01448Y08274*
X01444Y08285*
X01437Y08294*
X01427Y08302*
X01416Y08306*
X01405Y08308*
G37*
G36*
Y08408D02*
X01393Y08406D01*
X01382Y08402*
X01373Y08394*
X01366Y08385*
X01361Y08374*
X01360Y08363*
X01361Y08351*
X01366Y08340*
X01373Y08331*
X01382Y08324*
X01393Y08319*
X01405Y08318*
X01416Y08319*
X01427Y08324*
X01437Y08331*
X01444Y08340*
X01448Y08351*
X01450Y08363*
X01448Y08374*
X01444Y08385*
X01437Y08394*
X01427Y08402*
X01416Y08406*
X01405Y08408*
G37*
G36*
Y08208D02*
X01393Y08206D01*
X01382Y08202*
X01373Y08194*
X01366Y08185*
X01361Y08174*
X01360Y08163*
X01361Y08151*
X01366Y08140*
X01373Y08131*
X01382Y08124*
X01393Y08119*
X01405Y08118*
X01416Y08119*
X01427Y08124*
X01437Y08131*
X01444Y08140*
X01448Y08151*
X01450Y08163*
X01448Y08174*
X01444Y08185*
X01437Y08194*
X01427Y08202*
X01416Y08206*
X01405Y08208*
G37*
G36*
Y08008D02*
X01393Y08006D01*
X01382Y08002*
X01373Y07994*
X01366Y07985*
X01361Y07974*
X01360Y07963*
X01361Y07951*
X01366Y07940*
X01373Y07931*
X01382Y07924*
X01393Y07919*
X01405Y07918*
X01416Y07919*
X01427Y07924*
X01437Y07931*
X01444Y07940*
X01448Y07951*
X01450Y07963*
X01448Y07974*
X01444Y07985*
X01437Y07994*
X01427Y08002*
X01416Y08006*
X01405Y08008*
G37*
G36*
Y08108D02*
X01393Y08106D01*
X01382Y08102*
X01373Y08094*
X01366Y08085*
X01361Y08074*
X01360Y08063*
X01361Y08051*
X01366Y08040*
X01373Y08031*
X01382Y08024*
X01393Y08019*
X01405Y08018*
X01416Y08019*
X01427Y08024*
X01437Y08031*
X01444Y08040*
X01448Y08051*
X01450Y08063*
X01448Y08074*
X01444Y08085*
X01437Y08094*
X01427Y08102*
X01416Y08106*
X01405Y08108*
G37*
G36*
X06678Y07257D02*
X06635D01*
X06629Y07255*
X06624Y07252*
X06621Y07247*
X06616Y07248*
X06613Y07250*
X06605Y07251*
X06597Y07250*
X06591Y07247*
X06588*
X06587Y07249*
X06582Y07252*
X06576Y07253*
X06551*
X06546Y07252*
X06541Y07249*
X06537Y07244*
X06536Y07238*
Y07205*
X06537Y07199*
X06541Y07194*
X06546Y07191*
X06551Y07190*
X06576*
X06582Y07191*
X06587Y07194*
X06589Y07193*
X06597Y07190*
X06605Y07189*
X06613Y07190*
X06620Y07193*
X06623Y07192*
X06624Y07191*
X06629Y07188*
X06635Y07187*
X06678*
X06684Y07188*
X06689Y07191*
X06690Y07193*
X06694Y07195*
X06696Y07194*
X06698Y07192*
X06702Y07192*
X06718*
Y07222*
Y07251*
X06702*
X06698Y07251*
X06696Y07250*
X06694Y07248*
X06690Y07251*
X06689Y07252*
X06684Y07255*
X06678Y07257*
G37*
G36*
X06488Y07248D02*
X06481D01*
Y07227*
X06499*
Y07238*
X06498Y07242*
X06496Y07245*
X06492Y07247*
X06488Y07248*
G37*
G36*
X05323Y07265D02*
Y07245D01*
X05344*
X05343Y07246*
X05341Y07253*
X05337Y07258*
X05331Y07262*
X05325Y07265*
X05323Y07265*
G37*
G36*
X06859Y07436D02*
X06800D01*
X06794Y07435*
X06790Y07432*
X06786Y07427*
X06785Y07421*
Y07362*
X06786Y07356*
X06790Y07351*
X06794Y07348*
X06800Y07347*
X06859*
X06865Y07348*
X06870Y07351*
X06874Y07356*
X06875Y07362*
Y07421*
X06874Y07427*
X06870Y07432*
X06865Y07435*
X06859Y07436*
G37*
G36*
X06730Y07536D02*
X06718Y07535D01*
X06707Y07530*
X06698Y07523*
X06691Y07514*
X06686Y07503*
X06685Y07492*
X06686Y07480*
X06691Y07469*
X06698Y07460*
X06707Y07453*
X06718Y07448*
X06730Y07447*
X06741Y07448*
X06752Y07453*
X06762Y07460*
X06769Y07469*
X06773Y07480*
X06775Y07492*
X06773Y07503*
X06769Y07514*
X06762Y07523*
X06752Y07530*
X06741Y07535*
X06730Y07536*
G37*
G36*
Y07436D02*
X06718Y07435D01*
X06707Y07430*
X06698Y07423*
X06691Y07414*
X06686Y07403*
X06685Y07392*
X06686Y07380*
X06691Y07369*
X06698Y07360*
X06707Y07353*
X06718Y07348*
X06730Y07347*
X06741Y07348*
X06752Y07353*
X06762Y07360*
X06769Y07369*
X06773Y07380*
X06775Y07392*
X06773Y07403*
X06769Y07414*
X06762Y07423*
X06752Y07430*
X06741Y07435*
X06730Y07436*
G37*
G36*
X06830Y07166D02*
X06818Y07165D01*
X06807Y07160*
X06798Y07153*
X06791Y07144*
X06786Y07133*
X06785Y07122*
X06786Y07110*
X06791Y07099*
X06798Y07090*
X06807Y07083*
X06818Y07078*
X06830Y07077*
X06841Y07078*
X06852Y07083*
X06862Y07090*
X06869Y07099*
X06873Y07110*
X06875Y07122*
X06873Y07133*
X06869Y07144*
X06862Y07153*
X06852Y07160*
X06841Y07165*
X06830Y07166*
G37*
G36*
X03488Y06904D02*
Y06884D01*
X03508*
X03508Y06885*
X03505Y06892*
X03501Y06897*
X03496Y06901*
X03489Y06904*
X03488Y06904*
G37*
G36*
X02995Y06941D02*
X02987Y06940D01*
X02979Y06936*
X02973Y06931*
X02968Y06925*
X02965Y06918*
X02964Y06910*
X02965Y06902*
X02968Y06894*
X02969Y06892*
Y06513*
X02965Y06509*
X02960Y06503*
X02957Y06496*
X02956Y06488*
X02957Y06480*
X02960Y06472*
X02965Y06466*
X02971Y06461*
X02979Y06458*
X02987Y06457*
X02995Y06458*
X03002Y06461*
X03008Y06466*
X03013Y06472*
X03019Y06472*
X03022Y06469*
X03027Y06465*
X03033Y06462*
X03035Y06462*
Y06488*
Y06513*
X03033Y06513*
X03027Y06510*
X03025Y06509*
X03020Y06511*
Y06887*
X03025Y06889*
X03027Y06888*
X03033Y06885*
X03035Y06885*
Y06911*
Y06936*
X03033Y06936*
X03027Y06933*
X03024Y06930*
X03017Y06931*
X03016Y06931*
X03010Y06936*
X03003Y06940*
X02995Y06941*
G37*
G36*
X03478Y06904D02*
X03476Y06904D01*
X03470Y06901*
X03464Y06897*
X03460Y06892*
X03457Y06885*
X03457Y06884*
X03478*
Y06904*
G37*
G36*
X06678Y06857D02*
X06635D01*
X06629Y06855*
X06624Y06852*
X06621Y06847*
X06616Y06848*
X06613Y06850*
X06605Y06851*
X06597Y06850*
X06591Y06847*
X06588*
X06587Y06849*
X06582Y06852*
X06576Y06853*
X06551*
X06546Y06852*
X06541Y06849*
X06537Y06844*
X06536Y06838*
Y06805*
X06537Y06799*
X06541Y06794*
X06546Y06791*
X06551Y06790*
X06576*
X06582Y06791*
X06587Y06794*
X06589Y06793*
X06597Y06790*
X06605Y06789*
X06613Y06790*
X06620Y06793*
X06623Y06792*
X06624Y06791*
X06629Y06788*
X06635Y06787*
X06678*
X06684Y06788*
X06689Y06791*
X06690Y06793*
X06694Y06795*
X06696Y06794*
X06698Y06792*
X06702Y06792*
X06718*
Y06822*
Y06851*
X06702*
X06698Y06851*
X06696Y06850*
X06694Y06848*
X06690Y06851*
X06689Y06852*
X06684Y06855*
X06678Y06857*
G37*
G36*
X06830Y06966D02*
X06818Y06965D01*
X06807Y06960*
X06798Y06953*
X06791Y06944*
X06786Y06933*
X06785Y06922*
X06786Y06910*
X06791Y06899*
X06798Y06890*
X06807Y06883*
X06818Y06878*
X06830Y06877*
X06841Y06878*
X06852Y06883*
X06862Y06890*
X06869Y06899*
X06873Y06910*
X06875Y06922*
X06873Y06933*
X06869Y06944*
X06862Y06953*
X06852Y06960*
X06841Y06965*
X06830Y06966*
G37*
G36*
X03065Y06906D02*
X03045D01*
Y06885*
X03047Y06885*
X03053Y06888*
X03058Y06892*
X03062Y06898*
X03065Y06904*
X03065Y06906*
G37*
G36*
X03245Y06940D02*
X03224D01*
X03224Y06938*
X03227Y06932*
X03231Y06926*
X03237Y06922*
X03243Y06919*
X03245Y06919*
Y06940*
G37*
G36*
X03275D02*
X03255D01*
Y06919*
X03256Y06919*
X03263Y06922*
X03268Y06926*
X03272Y06932*
X03275Y06938*
X03275Y06940*
G37*
G36*
X03045Y06936D02*
Y06916D01*
X03065*
X03065Y06917*
X03062Y06924*
X03058Y06929*
X03053Y06933*
X03047Y06936*
X03045Y06936*
G37*
G36*
X06755Y06917D02*
X06728D01*
Y06892*
X06745*
X06749Y06892*
X06752Y06895*
X06754Y06898*
X06755Y06902*
Y06917*
G37*
G36*
X06499D02*
X06481D01*
Y06895*
X06488*
X06492Y06896*
X06496Y06898*
X06498Y06901*
X06499Y06905*
Y06917*
G37*
G36*
X06678Y06757D02*
X06635D01*
X06629Y06755*
X06624Y06752*
X06621Y06747*
X06616Y06748*
X06613Y06750*
X06605Y06751*
X06597Y06750*
X06591Y06747*
X06588*
X06587Y06749*
X06582Y06752*
X06576Y06753*
X06551*
X06546Y06752*
X06541Y06749*
X06537Y06744*
X06536Y06738*
Y06705*
X06537Y06699*
X06541Y06694*
X06546Y06691*
X06551Y06690*
X06576*
X06582Y06691*
X06587Y06694*
X06589Y06693*
X06597Y06690*
X06605Y06689*
X06613Y06690*
X06620Y06693*
X06623Y06692*
X06624Y06691*
X06629Y06688*
X06635Y06687*
X06678*
X06684Y06688*
X06689Y06691*
X06690Y06693*
X06694Y06695*
X06696Y06694*
X06698Y06692*
X06702Y06692*
X06718*
Y06722*
Y06751*
X06702*
X06698Y06751*
X06696Y06750*
X06694Y06748*
X06690Y06751*
X06689Y06752*
X06684Y06755*
X06678Y06757*
G37*
G36*
X06830Y06866D02*
X06818Y06865D01*
X06807Y06860*
X06798Y06853*
X06791Y06844*
X06786Y06833*
X06785Y06822*
X06786Y06810*
X06791Y06799*
X06798Y06790*
X06807Y06783*
X06818Y06778*
X06830Y06777*
X06841Y06778*
X06852Y06783*
X06862Y06790*
X06869Y06799*
X06873Y06810*
X06875Y06822*
X06873Y06833*
X06869Y06844*
X06862Y06853*
X06852Y06860*
X06841Y06865*
X06830Y06866*
G37*
G36*
X06488Y06748D02*
X06481D01*
Y06727*
X06499*
Y06738*
X06498Y06742*
X06496Y06745*
X06492Y06747*
X06488Y06748*
G37*
G36*
X06745Y06751D02*
X06728D01*
Y06727*
X06755*
Y06741*
X06754Y06745*
X06752Y06748*
X06749Y06751*
X06745Y06751*
G37*
G36*
X06471Y06748D02*
X06464D01*
X06460Y06747*
X06456Y06745*
X06454Y06742*
X06453Y06738*
Y06727*
X06471*
Y06748*
G37*
G36*
X03850Y06810D02*
X03848Y06810D01*
X03842Y06807*
X03836Y06803*
X03832Y06798*
X03829Y06791*
X03829Y06790*
X03850*
Y06810*
G37*
G36*
X06745Y06851D02*
X06728D01*
Y06827*
X06755*
Y06841*
X06754Y06845*
X06752Y06848*
X06749Y06851*
X06745Y06851*
G37*
G36*
X06488Y06848D02*
X06481D01*
Y06827*
X06499*
Y06838*
X06498Y06842*
X06496Y06845*
X06492Y06847*
X06488Y06848*
G37*
G36*
X06499Y06817D02*
X06481D01*
Y06795*
X06488*
X06492Y06796*
X06496Y06798*
X06498Y06801*
X06499Y06805*
Y06817*
G37*
G36*
X03860Y06810D02*
Y06790D01*
X03880*
X03880Y06791*
X03877Y06798*
X03873Y06803*
X03868Y06807*
X03861Y06810*
X03860Y06810*
G37*
G36*
X06755Y06817D02*
X06728D01*
Y06792*
X06745*
X06749Y06792*
X06752Y06795*
X06754Y06798*
X06755Y06802*
Y06817*
G37*
G36*
X05323Y07020D02*
Y07000D01*
X05344*
X05343Y07001*
X05341Y07008*
X05337Y07013*
X05331Y07017*
X05325Y07020*
X05323Y07020*
G37*
G36*
X06499Y07017D02*
X06481D01*
Y06995*
X06488*
X06492Y06996*
X06496Y06998*
X06498Y07001*
X06499Y07005*
Y07017*
G37*
G36*
X05313Y07020D02*
X05312Y07020D01*
X05305Y07017*
X05300Y07013*
X05296Y07008*
X05293Y07001*
X05293Y07000*
X05313*
Y07020*
G37*
G36*
X06745Y07051D02*
X06728D01*
Y07027*
X06755*
Y07041*
X06754Y07045*
X06752Y07048*
X06749Y07051*
X06745Y07051*
G37*
G36*
X01400Y07085D02*
X01365D01*
Y07060*
X01366Y07056*
X01368Y07053*
X01371Y07051*
X01375Y07050*
X01400*
Y07085*
G37*
G36*
X06488Y07048D02*
X06481D01*
Y07027*
X06499*
Y07038*
X06498Y07042*
X06496Y07045*
X06492Y07047*
X06488Y07048*
G37*
G36*
X06678Y07057D02*
X06635D01*
X06629Y07055*
X06624Y07052*
X06621Y07047*
X06616Y07048*
X06613Y07050*
X06605Y07051*
X06597Y07050*
X06591Y07047*
X06588*
X06587Y07049*
X06582Y07052*
X06576Y07053*
X06551*
X06546Y07052*
X06541Y07049*
X06537Y07044*
X06536Y07038*
Y07005*
X06537Y06999*
X06541Y06994*
X06546Y06991*
X06551Y06990*
X06576*
X06582Y06991*
X06587Y06994*
X06589Y06993*
X06597Y06990*
X06605Y06989*
X06613Y06990*
X06620Y06993*
X06623Y06992*
X06624Y06991*
X06629Y06988*
X06635Y06987*
X06678*
X06684Y06988*
X06689Y06991*
X06690Y06993*
X06694Y06995*
X06696Y06994*
X06698Y06992*
X06702Y06992*
X06718*
Y07022*
Y07051*
X06702*
X06698Y07051*
X06696Y07050*
X06694Y07048*
X06690Y07051*
X06689Y07052*
X06684Y07055*
X06678Y07057*
G37*
G36*
X06488Y06948D02*
X06481D01*
Y06927*
X06499*
Y06938*
X06498Y06942*
X06496Y06945*
X06492Y06947*
X06488Y06948*
G37*
G36*
X06678Y06957D02*
X06635D01*
X06629Y06955*
X06624Y06952*
X06621Y06947*
X06616Y06948*
X06613Y06950*
X06605Y06951*
X06597Y06950*
X06591Y06947*
X06588*
X06587Y06949*
X06582Y06952*
X06576Y06953*
X06551*
X06546Y06952*
X06541Y06949*
X06537Y06944*
X06536Y06938*
Y06905*
X06537Y06899*
X06541Y06894*
X06546Y06891*
X06551Y06890*
X06576*
X06582Y06891*
X06587Y06894*
X06589Y06893*
X06597Y06890*
X06605Y06889*
X06613Y06890*
X06620Y06893*
X06623Y06892*
X06624Y06891*
X06629Y06888*
X06635Y06887*
X06678*
X06684Y06888*
X06689Y06891*
X06690Y06893*
X06694Y06895*
X06696Y06894*
X06698Y06892*
X06702Y06892*
X06718*
Y06922*
Y06951*
X06702*
X06698Y06951*
X06696Y06950*
X06694Y06948*
X06690Y06951*
X06689Y06952*
X06684Y06955*
X06678Y06957*
G37*
G36*
X06745Y06951D02*
X06728D01*
Y06927*
X06755*
Y06941*
X06754Y06945*
X06752Y06948*
X06749Y06951*
X06745Y06951*
G37*
G36*
X03351Y06940D02*
X03330D01*
X03330Y06938*
X03333Y06932*
X03337Y06926*
X03343Y06922*
X03349Y06919*
X03351Y06919*
Y06940*
G37*
G36*
X03381D02*
X03361D01*
Y06919*
X03362Y06919*
X03369Y06922*
X03374Y06926*
X03378Y06932*
X03381Y06938*
X03381Y06940*
G37*
G36*
X03245Y06970D02*
X03243Y06970D01*
X03237Y06967*
X03231Y06963*
X03227Y06958*
X03224Y06951*
X03224Y06950*
X03245*
Y06970*
G37*
G36*
X06830Y07066D02*
X06818Y07065D01*
X06807Y07060*
X06798Y07053*
X06791Y07044*
X06786Y07033*
X06785Y07022*
X06786Y07010*
X06791Y06999*
X06798Y06990*
X06807Y06983*
X06818Y06978*
X06830Y06977*
X06841Y06978*
X06852Y06983*
X06862Y06990*
X06869Y06999*
X06873Y07010*
X06875Y07022*
X06873Y07033*
X06869Y07044*
X06862Y07053*
X06852Y07060*
X06841Y07065*
X06830Y07066*
G37*
G36*
X06755Y07017D02*
X06728D01*
Y06992*
X06745*
X06749Y06992*
X06752Y06995*
X06754Y06998*
X06755Y07002*
Y07017*
G37*
G36*
X03361Y06970D02*
Y06950D01*
X03381*
X03381Y06951*
X03378Y06958*
X03374Y06963*
X03369Y06967*
X03362Y06970*
X03361Y06970*
G37*
G36*
X03255D02*
Y06950D01*
X03275*
X03275Y06951*
X03272Y06958*
X03268Y06963*
X03263Y06967*
X03256Y06970*
X03255Y06970*
G37*
G36*
X03351D02*
X03349Y06970D01*
X03343Y06967*
X03337Y06963*
X03333Y06958*
X03330Y06951*
X03330Y06950*
X03351*
Y06970*
G37*
G36*
X04470Y07307D02*
X04435D01*
X04436Y07301*
X04440Y07291*
X04446Y07283*
X04455Y07277*
X04464Y07273*
X04470Y07272*
Y07307*
G37*
G36*
X04515D02*
X04480D01*
Y07272*
X04485Y07273*
X04495Y07277*
X04503Y07283*
X04510Y07291*
X04514Y07301*
X04515Y07307*
G37*
G36*
X04470Y07351D02*
X04464Y07351D01*
X04455Y07346*
X04446Y07340*
X04440Y07332*
X04436Y07322*
X04435Y07317*
X04470*
Y07351*
G37*
G36*
X04480D02*
Y07317D01*
X04515*
X04514Y07322*
X04510Y07332*
X04503Y07340*
X04495Y07346*
X04485Y07351*
X04480Y07351*
G37*
G36*
X04635Y06470D02*
X04633Y06470D01*
X04627Y06467*
X04621Y06463*
X04617Y06458*
X04614Y06451*
X04614Y06450*
X04635*
Y06470*
G37*
G36*
Y06440D02*
X04614D01*
X04614Y06438*
X04617Y06432*
X04621Y06426*
X04627Y06422*
X04633Y06419*
X04635Y06419*
Y06440*
G37*
G36*
X04665D02*
X04645D01*
Y06419*
X04646Y06419*
X04653Y06422*
X04658Y06426*
X04662Y06432*
X04665Y06438*
X04665Y06440*
G37*
G36*
X01835Y06585D02*
X01800D01*
X01801Y06579*
X01805Y06570*
X01811Y06561*
X01820Y06555*
X01829Y06551*
X01835Y06550*
Y06585*
G37*
G36*
X01879D02*
X01845D01*
Y06550*
X01850Y06551*
X01859Y06555*
X01868Y06561*
X01874Y06570*
X01878Y06579*
X01879Y06585*
G37*
G36*
X01500Y06531D02*
X01475D01*
X01471Y06530*
X01468Y06528*
X01466Y06525*
X01465Y06521*
Y06497*
X01500*
Y06531*
G37*
G36*
X01534D02*
X01510D01*
Y06497*
X01545*
Y06521*
X01544Y06525*
X01542Y06528*
X01538Y06530*
X01534Y06531*
G37*
G36*
X01405Y06736D02*
X01393Y06735D01*
X01382Y06730*
X01373Y06723*
X01366Y06714*
X01361Y06703*
X01360Y06692*
X01361Y06680*
X01366Y06669*
X01373Y06660*
X01382Y06653*
X01393Y06648*
X01405Y06647*
X01416Y06648*
X01427Y06653*
X01437Y06660*
X01444Y06669*
X01448Y06680*
X01450Y06692*
X01448Y06703*
X01444Y06714*
X01437Y06723*
X01427Y06730*
X01416Y06735*
X01405Y06736*
G37*
G36*
X01835Y06629D02*
X01829Y06628D01*
X01820Y06624*
X01811Y06618*
X01805Y06609*
X01801Y06600*
X01800Y06595*
X01835*
Y06629*
G37*
G36*
X01845D02*
Y06595D01*
X01879*
X01878Y06600*
X01874Y06609*
X01868Y06618*
X01859Y06624*
X01850Y06628*
X01845Y06629*
G37*
G36*
X01500Y06487D02*
X01465D01*
Y06462*
X01466Y06458*
X01468Y06455*
X01471Y06453*
X01475Y06452*
X01500*
Y06487*
G37*
G36*
X01869Y06534D02*
X01810D01*
X01804Y06533*
X01799Y06530*
X01796Y06525*
X01795Y06519*
Y06460*
X01796Y06454*
X01799Y06449*
X01804Y06446*
X01810Y06445*
X01869*
X01875Y06446*
X01880Y06449*
X01883Y06454*
X01884Y06460*
Y06519*
X01883Y06525*
X01880Y06530*
X01875Y06533*
X01869Y06534*
G37*
G36*
X01545Y06487D02*
X01510D01*
Y06452*
X01534*
X01538Y06453*
X01542Y06455*
X01544Y06458*
X01545Y06462*
Y06487*
G37*
G36*
X02875Y07340D02*
X02854D01*
X02854Y07338*
X02857Y07332*
X02861Y07326*
X02867Y07322*
X02873Y07319*
X02875Y07319*
Y07340*
G37*
G36*
X01580Y05730D02*
Y05710D01*
X01600*
X01600Y05711*
X01597Y05718*
X01593Y05723*
X01588Y05727*
X01581Y05730*
X01580Y05730*
G37*
G36*
X01505Y05801D02*
X01493Y05800D01*
X01482Y05795*
X01473Y05788*
X01466Y05779*
X01461Y05768*
X01460Y05757*
X01461Y05745*
X01466Y05734*
X01473Y05725*
X01482Y05718*
X01493Y05713*
X01505Y05712*
X01516Y05713*
X01527Y05718*
X01537Y05725*
X01544Y05734*
X01548Y05745*
X01550Y05757*
X01548Y05768*
X01544Y05779*
X01537Y05788*
X01527Y05795*
X01516Y05800*
X01505Y05801*
G37*
G36*
X01570Y05730D02*
X01568Y05730D01*
X01562Y05727*
X01556Y05723*
X01552Y05718*
X01549Y05711*
X01549Y05710*
X01570*
Y05730*
G37*
G36*
Y05700D02*
X01549D01*
X01549Y05698*
X01552Y05692*
X01556Y05686*
X01562Y05682*
X01568Y05679*
X01570Y05679*
Y05700*
G37*
G36*
X01600D02*
X01580D01*
Y05679*
X01581Y05679*
X01588Y05682*
X01593Y05686*
X01597Y05692*
X01600Y05698*
X01600Y05700*
G37*
G36*
X02800Y06650D02*
Y06630D01*
X02820*
X02820Y06631*
X02817Y06638*
X02813Y06643*
X02808Y06647*
X02801Y06650*
X02800Y06650*
G37*
G36*
X02790D02*
X02788Y06650D01*
X02782Y06647*
X02776Y06643*
X02772Y06638*
X02769Y06631*
X02769Y06630*
X02790*
Y06650*
G37*
G36*
X02820Y06620D02*
X02800D01*
Y06599*
X02801Y06599*
X02808Y06602*
X02813Y06606*
X02817Y06612*
X02820Y06618*
X02820Y06620*
G37*
G36*
X02790D02*
X02769D01*
X02769Y06618*
X02772Y06612*
X02776Y06606*
X02782Y06602*
X02788Y06599*
X02790Y06599*
Y06620*
G37*
G36*
X03035Y07170D02*
X03033Y07170D01*
X03027Y07168*
X03022Y07163*
X03017Y07158*
X03015Y07152*
X03015Y07150*
X03035*
Y07170*
G37*
G36*
X03423Y07140D02*
X03403D01*
Y07120*
X03404Y07120*
X03411Y07123*
X03416Y07127*
X03420Y07132*
X03423Y07138*
X03423Y07140*
G37*
G36*
X03035D02*
X03015D01*
X03015Y07138*
X03017Y07132*
X03022Y07127*
X03027Y07123*
X03033Y07120*
X03035Y07120*
Y07140*
G37*
G36*
X02790Y07040D02*
X02769D01*
X02769Y07038*
X02772Y07032*
X02776Y07026*
X02782Y07022*
X02788Y07019*
X02790Y07019*
Y07040*
G37*
G36*
X02820D02*
X02800D01*
Y07019*
X02801Y07019*
X02808Y07022*
X02813Y07026*
X02817Y07032*
X02820Y07038*
X02820Y07040*
G37*
G36*
X02800Y07070D02*
Y07050D01*
X02820*
X02820Y07051*
X02817Y07058*
X02813Y07063*
X02808Y07067*
X02801Y07070*
X02800Y07070*
G37*
G36*
X02790D02*
X02788Y07070D01*
X02782Y07067*
X02776Y07063*
X02772Y07058*
X02769Y07051*
X02769Y07050*
X02790*
Y07070*
G37*
G36*
X01444Y06152D02*
X01410D01*
Y06117*
X01415Y06118*
X01425Y06122*
X01433Y06128*
X01439Y06137*
X01443Y06146*
X01444Y06152*
G37*
%LNde-130817-3*%
%LPD*%
G54D12*
X06656Y06522D03*
X06723D03*
X06656Y06622D03*
X06723D03*
X06656Y06722D03*
X06723D03*
X06656Y06822D03*
X06723D03*
X06656Y06922D03*
X06723D03*
X06656Y07022D03*
X06723D03*
X06656Y07122D03*
X06723D03*
X06656Y07222D03*
X06723D03*
G54D31*
X04945Y06150D03*
X04485Y06140D03*
Y06240D03*
X04585Y06140D03*
Y06240D03*
X04685Y06140D03*
X01840Y06590D03*
Y06690D03*
Y06790D03*
Y06890D03*
X01405Y06157D03*
X01505D03*
X01405Y06057D03*
X01505D03*
X01405Y05957D03*
X01505D03*
X01405Y05857D03*
X01505D03*
X01405Y05757D03*
X01505D03*
X01405Y05657D03*
X01505D03*
X01405Y05557D03*
Y06492D03*
X01505Y06592D03*
X01405D03*
X01505Y06692D03*
X01405D03*
X01505Y06792D03*
X01405D03*
X05125Y06687D03*
Y06787D03*
Y06887D03*
Y06987D03*
X06730Y07392D03*
X06830Y07492D03*
X06730D03*
X06830Y07222D03*
Y07122D03*
Y07022D03*
Y06922D03*
Y06822D03*
Y06722D03*
Y06622D03*
X06730Y06247D03*
X06830Y06347D03*
X06730D03*
X01405Y07590D03*
Y07490D03*
Y07390D03*
Y07290D03*
Y07190D03*
Y08363D03*
Y08263D03*
Y08163D03*
Y08063D03*
Y07963D03*
X04885Y03455D03*
X04785Y03355D03*
X04885D03*
X04785Y03255D03*
X04885D03*
X04785Y03155D03*
X04885D03*
X04785Y03055D03*
X04885D03*
X04785Y02955D03*
X04885D03*
X04785Y02855D03*
X04885D03*
X04785Y02755D03*
X04885D03*
X04785Y02655D03*
X04885D03*
X06250Y06243D03*
G54D36*
X03285Y02335D02*
X03340Y02280D01*
X03210Y03365D02*
X03325D01*
X03483Y06879D02*
Y06912D01*
X03450Y06945D02*
X03483Y06912D01*
X03040Y06270D02*
Y06488D01*
X03180Y06190D02*
X03385D01*
X03455Y06120*
X03055Y06945D02*
X03356D01*
X03040Y06930D02*
X03055Y06945D01*
X03040Y06911D02*
Y06930D01*
X05202Y07197D02*
Y07412D01*
X06161Y07592D02*
X06503D01*
X06739Y07828*
Y08215*
X06840Y08316*
X04626Y07592D02*
X05696D01*
X04546Y07512D02*
X04626Y07592D01*
X04475Y07512D02*
X04546D01*
X05696Y07592D02*
X06161D01*
X03090Y07148D02*
X03324D01*
X03040Y06557D02*
Y06911D01*
Y06488D02*
Y06557D01*
X03454D02*
X03455Y06556D01*
X03040Y06557D02*
X03454D01*
X02760Y06005D02*
Y06120D01*
X02438Y06006D02*
Y06051D01*
Y06006D02*
X02540Y05905D01*
X02660*
X02760Y06005*
X03100Y06270D02*
X03180Y06190D01*
X03010Y06270D02*
X03100D01*
X01273Y06492D02*
X01405D01*
Y06329D02*
Y06492D01*
Y06329D02*
X01425Y06310D01*
X01950*
X04200Y06400D02*
X04375D01*
X04330Y06445D02*
X04383D01*
X04855Y06300D02*
X04945Y06210D01*
Y06150D02*
Y06210D01*
X04653Y06338D02*
X04710Y06395D01*
Y06445*
X04375Y06400D02*
X04475Y06300D01*
X04383Y06445D02*
X04490Y06338D01*
X04475Y06300D02*
X04855D01*
X04490Y06338D02*
X04653D01*
X04710Y06856D02*
X04758Y06905D01*
X04815*
X04710Y06525D02*
Y06856D01*
X02795Y06625D02*
X02825D01*
X03040Y07110D02*
Y07145D01*
X03360Y07107D02*
X03398Y07145D01*
X02795Y07045D02*
X02820D01*
X03043Y07107D02*
X03360D01*
X03324Y07148D02*
X03366Y07190D01*
X03482*
X05318Y06995D02*
Y07240D01*
X03455Y06120D02*
X03475Y06140D01*
X03783Y06945D02*
X03855Y06873D01*
X03356Y06945D02*
X03450D01*
X03783*
X03855Y06785D02*
Y06873D01*
X03527Y07145D02*
X03570D01*
X03482Y07190D02*
X03527Y07145D01*
X04239Y07052D02*
Y07214D01*
X04245Y07220*
X04620Y07215D02*
X04625Y07220D01*
X04620Y07165D02*
Y07215D01*
G54D37*
X04080Y06740D02*
X04089Y06749D01*
X04154D02*
X04160Y06755D01*
Y06765*
X04089Y06749D02*
X04154D01*
X04080Y06779D02*
X04115D01*
X03545Y02520D02*
X03945D01*
X03990Y02565*
X04025Y02525D02*
X04420D01*
X04434Y02565D02*
X04447Y02578D01*
X03990Y02565D02*
X04434D01*
X04447Y02578D02*
X04902D01*
X04945Y02620*
Y02930*
X04920Y02955D02*
X04945Y02930D01*
X04885Y02955D02*
X04920D01*
X04420Y02525D02*
X04455Y02560D01*
X04909*
X04964Y02614*
Y02965*
X04929Y03000D02*
X04964Y02965D01*
X04830Y03000D02*
X04929D01*
X04785Y02955D02*
X04830Y03000D01*
X04490Y02525D02*
X04900D01*
X04982Y02607*
Y03025*
X04952Y03055D02*
X04982Y03025D01*
X04885Y03055D02*
X04952D01*
X04965Y02525D02*
X05000Y02560D01*
Y03045*
X04940Y03105D02*
X05000Y03045D01*
X04830Y03105D02*
X04940D01*
X04785Y03060D02*
X04830Y03105D01*
X04785Y03055D02*
Y03060D01*
X01960Y06690D02*
X02250Y06980D01*
X01840Y06690D02*
X01960D01*
X02030Y06790D02*
X02232Y06992D01*
X01840Y06790D02*
X02030D01*
X02100Y06890D02*
X02214Y07004D01*
X01840Y06890D02*
X02100D01*
X02115Y06934D02*
X02196Y07015D01*
X01740Y06934D02*
X02115D01*
X02108Y06952D02*
X02178Y07022D01*
X01733Y06952D02*
X02108D01*
X02100Y06970D02*
X02160Y07029D01*
X01725Y06970D02*
X02100D01*
X01605Y06824D02*
X01733Y06952D01*
X01605Y06717D02*
Y06824D01*
X01532Y06645D02*
X01605Y06717D01*
X01625Y06819D02*
X01740Y06934D01*
X01625Y06711D02*
Y06819D01*
X01505Y06592D02*
X01625Y06711D01*
X01595Y06840D02*
X01725Y06970D01*
X01453Y06840D02*
X01595D01*
X01405Y06792D02*
X01453Y06840D01*
X01460Y06645D02*
X01532D01*
X01450Y06635D02*
X01460Y06645D01*
X01448Y06635D02*
X01450D01*
X01405Y06592D02*
X01448Y06635D01*
X01397Y05557D02*
X01405D01*
X01458Y05610D02*
X01505Y05657D01*
X01700Y06110D02*
X01785Y06195D01*
X01672Y06057D02*
X01790Y06175D01*
X01650Y06010D02*
X01795Y06155D01*
X01623Y05957D02*
X01801Y06135D01*
X01601Y05910D02*
X01806Y06115D01*
X02315Y07330D02*
X02365D01*
X01402Y05657D02*
X01405D01*
X02905Y06338D02*
Y06525D01*
X02885Y06343D02*
Y06535D01*
X02865Y06349D02*
Y06545D01*
X02845Y06354D02*
Y06555D01*
X02825Y06400D02*
Y06570D01*
Y06400D02*
X02825Y06399D01*
Y06373D02*
Y06399D01*
X02825Y06373D02*
X02825Y06373D01*
X02825Y06360D02*
Y06373D01*
X01458Y05910D02*
X01601D01*
X01405Y05857D02*
X01458Y05910D01*
X01505Y05957D02*
X01623D01*
X01458Y06010D02*
X01650D01*
X01405Y05957D02*
X01458Y06010D01*
X01505Y06057D02*
X01672D01*
X01458Y06110D02*
X01700D01*
X01405Y06057D02*
X01458Y06110D01*
X03591Y06375D02*
Y06399D01*
X03544Y06446D02*
X03591Y06399D01*
X03374Y06446D02*
X03544D01*
X03355Y06465D02*
X03374Y06446D01*
X03573Y06327D02*
X03595Y06305D01*
X03573Y06327D02*
Y06392D01*
X03537Y06428D02*
X03573Y06392D01*
X03340Y06428D02*
X03537D01*
X03305Y06463D02*
X03340Y06428D01*
X03305Y06463D02*
Y06465D01*
X03530Y06410D02*
X03555Y06385D01*
X03310Y06410D02*
X03530D01*
X03255Y06465D02*
X03310Y06410D01*
X03555Y06265D02*
Y06385D01*
X04975Y07050D02*
X05034Y06991D01*
X02497Y06089D02*
X02529D01*
X02560Y06120*
X03205Y06110D02*
Y06120D01*
X03274Y06150D02*
X03305Y06120D01*
X02679Y06089D02*
X02710Y06120D01*
X02995Y06159D02*
X03084Y06070D01*
X03092Y06088D02*
X03183D01*
X03205Y06110*
X03084Y06070D02*
X03205D01*
X03255Y06120*
X02610D02*
X02667Y06177D01*
X02660Y06120D02*
X02699Y06159D01*
X02510Y06120D02*
X02532Y06142D01*
X02532*
X02585Y06195*
X02479Y06107D02*
X02497Y06089D01*
X02461Y06099D02*
Y06146D01*
X02479Y06107D02*
Y06138D01*
X02553Y06213*
X02461Y06099D02*
X02489Y06071D01*
X02461Y06146D02*
X02546Y06231D01*
X02489Y06071D02*
X02541D01*
X02559Y06089*
X02679*
X02585Y06195D02*
X03030D01*
X03105Y06120*
X02699Y06159D02*
X02995D01*
X02667Y06177D02*
X03003D01*
X03092Y06088*
X02553Y06213D02*
X03062D01*
X03155Y06120*
X02546Y06231D02*
X03084D01*
X03164Y06150*
X03274*
X04925Y06830D02*
X04980D01*
X05025Y06785*
X05123*
X05125Y06787*
X04895Y06800D02*
X04895Y06799D01*
X04865Y06770D02*
X04865Y06769D01*
X04955*
X05085Y06640*
X04694Y07013D02*
X04695Y07014D01*
X04665Y07045D02*
X04926D01*
X04962Y07080*
X04994D02*
X05040Y07035D01*
X04962Y07080D02*
X04994D01*
X05040Y07035D02*
X05140D01*
X05169Y07005D02*
Y07005D01*
X05143Y07031D02*
X05169Y07005D01*
X05143Y07031D02*
X05143D01*
X05140Y07035D02*
X05143Y07031D01*
X04695Y07014D02*
X04961D01*
X05035Y06940*
X04725Y06980D02*
X04965D01*
X05058Y06887*
X05125*
X05035Y06835D02*
X05345D01*
X06420Y06800D02*
Y06965D01*
X06380Y07005D02*
X06420Y06965D01*
X06380Y07005D02*
Y07020D01*
Y07090D02*
Y07120D01*
Y07090D02*
X06440Y07030D01*
X06335Y06485D02*
X06410D01*
X05060Y06530D02*
X05170D01*
X05040Y06550D02*
X05060Y06530D01*
X05040Y06550D02*
Y06659D01*
X04964Y06735D02*
X05040Y06659D01*
X04895Y06799D02*
X04970D01*
X05030Y06740*
X04115Y07224D02*
X04140Y07200D01*
Y07115D02*
Y07200D01*
X04083Y07206D02*
X04095Y07195D01*
Y07125D02*
Y07195D01*
X04085Y07090D02*
X04105D01*
X04060Y07115D02*
X04085Y07090D01*
X04060Y07115D02*
Y07180D01*
X04051Y07188D02*
X04060Y07180D01*
X04351Y07061D02*
X04428D01*
X04329Y07014D02*
X04428D01*
X04323Y06982D02*
X04452D01*
X04485Y07015*
X04589*
X04590Y07014*
X04585Y06910D02*
X04620Y06945D01*
Y07044*
X04620Y07045D02*
X04620Y07044D01*
X02844Y06278D02*
X02905Y06338D01*
X02837Y06296D02*
X02885Y06343D01*
X02829Y06314D02*
X02865Y06349D01*
X02822Y06332D02*
X02845Y06354D01*
X02815Y06350D02*
X02825Y06360D01*
X02558Y06368D02*
X02655Y06465D01*
X02550Y06390D02*
X02635Y06474D01*
X02545Y06410D02*
X02615Y06480D01*
X02535Y06430D02*
X02595Y06490D01*
X03679Y07050D02*
X03695Y07035D01*
X02980Y07040D02*
X03615D01*
X03625Y07050*
X03679*
X03784Y07047D02*
X03785Y07048D01*
X03784Y07005D02*
Y07047D01*
X03785Y07048D02*
Y07075D01*
X03764Y07095D02*
X03785Y07075D01*
X03725Y07070D02*
X03730Y07065D01*
X03725Y07070D02*
Y07075D01*
X03651Y06315D02*
X03750D01*
X03591Y06375D02*
X03651Y06315D01*
X04965Y07150D02*
X04995D01*
X05005Y07160*
X04285Y06945D02*
X04323Y06982D01*
X03836Y07083D02*
X03974Y06945D01*
X04285*
X03890Y07105D02*
X03995Y07000D01*
X04264*
X03988Y06982D02*
X04272D01*
X03980Y06964D02*
X04279D01*
X03872Y07098D02*
X03988Y06982D01*
X04272D02*
X04351Y07061D01*
X03854Y07090D02*
X03980Y06964D01*
X04279D02*
X04329Y07014D01*
X03908Y07112D02*
X04002Y07018D01*
X04248*
X04343Y07113*
X04970Y07180D02*
X05029D01*
X05060Y07150*
X01385Y05610D02*
X01458D01*
X01345Y05817D02*
X01405Y05757D01*
X01345Y05817D02*
Y06195D01*
X01365Y06215*
X01325Y05734D02*
X01402Y05657D01*
X01325Y05734D02*
Y06225D01*
X01334Y06235*
X01305Y06231D02*
X01328Y06255D01*
X01305Y05690D02*
Y06231D01*
Y05690D02*
X01385Y05610D01*
X01806Y06115D02*
X02350D01*
X02513Y06278*
X02844*
X01801Y06135D02*
X02344D01*
X02505Y06296*
X01795Y06155D02*
X02339D01*
X02498Y06314*
X01790Y06175D02*
X02333D01*
X02490Y06332*
X01785Y06195D02*
X02328D01*
X02483Y06350*
X01365Y06215D02*
X02322D01*
X02475Y06368*
X01334Y06235D02*
X02317D01*
X01328Y06255D02*
X02311D01*
X01323Y06275D02*
X02306D01*
X02461Y06430*
X02311Y06255D02*
X02466Y06410D01*
X02317Y06235D02*
X02472Y06390D01*
X02505Y06296D02*
X02837D01*
X02498Y06314D02*
X02829D01*
X02490Y06332D02*
X02822D01*
X02483Y06350D02*
X02815D01*
X02475Y06368D02*
X02558D01*
X02472Y06390D02*
X02550D01*
X02466Y06410D02*
X02545D01*
X02461Y06430D02*
X02535D01*
X03205Y06890D02*
X03280Y06815D01*
X03305Y06890D02*
X03362Y06833D01*
X03680Y06345D02*
X03736D01*
X03737Y06345*
X04105Y07090D02*
X04110Y07085D01*
X02992Y07000D02*
X03615D01*
X03625Y06989*
X02986Y07020D02*
X03650D01*
Y06375D02*
X03680Y06345D01*
X03650Y06375D02*
Y06840D01*
X03280Y06815D02*
X03545D01*
X03560Y06830*
X03615*
X03362Y06833D02*
X03537D01*
X03565Y06860D02*
X03629D01*
X03537Y06833D02*
X03565Y06860D01*
X03629D02*
X03650Y06840D01*
X04005Y07224D02*
X04115D01*
X03997Y07206D02*
X04083D01*
X03990Y07188D02*
X04051D01*
X03950Y07168D02*
Y07170D01*
X03815Y07035D02*
Y07180D01*
X03836Y07083D02*
Y07189D01*
X03854Y07090D02*
Y07197D01*
X03872Y07098D02*
Y07204D01*
X03890Y07105D02*
Y07212D01*
X03908Y07112D02*
Y07219D01*
X03950Y07170D02*
Y07203D01*
X04070Y06370D02*
X04070Y06369D01*
X04355*
X04485Y06240*
X04275Y06575D02*
X04290Y06590D01*
X04275Y06455D02*
Y06575D01*
X04255Y06435D02*
X04275Y06455D01*
X04075Y06435D02*
X04255D01*
X04035Y06395D02*
X04075Y06435D01*
X03737Y06345D02*
X04020D01*
X04035Y06360*
Y06395*
X04860Y06335D02*
X05045Y06150D01*
X04780Y06335D02*
X04860D01*
X04756Y06358D02*
X04780Y06335D01*
X04264Y07000D02*
X04356Y07091D01*
X04343Y07113D02*
X04457D01*
X04356Y07091D02*
X04452D01*
X04485Y07165D02*
X04575D01*
X04910Y06960D02*
X05035Y06835D01*
X04840Y06735D02*
X04964D01*
X04830Y06745D02*
X04840Y06735D01*
X04830Y06745D02*
Y06790D01*
X04880Y06840*
Y06920*
X04858Y06942D02*
X04880Y06920D01*
X04664Y06949D02*
X04737D01*
X04671Y06931D02*
X04745D01*
X04585Y06870D02*
X04664Y06949D01*
X04737D02*
X04748Y06960D01*
X04910*
X04607Y06867D02*
X04671Y06931D01*
X04745D02*
X04755Y06942D01*
X04858*
X04572Y06639D02*
X04573Y06640D01*
X04575*
X04590Y06655*
Y06664*
X04612Y06685*
X04545Y06639D02*
X04572D01*
X04437Y06717D02*
X04468D01*
X04545Y06639*
X04612Y06685D02*
X04644D01*
X04530Y06705D02*
X04585Y06760D01*
Y06870*
X04565Y06670D02*
Y06695D01*
X04607Y06737*
Y06867*
X04756Y06358D02*
Y06445D01*
X04726Y06476D02*
X04756Y06445D01*
X04722Y06494D02*
X04745Y06516D01*
Y06655*
X04770Y06680*
X04965*
X04644Y06685D02*
X04675Y06655D01*
Y06510D02*
Y06655D01*
Y06510D02*
X04690Y06494D01*
X04722*
X02365Y07330D02*
X02420Y07385D01*
X03667Y07460D02*
X03908Y07219D01*
X03660Y07442D02*
X03890Y07212D01*
X02324Y07424D02*
X03571D01*
X03660Y07335*
X03694Y07535D02*
X04005Y07224D01*
X03687Y07517D02*
X03997Y07206D01*
X03679Y07499D02*
X03990Y07188D01*
X03672Y07481D02*
X03950Y07203D01*
X02595Y06490D02*
Y07125D01*
X02755Y07285*
X02615Y06480D02*
Y07119D01*
X02762Y07267*
X02635Y06474D02*
Y07114D01*
X02769Y07249*
X02655Y06465D02*
Y07108D01*
X02777Y07231*
X02420Y07385D02*
X02910D01*
X02925Y07370*
X03055Y07405D02*
X03090Y07370D01*
X02769Y07249D02*
X03776D01*
X03836Y07189*
X02762Y07267D02*
X03784D01*
X03854Y07197*
X02755Y07285D02*
X03791D01*
X03872Y07204*
X02777Y07231D02*
X03764D01*
X03815Y07180*
X03784Y07005D02*
X03795Y06995D01*
X03895*
X03980Y06910*
X04585*
X03625Y06989D02*
X03770D01*
X03785Y06975*
X03885*
X04080Y06779*
X05325Y06790D02*
X05337D01*
X05330Y06885D02*
X05342D01*
X05169Y07005D02*
X05210Y06964D01*
X05355*
X05035Y06940D02*
X05350D01*
X03755Y06760D02*
Y06790D01*
Y06760D02*
X03775Y06740D01*
X04080*
X04892Y07077D02*
X04965Y07150D01*
X04452Y07091D02*
X04467Y07077D01*
X04884Y07095D02*
X04970Y07180D01*
X04457Y07113D02*
X04475Y07095D01*
X04467Y07077D02*
X04892D01*
X04475Y07095D02*
X04884D01*
X02257Y07535D02*
X03694D01*
X02160Y07029D02*
Y07437D01*
X02265Y07517D02*
X03687D01*
X02178Y07022D02*
Y07429D01*
X02272Y07499D02*
X03679D01*
X02196Y07015D02*
Y07422D01*
X02280Y07481D02*
X03672D01*
X02214Y07004D02*
Y07414D01*
X02284Y07460D02*
X03667D01*
X02232Y06992D02*
Y07407D01*
X02292Y07442D02*
X03660D01*
X02250Y06980D02*
Y07400D01*
X02160Y07437D02*
X02257Y07535D01*
X02178Y07429D02*
X02265Y07517D01*
X02196Y07422D02*
X02272Y07499D01*
X02214Y07414D02*
X02280Y07481D01*
X02232Y07407D02*
X02284Y07460D01*
X02250Y07400D02*
X02292Y07442D01*
X02310Y07410D02*
X02324Y07424D01*
X02340Y07375D02*
X02370Y07405D01*
X03055*
X01285Y05669D02*
X01397Y05557D01*
X01285Y05669D02*
Y06236D01*
X01323Y06275*
X05030Y06740D02*
X05175D01*
X05345Y06835D02*
X05435Y06745D01*
X05337Y06790D02*
X05407Y06720D01*
X06380*
X05175Y06740D02*
X05220Y06695D01*
X05342Y06885D02*
X05462Y06765D01*
X05350Y06940D02*
X05500Y06790D01*
X06390Y06770D02*
X06420Y06800D01*
X05355Y06964D02*
X05510Y06810D01*
X06245*
X06380Y06919D02*
Y06920D01*
X06250Y06790D02*
X06380Y06919D01*
X05500Y06790D02*
X06250D01*
X06245Y06810D02*
X06320Y06885D01*
Y07160*
X06380Y07220*
X05462Y06765D02*
X06255D01*
X06310Y06820*
X06380*
X05435Y06745D02*
X06265D01*
X06290Y06770*
X06390*
X05085Y06640D02*
X05180D01*
X05215Y06675*
X06305Y06695D02*
X06380Y06620D01*
X06225Y06675D02*
X06380Y06520D01*
X05220Y06695D02*
X06305D01*
X05215Y06675D02*
X06225D01*
X05170Y06530D02*
X05201Y06561D01*
Y06621*
X05235Y06655*
X06200*
X06320Y06500D02*
X06335Y06485D01*
X06320Y06500D02*
Y06535D01*
X06200Y06655D02*
X06320Y06535D01*
X06410Y06485D02*
X06420Y06495D01*
Y06770*
X06440Y06790*
Y07030*
X04310Y06510D02*
X04365D01*
X04495Y06380*
X04610*
X04310Y06560D02*
X04590D01*
X04673Y06476*
X04726*
X04290Y06590D02*
X04595D01*
X04625Y06620*
Y06655*
X02905Y06525D02*
X02935Y06555D01*
Y06943*
X02992Y07000*
X02885Y06535D02*
X02917Y06567D01*
X02865Y06545D02*
X02899Y06579D01*
X02845Y06555D02*
X02881Y06591D01*
X02825Y06570D02*
X02863Y06608D01*
Y06973*
X02881Y06591D02*
Y06965D01*
X02899Y06579D02*
Y06958D01*
X02917Y06567D02*
Y06950D01*
X02986Y07020*
X02899Y06958D02*
X02980Y07040D01*
X02881Y06965D02*
X02975Y07060D01*
X02863Y06973D02*
X02969Y07079D01*
X03620Y07075D02*
X03725D01*
X03605Y07060D02*
X03620Y07075D01*
X02975Y07060D02*
X03605D01*
X02969Y07079D02*
X03589D01*
X03605Y07095*
X03764*
G54D38*
X03075Y03000D02*
X03115Y03040D01*
X03075Y02275D02*
Y03000D01*
X02725Y02275D02*
X03075D01*
X02250D02*
X02725D01*
X01970Y03765D02*
X02920D01*
X03010Y03675*
Y03615D02*
Y03675D01*
X03115Y03445D02*
Y03795D01*
X04185Y03590D02*
X05115D01*
X04040Y03445D02*
X04185Y03590D01*
X05115Y02380D02*
Y03850D01*
X05015Y02280D02*
X05115Y02380D01*
X04615Y02280D02*
X05015D01*
X03375Y02555D02*
X03425Y02605D01*
X03730*
X03750Y02625*
Y02740*
X03799Y02789*
X03910*
X03955Y03770D02*
X04350D01*
X03875D02*
X03955D01*
X03945Y03760D02*
X03955Y03770D01*
X03945Y02824D02*
Y03760D01*
X03910Y02789D02*
X03945Y02824D01*
X04640Y03850D02*
X05115D01*
X01775Y02275D02*
X02250D01*
X01480D02*
X01775D01*
X01405Y02350D02*
X01480Y02275D01*
X04145Y02280D02*
X04615D01*
X03675D02*
X04145D01*
X03340D02*
X03675D01*
X03115Y03795D02*
Y03825D01*
X03090Y03850D02*
X03115Y03825D01*
X02720Y03850D02*
X03090D01*
X04160D02*
X04640D01*
X03685D02*
X04160D01*
X02255D02*
X02720D01*
X01780D02*
X02255D01*
X03315Y03615D02*
Y03690D01*
X03395Y03770*
X03375Y02555D02*
X03490Y02440D01*
Y02365D02*
Y02440D01*
X03015Y02365D02*
Y02555D01*
X04350Y03770D02*
X04825D01*
X03395D02*
X03875D01*
X01490Y03765D02*
X01970D01*
X02535Y02365D02*
X03015D01*
X02065D02*
X02535D01*
X01590D02*
X02065D01*
X04435D02*
X04905D01*
X03965D02*
X04435D01*
X03490D02*
X03965D01*
X06181Y06421D02*
X06200Y06440D01*
X06181Y05898D02*
Y06421D01*
X06200Y06440D02*
X06250D01*
X05700Y06150D02*
X06181D01*
X05615D02*
X05700D01*
Y06436D02*
X05700Y06437D01*
X05700Y06150D02*
Y06436D01*
X06572Y07836D02*
Y07955D01*
X06476Y07740D02*
X06572Y07836D01*
X05940Y07740D02*
X06476D01*
X05942Y07742D02*
Y07955D01*
X05940Y07740D02*
X05942Y07742D01*
X05312Y07747D02*
Y07955D01*
X05305Y07740D02*
X05312Y07747D01*
X05305Y07740D02*
X05940D01*
X04682Y07742D02*
Y07955D01*
X04680Y07740D02*
X04682Y07742D01*
X04680Y07740D02*
X05305D01*
X04052Y07743D02*
Y07955D01*
Y07743D02*
X04055Y07740D01*
X03421Y07741D02*
Y07955D01*
X03420Y07740D02*
X03421Y07741D01*
X03420Y07740D02*
X04055D01*
X02791Y07741D02*
Y07955D01*
X02790Y07740D02*
X02791Y07741D01*
X02790Y07740D02*
X03420D01*
X02161Y07778D02*
Y07955D01*
Y07778D02*
X02200Y07740D01*
X02790*
X06181Y05745D02*
Y05898D01*
Y05745D02*
X06190Y05737D01*
X06840*
X05551Y05898D02*
Y06086D01*
X05615Y06150*
X03031Y05826D02*
Y05898D01*
X03000Y05795D02*
X03031Y05826D01*
X01771Y05818D02*
X01795Y05795D01*
X01771Y05818D02*
Y05898D01*
X02401Y05798D02*
Y05898D01*
Y05798D02*
X02405Y05795D01*
X01795D02*
X02405D01*
X03000*
X01360Y07090D02*
X01405D01*
X01325Y07125D02*
X01360Y07090D01*
X01325Y07125D02*
Y07830D01*
X01358Y07863*
X01405*
X01485Y07000D02*
Y07480D01*
X01475Y07490D02*
X01485Y07480D01*
X01405Y07490D02*
X01475D01*
X01405D02*
Y07590D01*
X01273Y06492D02*
Y06833D01*
X04750Y07220D02*
X04800Y07270D01*
X01273Y06833D02*
X01335Y06895D01*
X01560*
X01715Y07050*
X04055Y07740D02*
X04240D01*
X04680*
X02230Y07585D02*
X03810D01*
X02110Y07465D02*
X02230Y07585D01*
X01715Y07050D02*
X02050D01*
X02110Y07110*
Y07465*
X01495Y07108D02*
X02026D01*
X02052Y07134*
Y07489*
X02206Y07643*
X03834*
X01485Y07000D02*
Y07098D01*
X01495Y07108*
X04065Y07412D02*
X04475D01*
X01840Y06590D02*
X01985D01*
X02315Y06920*
Y07165*
X02497Y07347*
X02875*
X04625Y07220D02*
X04750D01*
X05255Y07290D02*
X05301Y07336D01*
X05255Y07165D02*
Y07290D01*
X05235Y07145D02*
X05255Y07165D01*
X05301Y07336D02*
X05489D01*
X04475Y07412D02*
X05523D01*
X04800Y07270D02*
X05105D01*
X03475Y06140D02*
X04485D01*
X03810Y07585D02*
X04175Y07220D01*
X04245*
X04625*
X03834Y07643D02*
X04065Y07412D01*
X05727Y06560D02*
X06035D01*
X05523Y07412D02*
X05720Y07215D01*
X06065*
X05175Y07145D02*
X05235D01*
X05145Y07175D02*
X05175Y07145D01*
X05145Y07175D02*
Y07230D01*
X05105Y07270D02*
X05145Y07230D01*
G54D39*
X01545Y01735D02*
Y01995D01*
Y01735D02*
X01555Y01725D01*
X02970Y01735D02*
Y01990D01*
Y01735D02*
X02980Y01725D01*
X04855Y04405D02*
X04865Y04395D01*
Y04140D02*
Y04395D01*
X03205Y02935D02*
Y03205D01*
Y01740D02*
Y02935D01*
X03625*
X01920Y01378D02*
X02395D01*
X01920D02*
Y01507D01*
X02395Y01378D02*
X02870D01*
X02395Y01508D02*
X02396Y01510D01*
X02395Y01378D02*
Y01508D01*
X02870Y01378D02*
X03345D01*
X02870Y01509D02*
X02871Y01510D01*
X02870Y01378D02*
Y01509D01*
X03345Y01378D02*
X03820D01*
X03345Y01509D02*
X03345Y01510D01*
X03345Y01378D02*
Y01509D01*
X03820Y01378D02*
X04295D01*
X03819Y01510D02*
X03820Y01509D01*
Y01378D02*
Y01509D01*
X04295Y01378D02*
X04770D01*
X04293Y01510D02*
X04295Y01508D01*
Y01378D02*
Y01508D01*
X04768Y01510D02*
X04770Y01508D01*
Y01378D02*
Y01508D01*
X01448Y01396D02*
X01455Y01390D01*
X01448Y01396D02*
Y01510D01*
X02115Y04775D02*
X02595D01*
X01635D02*
X02115D01*
Y04627D02*
X02117Y04625D01*
X02115Y04627D02*
Y04775D01*
X02595D02*
X03065D01*
X02592Y04625D02*
X02595Y04628D01*
Y04775*
X03065D02*
X03540D01*
X03065Y04626D02*
X03066Y04625D01*
X03065Y04626D02*
Y04775D01*
X03540D02*
X04020D01*
X03540Y04625D02*
X03540Y04625D01*
X03540Y04625D02*
Y04775D01*
X04020D02*
X04490D01*
X04014Y04625D02*
Y04769D01*
X04020Y04775*
X04490D02*
X04950D01*
X04489Y04625D02*
X04490Y04625D01*
Y04775*
X04963Y04625D02*
Y04761D01*
X01355Y04775D02*
X01635D01*
X04950D02*
X04963Y04761D01*
X01298Y03660D02*
Y04718D01*
X01355Y04775*
X01635D02*
X01643Y04766D01*
Y04625D02*
Y04766D01*
X02170Y02585D02*
Y02909D01*
X02090Y02505D02*
X02170Y02585D01*
X02020Y01725D02*
X02980D01*
X02020D02*
Y02015D01*
X04390Y04160D02*
Y04405D01*
X03895D02*
X04390D01*
X03895D02*
X03915Y04385D01*
X03205Y03205D02*
Y04405D01*
X03204Y03204D02*
X03205Y03205D01*
X02845Y03204D02*
X03204D01*
X03205Y04405D02*
X03895D01*
X02965D02*
X03205D01*
X03220Y01725D02*
X03440D01*
X02980D02*
X03220D01*
X03205Y01740D02*
X03220Y01725D01*
X04390D02*
X04855D01*
X03440D02*
X04390D01*
Y01985*
X03915Y01730D02*
Y01990D01*
X03440Y01725D02*
Y02015D01*
X02495Y01730D02*
Y02000D01*
X01555Y01725D02*
X02020D01*
X04855D02*
X04865Y01735D01*
Y01970*
X03440Y04155D02*
Y04400D01*
X02500Y04405D02*
X02965D01*
Y04155D02*
Y04405D01*
X02015D02*
X02500D01*
X02495Y04400D02*
X02500Y04405D01*
X02495Y04155D02*
Y04400D01*
X01545Y04405D02*
X02015D01*
X02020Y04400*
Y04150D02*
Y04400D01*
X03915Y04160D02*
Y04385D01*
X04390Y04405D02*
X04855D01*
X01545Y04150D02*
Y04405D01*
X05745Y07857D02*
Y08610D01*
X05115Y07857D02*
Y08610D01*
X04485Y07857D02*
Y08610D01*
X03228Y05244D02*
Y05997D01*
X03858Y05244D02*
Y05997D01*
X04488Y05244D02*
Y05997D01*
X05118Y05244D02*
Y05997D01*
X05748Y05244D02*
Y05997D01*
X01980Y02956D02*
Y03575D01*
X02122Y02956D02*
X02170Y02909D01*
X01980Y02956D02*
X02122D01*
X01320Y01570D02*
Y02460D01*
X01365Y02505*
X02090*
X01455Y01378D02*
X01920D01*
X01455D02*
Y01390D01*
X01905Y03650D02*
X01980Y03575D01*
X01298Y03660D02*
X01308Y03650D01*
X01905*
X01320Y01570D02*
X01380Y01510D01*
X01448*
G54D40*
X06723Y06353D02*
X06730Y06347D01*
X06723Y06353D02*
Y06522D01*
X02995Y06496D02*
Y06910D01*
X02987Y06488D02*
X02995Y06496D01*
X02315Y07330D02*
X02320Y07335D01*
X06476Y06522D02*
Y06622D01*
Y06722*
Y06822*
Y06922*
Y07022*
Y07122*
Y07222*
X06723Y06522D02*
Y06622D01*
Y06722*
Y06822*
Y06922*
Y07022*
Y07122*
Y07222*
X06476D02*
Y07251D01*
X06500Y07275*
X06710*
X06723Y07261*
Y07222D02*
Y07261D01*
X02410Y06455D02*
Y06935D01*
X02438Y06155D02*
X02537Y06255D01*
X02438Y06051D02*
Y06155D01*
X02537Y06255D02*
X02995D01*
X03010Y06270*
X06564Y07222D02*
X06656D01*
X06564Y07122D02*
X06656D01*
X06564Y07022D02*
X06656D01*
X06564Y06922D02*
X06656D01*
X06564Y06822D02*
X06656D01*
X06564Y06722D02*
X06656D01*
X06564Y06622D02*
X06656D01*
X06564Y06522D02*
X06656D01*
X02685Y07085D02*
X02795Y07195D01*
X02685Y06805D02*
X02795D01*
X02685Y06386D02*
Y07085D01*
Y06386D02*
X02795D01*
G54D42*
X03795Y07490D02*
X04025Y07260D01*
G54D47*
X03625Y02935D03*
G54D48*
X03625Y02835D03*
Y02735D03*
G54D49*
X06840Y07916D03*
Y08116D03*
Y08316D03*
X06840Y05536D03*
Y05733D03*
X06578Y05250D03*
X06378D03*
X06178D03*
X05948D03*
X05748D03*
X05548D03*
X05318D03*
X05118D03*
X04918D03*
X04688D03*
X04488D03*
X04288D03*
X04058D03*
X03858D03*
X03658D03*
X03428D03*
X03228D03*
X03028D03*
X02798D03*
X02598D03*
X02398D03*
X02168D03*
X01968D03*
X01768D03*
X01450Y03188D03*
Y02991D03*
X04766Y04635D03*
X04963D03*
X04292D03*
X04489D03*
X03818D03*
X04014D03*
X03343D03*
X03540D03*
X02869D03*
X03066D03*
X02395D03*
X02592D03*
X01920D03*
X02117D03*
X01446D03*
X01643D03*
Y01505D03*
X01446D03*
X02117D03*
X01920D03*
X02592D03*
X02395D03*
X03066D03*
X02869D03*
X03540D03*
X03343D03*
X04014D03*
X03818D03*
X04489D03*
X04292D03*
X04963D03*
X04766D03*
X01765Y08610D03*
X01965D03*
X02165D03*
X02395D03*
X02595D03*
X02795D03*
X03025D03*
X03225D03*
X03425D03*
X03655D03*
X03855D03*
X04055D03*
X04280D03*
X04480D03*
X04680D03*
X04915D03*
X05115D03*
X05315D03*
X05545D03*
X05745D03*
X05945D03*
X06175D03*
X06375D03*
X06575D03*
G54D50*
X05045Y06150D03*
X04685Y06240D03*
G54D51*
X01840Y06490D03*
X01505Y05557D03*
Y06492D03*
X05125Y06587D03*
X06830Y07392D03*
Y06522D03*
Y06247D03*
X01405Y07090D03*
Y07863D03*
X04785Y03455D03*
X06250Y06440D03*
G54D52*
X04765Y01865D03*
X04290D03*
X03815D03*
X03340D03*
X02870D03*
X02395D03*
X01920D03*
X01445D03*
X05900Y06437D03*
X04965Y04270D03*
X04490D03*
X03540D03*
X04015D03*
X02595D03*
X03065D03*
X01645D03*
X02120D03*
G54D53*
X04865Y01865D03*
X04965D03*
X04390D03*
X04490D03*
X03915D03*
X04015D03*
X03440D03*
X03540D03*
X02970D03*
X03070D03*
X02495D03*
X02595D03*
X02020D03*
X02120D03*
X01545D03*
X01645D03*
X05700Y06437D03*
X05800D03*
X04865Y04270D03*
X04765D03*
X04390D03*
X04290D03*
X03440D03*
X03340D03*
X03915D03*
X03815D03*
X02495D03*
X02395D03*
X02965D03*
X02865D03*
X01545D03*
X01445D03*
X02020D03*
X01920D03*
G54D54*
X03910Y02710D03*
X03325Y03365D03*
G54D55*
X03910Y02789D03*
X03325Y03444D03*
G54D56*
X03850Y02985D03*
X04150D03*
G54D57*
X04475Y07312D03*
Y07412D03*
Y07512D03*
Y07612D03*
X04040Y03145D03*
Y03245D03*
Y03345D03*
Y03445D03*
X03720Y03145D03*
Y03245D03*
Y03345D03*
Y03445D03*
G54D58*
X06572Y08357D03*
X06178D03*
X06572Y07955D03*
X06178D03*
X06375Y07857D03*
X05942Y08357D03*
X05548D03*
X05942Y07955D03*
X05548D03*
X05745Y07857D03*
X05312Y08357D03*
X04918D03*
X05312Y07955D03*
X04918D03*
X05115Y07857D03*
X04682Y08357D03*
X04288D03*
X04682Y07955D03*
X04288D03*
X04485Y07857D03*
X04052Y08357D03*
X03658D03*
X04052Y07955D03*
X03658D03*
X03855Y07857D03*
X03421Y08357D03*
X03028D03*
X03421Y07955D03*
X03028D03*
X03225Y07857D03*
X02791Y08357D03*
X02398D03*
X02791Y07955D03*
X02398D03*
X02595Y07857D03*
X02161Y08357D03*
X01768D03*
X02161Y07955D03*
X01768D03*
X01965Y07857D03*
X06181Y05497D03*
X06575D03*
X06181Y05898D03*
X06575D03*
X06378Y05997D03*
X05551Y05497D03*
X05945D03*
X05551Y05898D03*
X05945D03*
X05748Y05997D03*
X04921Y05497D03*
X05315D03*
X04921Y05898D03*
X05315D03*
X05118Y05997D03*
X04291Y05497D03*
X04685D03*
X04291Y05898D03*
X04685D03*
X04488Y05997D03*
X03661Y05497D03*
X04055D03*
X03661Y05898D03*
X04055D03*
X03858Y05997D03*
X03031Y05497D03*
X03425D03*
X03031Y05898D03*
X03425D03*
X03228Y05997D03*
X02401Y05497D03*
X02795D03*
X02401Y05898D03*
X02795D03*
X02598Y05997D03*
X01771Y05497D03*
X02165D03*
X01771Y05898D03*
X02165D03*
X01968Y05997D03*
G54D59*
X02845Y03204D03*
X02170D03*
G54D60*
X02845Y02909D03*
X02170D03*
G54D61*
X01720Y02886D03*
Y03286D03*
G54D62*
X04160Y06765D03*
X04115Y06780D03*
X03115Y03040D03*
Y03445D03*
X03010Y03615D03*
X04615Y02280D03*
X04145D03*
X03675D03*
X03285Y02335D03*
X02725Y02275D03*
X02250D03*
X01775D03*
X01405Y02350D03*
X05115Y03850D03*
X04640D03*
X04160D03*
X03685D03*
X03115Y03795D03*
X02720Y03850D03*
X02255D03*
X01780D03*
X03315Y03615D03*
X03375Y02555D03*
X03015D03*
X03545Y02520D03*
X04025Y02525D03*
X04490D03*
X04965D03*
X05320Y07105D03*
X04905Y02365D03*
X04435D03*
X03965D03*
X03490D03*
X03015D03*
X02535D03*
X02065D03*
X01590D03*
X04825Y03770D03*
X04350D03*
X03875D03*
X03395D03*
X02915D03*
X02435D03*
X01970Y03765D03*
X01490D03*
X04865Y06770D03*
X04895Y06800D03*
X04925Y06830D03*
X04725Y06980D03*
X04665Y07045D03*
X04620D03*
X04590Y07014D03*
X06605Y06520D03*
Y06620D03*
Y06720D03*
Y06820D03*
Y06920D03*
Y07020D03*
Y07120D03*
Y07220D03*
X02995Y06910D03*
X03555Y06265D03*
X03595Y06305D03*
X03356Y06945D03*
X03355Y06465D03*
X03305D03*
X03255D03*
X03205Y06890D03*
X04437Y06717D03*
X04200Y06400D03*
X04275Y06645D03*
X04200Y06685D03*
X05496Y06963D03*
X05495Y07336D03*
X05034Y06991D03*
X04975Y07050D03*
X05202Y07197D03*
X05696Y07592D03*
X06161D03*
X04239Y07052D03*
X04428Y07061D03*
Y07014D03*
X03090Y07148D03*
X03483Y06879D03*
X03455Y06120D03*
Y06556D03*
X03040Y06488D03*
X02987D03*
X03040Y07145D03*
Y06911D03*
X02315Y07330D03*
X03660Y07335D03*
X03105Y06120D03*
X03155D03*
X03205D03*
X03255D03*
X03305D03*
X02510D03*
X02560D03*
X02610D03*
X02660D03*
X02710D03*
X02760D03*
X02410Y06455D03*
X02795Y06805D03*
Y06625D03*
Y06386D03*
Y07045D03*
X02410Y06935D03*
X04815Y06905D03*
X06380Y06720D03*
Y06820D03*
Y06620D03*
Y06520D03*
Y07220D03*
X04695Y07014D03*
X06380Y06920D03*
X04560Y06670D03*
X06380Y07120D03*
Y07020D03*
X04140Y07115D03*
X04095Y07130D03*
X03815Y07035D03*
X03730Y07065D03*
X03750Y06315D03*
X05005Y07150D03*
X05060D03*
X01273Y06492D03*
X01950Y06310D03*
X01485Y07000D03*
X04240Y07740D03*
X03305Y06890D03*
X04110Y07085D03*
X03650Y07020D03*
X03755Y06790D03*
X03690Y07042D03*
X03615Y06830D03*
X03950Y07170D03*
X04310Y06510D03*
Y06560D03*
X04070Y06370D03*
X04640Y06445D03*
X04710D03*
X04625Y06655D03*
X04330Y06445D03*
X04610Y06380D03*
X04485Y07165D03*
X04575D03*
X04710Y06525D03*
X04530Y06705D03*
X04965Y06680D03*
X03398Y07145D03*
X02795Y07195D03*
X02925Y07370D03*
X03090D03*
X02880Y07345D03*
X05318Y07240D03*
X05325Y06790D03*
Y06885D03*
X05318Y06995D03*
X06065Y07215D03*
X03855Y06785D03*
X03570Y07145D03*
X04175Y07215D03*
X04620Y07165D03*
X03955Y07440D03*
X04025Y07260D03*
X03795Y07490D03*
X03990D03*
X05727Y06560D03*
X06035D03*
X05645Y07080D03*
X05695D03*
X05745D03*
X05795D03*
X05845D03*
X05895D03*
X05595D03*
X05945D03*
X05595Y07015D03*
X05945D03*
X05895D03*
X05845D03*
X05795D03*
X05745D03*
X05695D03*
X05645D03*
X02310Y07410D03*
X02340Y07375D03*
X03250Y06945D03*
X01575Y05705D03*
X02181Y03300D03*
X02252D03*
X02323D03*
X02394D03*
X02465D03*
X02536D03*
X02608D03*
X02679D03*
X02750D03*
X02821D03*
X02892D03*
X02963D03*
X03035D03*
X02110D03*
Y03140D03*
X03035D03*
X02963D03*
X02892D03*
X02821D03*
X02750D03*
X02679D03*
X02608D03*
X02536D03*
X02465D03*
X02394D03*
X02323D03*
X02252D03*
X02181D03*
X01965Y03005D03*
X02890D03*
X02818D03*
X02747D03*
X02676D03*
X02605D03*
X02534D03*
X02463D03*
X02391D03*
X02320D03*
X02249D03*
X02178D03*
X02107D03*
X02036D03*
X01965Y02720D03*
X02890D03*
X02818D03*
X02747D03*
X02676D03*
X02605D03*
X02534D03*
X02463D03*
X02391D03*
X02320D03*
X02249D03*
X02178D03*
X02107D03*
X02036D03*
X01670Y04775D03*
X02595D03*
X02523D03*
X02452D03*
X02381D03*
X02310D03*
X02239D03*
X02168D03*
X02096D03*
X02025D03*
X01954D03*
X01883D03*
X01812D03*
X01741D03*
X02680D03*
X03605D03*
X03533D03*
X03462D03*
X03391D03*
X03320D03*
X03249D03*
X03178D03*
X03106D03*
X03035D03*
X02964D03*
X02893D03*
X02822D03*
X02751D03*
X03695D03*
X04620D03*
X04548D03*
X04477D03*
X04406D03*
X04335D03*
X04264D03*
X04193D03*
X04121D03*
X04050D03*
X03979D03*
X03908D03*
X03837D03*
X03766D03*
X01470Y01378D03*
X02395D03*
X02323D03*
X02252D03*
X02181D03*
X02110D03*
X02039D03*
X01968D03*
X01896D03*
X01825D03*
X01754D03*
X01683D03*
X01612D03*
X01541D03*
X02620D03*
X03545D03*
X03473D03*
X03402D03*
X03331D03*
X03260D03*
X03189D03*
X03118D03*
X03046D03*
X02975D03*
X02904D03*
X02833D03*
X02762D03*
X02691D03*
X03843Y01378D03*
X04768D03*
X04697D03*
X04625D03*
X04554D03*
X04483D03*
X04412D03*
X04341D03*
X04270D03*
X04198D03*
X04127D03*
X04056D03*
X03985D03*
X03914D03*
G54D63*
X06564Y07222D03*
X06476D03*
X06564Y07122D03*
X06476D03*
X06564Y07022D03*
X06476D03*
X06564Y06922D03*
X06476D03*
X06564Y06822D03*
X06476D03*
X06564Y06722D03*
X06476D03*
X06564Y06622D03*
X06476D03*
X06564Y06522D03*
X06476D03*
G54D64*
X05496Y06963D02*
Y07329D01*
G54D65*
X03205Y01695D03*
G54D66*
X03205Y02082D03*
G54D67*
X03205Y04437D03*
G54D68*
X03220Y04050D03*
G54D69*
X05820Y07035D03*
G54D70*
X03215Y03170D03*
G54D71*
X03302Y02640D03*
G54D72*
X02637Y03237D03*
G54D73*
X01640Y02950D03*
G54D74*
X02487Y02937D03*
G54D75*
X02252Y02650D03*
G54D76*
X01912Y03352D03*
G54D77*
X01312Y04212D03*
G54D78*
X01307Y01935D03*
G54D79*
X03035Y01372D03*
G54D80*
X03160Y02567D03*
G54D81*
X03447Y03125D03*
G54D82*
X03455Y03530D03*
G54D83*
X03527Y03425D03*
G54D84*
X01680Y03517D03*
G54D85*
X01292Y03237D03*
G54D86*
X01397Y03940D03*
G54D87*
X03130Y04775D03*
G54D88*
X01372Y01460D03*
G54D89*
X01400Y02090D03*
M02*