%FSDAX23Y23*%
%MOIN*%
%SFA1B1*%

%IPPOS*%
%ADD37C,0.010000*%
%ADD94C,0.003900*%
%ADD141C,0.039400*%
%LNde-130817-1*%
%LPD*%
G54D37*
X06919Y07918D02*
D01*
X06918Y07923*
X06918Y07929*
X06917Y07934*
X06916Y07940*
X06914Y07945*
X06912Y07950*
X06909Y07955*
X06907Y07960*
X06904Y07964*
X06900Y07968*
X06897Y07973*
X06893Y07976*
X06888Y07980*
X06884Y07983*
X06879Y07986*
X06874Y07989*
X06869Y07991*
X06864Y07993*
X06859Y07994*
X06854Y07995*
X06848Y07996*
X06843Y07997*
X06837*
X06832Y07996*
X06826Y07995*
X06821Y07994*
X06816Y07993*
X06810Y07991*
X06805Y07989*
X06801Y07986*
X06796Y07983*
X06791Y07980*
X06787Y07976*
X06783Y07973*
X06780Y07968*
X06776Y07964*
X06773Y07960*
X06770Y07955*
X06768Y07950*
X06766Y07945*
X06764Y07940*
X06763Y07934*
X06762Y07929*
X06761Y07923*
X06761Y07918*
X06761Y07912*
X06762Y07907*
X06763Y07902*
X06764Y07896*
X06766Y07891*
X06768Y07886*
X06770Y07881*
X06773Y07876*
X06776Y07872*
X06780Y07867*
X06783Y07863*
X06787Y07859*
X06791Y07856*
X06796Y07853*
X06801Y07850*
X06805Y07847*
X06810Y07845*
X06816Y07843*
X06821Y07842*
X06826Y07840*
X06832Y07840*
X06837Y07839*
X06843*
X06848Y07840*
X06854Y07840*
X06859Y07842*
X06864Y07843*
X06869Y07845*
X06874Y07847*
X06879Y07850*
X06884Y07853*
X06888Y07856*
X06893Y07859*
X06897Y07863*
X06900Y07867*
X06904Y07872*
X06907Y07876*
X06909Y07881*
X06912Y07886*
X06914Y07891*
X06916Y07896*
X06917Y07902*
X06918Y07907*
X06918Y07912*
X06919Y07918*
Y08318D02*
D01*
X06918Y08323*
X06918Y08329*
X06917Y08334*
X06916Y08340*
X06914Y08345*
X06912Y08350*
X06909Y08355*
X06907Y08360*
X06904Y08364*
X06900Y08368*
X06897Y08373*
X06893Y08376*
X06888Y08380*
X06884Y08383*
X06879Y08386*
X06874Y08389*
X06869Y08391*
X06864Y08393*
X06859Y08394*
X06854Y08395*
X06848Y08396*
X06843Y08397*
X06837*
X06832Y08396*
X06826Y08395*
X06821Y08394*
X06816Y08393*
X06810Y08391*
X06805Y08389*
X06801Y08386*
X06796Y08383*
X06791Y08380*
X06787Y08376*
X06783Y08373*
X06780Y08368*
X06776Y08364*
X06773Y08360*
X06770Y08355*
X06768Y08350*
X06766Y08345*
X06764Y08340*
X06763Y08334*
X06762Y08329*
X06761Y08323*
X06761Y08318*
X06761Y08312*
X06762Y08307*
X06763Y08302*
X06764Y08296*
X06766Y08291*
X06768Y08286*
X06770Y08281*
X06773Y08276*
X06776Y08272*
X06780Y08267*
X06783Y08263*
X06787Y08259*
X06791Y08256*
X06796Y08253*
X06801Y08250*
X06805Y08247*
X06810Y08245*
X06816Y08243*
X06821Y08242*
X06826Y08240*
X06832Y08240*
X06837Y08239*
X06843*
X06848Y08240*
X06854Y08240*
X06859Y08242*
X06864Y08243*
X06869Y08245*
X06874Y08247*
X06879Y08250*
X06884Y08253*
X06888Y08256*
X06893Y08259*
X06897Y08263*
X06900Y08267*
X06904Y08272*
X06907Y08276*
X06909Y08281*
X06912Y08286*
X06914Y08291*
X06916Y08296*
X06917Y08302*
X06918Y08307*
X06918Y08312*
X06919Y08318*
Y08116D02*
D01*
X06918Y08122*
X06918Y08127*
X06917Y08133*
X06916Y08138*
X06914Y08143*
X06912Y08148*
X06909Y08153*
X06907Y08158*
X06904Y08163*
X06900Y08167*
X06897Y08171*
X06893Y08175*
X06888Y08178*
X06884Y08182*
X06879Y08184*
X06874Y08187*
X06869Y08189*
X06864Y08191*
X06859Y08193*
X06854Y08194*
X06848Y08195*
X06843Y08195*
X06837*
X06832Y08195*
X06826Y08194*
X06821Y08193*
X06816Y08191*
X06810Y08189*
X06805Y08187*
X06801Y08184*
X06796Y08182*
X06791Y08178*
X06787Y08175*
X06783Y08171*
X06780Y08167*
X06776Y08163*
X06773Y08158*
X06770Y08153*
X06768Y08148*
X06766Y08143*
X06764Y08138*
X06763Y08133*
X06762Y08127*
X06761Y08122*
X06761Y08116*
X06761Y08111*
X06762Y08105*
X06763Y08100*
X06764Y08095*
X06766Y08089*
X06768Y08084*
X06770Y08079*
X06773Y08075*
X06776Y08070*
X06780Y08066*
X06783Y08062*
X06787Y08058*
X06791Y08054*
X06796Y08051*
X06801Y08048*
X06805Y08046*
X06810Y08043*
X06816Y08041*
X06821Y08040*
X06826Y08039*
X06832Y08038*
X06837Y08038*
X06843*
X06848Y08038*
X06854Y08039*
X06859Y08040*
X06864Y08041*
X06869Y08043*
X06874Y08046*
X06879Y08048*
X06884Y08051*
X06888Y08054*
X06893Y08058*
X06897Y08062*
X06900Y08066*
X06904Y08070*
X06907Y08075*
X06909Y08079*
X06912Y08084*
X06914Y08089*
X06916Y08095*
X06917Y08100*
X06918Y08105*
X06918Y08111*
X06919Y08116*
X06918Y05535D02*
D01*
X06918Y05540*
X06917Y05545*
X06916Y05551*
X06915Y05556*
X06913Y05561*
X06911Y05567*
X06909Y05571*
X06906Y05576*
X06903Y05581*
X06900Y05585*
X06896Y05589*
X06892Y05593*
X06888Y05597*
X06884Y05600*
X06879Y05603*
X06874Y05605*
X06869Y05607*
X06864Y05609*
X06859Y05611*
X06853Y05612*
X06848Y05613*
X06842Y05613*
X06837*
X06831Y05613*
X06826Y05612*
X06820Y05611*
X06815Y05609*
X06810Y05607*
X06805Y05605*
X06800Y05603*
X06795Y05600*
X06791Y05597*
X06787Y05593*
X06783Y05589*
X06779Y05585*
X06776Y05581*
X06773Y05576*
X06770Y05571*
X06768Y05567*
X06766Y05561*
X06764Y05556*
X06763Y05551*
X06762Y05545*
X06761Y05540*
X06761Y05535*
X06761Y05529*
X06762Y05524*
X06763Y05518*
X06764Y05513*
X06766Y05508*
X06768Y05502*
X06770Y05498*
X06773Y05493*
X06776Y05488*
X06779Y05484*
X06783Y05480*
X06787Y05476*
X06791Y05472*
X06795Y05469*
X06800Y05466*
X06805Y05464*
X06810Y05462*
X06815Y05460*
X06820Y05458*
X06826Y05457*
X06831Y05456*
X06837Y05456*
X06842*
X06848Y05456*
X06853Y05457*
X06859Y05458*
X06864Y05460*
X06869Y05462*
X06874Y05464*
X06879Y05466*
X06884Y05469*
X06888Y05472*
X06892Y05476*
X06896Y05480*
X06900Y05484*
X06903Y05488*
X06906Y05493*
X06909Y05498*
X06911Y05502*
X06913Y05508*
X06915Y05513*
X06916Y05518*
X06917Y05524*
X06918Y05529*
X06918Y05535*
Y05733D02*
D01*
X06918Y05738*
X06917Y05744*
X06916Y05749*
X06915Y05755*
X06913Y05760*
X06911Y05765*
X06909Y05770*
X06906Y05775*
X06903Y05779*
X06900Y05783*
X06896Y05788*
X06892Y05791*
X06888Y05795*
X06884Y05798*
X06879Y05801*
X06874Y05804*
X06869Y05806*
X06864Y05808*
X06859Y05809*
X06853Y05810*
X06848Y05811*
X06842Y05812*
X06837*
X06831Y05811*
X06826Y05810*
X06820Y05809*
X06815Y05808*
X06810Y05806*
X06805Y05804*
X06800Y05801*
X06795Y05798*
X06791Y05795*
X06787Y05791*
X06783Y05788*
X06779Y05783*
X06776Y05779*
X06773Y05775*
X06770Y05770*
X06768Y05765*
X06766Y05760*
X06764Y05755*
X06763Y05749*
X06762Y05744*
X06761Y05738*
X06761Y05733*
X06761Y05727*
X06762Y05722*
X06763Y05717*
X06764Y05711*
X06766Y05706*
X06768Y05701*
X06770Y05696*
X06773Y05691*
X06776Y05687*
X06779Y05682*
X06783Y05678*
X06787Y05674*
X06791Y05671*
X06795Y05668*
X06800Y05665*
X06805Y05662*
X06810Y05660*
X06815Y05658*
X06820Y05657*
X06826Y05655*
X06831Y05655*
X06837Y05654*
X06842*
X06848Y05655*
X06853Y05655*
X06859Y05657*
X06864Y05658*
X06869Y05660*
X06874Y05662*
X06879Y05665*
X06884Y05668*
X06888Y05671*
X06892Y05674*
X06896Y05678*
X06900Y05682*
X06903Y05687*
X06906Y05691*
X06909Y05696*
X06911Y05701*
X06913Y05706*
X06915Y05711*
X06916Y05717*
X06917Y05722*
X06918Y05727*
X06918Y05733*
X06655Y05250D02*
D01*
X06655Y05255*
X06655Y05260*
X06654Y05266*
X06652Y05271*
X06651Y05276*
X06648Y05282*
X06646Y05286*
X06643Y05291*
X06640Y05296*
X06637Y05300*
X06633Y05304*
X06629Y05308*
X06625Y05312*
X06621Y05315*
X06616Y05318*
X06611Y05320*
X06606Y05322*
X06601Y05324*
X06596Y05326*
X06590Y05327*
X06585Y05328*
X06579Y05328*
X06574*
X06568Y05328*
X06563Y05327*
X06558Y05326*
X06552Y05324*
X06547Y05322*
X06542Y05320*
X06537Y05318*
X06533Y05315*
X06528Y05312*
X06524Y05308*
X06520Y05304*
X06516Y05300*
X06513Y05296*
X06510Y05291*
X06507Y05286*
X06505Y05282*
X06503Y05276*
X06501Y05271*
X06500Y05266*
X06499Y05260*
X06498Y05255*
X06498Y05250*
X06498Y05244*
X06499Y05239*
X06500Y05233*
X06501Y05228*
X06503Y05223*
X06505Y05217*
X06507Y05213*
X06510Y05208*
X06513Y05203*
X06516Y05199*
X06520Y05195*
X06524Y05191*
X06528Y05187*
X06533Y05184*
X06537Y05181*
X06542Y05179*
X06547Y05177*
X06552Y05175*
X06558Y05173*
X06563Y05172*
X06568Y05171*
X06574Y05171*
X06579*
X06585Y05171*
X06590Y05172*
X06596Y05173*
X06601Y05175*
X06606Y05177*
X06611Y05179*
X06616Y05181*
X06621Y05184*
X06625Y05187*
X06629Y05191*
X06633Y05195*
X06637Y05199*
X06640Y05203*
X06643Y05208*
X06646Y05213*
X06648Y05217*
X06651Y05223*
X06652Y05228*
X06654Y05233*
X06655Y05239*
X06655Y05244*
X06655Y05250*
X06255D02*
D01*
X06255Y05255*
X06255Y05260*
X06254Y05266*
X06252Y05271*
X06251Y05276*
X06248Y05282*
X06246Y05286*
X06243Y05291*
X06240Y05296*
X06237Y05300*
X06233Y05304*
X06229Y05308*
X06225Y05312*
X06221Y05315*
X06216Y05318*
X06211Y05320*
X06206Y05322*
X06201Y05324*
X06196Y05326*
X06190Y05327*
X06185Y05328*
X06179Y05328*
X06174*
X06168Y05328*
X06163Y05327*
X06158Y05326*
X06152Y05324*
X06147Y05322*
X06142Y05320*
X06137Y05318*
X06133Y05315*
X06128Y05312*
X06124Y05308*
X06120Y05304*
X06116Y05300*
X06113Y05296*
X06110Y05291*
X06107Y05286*
X06105Y05282*
X06103Y05276*
X06101Y05271*
X06100Y05266*
X06099Y05260*
X06098Y05255*
X06098Y05250*
X06098Y05244*
X06099Y05239*
X06100Y05233*
X06101Y05228*
X06103Y05223*
X06105Y05217*
X06107Y05213*
X06110Y05208*
X06113Y05203*
X06116Y05199*
X06120Y05195*
X06124Y05191*
X06128Y05187*
X06133Y05184*
X06137Y05181*
X06142Y05179*
X06147Y05177*
X06152Y05175*
X06158Y05173*
X06163Y05172*
X06168Y05171*
X06174Y05171*
X06179*
X06185Y05171*
X06190Y05172*
X06196Y05173*
X06201Y05175*
X06206Y05177*
X06211Y05179*
X06216Y05181*
X06221Y05184*
X06225Y05187*
X06229Y05191*
X06233Y05195*
X06237Y05199*
X06240Y05203*
X06243Y05208*
X06246Y05213*
X06248Y05217*
X06251Y05223*
X06252Y05228*
X06254Y05233*
X06255Y05239*
X06255Y05244*
X06255Y05250*
X06457D02*
D01*
X06457Y05255*
X06456Y05260*
X06455Y05266*
X06454Y05271*
X06452Y05276*
X06450Y05282*
X06448Y05286*
X06445Y05291*
X06442Y05296*
X06438Y05300*
X06435Y05304*
X06431Y05308*
X06427Y05312*
X06422Y05315*
X06418Y05318*
X06413Y05320*
X06408Y05322*
X06403Y05324*
X06397Y05326*
X06392Y05327*
X06386Y05328*
X06381Y05328*
X06375*
X06370Y05328*
X06365Y05327*
X06359Y05326*
X06354Y05324*
X06349Y05322*
X06344Y05320*
X06339Y05318*
X06334Y05315*
X06330Y05312*
X06326Y05308*
X06322Y05304*
X06318Y05300*
X06315Y05296*
X06311Y05291*
X06309Y05286*
X06306Y05282*
X06304Y05276*
X06303Y05271*
X06301Y05266*
X06300Y05260*
X06300Y05255*
X06300Y05250*
X06300Y05244*
X06300Y05239*
X06301Y05233*
X06303Y05228*
X06304Y05223*
X06306Y05217*
X06309Y05213*
X06311Y05208*
X06315Y05203*
X06318Y05199*
X06322Y05195*
X06326Y05191*
X06330Y05187*
X06334Y05184*
X06339Y05181*
X06344Y05179*
X06349Y05177*
X06354Y05175*
X06359Y05173*
X06365Y05172*
X06370Y05171*
X06375Y05171*
X06381*
X06386Y05171*
X06392Y05172*
X06397Y05173*
X06403Y05175*
X06408Y05177*
X06413Y05179*
X06418Y05181*
X06422Y05184*
X06427Y05187*
X06431Y05191*
X06435Y05195*
X06438Y05199*
X06442Y05203*
X06445Y05208*
X06448Y05213*
X06450Y05217*
X06452Y05223*
X06454Y05228*
X06455Y05233*
X06456Y05239*
X06457Y05244*
X06457Y05250*
X06025D02*
D01*
X06025Y05255*
X06025Y05260*
X06024Y05266*
X06022Y05271*
X06021Y05276*
X06018Y05282*
X06016Y05286*
X06013Y05291*
X06010Y05296*
X06007Y05300*
X06003Y05304*
X05999Y05308*
X05995Y05312*
X05991Y05315*
X05986Y05318*
X05981Y05320*
X05976Y05322*
X05971Y05324*
X05966Y05326*
X05960Y05327*
X05955Y05328*
X05949Y05328*
X05944*
X05938Y05328*
X05933Y05327*
X05928Y05326*
X05922Y05324*
X05917Y05322*
X05912Y05320*
X05907Y05318*
X05903Y05315*
X05898Y05312*
X05894Y05308*
X05890Y05304*
X05886Y05300*
X05883Y05296*
X05880Y05291*
X05877Y05286*
X05875Y05282*
X05873Y05276*
X05871Y05271*
X05870Y05266*
X05869Y05260*
X05868Y05255*
X05868Y05250*
X05868Y05244*
X05869Y05239*
X05870Y05233*
X05871Y05228*
X05873Y05223*
X05875Y05217*
X05877Y05213*
X05880Y05208*
X05883Y05203*
X05886Y05199*
X05890Y05195*
X05894Y05191*
X05898Y05187*
X05903Y05184*
X05907Y05181*
X05912Y05179*
X05917Y05177*
X05922Y05175*
X05928Y05173*
X05933Y05172*
X05938Y05171*
X05944Y05171*
X05949*
X05955Y05171*
X05960Y05172*
X05966Y05173*
X05971Y05175*
X05976Y05177*
X05981Y05179*
X05986Y05181*
X05991Y05184*
X05995Y05187*
X05999Y05191*
X06003Y05195*
X06007Y05199*
X06010Y05203*
X06013Y05208*
X06016Y05213*
X06018Y05217*
X06021Y05223*
X06022Y05228*
X06024Y05233*
X06025Y05239*
X06025Y05244*
X06025Y05250*
X05625D02*
D01*
X05625Y05255*
X05625Y05260*
X05624Y05266*
X05622Y05271*
X05621Y05276*
X05618Y05282*
X05616Y05286*
X05613Y05291*
X05610Y05296*
X05607Y05300*
X05603Y05304*
X05599Y05308*
X05595Y05312*
X05591Y05315*
X05586Y05318*
X05581Y05320*
X05576Y05322*
X05571Y05324*
X05566Y05326*
X05560Y05327*
X05555Y05328*
X05549Y05328*
X05544*
X05538Y05328*
X05533Y05327*
X05528Y05326*
X05522Y05324*
X05517Y05322*
X05512Y05320*
X05507Y05318*
X05503Y05315*
X05498Y05312*
X05494Y05308*
X05490Y05304*
X05486Y05300*
X05483Y05296*
X05480Y05291*
X05477Y05286*
X05475Y05282*
X05473Y05276*
X05471Y05271*
X05470Y05266*
X05469Y05260*
X05468Y05255*
X05468Y05250*
X05468Y05244*
X05469Y05239*
X05470Y05233*
X05471Y05228*
X05473Y05223*
X05475Y05217*
X05477Y05213*
X05480Y05208*
X05483Y05203*
X05486Y05199*
X05490Y05195*
X05494Y05191*
X05498Y05187*
X05503Y05184*
X05507Y05181*
X05512Y05179*
X05517Y05177*
X05522Y05175*
X05528Y05173*
X05533Y05172*
X05538Y05171*
X05544Y05171*
X05549*
X05555Y05171*
X05560Y05172*
X05566Y05173*
X05571Y05175*
X05576Y05177*
X05581Y05179*
X05586Y05181*
X05591Y05184*
X05595Y05187*
X05599Y05191*
X05603Y05195*
X05607Y05199*
X05610Y05203*
X05613Y05208*
X05616Y05213*
X05618Y05217*
X05621Y05223*
X05622Y05228*
X05624Y05233*
X05625Y05239*
X05625Y05244*
X05625Y05250*
X05827D02*
D01*
X05827Y05255*
X05826Y05260*
X05825Y05266*
X05824Y05271*
X05822Y05276*
X05820Y05282*
X05818Y05286*
X05815Y05291*
X05812Y05296*
X05808Y05300*
X05805Y05304*
X05801Y05308*
X05797Y05312*
X05792Y05315*
X05787Y05318*
X05783Y05320*
X05778Y05322*
X05772Y05324*
X05767Y05326*
X05762Y05327*
X05756Y05328*
X05751Y05328*
X05745*
X05740Y05328*
X05734Y05327*
X05729Y05326*
X05724Y05324*
X05719Y05322*
X05714Y05320*
X05709Y05318*
X05704Y05315*
X05700Y05312*
X05695Y05308*
X05691Y05304*
X05688Y05300*
X05684Y05296*
X05681Y05291*
X05679Y05286*
X05676Y05282*
X05674Y05276*
X05672Y05271*
X05671Y05266*
X05670Y05260*
X05670Y05255*
X05669Y05250*
X05670Y05244*
X05670Y05239*
X05671Y05233*
X05672Y05228*
X05674Y05223*
X05676Y05217*
X05679Y05213*
X05681Y05208*
X05684Y05203*
X05688Y05199*
X05691Y05195*
X05695Y05191*
X05700Y05187*
X05704Y05184*
X05709Y05181*
X05714Y05179*
X05719Y05177*
X05724Y05175*
X05729Y05173*
X05734Y05172*
X05740Y05171*
X05745Y05171*
X05751*
X05756Y05171*
X05762Y05172*
X05767Y05173*
X05772Y05175*
X05778Y05177*
X05783Y05179*
X05787Y05181*
X05792Y05184*
X05797Y05187*
X05801Y05191*
X05805Y05195*
X05808Y05199*
X05812Y05203*
X05815Y05208*
X05818Y05213*
X05820Y05217*
X05822Y05223*
X05824Y05228*
X05825Y05233*
X05826Y05239*
X05827Y05244*
X05827Y05250*
X05395D02*
D01*
X05395Y05255*
X05394Y05260*
X05393Y05266*
X05392Y05271*
X05390Y05276*
X05388Y05282*
X05386Y05286*
X05383Y05291*
X05380Y05296*
X05377Y05300*
X05373Y05304*
X05369Y05308*
X05365Y05312*
X05361Y05315*
X05356Y05318*
X05351Y05320*
X05346Y05322*
X05341Y05324*
X05336Y05326*
X05330Y05327*
X05325Y05328*
X05319Y05328*
X05314*
X05308Y05328*
X05303Y05327*
X05297Y05326*
X05292Y05324*
X05287Y05322*
X05282Y05320*
X05277Y05318*
X05272Y05315*
X05268Y05312*
X05264Y05308*
X05260Y05304*
X05256Y05300*
X05253Y05296*
X05250Y05291*
X05247Y05286*
X05245Y05282*
X05243Y05276*
X05241Y05271*
X05240Y05266*
X05239Y05260*
X05238Y05255*
X05238Y05250*
X05238Y05244*
X05239Y05239*
X05240Y05233*
X05241Y05228*
X05243Y05223*
X05245Y05217*
X05247Y05213*
X05250Y05208*
X05253Y05203*
X05256Y05199*
X05260Y05195*
X05264Y05191*
X05268Y05187*
X05272Y05184*
X05277Y05181*
X05282Y05179*
X05287Y05177*
X05292Y05175*
X05297Y05173*
X05303Y05172*
X05308Y05171*
X05314Y05171*
X05319*
X05325Y05171*
X05330Y05172*
X05336Y05173*
X05341Y05175*
X05346Y05177*
X05351Y05179*
X05356Y05181*
X05361Y05184*
X05365Y05187*
X05369Y05191*
X05373Y05195*
X05377Y05199*
X05380Y05203*
X05383Y05208*
X05386Y05213*
X05388Y05217*
X05390Y05223*
X05392Y05228*
X05393Y05233*
X05394Y05239*
X05395Y05244*
X05395Y05250*
X04995D02*
D01*
X04995Y05255*
X04994Y05260*
X04993Y05266*
X04992Y05271*
X04990Y05276*
X04988Y05282*
X04986Y05286*
X04983Y05291*
X04980Y05296*
X04977Y05300*
X04973Y05304*
X04969Y05308*
X04965Y05312*
X04961Y05315*
X04956Y05318*
X04951Y05320*
X04946Y05322*
X04941Y05324*
X04936Y05326*
X04930Y05327*
X04925Y05328*
X04919Y05328*
X04914*
X04908Y05328*
X04903Y05327*
X04897Y05326*
X04892Y05324*
X04887Y05322*
X04882Y05320*
X04877Y05318*
X04872Y05315*
X04868Y05312*
X04864Y05308*
X04860Y05304*
X04856Y05300*
X04853Y05296*
X04850Y05291*
X04847Y05286*
X04845Y05282*
X04843Y05276*
X04841Y05271*
X04840Y05266*
X04839Y05260*
X04838Y05255*
X04838Y05250*
X04838Y05244*
X04839Y05239*
X04840Y05233*
X04841Y05228*
X04843Y05223*
X04845Y05217*
X04847Y05213*
X04850Y05208*
X04853Y05203*
X04856Y05199*
X04860Y05195*
X04864Y05191*
X04868Y05187*
X04872Y05184*
X04877Y05181*
X04882Y05179*
X04887Y05177*
X04892Y05175*
X04897Y05173*
X04903Y05172*
X04908Y05171*
X04914Y05171*
X04919*
X04925Y05171*
X04930Y05172*
X04936Y05173*
X04941Y05175*
X04946Y05177*
X04951Y05179*
X04956Y05181*
X04961Y05184*
X04965Y05187*
X04969Y05191*
X04973Y05195*
X04977Y05199*
X04980Y05203*
X04983Y05208*
X04986Y05213*
X04988Y05217*
X04990Y05223*
X04992Y05228*
X04993Y05233*
X04994Y05239*
X04995Y05244*
X04995Y05250*
X05197D02*
D01*
X05197Y05255*
X05196Y05260*
X05195Y05266*
X05194Y05271*
X05192Y05276*
X05190Y05282*
X05188Y05286*
X05185Y05291*
X05182Y05296*
X05178Y05300*
X05175Y05304*
X05171Y05308*
X05167Y05312*
X05162Y05315*
X05157Y05318*
X05153Y05320*
X05148Y05322*
X05142Y05324*
X05137Y05326*
X05132Y05327*
X05126Y05328*
X05121Y05328*
X05115*
X05110Y05328*
X05104Y05327*
X05099Y05326*
X05094Y05324*
X05089Y05322*
X05084Y05320*
X05079Y05318*
X05074Y05315*
X05070Y05312*
X05065Y05308*
X05061Y05304*
X05058Y05300*
X05054Y05296*
X05051Y05291*
X05049Y05286*
X05046Y05282*
X05044Y05276*
X05042Y05271*
X05041Y05266*
X05040Y05260*
X05040Y05255*
X05039Y05250*
X05040Y05244*
X05040Y05239*
X05041Y05233*
X05042Y05228*
X05044Y05223*
X05046Y05217*
X05049Y05213*
X05051Y05208*
X05054Y05203*
X05058Y05199*
X05061Y05195*
X05065Y05191*
X05070Y05187*
X05074Y05184*
X05079Y05181*
X05084Y05179*
X05089Y05177*
X05094Y05175*
X05099Y05173*
X05104Y05172*
X05110Y05171*
X05115Y05171*
X05121*
X05126Y05171*
X05132Y05172*
X05137Y05173*
X05142Y05175*
X05148Y05177*
X05153Y05179*
X05157Y05181*
X05162Y05184*
X05167Y05187*
X05171Y05191*
X05175Y05195*
X05178Y05199*
X05182Y05203*
X05185Y05208*
X05188Y05213*
X05190Y05217*
X05192Y05223*
X05194Y05228*
X05195Y05233*
X05196Y05239*
X05197Y05244*
X05197Y05250*
X04765D02*
D01*
X04765Y05255*
X04764Y05260*
X04763Y05266*
X04762Y05271*
X04760Y05276*
X04758Y05282*
X04756Y05286*
X04753Y05291*
X04750Y05296*
X04747Y05300*
X04743Y05304*
X04739Y05308*
X04735Y05312*
X04731Y05315*
X04726Y05318*
X04721Y05320*
X04716Y05322*
X04711Y05324*
X04706Y05326*
X04700Y05327*
X04695Y05328*
X04689Y05328*
X04684*
X04678Y05328*
X04673Y05327*
X04667Y05326*
X04662Y05324*
X04657Y05322*
X04652Y05320*
X04647Y05318*
X04642Y05315*
X04638Y05312*
X04634Y05308*
X04630Y05304*
X04626Y05300*
X04623Y05296*
X04620Y05291*
X04617Y05286*
X04615Y05282*
X04613Y05276*
X04611Y05271*
X04610Y05266*
X04609Y05260*
X04608Y05255*
X04608Y05250*
X04608Y05244*
X04609Y05239*
X04610Y05233*
X04611Y05228*
X04613Y05223*
X04615Y05217*
X04617Y05213*
X04620Y05208*
X04623Y05203*
X04626Y05199*
X04630Y05195*
X04634Y05191*
X04638Y05187*
X04642Y05184*
X04647Y05181*
X04652Y05179*
X04657Y05177*
X04662Y05175*
X04667Y05173*
X04673Y05172*
X04678Y05171*
X04684Y05171*
X04689*
X04695Y05171*
X04700Y05172*
X04706Y05173*
X04711Y05175*
X04716Y05177*
X04721Y05179*
X04726Y05181*
X04731Y05184*
X04735Y05187*
X04739Y05191*
X04743Y05195*
X04747Y05199*
X04750Y05203*
X04753Y05208*
X04756Y05213*
X04758Y05217*
X04760Y05223*
X04762Y05228*
X04763Y05233*
X04764Y05239*
X04765Y05244*
X04765Y05250*
X04365D02*
D01*
X04365Y05255*
X04364Y05260*
X04363Y05266*
X04362Y05271*
X04360Y05276*
X04358Y05282*
X04356Y05286*
X04353Y05291*
X04350Y05296*
X04347Y05300*
X04343Y05304*
X04339Y05308*
X04335Y05312*
X04331Y05315*
X04326Y05318*
X04321Y05320*
X04316Y05322*
X04311Y05324*
X04306Y05326*
X04300Y05327*
X04295Y05328*
X04289Y05328*
X04284*
X04278Y05328*
X04273Y05327*
X04267Y05326*
X04262Y05324*
X04257Y05322*
X04252Y05320*
X04247Y05318*
X04242Y05315*
X04238Y05312*
X04234Y05308*
X04230Y05304*
X04226Y05300*
X04223Y05296*
X04220Y05291*
X04217Y05286*
X04215Y05282*
X04213Y05276*
X04211Y05271*
X04210Y05266*
X04209Y05260*
X04208Y05255*
X04208Y05250*
X04208Y05244*
X04209Y05239*
X04210Y05233*
X04211Y05228*
X04213Y05223*
X04215Y05217*
X04217Y05213*
X04220Y05208*
X04223Y05203*
X04226Y05199*
X04230Y05195*
X04234Y05191*
X04238Y05187*
X04242Y05184*
X04247Y05181*
X04252Y05179*
X04257Y05177*
X04262Y05175*
X04267Y05173*
X04273Y05172*
X04278Y05171*
X04284Y05171*
X04289*
X04295Y05171*
X04300Y05172*
X04306Y05173*
X04311Y05175*
X04316Y05177*
X04321Y05179*
X04326Y05181*
X04331Y05184*
X04335Y05187*
X04339Y05191*
X04343Y05195*
X04347Y05199*
X04350Y05203*
X04353Y05208*
X04356Y05213*
X04358Y05217*
X04360Y05223*
X04362Y05228*
X04363Y05233*
X04364Y05239*
X04365Y05244*
X04365Y05250*
X04567D02*
D01*
X04567Y05255*
X04566Y05260*
X04565Y05266*
X04564Y05271*
X04562Y05276*
X04560Y05282*
X04557Y05286*
X04555Y05291*
X04552Y05296*
X04548Y05300*
X04545Y05304*
X04541Y05308*
X04536Y05312*
X04532Y05315*
X04527Y05318*
X04522Y05320*
X04517Y05322*
X04512Y05324*
X04507Y05326*
X04502Y05327*
X04496Y05328*
X04491Y05328*
X04485*
X04480Y05328*
X04474Y05327*
X04469Y05326*
X04464Y05324*
X04459Y05322*
X04454Y05320*
X04449Y05318*
X04444Y05315*
X04440Y05312*
X04435Y05308*
X04431Y05304*
X04428Y05300*
X04424Y05296*
X04421Y05291*
X04419Y05286*
X04416Y05282*
X04414Y05276*
X04412Y05271*
X04411Y05266*
X04410Y05260*
X04409Y05255*
X04409Y05250*
X04409Y05244*
X04410Y05239*
X04411Y05233*
X04412Y05228*
X04414Y05223*
X04416Y05217*
X04419Y05213*
X04421Y05208*
X04424Y05203*
X04428Y05199*
X04431Y05195*
X04435Y05191*
X04440Y05187*
X04444Y05184*
X04449Y05181*
X04454Y05179*
X04459Y05177*
X04464Y05175*
X04469Y05173*
X04474Y05172*
X04480Y05171*
X04485Y05171*
X04491*
X04496Y05171*
X04502Y05172*
X04507Y05173*
X04512Y05175*
X04517Y05177*
X04522Y05179*
X04527Y05181*
X04532Y05184*
X04536Y05187*
X04541Y05191*
X04545Y05195*
X04548Y05199*
X04552Y05203*
X04555Y05208*
X04557Y05213*
X04560Y05217*
X04562Y05223*
X04564Y05228*
X04565Y05233*
X04566Y05239*
X04567Y05244*
X04567Y05250*
X04135D02*
D01*
X04135Y05255*
X04134Y05260*
X04133Y05266*
X04132Y05271*
X04130Y05276*
X04128Y05282*
X04126Y05286*
X04123Y05291*
X04120Y05296*
X04117Y05300*
X04113Y05304*
X04109Y05308*
X04105Y05312*
X04100Y05315*
X04096Y05318*
X04091Y05320*
X04086Y05322*
X04081Y05324*
X04075Y05326*
X04070Y05327*
X04065Y05328*
X04059Y05328*
X04054*
X04048Y05328*
X04043Y05327*
X04037Y05326*
X04032Y05324*
X04027Y05322*
X04022Y05320*
X04017Y05318*
X04012Y05315*
X04008Y05312*
X04004Y05308*
X04000Y05304*
X03996Y05300*
X03993Y05296*
X03990Y05291*
X03987Y05286*
X03985Y05282*
X03982Y05276*
X03981Y05271*
X03979Y05266*
X03978Y05260*
X03978Y05255*
X03978Y05250*
X03978Y05244*
X03978Y05239*
X03979Y05233*
X03981Y05228*
X03982Y05223*
X03985Y05217*
X03987Y05213*
X03990Y05208*
X03993Y05203*
X03996Y05199*
X04000Y05195*
X04004Y05191*
X04008Y05187*
X04012Y05184*
X04017Y05181*
X04022Y05179*
X04027Y05177*
X04032Y05175*
X04037Y05173*
X04043Y05172*
X04048Y05171*
X04054Y05171*
X04059*
X04065Y05171*
X04070Y05172*
X04075Y05173*
X04081Y05175*
X04086Y05177*
X04091Y05179*
X04096Y05181*
X04100Y05184*
X04105Y05187*
X04109Y05191*
X04113Y05195*
X04117Y05199*
X04120Y05203*
X04123Y05208*
X04126Y05213*
X04128Y05217*
X04130Y05223*
X04132Y05228*
X04133Y05233*
X04134Y05239*
X04135Y05244*
X04135Y05250*
X03735D02*
D01*
X03735Y05255*
X03734Y05260*
X03733Y05266*
X03732Y05271*
X03730Y05276*
X03728Y05282*
X03726Y05286*
X03723Y05291*
X03720Y05296*
X03717Y05300*
X03713Y05304*
X03709Y05308*
X03705Y05312*
X03700Y05315*
X03696Y05318*
X03691Y05320*
X03686Y05322*
X03681Y05324*
X03675Y05326*
X03670Y05327*
X03665Y05328*
X03659Y05328*
X03654*
X03648Y05328*
X03643Y05327*
X03637Y05326*
X03632Y05324*
X03627Y05322*
X03622Y05320*
X03617Y05318*
X03612Y05315*
X03608Y05312*
X03604Y05308*
X03600Y05304*
X03596Y05300*
X03593Y05296*
X03590Y05291*
X03587Y05286*
X03585Y05282*
X03582Y05276*
X03581Y05271*
X03579Y05266*
X03578Y05260*
X03578Y05255*
X03578Y05250*
X03578Y05244*
X03578Y05239*
X03579Y05233*
X03581Y05228*
X03582Y05223*
X03585Y05217*
X03587Y05213*
X03590Y05208*
X03593Y05203*
X03596Y05199*
X03600Y05195*
X03604Y05191*
X03608Y05187*
X03612Y05184*
X03617Y05181*
X03622Y05179*
X03627Y05177*
X03632Y05175*
X03637Y05173*
X03643Y05172*
X03648Y05171*
X03654Y05171*
X03659*
X03665Y05171*
X03670Y05172*
X03675Y05173*
X03681Y05175*
X03686Y05177*
X03691Y05179*
X03696Y05181*
X03700Y05184*
X03705Y05187*
X03709Y05191*
X03713Y05195*
X03717Y05199*
X03720Y05203*
X03723Y05208*
X03726Y05213*
X03728Y05217*
X03730Y05223*
X03732Y05228*
X03733Y05233*
X03734Y05239*
X03735Y05244*
X03735Y05250*
X03937D02*
D01*
X03937Y05255*
X03936Y05260*
X03935Y05266*
X03934Y05271*
X03932Y05276*
X03930Y05282*
X03927Y05286*
X03925Y05291*
X03922Y05296*
X03918Y05300*
X03915Y05304*
X03911Y05308*
X03906Y05312*
X03902Y05315*
X03897Y05318*
X03892Y05320*
X03887Y05322*
X03882Y05324*
X03877Y05326*
X03872Y05327*
X03866Y05328*
X03861Y05328*
X03855*
X03850Y05328*
X03844Y05327*
X03839Y05326*
X03834Y05324*
X03829Y05322*
X03824Y05320*
X03819Y05318*
X03814Y05315*
X03810Y05312*
X03805Y05308*
X03801Y05304*
X03798Y05300*
X03794Y05296*
X03791Y05291*
X03789Y05286*
X03786Y05282*
X03784Y05276*
X03782Y05271*
X03781Y05266*
X03780Y05260*
X03779Y05255*
X03779Y05250*
X03779Y05244*
X03780Y05239*
X03781Y05233*
X03782Y05228*
X03784Y05223*
X03786Y05217*
X03789Y05213*
X03791Y05208*
X03794Y05203*
X03798Y05199*
X03801Y05195*
X03805Y05191*
X03810Y05187*
X03814Y05184*
X03819Y05181*
X03824Y05179*
X03829Y05177*
X03834Y05175*
X03839Y05173*
X03844Y05172*
X03850Y05171*
X03855Y05171*
X03861*
X03866Y05171*
X03872Y05172*
X03877Y05173*
X03882Y05175*
X03887Y05177*
X03892Y05179*
X03897Y05181*
X03902Y05184*
X03906Y05187*
X03911Y05191*
X03915Y05195*
X03918Y05199*
X03922Y05203*
X03925Y05208*
X03927Y05213*
X03930Y05217*
X03932Y05223*
X03934Y05228*
X03935Y05233*
X03936Y05239*
X03937Y05244*
X03937Y05250*
X03505D02*
D01*
X03505Y05255*
X03504Y05260*
X03503Y05266*
X03502Y05271*
X03500Y05276*
X03498Y05282*
X03496Y05286*
X03493Y05291*
X03490Y05296*
X03487Y05300*
X03483Y05304*
X03479Y05308*
X03475Y05312*
X03470Y05315*
X03466Y05318*
X03461Y05320*
X03456Y05322*
X03451Y05324*
X03445Y05326*
X03440Y05327*
X03435Y05328*
X03429Y05328*
X03424*
X03418Y05328*
X03413Y05327*
X03407Y05326*
X03402Y05324*
X03397Y05322*
X03392Y05320*
X03387Y05318*
X03382Y05315*
X03378Y05312*
X03374Y05308*
X03370Y05304*
X03366Y05300*
X03363Y05296*
X03360Y05291*
X03357Y05286*
X03355Y05282*
X03352Y05276*
X03351Y05271*
X03349Y05266*
X03348Y05260*
X03348Y05255*
X03348Y05250*
X03348Y05244*
X03348Y05239*
X03349Y05233*
X03351Y05228*
X03352Y05223*
X03355Y05217*
X03357Y05213*
X03360Y05208*
X03363Y05203*
X03366Y05199*
X03370Y05195*
X03374Y05191*
X03378Y05187*
X03382Y05184*
X03387Y05181*
X03392Y05179*
X03397Y05177*
X03402Y05175*
X03407Y05173*
X03413Y05172*
X03418Y05171*
X03424Y05171*
X03429*
X03435Y05171*
X03440Y05172*
X03445Y05173*
X03451Y05175*
X03456Y05177*
X03461Y05179*
X03466Y05181*
X03470Y05184*
X03475Y05187*
X03479Y05191*
X03483Y05195*
X03487Y05199*
X03490Y05203*
X03493Y05208*
X03496Y05213*
X03498Y05217*
X03500Y05223*
X03502Y05228*
X03503Y05233*
X03504Y05239*
X03505Y05244*
X03505Y05250*
X03105D02*
D01*
X03105Y05255*
X03104Y05260*
X03103Y05266*
X03102Y05271*
X03100Y05276*
X03098Y05282*
X03096Y05286*
X03093Y05291*
X03090Y05296*
X03087Y05300*
X03083Y05304*
X03079Y05308*
X03075Y05312*
X03070Y05315*
X03066Y05318*
X03061Y05320*
X03056Y05322*
X03051Y05324*
X03045Y05326*
X03040Y05327*
X03035Y05328*
X03029Y05328*
X03024*
X03018Y05328*
X03013Y05327*
X03007Y05326*
X03002Y05324*
X02997Y05322*
X02992Y05320*
X02987Y05318*
X02982Y05315*
X02978Y05312*
X02974Y05308*
X02970Y05304*
X02966Y05300*
X02963Y05296*
X02960Y05291*
X02957Y05286*
X02955Y05282*
X02952Y05276*
X02951Y05271*
X02949Y05266*
X02948Y05260*
X02948Y05255*
X02948Y05250*
X02948Y05244*
X02948Y05239*
X02949Y05233*
X02951Y05228*
X02952Y05223*
X02955Y05217*
X02957Y05213*
X02960Y05208*
X02963Y05203*
X02966Y05199*
X02970Y05195*
X02974Y05191*
X02978Y05187*
X02982Y05184*
X02987Y05181*
X02992Y05179*
X02997Y05177*
X03002Y05175*
X03007Y05173*
X03013Y05172*
X03018Y05171*
X03024Y05171*
X03029*
X03035Y05171*
X03040Y05172*
X03045Y05173*
X03051Y05175*
X03056Y05177*
X03061Y05179*
X03066Y05181*
X03070Y05184*
X03075Y05187*
X03079Y05191*
X03083Y05195*
X03087Y05199*
X03090Y05203*
X03093Y05208*
X03096Y05213*
X03098Y05217*
X03100Y05223*
X03102Y05228*
X03103Y05233*
X03104Y05239*
X03105Y05244*
X03105Y05250*
X03307D02*
D01*
X03306Y05255*
X03306Y05260*
X03305Y05266*
X03304Y05271*
X03302Y05276*
X03300Y05282*
X03297Y05286*
X03295Y05291*
X03292Y05296*
X03288Y05300*
X03285Y05304*
X03281Y05308*
X03276Y05312*
X03272Y05315*
X03267Y05318*
X03262Y05320*
X03257Y05322*
X03252Y05324*
X03247Y05326*
X03242Y05327*
X03236Y05328*
X03231Y05328*
X03225*
X03220Y05328*
X03214Y05327*
X03209Y05326*
X03204Y05324*
X03198Y05322*
X03193Y05320*
X03189Y05318*
X03184Y05315*
X03179Y05312*
X03175Y05308*
X03171Y05304*
X03168Y05300*
X03164Y05296*
X03161Y05291*
X03158Y05286*
X03156Y05282*
X03154Y05276*
X03152Y05271*
X03151Y05266*
X03150Y05260*
X03149Y05255*
X03149Y05250*
X03149Y05244*
X03150Y05239*
X03151Y05233*
X03152Y05228*
X03154Y05223*
X03156Y05217*
X03158Y05213*
X03161Y05208*
X03164Y05203*
X03168Y05199*
X03171Y05195*
X03175Y05191*
X03179Y05187*
X03184Y05184*
X03189Y05181*
X03193Y05179*
X03198Y05177*
X03204Y05175*
X03209Y05173*
X03214Y05172*
X03220Y05171*
X03225Y05171*
X03231*
X03236Y05171*
X03242Y05172*
X03247Y05173*
X03252Y05175*
X03257Y05177*
X03262Y05179*
X03267Y05181*
X03272Y05184*
X03276Y05187*
X03281Y05191*
X03285Y05195*
X03288Y05199*
X03292Y05203*
X03295Y05208*
X03297Y05213*
X03300Y05217*
X03302Y05223*
X03304Y05228*
X03305Y05233*
X03306Y05239*
X03306Y05244*
X03307Y05250*
X02875D02*
D01*
X02875Y05255*
X02874Y05260*
X02873Y05266*
X02872Y05271*
X02870Y05276*
X02868Y05282*
X02866Y05286*
X02863Y05291*
X02860Y05296*
X02857Y05300*
X02853Y05304*
X02849Y05308*
X02845Y05312*
X02840Y05315*
X02836Y05318*
X02831Y05320*
X02826Y05322*
X02821Y05324*
X02815Y05326*
X02810Y05327*
X02805Y05328*
X02799Y05328*
X02794*
X02788Y05328*
X02783Y05327*
X02777Y05326*
X02772Y05324*
X02767Y05322*
X02762Y05320*
X02757Y05318*
X02752Y05315*
X02748Y05312*
X02744Y05308*
X02740Y05304*
X02736Y05300*
X02733Y05296*
X02730Y05291*
X02727Y05286*
X02724Y05282*
X02722Y05276*
X02721Y05271*
X02719Y05266*
X02718Y05260*
X02718Y05255*
X02718Y05250*
X02718Y05244*
X02718Y05239*
X02719Y05233*
X02721Y05228*
X02722Y05223*
X02724Y05217*
X02727Y05213*
X02730Y05208*
X02733Y05203*
X02736Y05199*
X02740Y05195*
X02744Y05191*
X02748Y05187*
X02752Y05184*
X02757Y05181*
X02762Y05179*
X02767Y05177*
X02772Y05175*
X02777Y05173*
X02783Y05172*
X02788Y05171*
X02794Y05171*
X02799*
X02805Y05171*
X02810Y05172*
X02815Y05173*
X02821Y05175*
X02826Y05177*
X02831Y05179*
X02836Y05181*
X02840Y05184*
X02845Y05187*
X02849Y05191*
X02853Y05195*
X02857Y05199*
X02860Y05203*
X02863Y05208*
X02866Y05213*
X02868Y05217*
X02870Y05223*
X02872Y05228*
X02873Y05233*
X02874Y05239*
X02875Y05244*
X02875Y05250*
X02475D02*
D01*
X02475Y05255*
X02474Y05260*
X02473Y05266*
X02472Y05271*
X02470Y05276*
X02468Y05282*
X02466Y05286*
X02463Y05291*
X02460Y05296*
X02457Y05300*
X02453Y05304*
X02449Y05308*
X02445Y05312*
X02440Y05315*
X02436Y05318*
X02431Y05320*
X02426Y05322*
X02421Y05324*
X02415Y05326*
X02410Y05327*
X02405Y05328*
X02399Y05328*
X02394*
X02388Y05328*
X02383Y05327*
X02377Y05326*
X02372Y05324*
X02367Y05322*
X02362Y05320*
X02357Y05318*
X02352Y05315*
X02348Y05312*
X02344Y05308*
X02340Y05304*
X02336Y05300*
X02333Y05296*
X02330Y05291*
X02327Y05286*
X02324Y05282*
X02322Y05276*
X02321Y05271*
X02319Y05266*
X02318Y05260*
X02318Y05255*
X02318Y05250*
X02318Y05244*
X02318Y05239*
X02319Y05233*
X02321Y05228*
X02322Y05223*
X02324Y05217*
X02327Y05213*
X02330Y05208*
X02333Y05203*
X02336Y05199*
X02340Y05195*
X02344Y05191*
X02348Y05187*
X02352Y05184*
X02357Y05181*
X02362Y05179*
X02367Y05177*
X02372Y05175*
X02377Y05173*
X02383Y05172*
X02388Y05171*
X02394Y05171*
X02399*
X02405Y05171*
X02410Y05172*
X02415Y05173*
X02421Y05175*
X02426Y05177*
X02431Y05179*
X02436Y05181*
X02440Y05184*
X02445Y05187*
X02449Y05191*
X02453Y05195*
X02457Y05199*
X02460Y05203*
X02463Y05208*
X02466Y05213*
X02468Y05217*
X02470Y05223*
X02472Y05228*
X02473Y05233*
X02474Y05239*
X02475Y05244*
X02475Y05250*
X02677D02*
D01*
X02676Y05255*
X02676Y05260*
X02675Y05266*
X02674Y05271*
X02672Y05276*
X02670Y05282*
X02667Y05286*
X02665Y05291*
X02662Y05296*
X02658Y05300*
X02655Y05304*
X02651Y05308*
X02646Y05312*
X02642Y05315*
X02637Y05318*
X02632Y05320*
X02627Y05322*
X02622Y05324*
X02617Y05326*
X02612Y05327*
X02606Y05328*
X02601Y05328*
X02595*
X02590Y05328*
X02584Y05327*
X02579Y05326*
X02574Y05324*
X02568Y05322*
X02563Y05320*
X02559Y05318*
X02554Y05315*
X02549Y05312*
X02545Y05308*
X02541Y05304*
X02538Y05300*
X02534Y05296*
X02531Y05291*
X02528Y05286*
X02526Y05282*
X02524Y05276*
X02522Y05271*
X02521Y05266*
X02520Y05260*
X02519Y05255*
X02519Y05250*
X02519Y05244*
X02520Y05239*
X02521Y05233*
X02522Y05228*
X02524Y05223*
X02526Y05217*
X02528Y05213*
X02531Y05208*
X02534Y05203*
X02538Y05199*
X02541Y05195*
X02545Y05191*
X02549Y05187*
X02554Y05184*
X02559Y05181*
X02563Y05179*
X02568Y05177*
X02574Y05175*
X02579Y05173*
X02584Y05172*
X02590Y05171*
X02595Y05171*
X02601*
X02606Y05171*
X02612Y05172*
X02617Y05173*
X02622Y05175*
X02627Y05177*
X02632Y05179*
X02637Y05181*
X02642Y05184*
X02646Y05187*
X02651Y05191*
X02655Y05195*
X02658Y05199*
X02662Y05203*
X02665Y05208*
X02667Y05213*
X02670Y05217*
X02672Y05223*
X02674Y05228*
X02675Y05233*
X02676Y05239*
X02676Y05244*
X02677Y05250*
X02245D02*
D01*
X02245Y05255*
X02244Y05260*
X02243Y05266*
X02242Y05271*
X02240Y05276*
X02238Y05282*
X02236Y05286*
X02233Y05291*
X02230Y05296*
X02227Y05300*
X02223Y05304*
X02219Y05308*
X02215Y05312*
X02210Y05315*
X02206Y05318*
X02201Y05320*
X02196Y05322*
X02191Y05324*
X02185Y05326*
X02180Y05327*
X02175Y05328*
X02169Y05328*
X02164*
X02158Y05328*
X02153Y05327*
X02147Y05326*
X02142Y05324*
X02137Y05322*
X02132Y05320*
X02127Y05318*
X02122Y05315*
X02118Y05312*
X02114Y05308*
X02110Y05304*
X02106Y05300*
X02103Y05296*
X02100Y05291*
X02097Y05286*
X02094Y05282*
X02092Y05276*
X02091Y05271*
X02089Y05266*
X02088Y05260*
X02088Y05255*
X02088Y05250*
X02088Y05244*
X02088Y05239*
X02089Y05233*
X02091Y05228*
X02092Y05223*
X02094Y05217*
X02097Y05213*
X02100Y05208*
X02103Y05203*
X02106Y05199*
X02110Y05195*
X02114Y05191*
X02118Y05187*
X02122Y05184*
X02127Y05181*
X02132Y05179*
X02137Y05177*
X02142Y05175*
X02147Y05173*
X02153Y05172*
X02158Y05171*
X02164Y05171*
X02169*
X02175Y05171*
X02180Y05172*
X02185Y05173*
X02191Y05175*
X02196Y05177*
X02201Y05179*
X02206Y05181*
X02210Y05184*
X02215Y05187*
X02219Y05191*
X02223Y05195*
X02227Y05199*
X02230Y05203*
X02233Y05208*
X02236Y05213*
X02238Y05217*
X02240Y05223*
X02242Y05228*
X02243Y05233*
X02244Y05239*
X02245Y05244*
X02245Y05250*
X01845D02*
D01*
X01845Y05255*
X01844Y05260*
X01843Y05266*
X01842Y05271*
X01840Y05276*
X01838Y05282*
X01836Y05286*
X01833Y05291*
X01830Y05296*
X01827Y05300*
X01823Y05304*
X01819Y05308*
X01815Y05312*
X01810Y05315*
X01806Y05318*
X01801Y05320*
X01796Y05322*
X01791Y05324*
X01785Y05326*
X01780Y05327*
X01775Y05328*
X01769Y05328*
X01764*
X01758Y05328*
X01753Y05327*
X01747Y05326*
X01742Y05324*
X01737Y05322*
X01732Y05320*
X01727Y05318*
X01722Y05315*
X01718Y05312*
X01714Y05308*
X01710Y05304*
X01706Y05300*
X01703Y05296*
X01700Y05291*
X01697Y05286*
X01694Y05282*
X01692Y05276*
X01691Y05271*
X01689Y05266*
X01688Y05260*
X01688Y05255*
X01688Y05250*
X01688Y05244*
X01688Y05239*
X01689Y05233*
X01691Y05228*
X01692Y05223*
X01694Y05217*
X01697Y05213*
X01700Y05208*
X01703Y05203*
X01706Y05199*
X01710Y05195*
X01714Y05191*
X01718Y05187*
X01722Y05184*
X01727Y05181*
X01732Y05179*
X01737Y05177*
X01742Y05175*
X01747Y05173*
X01753Y05172*
X01758Y05171*
X01764Y05171*
X01769*
X01775Y05171*
X01780Y05172*
X01785Y05173*
X01791Y05175*
X01796Y05177*
X01801Y05179*
X01806Y05181*
X01810Y05184*
X01815Y05187*
X01819Y05191*
X01823Y05195*
X01827Y05199*
X01830Y05203*
X01833Y05208*
X01836Y05213*
X01838Y05217*
X01840Y05223*
X01842Y05228*
X01843Y05233*
X01844Y05239*
X01845Y05244*
X01845Y05250*
X02047D02*
D01*
X02046Y05255*
X02046Y05260*
X02045Y05266*
X02044Y05271*
X02042Y05276*
X02040Y05282*
X02037Y05286*
X02035Y05291*
X02032Y05296*
X02028Y05300*
X02025Y05304*
X02021Y05308*
X02016Y05312*
X02012Y05315*
X02007Y05318*
X02002Y05320*
X01997Y05322*
X01992Y05324*
X01987Y05326*
X01982Y05327*
X01976Y05328*
X01971Y05328*
X01965*
X01960Y05328*
X01954Y05327*
X01949Y05326*
X01944Y05324*
X01938Y05322*
X01933Y05320*
X01929Y05318*
X01924Y05315*
X01919Y05312*
X01915Y05308*
X01911Y05304*
X01908Y05300*
X01904Y05296*
X01901Y05291*
X01898Y05286*
X01896Y05282*
X01894Y05276*
X01892Y05271*
X01891Y05266*
X01890Y05260*
X01889Y05255*
X01889Y05250*
X01889Y05244*
X01890Y05239*
X01891Y05233*
X01892Y05228*
X01894Y05223*
X01896Y05217*
X01898Y05213*
X01901Y05208*
X01904Y05203*
X01908Y05199*
X01911Y05195*
X01915Y05191*
X01919Y05187*
X01924Y05184*
X01929Y05181*
X01933Y05179*
X01938Y05177*
X01944Y05175*
X01949Y05173*
X01954Y05172*
X01960Y05171*
X01965Y05171*
X01971*
X01976Y05171*
X01982Y05172*
X01987Y05173*
X01992Y05175*
X01997Y05177*
X02002Y05179*
X02007Y05181*
X02012Y05184*
X02016Y05187*
X02021Y05191*
X02025Y05195*
X02028Y05199*
X02032Y05203*
X02035Y05208*
X02037Y05213*
X02040Y05217*
X02042Y05223*
X02044Y05228*
X02045Y05233*
X02046Y05239*
X02046Y05244*
X02047Y05250*
X01528Y03190D02*
D01*
X01528Y03195*
X01527Y03200*
X01526Y03206*
X01525Y03211*
X01523Y03216*
X01521Y03222*
X01519Y03226*
X01516Y03231*
X01513Y03236*
X01510Y03240*
X01506Y03244*
X01502Y03248*
X01498Y03252*
X01494Y03255*
X01489Y03258*
X01484Y03260*
X01479Y03262*
X01474Y03264*
X01469Y03266*
X01463Y03267*
X01458Y03268*
X01452Y03268*
X01447*
X01441Y03268*
X01436Y03267*
X01430Y03266*
X01425Y03264*
X01420Y03262*
X01415Y03260*
X01410Y03258*
X01405Y03255*
X01401Y03252*
X01397Y03248*
X01393Y03244*
X01389Y03240*
X01386Y03236*
X01383Y03231*
X01380Y03226*
X01378Y03222*
X01376Y03216*
X01374Y03211*
X01373Y03206*
X01372Y03200*
X01371Y03195*
X01371Y03190*
X01371Y03184*
X01372Y03179*
X01373Y03173*
X01374Y03168*
X01376Y03163*
X01378Y03157*
X01380Y03153*
X01383Y03148*
X01386Y03143*
X01389Y03139*
X01393Y03135*
X01397Y03131*
X01401Y03127*
X01405Y03124*
X01410Y03121*
X01415Y03119*
X01420Y03117*
X01425Y03115*
X01430Y03113*
X01436Y03112*
X01441Y03111*
X01447Y03111*
X01452*
X01458Y03111*
X01463Y03112*
X01469Y03113*
X01474Y03115*
X01479Y03117*
X01484Y03119*
X01489Y03121*
X01494Y03124*
X01498Y03127*
X01502Y03131*
X01506Y03135*
X01510Y03139*
X01513Y03143*
X01516Y03148*
X01519Y03153*
X01521Y03157*
X01523Y03163*
X01525Y03168*
X01526Y03173*
X01527Y03179*
X01528Y03184*
X01528Y03190*
Y02991D02*
D01*
X01528Y02997*
X01527Y03002*
X01526Y03007*
X01525Y03013*
X01523Y03018*
X01521Y03023*
X01519Y03028*
X01516Y03033*
X01513Y03037*
X01510Y03042*
X01506Y03046*
X01502Y03050*
X01498Y03053*
X01494Y03056*
X01489Y03059*
X01484Y03062*
X01479Y03064*
X01474Y03066*
X01469Y03067*
X01463Y03069*
X01458Y03069*
X01452Y03070*
X01447*
X01441Y03069*
X01436Y03069*
X01430Y03067*
X01425Y03066*
X01420Y03064*
X01415Y03062*
X01410Y03059*
X01405Y03056*
X01401Y03053*
X01397Y03050*
X01393Y03046*
X01389Y03042*
X01386Y03037*
X01383Y03033*
X01380Y03028*
X01378Y03023*
X01376Y03018*
X01374Y03013*
X01373Y03007*
X01372Y03002*
X01371Y02997*
X01371Y02991*
X01371Y02986*
X01372Y02980*
X01373Y02975*
X01374Y02969*
X01376Y02964*
X01378Y02959*
X01380Y02954*
X01383Y02949*
X01386Y02945*
X01389Y02941*
X01393Y02936*
X01397Y02933*
X01401Y02929*
X01405Y02926*
X01410Y02923*
X01415Y02920*
X01420Y02918*
X01425Y02916*
X01430Y02915*
X01436Y02914*
X01441Y02913*
X01447Y02912*
X01452*
X01458Y02913*
X01463Y02914*
X01469Y02915*
X01474Y02916*
X01479Y02918*
X01484Y02920*
X01489Y02923*
X01494Y02926*
X01498Y02929*
X01502Y02933*
X01506Y02936*
X01510Y02941*
X01513Y02945*
X01516Y02949*
X01519Y02954*
X01521Y02959*
X01523Y02964*
X01525Y02969*
X01526Y02975*
X01527Y02980*
X01528Y02986*
X01528Y02991*
X04843Y04635D02*
D01*
X04843Y04640*
X04842Y04645*
X04841Y04651*
X04840Y04656*
X04838Y04661*
X04836Y04667*
X04834Y04671*
X04831Y04676*
X04828Y04681*
X04825Y04685*
X04821Y04689*
X04817Y04693*
X04813Y04697*
X04809Y04700*
X04804Y04703*
X04799Y04705*
X04794Y04707*
X04789Y04709*
X04784Y04711*
X04778Y04712*
X04773Y04713*
X04767Y04713*
X04762*
X04756Y04713*
X04751Y04712*
X04745Y04711*
X04740Y04709*
X04735Y04707*
X04730Y04705*
X04725Y04703*
X04720Y04700*
X04716Y04697*
X04712Y04693*
X04708Y04689*
X04704Y04685*
X04701Y04681*
X04698Y04676*
X04695Y04671*
X04693Y04667*
X04691Y04661*
X04689Y04656*
X04688Y04651*
X04687Y04645*
X04686Y04640*
X04686Y04635*
X04686Y04629*
X04687Y04624*
X04688Y04618*
X04689Y04613*
X04691Y04608*
X04693Y04602*
X04695Y04598*
X04698Y04593*
X04701Y04588*
X04704Y04584*
X04708Y04580*
X04712Y04576*
X04716Y04572*
X04720Y04569*
X04725Y04566*
X04730Y04564*
X04735Y04562*
X04740Y04560*
X04745Y04558*
X04751Y04557*
X04756Y04556*
X04762Y04556*
X04767*
X04773Y04556*
X04778Y04557*
X04784Y04558*
X04789Y04560*
X04794Y04562*
X04799Y04564*
X04804Y04566*
X04809Y04569*
X04813Y04572*
X04817Y04576*
X04821Y04580*
X04825Y04584*
X04828Y04588*
X04831Y04593*
X04834Y04598*
X04836Y04602*
X04838Y04608*
X04840Y04613*
X04841Y04618*
X04842Y04624*
X04843Y04629*
X04843Y04635*
X05042D02*
D01*
X05042Y04640*
X05041Y04645*
X05040Y04651*
X05039Y04656*
X05037Y04661*
X05035Y04667*
X05032Y04671*
X05030Y04676*
X05027Y04681*
X05023Y04685*
X05020Y04689*
X05016Y04693*
X05011Y04697*
X05007Y04700*
X05002Y04703*
X04997Y04705*
X04992Y04707*
X04987Y04709*
X04982Y04711*
X04977Y04712*
X04971Y04713*
X04966Y04713*
X04960*
X04955Y04713*
X04949Y04712*
X04944Y04711*
X04939Y04709*
X04934Y04707*
X04929Y04705*
X04924Y04703*
X04919Y04700*
X04915Y04697*
X04910Y04693*
X04906Y04689*
X04903Y04685*
X04899Y04681*
X04896Y04676*
X04894Y04671*
X04891Y04667*
X04889Y04661*
X04887Y04656*
X04886Y04651*
X04885Y04645*
X04884Y04640*
X04884Y04635*
X04884Y04629*
X04885Y04624*
X04886Y04618*
X04887Y04613*
X04889Y04608*
X04891Y04602*
X04894Y04598*
X04896Y04593*
X04899Y04588*
X04903Y04584*
X04906Y04580*
X04910Y04576*
X04915Y04572*
X04919Y04569*
X04924Y04566*
X04929Y04564*
X04934Y04562*
X04939Y04560*
X04944Y04558*
X04949Y04557*
X04955Y04556*
X04960Y04556*
X04966*
X04971Y04556*
X04977Y04557*
X04982Y04558*
X04987Y04560*
X04992Y04562*
X04997Y04564*
X05002Y04566*
X05007Y04569*
X05011Y04572*
X05016Y04576*
X05020Y04580*
X05023Y04584*
X05027Y04588*
X05030Y04593*
X05032Y04598*
X05035Y04602*
X05037Y04608*
X05039Y04613*
X05040Y04618*
X05041Y04624*
X05042Y04629*
X05042Y04635*
X04369D02*
D01*
X04369Y04640*
X04368Y04645*
X04367Y04651*
X04366Y04656*
X04364Y04661*
X04362Y04667*
X04360Y04671*
X04357Y04676*
X04354Y04681*
X04351Y04685*
X04347Y04689*
X04343Y04693*
X04339Y04697*
X04334Y04700*
X04330Y04703*
X04325Y04705*
X04320Y04707*
X04315Y04709*
X04309Y04711*
X04304Y04712*
X04299Y04713*
X04293Y04713*
X04288*
X04282Y04713*
X04277Y04712*
X04271Y04711*
X04266Y04709*
X04261Y04707*
X04256Y04705*
X04251Y04703*
X04246Y04700*
X04242Y04697*
X04238Y04693*
X04234Y04689*
X04230Y04685*
X04227Y04681*
X04224Y04676*
X04221Y04671*
X04218Y04667*
X04216Y04661*
X04215Y04656*
X04213Y04651*
X04212Y04645*
X04212Y04640*
X04212Y04635*
X04212Y04629*
X04212Y04624*
X04213Y04618*
X04215Y04613*
X04216Y04608*
X04218Y04602*
X04221Y04598*
X04224Y04593*
X04227Y04588*
X04230Y04584*
X04234Y04580*
X04238Y04576*
X04242Y04572*
X04246Y04569*
X04251Y04566*
X04256Y04564*
X04261Y04562*
X04266Y04560*
X04271Y04558*
X04277Y04557*
X04282Y04556*
X04288Y04556*
X04293*
X04299Y04556*
X04304Y04557*
X04309Y04558*
X04315Y04560*
X04320Y04562*
X04325Y04564*
X04330Y04566*
X04334Y04569*
X04339Y04572*
X04343Y04576*
X04347Y04580*
X04351Y04584*
X04354Y04588*
X04357Y04593*
X04360Y04598*
X04362Y04602*
X04364Y04608*
X04366Y04613*
X04367Y04618*
X04368Y04624*
X04369Y04629*
X04369Y04635*
X04567D02*
D01*
X04567Y04640*
X04567Y04645*
X04566Y04651*
X04564Y04656*
X04563Y04661*
X04561Y04667*
X04558Y04671*
X04555Y04676*
X04552Y04681*
X04549Y04685*
X04545Y04689*
X04541Y04693*
X04537Y04697*
X04533Y04700*
X04528Y04703*
X04523Y04705*
X04518Y04707*
X04513Y04709*
X04508Y04711*
X04502Y04712*
X04497Y04713*
X04491Y04713*
X04486*
X04480Y04713*
X04475Y04712*
X04470Y04711*
X04464Y04709*
X04459Y04707*
X04454Y04705*
X04449Y04703*
X04445Y04700*
X04440Y04697*
X04436Y04693*
X04432Y04689*
X04428Y04685*
X04425Y04681*
X04422Y04676*
X04419Y04671*
X04417Y04667*
X04415Y04661*
X04413Y04656*
X04412Y04651*
X04411Y04645*
X04410Y04640*
X04410Y04635*
X04410Y04629*
X04411Y04624*
X04412Y04618*
X04413Y04613*
X04415Y04608*
X04417Y04602*
X04419Y04598*
X04422Y04593*
X04425Y04588*
X04428Y04584*
X04432Y04580*
X04436Y04576*
X04440Y04572*
X04445Y04569*
X04449Y04566*
X04454Y04564*
X04459Y04562*
X04464Y04560*
X04470Y04558*
X04475Y04557*
X04480Y04556*
X04486Y04556*
X04491*
X04497Y04556*
X04502Y04557*
X04508Y04558*
X04513Y04560*
X04518Y04562*
X04523Y04564*
X04528Y04566*
X04533Y04569*
X04537Y04572*
X04541Y04576*
X04545Y04580*
X04549Y04584*
X04552Y04588*
X04555Y04593*
X04558Y04598*
X04561Y04602*
X04563Y04608*
X04564Y04613*
X04566Y04618*
X04567Y04624*
X04567Y04629*
X04567Y04635*
X03895D02*
D01*
X03895Y04640*
X03894Y04645*
X03893Y04651*
X03892Y04656*
X03890Y04661*
X03888Y04667*
X03885Y04671*
X03883Y04676*
X03880Y04681*
X03876Y04685*
X03873Y04689*
X03869Y04693*
X03864Y04697*
X03860Y04700*
X03855Y04703*
X03850Y04705*
X03845Y04707*
X03840Y04709*
X03835Y04711*
X03830Y04712*
X03824Y04713*
X03819Y04713*
X03813*
X03808Y04713*
X03802Y04712*
X03797Y04711*
X03792Y04709*
X03787Y04707*
X03782Y04705*
X03777Y04703*
X03772Y04700*
X03768Y04697*
X03763Y04693*
X03759Y04689*
X03756Y04685*
X03752Y04681*
X03749Y04676*
X03747Y04671*
X03744Y04667*
X03742Y04661*
X03740Y04656*
X03739Y04651*
X03738Y04645*
X03737Y04640*
X03737Y04635*
X03737Y04629*
X03738Y04624*
X03739Y04618*
X03740Y04613*
X03742Y04608*
X03744Y04602*
X03747Y04598*
X03749Y04593*
X03752Y04588*
X03756Y04584*
X03759Y04580*
X03763Y04576*
X03768Y04572*
X03772Y04569*
X03777Y04566*
X03782Y04564*
X03787Y04562*
X03792Y04560*
X03797Y04558*
X03802Y04557*
X03808Y04556*
X03813Y04556*
X03819*
X03824Y04556*
X03830Y04557*
X03835Y04558*
X03840Y04560*
X03845Y04562*
X03850Y04564*
X03855Y04566*
X03860Y04569*
X03864Y04572*
X03869Y04576*
X03873Y04580*
X03876Y04584*
X03880Y04588*
X03883Y04593*
X03885Y04598*
X03888Y04602*
X03890Y04608*
X03892Y04613*
X03893Y04618*
X03894Y04624*
X03895Y04629*
X03895Y04635*
X04093D02*
D01*
X04093Y04640*
X04092Y04645*
X04091Y04651*
X04090Y04656*
X04088Y04661*
X04086Y04667*
X04084Y04671*
X04081Y04676*
X04078Y04681*
X04075Y04685*
X04071Y04689*
X04067Y04693*
X04063Y04697*
X04058Y04700*
X04054Y04703*
X04049Y04705*
X04044Y04707*
X04039Y04709*
X04033Y04711*
X04028Y04712*
X04023Y04713*
X04017Y04713*
X04012*
X04006Y04713*
X04001Y04712*
X03995Y04711*
X03990Y04709*
X03985Y04707*
X03980Y04705*
X03975Y04703*
X03970Y04700*
X03966Y04697*
X03962Y04693*
X03958Y04689*
X03954Y04685*
X03951Y04681*
X03948Y04676*
X03945Y04671*
X03943Y04667*
X03940Y04661*
X03939Y04656*
X03937Y04651*
X03936Y04645*
X03936Y04640*
X03936Y04635*
X03936Y04629*
X03936Y04624*
X03937Y04618*
X03939Y04613*
X03940Y04608*
X03943Y04602*
X03945Y04598*
X03948Y04593*
X03951Y04588*
X03954Y04584*
X03958Y04580*
X03962Y04576*
X03966Y04572*
X03970Y04569*
X03975Y04566*
X03980Y04564*
X03985Y04562*
X03990Y04560*
X03995Y04558*
X04001Y04557*
X04006Y04556*
X04012Y04556*
X04017*
X04023Y04556*
X04028Y04557*
X04033Y04558*
X04039Y04560*
X04044Y04562*
X04049Y04564*
X04054Y04566*
X04058Y04569*
X04063Y04572*
X04067Y04576*
X04071Y04580*
X04075Y04584*
X04078Y04588*
X04081Y04593*
X04084Y04598*
X04086Y04602*
X04088Y04608*
X04090Y04613*
X04091Y04618*
X04092Y04624*
X04093Y04629*
X04093Y04635*
X03420D02*
D01*
X03420Y04640*
X03420Y04645*
X03419Y04651*
X03417Y04656*
X03416Y04661*
X03414Y04667*
X03411Y04671*
X03408Y04676*
X03405Y04681*
X03402Y04685*
X03398Y04689*
X03394Y04693*
X03390Y04697*
X03386Y04700*
X03381Y04703*
X03376Y04705*
X03371Y04707*
X03366Y04709*
X03361Y04711*
X03355Y04712*
X03350Y04713*
X03344Y04713*
X03339*
X03333Y04713*
X03328Y04712*
X03323Y04711*
X03317Y04709*
X03312Y04707*
X03307Y04705*
X03302Y04703*
X03298Y04700*
X03293Y04697*
X03289Y04693*
X03285Y04689*
X03281Y04685*
X03278Y04681*
X03275Y04676*
X03272Y04671*
X03270Y04667*
X03268Y04661*
X03266Y04656*
X03265Y04651*
X03264Y04645*
X03263Y04640*
X03263Y04635*
X03263Y04629*
X03264Y04624*
X03265Y04618*
X03266Y04613*
X03268Y04608*
X03270Y04602*
X03272Y04598*
X03275Y04593*
X03278Y04588*
X03281Y04584*
X03285Y04580*
X03289Y04576*
X03293Y04572*
X03298Y04569*
X03302Y04566*
X03307Y04564*
X03312Y04562*
X03317Y04560*
X03323Y04558*
X03328Y04557*
X03333Y04556*
X03339Y04556*
X03344*
X03350Y04556*
X03355Y04557*
X03361Y04558*
X03366Y04560*
X03371Y04562*
X03376Y04564*
X03381Y04566*
X03386Y04569*
X03390Y04572*
X03394Y04576*
X03398Y04580*
X03402Y04584*
X03405Y04588*
X03408Y04593*
X03411Y04598*
X03414Y04602*
X03416Y04608*
X03417Y04613*
X03419Y04618*
X03420Y04624*
X03420Y04629*
X03420Y04635*
X03619D02*
D01*
X03619Y04640*
X03618Y04645*
X03617Y04651*
X03616Y04656*
X03614Y04661*
X03612Y04667*
X03610Y04671*
X03607Y04676*
X03604Y04681*
X03600Y04685*
X03597Y04689*
X03593Y04693*
X03589Y04697*
X03584Y04700*
X03579Y04703*
X03575Y04705*
X03570Y04707*
X03564Y04709*
X03559Y04711*
X03554Y04712*
X03548Y04713*
X03543Y04713*
X03537*
X03532Y04713*
X03526Y04712*
X03521Y04711*
X03516Y04709*
X03511Y04707*
X03506Y04705*
X03501Y04703*
X03496Y04700*
X03492Y04697*
X03487Y04693*
X03483Y04689*
X03480Y04685*
X03476Y04681*
X03473Y04676*
X03471Y04671*
X03468Y04667*
X03466Y04661*
X03464Y04656*
X03463Y04651*
X03462Y04645*
X03462Y04640*
X03461Y04635*
X03462Y04629*
X03462Y04624*
X03463Y04618*
X03464Y04613*
X03466Y04608*
X03468Y04602*
X03471Y04598*
X03473Y04593*
X03476Y04588*
X03480Y04584*
X03483Y04580*
X03487Y04576*
X03492Y04572*
X03496Y04569*
X03501Y04566*
X03506Y04564*
X03511Y04562*
X03516Y04560*
X03521Y04558*
X03526Y04557*
X03532Y04556*
X03537Y04556*
X03543*
X03548Y04556*
X03554Y04557*
X03559Y04558*
X03564Y04560*
X03570Y04562*
X03575Y04564*
X03579Y04566*
X03584Y04569*
X03589Y04572*
X03593Y04576*
X03597Y04580*
X03600Y04584*
X03604Y04588*
X03607Y04593*
X03610Y04598*
X03612Y04602*
X03614Y04608*
X03616Y04613*
X03617Y04618*
X03618Y04624*
X03619Y04629*
X03619Y04635*
X02946D02*
D01*
X02946Y04640*
X02945Y04645*
X02944Y04651*
X02943Y04656*
X02941Y04661*
X02939Y04667*
X02937Y04671*
X02934Y04676*
X02931Y04681*
X02928Y04685*
X02924Y04689*
X02920Y04693*
X02916Y04697*
X02911Y04700*
X02907Y04703*
X02902Y04705*
X02897Y04707*
X02892Y04709*
X02886Y04711*
X02881Y04712*
X02876Y04713*
X02870Y04713*
X02865*
X02859Y04713*
X02854Y04712*
X02848Y04711*
X02843Y04709*
X02838Y04707*
X02833Y04705*
X02828Y04703*
X02823Y04700*
X02819Y04697*
X02815Y04693*
X02811Y04689*
X02807Y04685*
X02804Y04681*
X02801Y04676*
X02798Y04671*
X02796Y04667*
X02793Y04661*
X02792Y04656*
X02790Y04651*
X02789Y04645*
X02789Y04640*
X02789Y04635*
X02789Y04629*
X02789Y04624*
X02790Y04618*
X02792Y04613*
X02793Y04608*
X02796Y04602*
X02798Y04598*
X02801Y04593*
X02804Y04588*
X02807Y04584*
X02811Y04580*
X02815Y04576*
X02819Y04572*
X02823Y04569*
X02828Y04566*
X02833Y04564*
X02838Y04562*
X02843Y04560*
X02848Y04558*
X02854Y04557*
X02859Y04556*
X02865Y04556*
X02870*
X02876Y04556*
X02881Y04557*
X02886Y04558*
X02892Y04560*
X02897Y04562*
X02902Y04564*
X02907Y04566*
X02911Y04569*
X02916Y04572*
X02920Y04576*
X02924Y04580*
X02928Y04584*
X02931Y04588*
X02934Y04593*
X02937Y04598*
X02939Y04602*
X02941Y04608*
X02943Y04613*
X02944Y04618*
X02945Y04624*
X02946Y04629*
X02946Y04635*
X03145D02*
D01*
X03144Y04640*
X03144Y04645*
X03143Y04651*
X03141Y04656*
X03140Y04661*
X03138Y04667*
X03135Y04671*
X03133Y04676*
X03129Y04681*
X03126Y04685*
X03122Y04689*
X03118Y04693*
X03114Y04697*
X03110Y04700*
X03105Y04703*
X03100Y04705*
X03095Y04707*
X03090Y04709*
X03085Y04711*
X03079Y04712*
X03074Y04713*
X03069Y04713*
X03063*
X03058Y04713*
X03052Y04712*
X03047Y04711*
X03041Y04709*
X03036Y04707*
X03031Y04705*
X03026Y04703*
X03022Y04700*
X03017Y04697*
X03013Y04693*
X03009Y04689*
X03006Y04685*
X03002Y04681*
X02999Y04676*
X02996Y04671*
X02994Y04667*
X02992Y04661*
X02990Y04656*
X02989Y04651*
X02988Y04645*
X02987Y04640*
X02987Y04635*
X02987Y04629*
X02988Y04624*
X02989Y04618*
X02990Y04613*
X02992Y04608*
X02994Y04602*
X02996Y04598*
X02999Y04593*
X03002Y04588*
X03006Y04584*
X03009Y04580*
X03013Y04576*
X03017Y04572*
X03022Y04569*
X03026Y04566*
X03031Y04564*
X03036Y04562*
X03041Y04560*
X03047Y04558*
X03052Y04557*
X03058Y04556*
X03063Y04556*
X03069*
X03074Y04556*
X03079Y04557*
X03085Y04558*
X03090Y04560*
X03095Y04562*
X03100Y04564*
X03105Y04566*
X03110Y04569*
X03114Y04572*
X03118Y04576*
X03122Y04580*
X03126Y04584*
X03129Y04588*
X03133Y04593*
X03135Y04598*
X03138Y04602*
X03140Y04608*
X03141Y04613*
X03143Y04618*
X03144Y04624*
X03144Y04629*
X03145Y04635*
X02472D02*
D01*
X02472Y04640*
X02471Y04645*
X02470Y04651*
X02469Y04656*
X02467Y04661*
X02465Y04667*
X02463Y04671*
X02460Y04676*
X02457Y04681*
X02453Y04685*
X02450Y04689*
X02446Y04693*
X02442Y04697*
X02437Y04700*
X02432Y04703*
X02428Y04705*
X02423Y04707*
X02417Y04709*
X02412Y04711*
X02407Y04712*
X02401Y04713*
X02396Y04713*
X02390*
X02385Y04713*
X02379Y04712*
X02374Y04711*
X02369Y04709*
X02364Y04707*
X02359Y04705*
X02354Y04703*
X02349Y04700*
X02345Y04697*
X02340Y04693*
X02336Y04689*
X02333Y04685*
X02329Y04681*
X02326Y04676*
X02324Y04671*
X02321Y04667*
X02319Y04661*
X02317Y04656*
X02316Y04651*
X02315Y04645*
X02315Y04640*
X02314Y04635*
X02315Y04629*
X02315Y04624*
X02316Y04618*
X02317Y04613*
X02319Y04608*
X02321Y04602*
X02324Y04598*
X02326Y04593*
X02329Y04588*
X02333Y04584*
X02336Y04580*
X02340Y04576*
X02345Y04572*
X02349Y04569*
X02354Y04566*
X02359Y04564*
X02364Y04562*
X02369Y04560*
X02374Y04558*
X02379Y04557*
X02385Y04556*
X02390Y04556*
X02396*
X02401Y04556*
X02407Y04557*
X02412Y04558*
X02417Y04560*
X02423Y04562*
X02428Y04564*
X02432Y04566*
X02437Y04569*
X02442Y04572*
X02446Y04576*
X02450Y04580*
X02453Y04584*
X02457Y04588*
X02460Y04593*
X02463Y04598*
X02465Y04602*
X02467Y04608*
X02469Y04613*
X02470Y04618*
X02471Y04624*
X02472Y04629*
X02472Y04635*
X02670D02*
D01*
X02670Y04640*
X02669Y04645*
X02668Y04651*
X02667Y04656*
X02665Y04661*
X02663Y04667*
X02661Y04671*
X02658Y04676*
X02655Y04681*
X02652Y04685*
X02648Y04689*
X02644Y04693*
X02640Y04697*
X02636Y04700*
X02631Y04703*
X02626Y04705*
X02621Y04707*
X02616Y04709*
X02611Y04711*
X02605Y04712*
X02600Y04713*
X02594Y04713*
X02589*
X02583Y04713*
X02578Y04712*
X02572Y04711*
X02567Y04709*
X02562Y04707*
X02557Y04705*
X02552Y04703*
X02547Y04700*
X02543Y04697*
X02539Y04693*
X02535Y04689*
X02531Y04685*
X02528Y04681*
X02525Y04676*
X02522Y04671*
X02520Y04667*
X02518Y04661*
X02516Y04656*
X02515Y04651*
X02514Y04645*
X02513Y04640*
X02513Y04635*
X02513Y04629*
X02514Y04624*
X02515Y04618*
X02516Y04613*
X02518Y04608*
X02520Y04602*
X02522Y04598*
X02525Y04593*
X02528Y04588*
X02531Y04584*
X02535Y04580*
X02539Y04576*
X02543Y04572*
X02547Y04569*
X02552Y04566*
X02557Y04564*
X02562Y04562*
X02567Y04560*
X02572Y04558*
X02578Y04557*
X02583Y04556*
X02589Y04556*
X02594*
X02600Y04556*
X02605Y04557*
X02611Y04558*
X02616Y04560*
X02621Y04562*
X02626Y04564*
X02631Y04566*
X02636Y04569*
X02640Y04572*
X02644Y04576*
X02648Y04580*
X02652Y04584*
X02655Y04588*
X02658Y04593*
X02661Y04598*
X02663Y04602*
X02665Y04608*
X02667Y04613*
X02668Y04618*
X02669Y04624*
X02670Y04629*
X02670Y04635*
X01998D02*
D01*
X01997Y04640*
X01997Y04645*
X01996Y04651*
X01994Y04656*
X01993Y04661*
X01991Y04667*
X01988Y04671*
X01986Y04676*
X01982Y04681*
X01979Y04685*
X01975Y04689*
X01971Y04693*
X01967Y04697*
X01963Y04700*
X01958Y04703*
X01953Y04705*
X01948Y04707*
X01943Y04709*
X01938Y04711*
X01932Y04712*
X01927Y04713*
X01922Y04713*
X01916*
X01911Y04713*
X01905Y04712*
X01900Y04711*
X01894Y04709*
X01889Y04707*
X01884Y04705*
X01879Y04703*
X01875Y04700*
X01870Y04697*
X01866Y04693*
X01862Y04689*
X01859Y04685*
X01855Y04681*
X01852Y04676*
X01849Y04671*
X01847Y04667*
X01845Y04661*
X01843Y04656*
X01842Y04651*
X01841Y04645*
X01840Y04640*
X01840Y04635*
X01840Y04629*
X01841Y04624*
X01842Y04618*
X01843Y04613*
X01845Y04608*
X01847Y04602*
X01849Y04598*
X01852Y04593*
X01855Y04588*
X01859Y04584*
X01862Y04580*
X01866Y04576*
X01870Y04572*
X01875Y04569*
X01879Y04566*
X01884Y04564*
X01889Y04562*
X01894Y04560*
X01900Y04558*
X01905Y04557*
X01911Y04556*
X01916Y04556*
X01922*
X01927Y04556*
X01932Y04557*
X01938Y04558*
X01943Y04560*
X01948Y04562*
X01953Y04564*
X01958Y04566*
X01963Y04569*
X01967Y04572*
X01971Y04576*
X01975Y04580*
X01979Y04584*
X01982Y04588*
X01986Y04593*
X01988Y04598*
X01991Y04602*
X01993Y04608*
X01994Y04613*
X01996Y04618*
X01997Y04624*
X01997Y04629*
X01998Y04635*
X02196D02*
D01*
X02196Y04640*
X02195Y04645*
X02194Y04651*
X02193Y04656*
X02191Y04661*
X02189Y04667*
X02187Y04671*
X02184Y04676*
X02181Y04681*
X02178Y04685*
X02174Y04689*
X02170Y04693*
X02166Y04697*
X02161Y04700*
X02157Y04703*
X02152Y04705*
X02147Y04707*
X02142Y04709*
X02136Y04711*
X02131Y04712*
X02126Y04713*
X02120Y04713*
X02115*
X02109Y04713*
X02104Y04712*
X02098Y04711*
X02093Y04709*
X02088Y04707*
X02083Y04705*
X02078Y04703*
X02073Y04700*
X02069Y04697*
X02065Y04693*
X02061Y04689*
X02057Y04685*
X02054Y04681*
X02051Y04676*
X02048Y04671*
X02045Y04667*
X02043Y04661*
X02042Y04656*
X02040Y04651*
X02039Y04645*
X02039Y04640*
X02039Y04635*
X02039Y04629*
X02039Y04624*
X02040Y04618*
X02042Y04613*
X02043Y04608*
X02045Y04602*
X02048Y04598*
X02051Y04593*
X02054Y04588*
X02057Y04584*
X02061Y04580*
X02065Y04576*
X02069Y04572*
X02073Y04569*
X02078Y04566*
X02083Y04564*
X02088Y04562*
X02093Y04560*
X02098Y04558*
X02104Y04557*
X02109Y04556*
X02115Y04556*
X02120*
X02126Y04556*
X02131Y04557*
X02136Y04558*
X02142Y04560*
X02147Y04562*
X02152Y04564*
X02157Y04566*
X02161Y04569*
X02166Y04572*
X02170Y04576*
X02174Y04580*
X02178Y04584*
X02181Y04588*
X02184Y04593*
X02187Y04598*
X02189Y04602*
X02191Y04608*
X02193Y04613*
X02194Y04618*
X02195Y04624*
X02196Y04629*
X02196Y04635*
X01523D02*
D01*
X01523Y04640*
X01522Y04645*
X01521Y04651*
X01520Y04656*
X01518Y04661*
X01516Y04667*
X01514Y04671*
X01511Y04676*
X01508Y04681*
X01505Y04685*
X01501Y04689*
X01497Y04693*
X01493Y04697*
X01489Y04700*
X01484Y04703*
X01479Y04705*
X01474Y04707*
X01469Y04709*
X01464Y04711*
X01458Y04712*
X01453Y04713*
X01447Y04713*
X01442*
X01436Y04713*
X01431Y04712*
X01425Y04711*
X01420Y04709*
X01415Y04707*
X01410Y04705*
X01405Y04703*
X01400Y04700*
X01396Y04697*
X01392Y04693*
X01388Y04689*
X01384Y04685*
X01381Y04681*
X01378Y04676*
X01375Y04671*
X01373Y04667*
X01371Y04661*
X01369Y04656*
X01368Y04651*
X01367Y04645*
X01366Y04640*
X01366Y04635*
X01366Y04629*
X01367Y04624*
X01368Y04618*
X01369Y04613*
X01371Y04608*
X01373Y04602*
X01375Y04598*
X01378Y04593*
X01381Y04588*
X01384Y04584*
X01388Y04580*
X01392Y04576*
X01396Y04572*
X01400Y04569*
X01405Y04566*
X01410Y04564*
X01415Y04562*
X01420Y04560*
X01425Y04558*
X01431Y04557*
X01436Y04556*
X01442Y04556*
X01447*
X01453Y04556*
X01458Y04557*
X01464Y04558*
X01469Y04560*
X01474Y04562*
X01479Y04564*
X01484Y04566*
X01489Y04569*
X01493Y04572*
X01497Y04576*
X01501Y04580*
X01505Y04584*
X01508Y04588*
X01511Y04593*
X01514Y04598*
X01516Y04602*
X01518Y04608*
X01520Y04613*
X01521Y04618*
X01522Y04624*
X01523Y04629*
X01523Y04635*
X01722D02*
D01*
X01722Y04640*
X01721Y04645*
X01720Y04651*
X01719Y04656*
X01717Y04661*
X01715Y04667*
X01712Y04671*
X01710Y04676*
X01707Y04681*
X01703Y04685*
X01700Y04689*
X01696Y04693*
X01691Y04697*
X01687Y04700*
X01682Y04703*
X01677Y04705*
X01672Y04707*
X01667Y04709*
X01662Y04711*
X01657Y04712*
X01651Y04713*
X01646Y04713*
X01640*
X01635Y04713*
X01629Y04712*
X01624Y04711*
X01619Y04709*
X01614Y04707*
X01609Y04705*
X01604Y04703*
X01599Y04700*
X01595Y04697*
X01590Y04693*
X01586Y04689*
X01583Y04685*
X01579Y04681*
X01576Y04676*
X01574Y04671*
X01571Y04667*
X01569Y04661*
X01567Y04656*
X01566Y04651*
X01565Y04645*
X01564Y04640*
X01564Y04635*
X01564Y04629*
X01565Y04624*
X01566Y04618*
X01567Y04613*
X01569Y04608*
X01571Y04602*
X01574Y04598*
X01576Y04593*
X01579Y04588*
X01583Y04584*
X01586Y04580*
X01590Y04576*
X01595Y04572*
X01599Y04569*
X01604Y04566*
X01609Y04564*
X01614Y04562*
X01619Y04560*
X01624Y04558*
X01629Y04557*
X01635Y04556*
X01640Y04556*
X01646*
X01651Y04556*
X01657Y04557*
X01662Y04558*
X01667Y04560*
X01672Y04562*
X01677Y04564*
X01682Y04566*
X01687Y04569*
X01691Y04572*
X01696Y04576*
X01700Y04580*
X01703Y04584*
X01707Y04588*
X01710Y04593*
X01712Y04598*
X01715Y04602*
X01717Y04608*
X01719Y04613*
X01720Y04618*
X01721Y04624*
X01722Y04629*
X01722Y04635*
X01723Y01505D02*
D01*
X01723Y01510*
X01722Y01515*
X01721Y01521*
X01720Y01526*
X01718Y01531*
X01716Y01537*
X01714Y01541*
X01711Y01546*
X01708Y01551*
X01705Y01555*
X01701Y01559*
X01697Y01563*
X01693Y01567*
X01689Y01570*
X01684Y01573*
X01679Y01575*
X01674Y01577*
X01669Y01579*
X01664Y01581*
X01658Y01582*
X01653Y01583*
X01647Y01583*
X01642*
X01636Y01583*
X01631Y01582*
X01625Y01581*
X01620Y01579*
X01615Y01577*
X01610Y01575*
X01605Y01573*
X01600Y01570*
X01596Y01567*
X01592Y01563*
X01588Y01559*
X01584Y01555*
X01581Y01551*
X01578Y01546*
X01575Y01541*
X01573Y01537*
X01571Y01531*
X01569Y01526*
X01568Y01521*
X01567Y01515*
X01566Y01510*
X01566Y01505*
X01566Y01499*
X01567Y01494*
X01568Y01488*
X01569Y01483*
X01571Y01478*
X01573Y01472*
X01575Y01468*
X01578Y01463*
X01581Y01458*
X01584Y01454*
X01588Y01450*
X01592Y01446*
X01596Y01442*
X01600Y01439*
X01605Y01436*
X01610Y01434*
X01615Y01432*
X01620Y01430*
X01625Y01428*
X01631Y01427*
X01636Y01426*
X01642Y01426*
X01647*
X01653Y01426*
X01658Y01427*
X01664Y01428*
X01669Y01430*
X01674Y01432*
X01679Y01434*
X01684Y01436*
X01689Y01439*
X01693Y01442*
X01697Y01446*
X01701Y01450*
X01705Y01454*
X01708Y01458*
X01711Y01463*
X01714Y01468*
X01716Y01472*
X01718Y01478*
X01720Y01483*
X01721Y01488*
X01722Y01494*
X01723Y01499*
X01723Y01505*
X01525D02*
D01*
X01525Y01510*
X01524Y01515*
X01523Y01521*
X01522Y01526*
X01520Y01531*
X01518Y01537*
X01516Y01541*
X01513Y01546*
X01510Y01551*
X01506Y01555*
X01503Y01559*
X01499Y01563*
X01495Y01567*
X01490Y01570*
X01485Y01573*
X01481Y01575*
X01476Y01577*
X01470Y01579*
X01465Y01581*
X01460Y01582*
X01454Y01583*
X01449Y01583*
X01443*
X01438Y01583*
X01432Y01582*
X01427Y01581*
X01422Y01579*
X01417Y01577*
X01412Y01575*
X01407Y01573*
X01402Y01570*
X01398Y01567*
X01393Y01563*
X01389Y01559*
X01386Y01555*
X01382Y01551*
X01379Y01546*
X01377Y01541*
X01374Y01537*
X01372Y01531*
X01370Y01526*
X01369Y01521*
X01368Y01515*
X01368Y01510*
X01367Y01505*
X01368Y01499*
X01368Y01494*
X01369Y01488*
X01370Y01483*
X01372Y01478*
X01374Y01472*
X01377Y01468*
X01379Y01463*
X01382Y01458*
X01386Y01454*
X01389Y01450*
X01393Y01446*
X01398Y01442*
X01402Y01439*
X01407Y01436*
X01412Y01434*
X01417Y01432*
X01422Y01430*
X01427Y01428*
X01432Y01427*
X01438Y01426*
X01443Y01426*
X01449*
X01454Y01426*
X01460Y01427*
X01465Y01428*
X01470Y01430*
X01476Y01432*
X01481Y01434*
X01485Y01436*
X01490Y01439*
X01495Y01442*
X01499Y01446*
X01503Y01450*
X01506Y01454*
X01510Y01458*
X01513Y01463*
X01516Y01468*
X01518Y01472*
X01520Y01478*
X01522Y01483*
X01523Y01488*
X01524Y01494*
X01525Y01499*
X01525Y01505*
X02198D02*
D01*
X02197Y01510*
X02197Y01515*
X02196Y01521*
X02194Y01526*
X02193Y01531*
X02191Y01537*
X02188Y01541*
X02186Y01546*
X02182Y01551*
X02179Y01555*
X02175Y01559*
X02171Y01563*
X02167Y01567*
X02163Y01570*
X02158Y01573*
X02153Y01575*
X02148Y01577*
X02143Y01579*
X02138Y01581*
X02132Y01582*
X02127Y01583*
X02122Y01583*
X02116*
X02111Y01583*
X02105Y01582*
X02100Y01581*
X02094Y01579*
X02089Y01577*
X02084Y01575*
X02079Y01573*
X02075Y01570*
X02070Y01567*
X02066Y01563*
X02062Y01559*
X02059Y01555*
X02055Y01551*
X02052Y01546*
X02049Y01541*
X02047Y01537*
X02045Y01531*
X02043Y01526*
X02042Y01521*
X02041Y01515*
X02040Y01510*
X02040Y01505*
X02040Y01499*
X02041Y01494*
X02042Y01488*
X02043Y01483*
X02045Y01478*
X02047Y01472*
X02049Y01468*
X02052Y01463*
X02055Y01458*
X02059Y01454*
X02062Y01450*
X02066Y01446*
X02070Y01442*
X02075Y01439*
X02079Y01436*
X02084Y01434*
X02089Y01432*
X02094Y01430*
X02100Y01428*
X02105Y01427*
X02111Y01426*
X02116Y01426*
X02122*
X02127Y01426*
X02132Y01427*
X02138Y01428*
X02143Y01430*
X02148Y01432*
X02153Y01434*
X02158Y01436*
X02163Y01439*
X02167Y01442*
X02171Y01446*
X02175Y01450*
X02179Y01454*
X02182Y01458*
X02186Y01463*
X02188Y01468*
X02191Y01472*
X02193Y01478*
X02194Y01483*
X02196Y01488*
X02197Y01494*
X02197Y01499*
X02198Y01505*
X01999D02*
D01*
X01999Y01510*
X01998Y01515*
X01997Y01521*
X01996Y01526*
X01994Y01531*
X01992Y01537*
X01990Y01541*
X01987Y01546*
X01984Y01551*
X01981Y01555*
X01977Y01559*
X01973Y01563*
X01969Y01567*
X01964Y01570*
X01960Y01573*
X01955Y01575*
X01950Y01577*
X01945Y01579*
X01939Y01581*
X01934Y01582*
X01929Y01583*
X01923Y01583*
X01918*
X01912Y01583*
X01907Y01582*
X01901Y01581*
X01896Y01579*
X01891Y01577*
X01886Y01575*
X01881Y01573*
X01876Y01570*
X01872Y01567*
X01868Y01563*
X01864Y01559*
X01860Y01555*
X01857Y01551*
X01854Y01546*
X01851Y01541*
X01849Y01537*
X01846Y01531*
X01845Y01526*
X01843Y01521*
X01842Y01515*
X01842Y01510*
X01842Y01505*
X01842Y01499*
X01842Y01494*
X01843Y01488*
X01845Y01483*
X01846Y01478*
X01849Y01472*
X01851Y01468*
X01854Y01463*
X01857Y01458*
X01860Y01454*
X01864Y01450*
X01868Y01446*
X01872Y01442*
X01876Y01439*
X01881Y01436*
X01886Y01434*
X01891Y01432*
X01896Y01430*
X01901Y01428*
X01907Y01427*
X01912Y01426*
X01918Y01426*
X01923*
X01929Y01426*
X01934Y01427*
X01939Y01428*
X01945Y01430*
X01950Y01432*
X01955Y01434*
X01960Y01436*
X01964Y01439*
X01969Y01442*
X01973Y01446*
X01977Y01450*
X01981Y01454*
X01984Y01458*
X01987Y01463*
X01990Y01468*
X01992Y01472*
X01994Y01478*
X01996Y01483*
X01997Y01488*
X01998Y01494*
X01999Y01499*
X01999Y01505*
X02672D02*
D01*
X02672Y01510*
X02671Y01515*
X02670Y01521*
X02669Y01526*
X02667Y01531*
X02665Y01537*
X02663Y01541*
X02660Y01546*
X02657Y01551*
X02653Y01555*
X02650Y01559*
X02646Y01563*
X02642Y01567*
X02637Y01570*
X02632Y01573*
X02628Y01575*
X02623Y01577*
X02617Y01579*
X02612Y01581*
X02607Y01582*
X02601Y01583*
X02596Y01583*
X02590*
X02585Y01583*
X02579Y01582*
X02574Y01581*
X02569Y01579*
X02564Y01577*
X02559Y01575*
X02554Y01573*
X02549Y01570*
X02545Y01567*
X02540Y01563*
X02536Y01559*
X02533Y01555*
X02529Y01551*
X02526Y01546*
X02524Y01541*
X02521Y01537*
X02519Y01531*
X02517Y01526*
X02516Y01521*
X02515Y01515*
X02515Y01510*
X02514Y01505*
X02515Y01499*
X02515Y01494*
X02516Y01488*
X02517Y01483*
X02519Y01478*
X02521Y01472*
X02524Y01468*
X02526Y01463*
X02529Y01458*
X02533Y01454*
X02536Y01450*
X02540Y01446*
X02545Y01442*
X02549Y01439*
X02554Y01436*
X02559Y01434*
X02564Y01432*
X02569Y01430*
X02574Y01428*
X02579Y01427*
X02585Y01426*
X02590Y01426*
X02596*
X02601Y01426*
X02607Y01427*
X02612Y01428*
X02617Y01430*
X02623Y01432*
X02628Y01434*
X02632Y01436*
X02637Y01439*
X02642Y01442*
X02646Y01446*
X02650Y01450*
X02653Y01454*
X02657Y01458*
X02660Y01463*
X02663Y01468*
X02665Y01472*
X02667Y01478*
X02669Y01483*
X02670Y01488*
X02671Y01494*
X02672Y01499*
X02672Y01505*
X02473D02*
D01*
X02473Y01510*
X02473Y01515*
X02472Y01521*
X02470Y01526*
X02469Y01531*
X02467Y01537*
X02464Y01541*
X02461Y01546*
X02458Y01551*
X02455Y01555*
X02451Y01559*
X02447Y01563*
X02443Y01567*
X02439Y01570*
X02434Y01573*
X02429Y01575*
X02424Y01577*
X02419Y01579*
X02414Y01581*
X02408Y01582*
X02403Y01583*
X02397Y01583*
X02392*
X02386Y01583*
X02381Y01582*
X02376Y01581*
X02370Y01579*
X02365Y01577*
X02360Y01575*
X02355Y01573*
X02351Y01570*
X02346Y01567*
X02342Y01563*
X02338Y01559*
X02334Y01555*
X02331Y01551*
X02328Y01546*
X02325Y01541*
X02323Y01537*
X02321Y01531*
X02319Y01526*
X02318Y01521*
X02317Y01515*
X02316Y01510*
X02316Y01505*
X02316Y01499*
X02317Y01494*
X02318Y01488*
X02319Y01483*
X02321Y01478*
X02323Y01472*
X02325Y01468*
X02328Y01463*
X02331Y01458*
X02334Y01454*
X02338Y01450*
X02342Y01446*
X02346Y01442*
X02351Y01439*
X02355Y01436*
X02360Y01434*
X02365Y01432*
X02370Y01430*
X02376Y01428*
X02381Y01427*
X02386Y01426*
X02392Y01426*
X02397*
X02403Y01426*
X02408Y01427*
X02414Y01428*
X02419Y01430*
X02424Y01432*
X02429Y01434*
X02434Y01436*
X02439Y01439*
X02443Y01442*
X02447Y01446*
X02451Y01450*
X02455Y01454*
X02458Y01458*
X02461Y01463*
X02464Y01468*
X02467Y01472*
X02469Y01478*
X02470Y01483*
X02472Y01488*
X02473Y01494*
X02473Y01499*
X02473Y01505*
X03146D02*
D01*
X03146Y01510*
X03145Y01515*
X03144Y01521*
X03143Y01526*
X03141Y01531*
X03139Y01537*
X03137Y01541*
X03134Y01546*
X03131Y01551*
X03128Y01555*
X03124Y01559*
X03120Y01563*
X03116Y01567*
X03111Y01570*
X03107Y01573*
X03102Y01575*
X03097Y01577*
X03092Y01579*
X03086Y01581*
X03081Y01582*
X03076Y01583*
X03070Y01583*
X03065*
X03059Y01583*
X03054Y01582*
X03048Y01581*
X03043Y01579*
X03038Y01577*
X03033Y01575*
X03028Y01573*
X03023Y01570*
X03019Y01567*
X03015Y01563*
X03011Y01559*
X03007Y01555*
X03004Y01551*
X03001Y01546*
X02998Y01541*
X02996Y01537*
X02993Y01531*
X02992Y01526*
X02990Y01521*
X02989Y01515*
X02989Y01510*
X02989Y01505*
X02989Y01499*
X02989Y01494*
X02990Y01488*
X02992Y01483*
X02993Y01478*
X02996Y01472*
X02998Y01468*
X03001Y01463*
X03004Y01458*
X03007Y01454*
X03011Y01450*
X03015Y01446*
X03019Y01442*
X03023Y01439*
X03028Y01436*
X03033Y01434*
X03038Y01432*
X03043Y01430*
X03048Y01428*
X03054Y01427*
X03059Y01426*
X03065Y01426*
X03070*
X03076Y01426*
X03081Y01427*
X03086Y01428*
X03092Y01430*
X03097Y01432*
X03102Y01434*
X03107Y01436*
X03111Y01439*
X03116Y01442*
X03120Y01446*
X03124Y01450*
X03128Y01454*
X03131Y01458*
X03134Y01463*
X03137Y01468*
X03139Y01472*
X03141Y01478*
X03143Y01483*
X03144Y01488*
X03145Y01494*
X03146Y01499*
X03146Y01505*
X02948D02*
D01*
X02948Y01510*
X02947Y01515*
X02946Y01521*
X02945Y01526*
X02943Y01531*
X02941Y01537*
X02938Y01541*
X02936Y01546*
X02933Y01551*
X02929Y01555*
X02926Y01559*
X02922Y01563*
X02917Y01567*
X02913Y01570*
X02908Y01573*
X02903Y01575*
X02898Y01577*
X02893Y01579*
X02888Y01581*
X02883Y01582*
X02877Y01583*
X02872Y01583*
X02866*
X02861Y01583*
X02855Y01582*
X02850Y01581*
X02845Y01579*
X02840Y01577*
X02835Y01575*
X02830Y01573*
X02825Y01570*
X02821Y01567*
X02816Y01563*
X02812Y01559*
X02809Y01555*
X02805Y01551*
X02802Y01546*
X02800Y01541*
X02797Y01537*
X02795Y01531*
X02793Y01526*
X02792Y01521*
X02791Y01515*
X02790Y01510*
X02790Y01505*
X02790Y01499*
X02791Y01494*
X02792Y01488*
X02793Y01483*
X02795Y01478*
X02797Y01472*
X02800Y01468*
X02802Y01463*
X02805Y01458*
X02809Y01454*
X02812Y01450*
X02816Y01446*
X02821Y01442*
X02825Y01439*
X02830Y01436*
X02835Y01434*
X02840Y01432*
X02845Y01430*
X02850Y01428*
X02855Y01427*
X02861Y01426*
X02866Y01426*
X02872*
X02877Y01426*
X02883Y01427*
X02888Y01428*
X02893Y01430*
X02898Y01432*
X02903Y01434*
X02908Y01436*
X02913Y01439*
X02917Y01442*
X02922Y01446*
X02926Y01450*
X02929Y01454*
X02933Y01458*
X02936Y01463*
X02938Y01468*
X02941Y01472*
X02943Y01478*
X02945Y01483*
X02946Y01488*
X02947Y01494*
X02948Y01499*
X02948Y01505*
X03620D02*
D01*
X03620Y01510*
X03620Y01515*
X03619Y01521*
X03617Y01526*
X03616Y01531*
X03614Y01537*
X03611Y01541*
X03608Y01546*
X03605Y01551*
X03602Y01555*
X03598Y01559*
X03594Y01563*
X03590Y01567*
X03586Y01570*
X03581Y01573*
X03576Y01575*
X03571Y01577*
X03566Y01579*
X03561Y01581*
X03555Y01582*
X03550Y01583*
X03544Y01583*
X03539*
X03533Y01583*
X03528Y01582*
X03523Y01581*
X03517Y01579*
X03512Y01577*
X03507Y01575*
X03502Y01573*
X03498Y01570*
X03493Y01567*
X03489Y01563*
X03485Y01559*
X03481Y01555*
X03478Y01551*
X03475Y01546*
X03472Y01541*
X03470Y01537*
X03468Y01531*
X03466Y01526*
X03465Y01521*
X03464Y01515*
X03463Y01510*
X03463Y01505*
X03463Y01499*
X03464Y01494*
X03465Y01488*
X03466Y01483*
X03468Y01478*
X03470Y01472*
X03472Y01468*
X03475Y01463*
X03478Y01458*
X03481Y01454*
X03485Y01450*
X03489Y01446*
X03493Y01442*
X03498Y01439*
X03502Y01436*
X03507Y01434*
X03512Y01432*
X03517Y01430*
X03523Y01428*
X03528Y01427*
X03533Y01426*
X03539Y01426*
X03544*
X03550Y01426*
X03555Y01427*
X03561Y01428*
X03566Y01430*
X03571Y01432*
X03576Y01434*
X03581Y01436*
X03586Y01439*
X03590Y01442*
X03594Y01446*
X03598Y01450*
X03602Y01454*
X03605Y01458*
X03608Y01463*
X03611Y01468*
X03614Y01472*
X03616Y01478*
X03617Y01483*
X03619Y01488*
X03620Y01494*
X03620Y01499*
X03620Y01505*
X03422D02*
D01*
X03422Y01510*
X03421Y01515*
X03420Y01521*
X03419Y01526*
X03417Y01531*
X03415Y01537*
X03413Y01541*
X03410Y01546*
X03407Y01551*
X03404Y01555*
X03400Y01559*
X03396Y01563*
X03392Y01567*
X03387Y01570*
X03383Y01573*
X03378Y01575*
X03373Y01577*
X03368Y01579*
X03362Y01581*
X03357Y01582*
X03352Y01583*
X03346Y01583*
X03341*
X03335Y01583*
X03330Y01582*
X03324Y01581*
X03319Y01579*
X03314Y01577*
X03309Y01575*
X03304Y01573*
X03299Y01570*
X03295Y01567*
X03291Y01563*
X03287Y01559*
X03283Y01555*
X03280Y01551*
X03277Y01546*
X03274Y01541*
X03271Y01537*
X03269Y01531*
X03268Y01526*
X03266Y01521*
X03265Y01515*
X03265Y01510*
X03265Y01505*
X03265Y01499*
X03265Y01494*
X03266Y01488*
X03268Y01483*
X03269Y01478*
X03271Y01472*
X03274Y01468*
X03277Y01463*
X03280Y01458*
X03283Y01454*
X03287Y01450*
X03291Y01446*
X03295Y01442*
X03299Y01439*
X03304Y01436*
X03309Y01434*
X03314Y01432*
X03319Y01430*
X03324Y01428*
X03330Y01427*
X03335Y01426*
X03341Y01426*
X03346*
X03352Y01426*
X03357Y01427*
X03362Y01428*
X03368Y01430*
X03373Y01432*
X03378Y01434*
X03383Y01436*
X03387Y01439*
X03392Y01442*
X03396Y01446*
X03400Y01450*
X03404Y01454*
X03407Y01458*
X03410Y01463*
X03413Y01468*
X03415Y01472*
X03417Y01478*
X03419Y01483*
X03420Y01488*
X03421Y01494*
X03422Y01499*
X03422Y01505*
X04095D02*
D01*
X04095Y01510*
X04094Y01515*
X04093Y01521*
X04092Y01526*
X04090Y01531*
X04088Y01537*
X04085Y01541*
X04083Y01546*
X04080Y01551*
X04076Y01555*
X04073Y01559*
X04069Y01563*
X04064Y01567*
X04060Y01570*
X04055Y01573*
X04050Y01575*
X04045Y01577*
X04040Y01579*
X04035Y01581*
X04030Y01582*
X04024Y01583*
X04019Y01583*
X04013*
X04008Y01583*
X04002Y01582*
X03997Y01581*
X03992Y01579*
X03987Y01577*
X03982Y01575*
X03977Y01573*
X03972Y01570*
X03968Y01567*
X03963Y01563*
X03959Y01559*
X03956Y01555*
X03952Y01551*
X03949Y01546*
X03947Y01541*
X03944Y01537*
X03942Y01531*
X03940Y01526*
X03939Y01521*
X03938Y01515*
X03937Y01510*
X03937Y01505*
X03937Y01499*
X03938Y01494*
X03939Y01488*
X03940Y01483*
X03942Y01478*
X03944Y01472*
X03947Y01468*
X03949Y01463*
X03952Y01458*
X03956Y01454*
X03959Y01450*
X03963Y01446*
X03968Y01442*
X03972Y01439*
X03977Y01436*
X03982Y01434*
X03987Y01432*
X03992Y01430*
X03997Y01428*
X04002Y01427*
X04008Y01426*
X04013Y01426*
X04019*
X04024Y01426*
X04030Y01427*
X04035Y01428*
X04040Y01430*
X04045Y01432*
X04050Y01434*
X04055Y01436*
X04060Y01439*
X04064Y01442*
X04069Y01446*
X04073Y01450*
X04076Y01454*
X04080Y01458*
X04083Y01463*
X04085Y01468*
X04088Y01472*
X04090Y01478*
X04092Y01483*
X04093Y01488*
X04094Y01494*
X04095Y01499*
X04095Y01505*
X03896D02*
D01*
X03896Y01510*
X03895Y01515*
X03894Y01521*
X03893Y01526*
X03891Y01531*
X03889Y01537*
X03887Y01541*
X03884Y01546*
X03881Y01551*
X03878Y01555*
X03874Y01559*
X03870Y01563*
X03866Y01567*
X03862Y01570*
X03857Y01573*
X03852Y01575*
X03847Y01577*
X03842Y01579*
X03837Y01581*
X03831Y01582*
X03826Y01583*
X03820Y01583*
X03815*
X03809Y01583*
X03804Y01582*
X03798Y01581*
X03793Y01579*
X03788Y01577*
X03783Y01575*
X03778Y01573*
X03773Y01570*
X03769Y01567*
X03765Y01563*
X03761Y01559*
X03757Y01555*
X03754Y01551*
X03751Y01546*
X03748Y01541*
X03746Y01537*
X03744Y01531*
X03742Y01526*
X03741Y01521*
X03740Y01515*
X03739Y01510*
X03739Y01505*
X03739Y01499*
X03740Y01494*
X03741Y01488*
X03742Y01483*
X03744Y01478*
X03746Y01472*
X03748Y01468*
X03751Y01463*
X03754Y01458*
X03757Y01454*
X03761Y01450*
X03765Y01446*
X03769Y01442*
X03773Y01439*
X03778Y01436*
X03783Y01434*
X03788Y01432*
X03793Y01430*
X03798Y01428*
X03804Y01427*
X03809Y01426*
X03815Y01426*
X03820*
X03826Y01426*
X03831Y01427*
X03837Y01428*
X03842Y01430*
X03847Y01432*
X03852Y01434*
X03857Y01436*
X03862Y01439*
X03866Y01442*
X03870Y01446*
X03874Y01450*
X03878Y01454*
X03881Y01458*
X03884Y01463*
X03887Y01468*
X03889Y01472*
X03891Y01478*
X03893Y01483*
X03894Y01488*
X03895Y01494*
X03896Y01499*
X03896Y01505*
X04569D02*
D01*
X04569Y01510*
X04568Y01515*
X04567Y01521*
X04566Y01526*
X04564Y01531*
X04562Y01537*
X04560Y01541*
X04557Y01546*
X04554Y01551*
X04551Y01555*
X04547Y01559*
X04543Y01563*
X04539Y01567*
X04534Y01570*
X04530Y01573*
X04525Y01575*
X04520Y01577*
X04515Y01579*
X04509Y01581*
X04504Y01582*
X04499Y01583*
X04493Y01583*
X04488*
X04482Y01583*
X04477Y01582*
X04471Y01581*
X04466Y01579*
X04461Y01577*
X04456Y01575*
X04451Y01573*
X04446Y01570*
X04442Y01567*
X04438Y01563*
X04434Y01559*
X04430Y01555*
X04427Y01551*
X04424Y01546*
X04421Y01541*
X04418Y01537*
X04416Y01531*
X04415Y01526*
X04413Y01521*
X04412Y01515*
X04412Y01510*
X04412Y01505*
X04412Y01499*
X04412Y01494*
X04413Y01488*
X04415Y01483*
X04416Y01478*
X04418Y01472*
X04421Y01468*
X04424Y01463*
X04427Y01458*
X04430Y01454*
X04434Y01450*
X04438Y01446*
X04442Y01442*
X04446Y01439*
X04451Y01436*
X04456Y01434*
X04461Y01432*
X04466Y01430*
X04471Y01428*
X04477Y01427*
X04482Y01426*
X04488Y01426*
X04493*
X04499Y01426*
X04504Y01427*
X04509Y01428*
X04515Y01430*
X04520Y01432*
X04525Y01434*
X04530Y01436*
X04534Y01439*
X04539Y01442*
X04543Y01446*
X04547Y01450*
X04551Y01454*
X04554Y01458*
X04557Y01463*
X04560Y01468*
X04562Y01472*
X04564Y01478*
X04566Y01483*
X04567Y01488*
X04568Y01494*
X04569Y01499*
X04569Y01505*
X04371D02*
D01*
X04370Y01510*
X04370Y01515*
X04369Y01521*
X04367Y01526*
X04366Y01531*
X04364Y01537*
X04361Y01541*
X04359Y01546*
X04355Y01551*
X04352Y01555*
X04348Y01559*
X04344Y01563*
X04340Y01567*
X04336Y01570*
X04331Y01573*
X04326Y01575*
X04321Y01577*
X04316Y01579*
X04311Y01581*
X04305Y01582*
X04300Y01583*
X04295Y01583*
X04289*
X04284Y01583*
X04278Y01582*
X04273Y01581*
X04267Y01579*
X04262Y01577*
X04257Y01575*
X04252Y01573*
X04248Y01570*
X04243Y01567*
X04239Y01563*
X04235Y01559*
X04232Y01555*
X04228Y01551*
X04225Y01546*
X04222Y01541*
X04220Y01537*
X04218Y01531*
X04216Y01526*
X04215Y01521*
X04214Y01515*
X04213Y01510*
X04213Y01505*
X04213Y01499*
X04214Y01494*
X04215Y01488*
X04216Y01483*
X04218Y01478*
X04220Y01472*
X04222Y01468*
X04225Y01463*
X04228Y01458*
X04232Y01454*
X04235Y01450*
X04239Y01446*
X04243Y01442*
X04248Y01439*
X04252Y01436*
X04257Y01434*
X04262Y01432*
X04267Y01430*
X04273Y01428*
X04278Y01427*
X04284Y01426*
X04289Y01426*
X04295*
X04300Y01426*
X04305Y01427*
X04311Y01428*
X04316Y01430*
X04321Y01432*
X04326Y01434*
X04331Y01436*
X04336Y01439*
X04340Y01442*
X04344Y01446*
X04348Y01450*
X04352Y01454*
X04355Y01458*
X04359Y01463*
X04361Y01468*
X04364Y01472*
X04366Y01478*
X04367Y01483*
X04369Y01488*
X04370Y01494*
X04370Y01499*
X04371Y01505*
X05043D02*
D01*
X05043Y01510*
X05042Y01515*
X05041Y01521*
X05040Y01526*
X05038Y01531*
X05036Y01537*
X05034Y01541*
X05031Y01546*
X05028Y01551*
X05025Y01555*
X05021Y01559*
X05017Y01563*
X05013Y01567*
X05009Y01570*
X05004Y01573*
X04999Y01575*
X04994Y01577*
X04989Y01579*
X04984Y01581*
X04978Y01582*
X04973Y01583*
X04967Y01583*
X04962*
X04956Y01583*
X04951Y01582*
X04945Y01581*
X04940Y01579*
X04935Y01577*
X04930Y01575*
X04925Y01573*
X04920Y01570*
X04916Y01567*
X04912Y01563*
X04908Y01559*
X04904Y01555*
X04901Y01551*
X04898Y01546*
X04895Y01541*
X04893Y01537*
X04891Y01531*
X04889Y01526*
X04888Y01521*
X04887Y01515*
X04886Y01510*
X04886Y01505*
X04886Y01499*
X04887Y01494*
X04888Y01488*
X04889Y01483*
X04891Y01478*
X04893Y01472*
X04895Y01468*
X04898Y01463*
X04901Y01458*
X04904Y01454*
X04908Y01450*
X04912Y01446*
X04916Y01442*
X04920Y01439*
X04925Y01436*
X04930Y01434*
X04935Y01432*
X04940Y01430*
X04945Y01428*
X04951Y01427*
X04956Y01426*
X04962Y01426*
X04967*
X04973Y01426*
X04978Y01427*
X04984Y01428*
X04989Y01430*
X04994Y01432*
X04999Y01434*
X05004Y01436*
X05009Y01439*
X05013Y01442*
X05017Y01446*
X05021Y01450*
X05025Y01454*
X05028Y01458*
X05031Y01463*
X05034Y01468*
X05036Y01472*
X05038Y01478*
X05040Y01483*
X05041Y01488*
X05042Y01494*
X05043Y01499*
X05043Y01505*
X04845D02*
D01*
X04845Y01510*
X04844Y01515*
X04843Y01521*
X04842Y01526*
X04840Y01531*
X04838Y01537*
X04836Y01541*
X04833Y01546*
X04830Y01551*
X04826Y01555*
X04823Y01559*
X04819Y01563*
X04815Y01567*
X04810Y01570*
X04805Y01573*
X04801Y01575*
X04796Y01577*
X04790Y01579*
X04785Y01581*
X04780Y01582*
X04774Y01583*
X04769Y01583*
X04763*
X04758Y01583*
X04752Y01582*
X04747Y01581*
X04742Y01579*
X04737Y01577*
X04732Y01575*
X04727Y01573*
X04722Y01570*
X04718Y01567*
X04713Y01563*
X04709Y01559*
X04706Y01555*
X04702Y01551*
X04699Y01546*
X04697Y01541*
X04694Y01537*
X04692Y01531*
X04690Y01526*
X04689Y01521*
X04688Y01515*
X04688Y01510*
X04687Y01505*
X04688Y01499*
X04688Y01494*
X04689Y01488*
X04690Y01483*
X04692Y01478*
X04694Y01472*
X04697Y01468*
X04699Y01463*
X04702Y01458*
X04706Y01454*
X04709Y01450*
X04713Y01446*
X04718Y01442*
X04722Y01439*
X04727Y01436*
X04732Y01434*
X04737Y01432*
X04742Y01430*
X04747Y01428*
X04752Y01427*
X04758Y01426*
X04763Y01426*
X04769*
X04774Y01426*
X04780Y01427*
X04785Y01428*
X04790Y01430*
X04796Y01432*
X04801Y01434*
X04805Y01436*
X04810Y01439*
X04815Y01442*
X04819Y01446*
X04823Y01450*
X04826Y01454*
X04830Y01458*
X04833Y01463*
X04836Y01468*
X04838Y01472*
X04840Y01478*
X04842Y01483*
X04843Y01488*
X04844Y01494*
X04845Y01499*
X04845Y01505*
X01845Y08610D02*
D01*
X01845Y08615*
X01844Y08620*
X01843Y08626*
X01842Y08631*
X01840Y08636*
X01838Y08642*
X01836Y08646*
X01833Y08651*
X01830Y08656*
X01826Y08660*
X01823Y08664*
X01819Y08668*
X01815Y08672*
X01810Y08675*
X01805Y08678*
X01801Y08680*
X01796Y08682*
X01790Y08684*
X01785Y08686*
X01780Y08687*
X01774Y08688*
X01769Y08688*
X01763*
X01758Y08688*
X01752Y08687*
X01747Y08686*
X01742Y08684*
X01737Y08682*
X01732Y08680*
X01727Y08678*
X01722Y08675*
X01718Y08672*
X01713Y08668*
X01709Y08664*
X01706Y08660*
X01702Y08656*
X01699Y08651*
X01697Y08646*
X01694Y08642*
X01692Y08636*
X01690Y08631*
X01689Y08626*
X01688Y08620*
X01688Y08615*
X01687Y08610*
X01688Y08604*
X01688Y08599*
X01689Y08593*
X01690Y08588*
X01692Y08583*
X01694Y08577*
X01697Y08573*
X01699Y08568*
X01702Y08563*
X01706Y08559*
X01709Y08555*
X01713Y08551*
X01718Y08547*
X01722Y08544*
X01727Y08541*
X01732Y08539*
X01737Y08537*
X01742Y08535*
X01747Y08533*
X01752Y08532*
X01758Y08531*
X01763Y08531*
X01769*
X01774Y08531*
X01780Y08532*
X01785Y08533*
X01790Y08535*
X01796Y08537*
X01801Y08539*
X01805Y08541*
X01810Y08544*
X01815Y08547*
X01819Y08551*
X01823Y08555*
X01826Y08559*
X01830Y08563*
X01833Y08568*
X01836Y08573*
X01838Y08577*
X01840Y08583*
X01842Y08588*
X01843Y08593*
X01844Y08599*
X01845Y08604*
X01845Y08610*
X02245D02*
D01*
X02245Y08615*
X02244Y08620*
X02243Y08626*
X02242Y08631*
X02240Y08636*
X02238Y08642*
X02236Y08646*
X02233Y08651*
X02230Y08656*
X02226Y08660*
X02223Y08664*
X02219Y08668*
X02215Y08672*
X02210Y08675*
X02205Y08678*
X02201Y08680*
X02196Y08682*
X02190Y08684*
X02185Y08686*
X02180Y08687*
X02174Y08688*
X02169Y08688*
X02163*
X02158Y08688*
X02152Y08687*
X02147Y08686*
X02142Y08684*
X02137Y08682*
X02132Y08680*
X02127Y08678*
X02122Y08675*
X02118Y08672*
X02113Y08668*
X02109Y08664*
X02106Y08660*
X02102Y08656*
X02099Y08651*
X02097Y08646*
X02094Y08642*
X02092Y08636*
X02090Y08631*
X02089Y08626*
X02088Y08620*
X02088Y08615*
X02087Y08610*
X02088Y08604*
X02088Y08599*
X02089Y08593*
X02090Y08588*
X02092Y08583*
X02094Y08577*
X02097Y08573*
X02099Y08568*
X02102Y08563*
X02106Y08559*
X02109Y08555*
X02113Y08551*
X02118Y08547*
X02122Y08544*
X02127Y08541*
X02132Y08539*
X02137Y08537*
X02142Y08535*
X02147Y08533*
X02152Y08532*
X02158Y08531*
X02163Y08531*
X02169*
X02174Y08531*
X02180Y08532*
X02185Y08533*
X02190Y08535*
X02196Y08537*
X02201Y08539*
X02205Y08541*
X02210Y08544*
X02215Y08547*
X02219Y08551*
X02223Y08555*
X02226Y08559*
X02230Y08563*
X02233Y08568*
X02236Y08573*
X02238Y08577*
X02240Y08583*
X02242Y08588*
X02243Y08593*
X02244Y08599*
X02245Y08604*
X02245Y08610*
X02043D02*
D01*
X02043Y08615*
X02042Y08620*
X02041Y08626*
X02040Y08631*
X02038Y08636*
X02036Y08642*
X02034Y08646*
X02031Y08651*
X02028Y08656*
X02025Y08660*
X02021Y08664*
X02017Y08668*
X02013Y08672*
X02009Y08675*
X02004Y08678*
X01999Y08680*
X01994Y08682*
X01989Y08684*
X01984Y08686*
X01978Y08687*
X01973Y08688*
X01967Y08688*
X01962*
X01956Y08688*
X01951Y08687*
X01945Y08686*
X01940Y08684*
X01935Y08682*
X01930Y08680*
X01925Y08678*
X01920Y08675*
X01916Y08672*
X01912Y08668*
X01908Y08664*
X01904Y08660*
X01901Y08656*
X01898Y08651*
X01895Y08646*
X01893Y08642*
X01891Y08636*
X01889Y08631*
X01888Y08626*
X01887Y08620*
X01886Y08615*
X01886Y08610*
X01886Y08604*
X01887Y08599*
X01888Y08593*
X01889Y08588*
X01891Y08583*
X01893Y08577*
X01895Y08573*
X01898Y08568*
X01901Y08563*
X01904Y08559*
X01908Y08555*
X01912Y08551*
X01916Y08547*
X01920Y08544*
X01925Y08541*
X01930Y08539*
X01935Y08537*
X01940Y08535*
X01945Y08533*
X01951Y08532*
X01956Y08531*
X01962Y08531*
X01967*
X01973Y08531*
X01978Y08532*
X01984Y08533*
X01989Y08535*
X01994Y08537*
X01999Y08539*
X02004Y08541*
X02009Y08544*
X02013Y08547*
X02017Y08551*
X02021Y08555*
X02025Y08559*
X02028Y08563*
X02031Y08568*
X02034Y08573*
X02036Y08577*
X02038Y08583*
X02040Y08588*
X02041Y08593*
X02042Y08599*
X02043Y08604*
X02043Y08610*
X02475D02*
D01*
X02475Y08615*
X02474Y08620*
X02473Y08626*
X02472Y08631*
X02470Y08636*
X02468Y08642*
X02466Y08646*
X02463Y08651*
X02460Y08656*
X02456Y08660*
X02453Y08664*
X02449Y08668*
X02445Y08672*
X02440Y08675*
X02436Y08678*
X02431Y08680*
X02426Y08682*
X02421Y08684*
X02415Y08686*
X02410Y08687*
X02404Y08688*
X02399Y08688*
X02393*
X02388Y08688*
X02383Y08687*
X02377Y08686*
X02372Y08684*
X02367Y08682*
X02362Y08680*
X02357Y08678*
X02352Y08675*
X02348Y08672*
X02344Y08668*
X02340Y08664*
X02336Y08660*
X02333Y08656*
X02329Y08651*
X02327Y08646*
X02324Y08642*
X02322Y08636*
X02321Y08631*
X02319Y08626*
X02318Y08620*
X02318Y08615*
X02318Y08610*
X02318Y08604*
X02318Y08599*
X02319Y08593*
X02321Y08588*
X02322Y08583*
X02324Y08577*
X02327Y08573*
X02329Y08568*
X02333Y08563*
X02336Y08559*
X02340Y08555*
X02344Y08551*
X02348Y08547*
X02352Y08544*
X02357Y08541*
X02362Y08539*
X02367Y08537*
X02372Y08535*
X02377Y08533*
X02383Y08532*
X02388Y08531*
X02393Y08531*
X02399*
X02404Y08531*
X02410Y08532*
X02415Y08533*
X02421Y08535*
X02426Y08537*
X02431Y08539*
X02436Y08541*
X02440Y08544*
X02445Y08547*
X02449Y08551*
X02453Y08555*
X02456Y08559*
X02460Y08563*
X02463Y08568*
X02466Y08573*
X02468Y08577*
X02470Y08583*
X02472Y08588*
X02473Y08593*
X02474Y08599*
X02475Y08604*
X02475Y08610*
X02875D02*
D01*
X02875Y08615*
X02874Y08620*
X02873Y08626*
X02872Y08631*
X02870Y08636*
X02868Y08642*
X02866Y08646*
X02863Y08651*
X02860Y08656*
X02856Y08660*
X02853Y08664*
X02849Y08668*
X02845Y08672*
X02840Y08675*
X02836Y08678*
X02831Y08680*
X02826Y08682*
X02821Y08684*
X02815Y08686*
X02810Y08687*
X02804Y08688*
X02799Y08688*
X02793*
X02788Y08688*
X02783Y08687*
X02777Y08686*
X02772Y08684*
X02767Y08682*
X02762Y08680*
X02757Y08678*
X02752Y08675*
X02748Y08672*
X02744Y08668*
X02740Y08664*
X02736Y08660*
X02733Y08656*
X02729Y08651*
X02727Y08646*
X02724Y08642*
X02722Y08636*
X02721Y08631*
X02719Y08626*
X02718Y08620*
X02718Y08615*
X02718Y08610*
X02718Y08604*
X02718Y08599*
X02719Y08593*
X02721Y08588*
X02722Y08583*
X02724Y08577*
X02727Y08573*
X02729Y08568*
X02733Y08563*
X02736Y08559*
X02740Y08555*
X02744Y08551*
X02748Y08547*
X02752Y08544*
X02757Y08541*
X02762Y08539*
X02767Y08537*
X02772Y08535*
X02777Y08533*
X02783Y08532*
X02788Y08531*
X02793Y08531*
X02799*
X02804Y08531*
X02810Y08532*
X02815Y08533*
X02821Y08535*
X02826Y08537*
X02831Y08539*
X02836Y08541*
X02840Y08544*
X02845Y08547*
X02849Y08551*
X02853Y08555*
X02856Y08559*
X02860Y08563*
X02863Y08568*
X02866Y08573*
X02868Y08577*
X02870Y08583*
X02872Y08588*
X02873Y08593*
X02874Y08599*
X02875Y08604*
X02875Y08610*
X02673D02*
D01*
X02673Y08615*
X02673Y08620*
X02672Y08626*
X02670Y08631*
X02669Y08636*
X02666Y08642*
X02664Y08646*
X02661Y08651*
X02658Y08656*
X02655Y08660*
X02651Y08664*
X02647Y08668*
X02643Y08672*
X02639Y08675*
X02634Y08678*
X02629Y08680*
X02624Y08682*
X02619Y08684*
X02614Y08686*
X02608Y08687*
X02603Y08688*
X02597Y08688*
X02592*
X02586Y08688*
X02581Y08687*
X02576Y08686*
X02570Y08684*
X02565Y08682*
X02560Y08680*
X02555Y08678*
X02551Y08675*
X02546Y08672*
X02542Y08668*
X02538Y08664*
X02534Y08660*
X02531Y08656*
X02528Y08651*
X02525Y08646*
X02523Y08642*
X02521Y08636*
X02519Y08631*
X02518Y08626*
X02517Y08620*
X02516Y08615*
X02516Y08610*
X02516Y08604*
X02517Y08599*
X02518Y08593*
X02519Y08588*
X02521Y08583*
X02523Y08577*
X02525Y08573*
X02528Y08568*
X02531Y08563*
X02534Y08559*
X02538Y08555*
X02542Y08551*
X02546Y08547*
X02551Y08544*
X02555Y08541*
X02560Y08539*
X02565Y08537*
X02570Y08535*
X02576Y08533*
X02581Y08532*
X02586Y08531*
X02592Y08531*
X02597*
X02603Y08531*
X02608Y08532*
X02614Y08533*
X02619Y08535*
X02624Y08537*
X02629Y08539*
X02634Y08541*
X02639Y08544*
X02643Y08547*
X02647Y08551*
X02651Y08555*
X02655Y08559*
X02658Y08563*
X02661Y08568*
X02664Y08573*
X02666Y08577*
X02669Y08583*
X02670Y08588*
X02672Y08593*
X02673Y08599*
X02673Y08604*
X02673Y08610*
X03105D02*
D01*
X03105Y08615*
X03104Y08620*
X03103Y08626*
X03102Y08631*
X03100Y08636*
X03098Y08642*
X03096Y08646*
X03093Y08651*
X03090Y08656*
X03086Y08660*
X03083Y08664*
X03079Y08668*
X03075Y08672*
X03070Y08675*
X03066Y08678*
X03061Y08680*
X03056Y08682*
X03051Y08684*
X03045Y08686*
X03040Y08687*
X03034Y08688*
X03029Y08688*
X03023*
X03018Y08688*
X03013Y08687*
X03007Y08686*
X03002Y08684*
X02997Y08682*
X02992Y08680*
X02987Y08678*
X02982Y08675*
X02978Y08672*
X02974Y08668*
X02970Y08664*
X02966Y08660*
X02963Y08656*
X02959Y08651*
X02957Y08646*
X02954Y08642*
X02952Y08636*
X02951Y08631*
X02949Y08626*
X02948Y08620*
X02948Y08615*
X02948Y08610*
X02948Y08604*
X02948Y08599*
X02949Y08593*
X02951Y08588*
X02952Y08583*
X02954Y08577*
X02957Y08573*
X02959Y08568*
X02963Y08563*
X02966Y08559*
X02970Y08555*
X02974Y08551*
X02978Y08547*
X02982Y08544*
X02987Y08541*
X02992Y08539*
X02997Y08537*
X03002Y08535*
X03007Y08533*
X03013Y08532*
X03018Y08531*
X03023Y08531*
X03029*
X03034Y08531*
X03040Y08532*
X03045Y08533*
X03051Y08535*
X03056Y08537*
X03061Y08539*
X03066Y08541*
X03070Y08544*
X03075Y08547*
X03079Y08551*
X03083Y08555*
X03086Y08559*
X03090Y08563*
X03093Y08568*
X03096Y08573*
X03098Y08577*
X03100Y08583*
X03102Y08588*
X03103Y08593*
X03104Y08599*
X03105Y08604*
X03105Y08610*
X03505D02*
D01*
X03505Y08615*
X03504Y08620*
X03503Y08626*
X03502Y08631*
X03500Y08636*
X03498Y08642*
X03496Y08646*
X03493Y08651*
X03490Y08656*
X03486Y08660*
X03483Y08664*
X03479Y08668*
X03475Y08672*
X03470Y08675*
X03466Y08678*
X03461Y08680*
X03456Y08682*
X03451Y08684*
X03445Y08686*
X03440Y08687*
X03434Y08688*
X03429Y08688*
X03423*
X03418Y08688*
X03413Y08687*
X03407Y08686*
X03402Y08684*
X03397Y08682*
X03392Y08680*
X03387Y08678*
X03382Y08675*
X03378Y08672*
X03374Y08668*
X03370Y08664*
X03366Y08660*
X03363Y08656*
X03359Y08651*
X03357Y08646*
X03354Y08642*
X03352Y08636*
X03351Y08631*
X03349Y08626*
X03348Y08620*
X03348Y08615*
X03348Y08610*
X03348Y08604*
X03348Y08599*
X03349Y08593*
X03351Y08588*
X03352Y08583*
X03354Y08577*
X03357Y08573*
X03359Y08568*
X03363Y08563*
X03366Y08559*
X03370Y08555*
X03374Y08551*
X03378Y08547*
X03382Y08544*
X03387Y08541*
X03392Y08539*
X03397Y08537*
X03402Y08535*
X03407Y08533*
X03413Y08532*
X03418Y08531*
X03423Y08531*
X03429*
X03434Y08531*
X03440Y08532*
X03445Y08533*
X03451Y08535*
X03456Y08537*
X03461Y08539*
X03466Y08541*
X03470Y08544*
X03475Y08547*
X03479Y08551*
X03483Y08555*
X03486Y08559*
X03490Y08563*
X03493Y08568*
X03496Y08573*
X03498Y08577*
X03500Y08583*
X03502Y08588*
X03503Y08593*
X03504Y08599*
X03505Y08604*
X03505Y08610*
X03303D02*
D01*
X03303Y08615*
X03303Y08620*
X03302Y08626*
X03300Y08631*
X03299Y08636*
X03296Y08642*
X03294Y08646*
X03291Y08651*
X03288Y08656*
X03285Y08660*
X03281Y08664*
X03277Y08668*
X03273Y08672*
X03269Y08675*
X03264Y08678*
X03259Y08680*
X03254Y08682*
X03249Y08684*
X03244Y08686*
X03238Y08687*
X03233Y08688*
X03227Y08688*
X03222*
X03216Y08688*
X03211Y08687*
X03206Y08686*
X03200Y08684*
X03195Y08682*
X03190Y08680*
X03185Y08678*
X03181Y08675*
X03176Y08672*
X03172Y08668*
X03168Y08664*
X03164Y08660*
X03161Y08656*
X03158Y08651*
X03155Y08646*
X03153Y08642*
X03151Y08636*
X03149Y08631*
X03148Y08626*
X03147Y08620*
X03146Y08615*
X03146Y08610*
X03146Y08604*
X03147Y08599*
X03148Y08593*
X03149Y08588*
X03151Y08583*
X03153Y08577*
X03155Y08573*
X03158Y08568*
X03161Y08563*
X03164Y08559*
X03168Y08555*
X03172Y08551*
X03176Y08547*
X03181Y08544*
X03185Y08541*
X03190Y08539*
X03195Y08537*
X03200Y08535*
X03206Y08533*
X03211Y08532*
X03216Y08531*
X03222Y08531*
X03227*
X03233Y08531*
X03238Y08532*
X03244Y08533*
X03249Y08535*
X03254Y08537*
X03259Y08539*
X03264Y08541*
X03269Y08544*
X03273Y08547*
X03277Y08551*
X03281Y08555*
X03285Y08559*
X03288Y08563*
X03291Y08568*
X03294Y08573*
X03296Y08577*
X03299Y08583*
X03300Y08588*
X03302Y08593*
X03303Y08599*
X03303Y08604*
X03303Y08610*
X03735D02*
D01*
X03735Y08615*
X03734Y08620*
X03733Y08626*
X03732Y08631*
X03730Y08636*
X03728Y08642*
X03726Y08646*
X03723Y08651*
X03720Y08656*
X03717Y08660*
X03713Y08664*
X03709Y08668*
X03705Y08672*
X03700Y08675*
X03696Y08678*
X03691Y08680*
X03686Y08682*
X03681Y08684*
X03675Y08686*
X03670Y08687*
X03665Y08688*
X03659Y08688*
X03654*
X03648Y08688*
X03643Y08687*
X03637Y08686*
X03632Y08684*
X03627Y08682*
X03622Y08680*
X03617Y08678*
X03612Y08675*
X03608Y08672*
X03604Y08668*
X03600Y08664*
X03596Y08660*
X03593Y08656*
X03590Y08651*
X03587Y08646*
X03584Y08642*
X03582Y08636*
X03581Y08631*
X03579Y08626*
X03578Y08620*
X03578Y08615*
X03578Y08610*
X03578Y08604*
X03578Y08599*
X03579Y08593*
X03581Y08588*
X03582Y08583*
X03584Y08577*
X03587Y08573*
X03590Y08568*
X03593Y08563*
X03596Y08559*
X03600Y08555*
X03604Y08551*
X03608Y08547*
X03612Y08544*
X03617Y08541*
X03622Y08539*
X03627Y08537*
X03632Y08535*
X03637Y08533*
X03643Y08532*
X03648Y08531*
X03654Y08531*
X03659*
X03665Y08531*
X03670Y08532*
X03675Y08533*
X03681Y08535*
X03686Y08537*
X03691Y08539*
X03696Y08541*
X03700Y08544*
X03705Y08547*
X03709Y08551*
X03713Y08555*
X03717Y08559*
X03720Y08563*
X03723Y08568*
X03726Y08573*
X03728Y08577*
X03730Y08583*
X03732Y08588*
X03733Y08593*
X03734Y08599*
X03735Y08604*
X03735Y08610*
X04135D02*
D01*
X04135Y08615*
X04134Y08620*
X04133Y08626*
X04132Y08631*
X04130Y08636*
X04128Y08642*
X04126Y08646*
X04123Y08651*
X04120Y08656*
X04117Y08660*
X04113Y08664*
X04109Y08668*
X04105Y08672*
X04100Y08675*
X04096Y08678*
X04091Y08680*
X04086Y08682*
X04081Y08684*
X04075Y08686*
X04070Y08687*
X04065Y08688*
X04059Y08688*
X04054*
X04048Y08688*
X04043Y08687*
X04037Y08686*
X04032Y08684*
X04027Y08682*
X04022Y08680*
X04017Y08678*
X04012Y08675*
X04008Y08672*
X04004Y08668*
X04000Y08664*
X03996Y08660*
X03993Y08656*
X03990Y08651*
X03987Y08646*
X03984Y08642*
X03982Y08636*
X03981Y08631*
X03979Y08626*
X03978Y08620*
X03978Y08615*
X03978Y08610*
X03978Y08604*
X03978Y08599*
X03979Y08593*
X03981Y08588*
X03982Y08583*
X03984Y08577*
X03987Y08573*
X03990Y08568*
X03993Y08563*
X03996Y08559*
X04000Y08555*
X04004Y08551*
X04008Y08547*
X04012Y08544*
X04017Y08541*
X04022Y08539*
X04027Y08537*
X04032Y08535*
X04037Y08533*
X04043Y08532*
X04048Y08531*
X04054Y08531*
X04059*
X04065Y08531*
X04070Y08532*
X04075Y08533*
X04081Y08535*
X04086Y08537*
X04091Y08539*
X04096Y08541*
X04100Y08544*
X04105Y08547*
X04109Y08551*
X04113Y08555*
X04117Y08559*
X04120Y08563*
X04123Y08568*
X04126Y08573*
X04128Y08577*
X04130Y08583*
X04132Y08588*
X04133Y08593*
X04134Y08599*
X04135Y08604*
X04135Y08610*
X03933D02*
D01*
X03933Y08615*
X03933Y08620*
X03932Y08626*
X03930Y08631*
X03929Y08636*
X03927Y08642*
X03924Y08646*
X03921Y08651*
X03918Y08656*
X03915Y08660*
X03911Y08664*
X03907Y08668*
X03903Y08672*
X03899Y08675*
X03894Y08678*
X03889Y08680*
X03884Y08682*
X03879Y08684*
X03874Y08686*
X03868Y08687*
X03863Y08688*
X03857Y08688*
X03852*
X03846Y08688*
X03841Y08687*
X03836Y08686*
X03830Y08684*
X03825Y08682*
X03820Y08680*
X03815Y08678*
X03811Y08675*
X03806Y08672*
X03802Y08668*
X03798Y08664*
X03794Y08660*
X03791Y08656*
X03788Y08651*
X03785Y08646*
X03783Y08642*
X03781Y08636*
X03779Y08631*
X03778Y08626*
X03777Y08620*
X03776Y08615*
X03776Y08610*
X03776Y08604*
X03777Y08599*
X03778Y08593*
X03779Y08588*
X03781Y08583*
X03783Y08577*
X03785Y08573*
X03788Y08568*
X03791Y08563*
X03794Y08559*
X03798Y08555*
X03802Y08551*
X03806Y08547*
X03811Y08544*
X03815Y08541*
X03820Y08539*
X03825Y08537*
X03830Y08535*
X03836Y08533*
X03841Y08532*
X03846Y08531*
X03852Y08531*
X03857*
X03863Y08531*
X03868Y08532*
X03874Y08533*
X03879Y08535*
X03884Y08537*
X03889Y08539*
X03894Y08541*
X03899Y08544*
X03903Y08547*
X03907Y08551*
X03911Y08555*
X03915Y08559*
X03918Y08563*
X03921Y08568*
X03924Y08573*
X03927Y08577*
X03929Y08583*
X03930Y08588*
X03932Y08593*
X03933Y08599*
X03933Y08604*
X03933Y08610*
X04360D02*
D01*
X04360Y08615*
X04359Y08620*
X04358Y08626*
X04357Y08631*
X04355Y08636*
X04353Y08642*
X04351Y08646*
X04348Y08651*
X04345Y08656*
X04341Y08660*
X04338Y08664*
X04334Y08668*
X04330Y08672*
X04325Y08675*
X04320Y08678*
X04316Y08680*
X04311Y08682*
X04305Y08684*
X04300Y08686*
X04295Y08687*
X04289Y08688*
X04284Y08688*
X04278*
X04273Y08688*
X04267Y08687*
X04262Y08686*
X04257Y08684*
X04252Y08682*
X04247Y08680*
X04242Y08678*
X04237Y08675*
X04233Y08672*
X04228Y08668*
X04224Y08664*
X04221Y08660*
X04217Y08656*
X04214Y08651*
X04212Y08646*
X04209Y08642*
X04207Y08636*
X04205Y08631*
X04204Y08626*
X04203Y08620*
X04203Y08615*
X04202Y08610*
X04203Y08604*
X04203Y08599*
X04204Y08593*
X04205Y08588*
X04207Y08583*
X04209Y08577*
X04212Y08573*
X04214Y08568*
X04217Y08563*
X04221Y08559*
X04224Y08555*
X04228Y08551*
X04233Y08547*
X04237Y08544*
X04242Y08541*
X04247Y08539*
X04252Y08537*
X04257Y08535*
X04262Y08533*
X04267Y08532*
X04273Y08531*
X04278Y08531*
X04284*
X04289Y08531*
X04295Y08532*
X04300Y08533*
X04305Y08535*
X04311Y08537*
X04316Y08539*
X04320Y08541*
X04325Y08544*
X04330Y08547*
X04334Y08551*
X04338Y08555*
X04341Y08559*
X04345Y08563*
X04348Y08568*
X04351Y08573*
X04353Y08577*
X04355Y08583*
X04357Y08588*
X04358Y08593*
X04359Y08599*
X04360Y08604*
X04360Y08610*
X04760D02*
D01*
X04760Y08615*
X04759Y08620*
X04758Y08626*
X04757Y08631*
X04755Y08636*
X04753Y08642*
X04751Y08646*
X04748Y08651*
X04745Y08656*
X04741Y08660*
X04738Y08664*
X04734Y08668*
X04730Y08672*
X04725Y08675*
X04720Y08678*
X04716Y08680*
X04711Y08682*
X04705Y08684*
X04700Y08686*
X04695Y08687*
X04689Y08688*
X04684Y08688*
X04678*
X04673Y08688*
X04667Y08687*
X04662Y08686*
X04657Y08684*
X04652Y08682*
X04647Y08680*
X04642Y08678*
X04637Y08675*
X04633Y08672*
X04628Y08668*
X04624Y08664*
X04621Y08660*
X04617Y08656*
X04614Y08651*
X04612Y08646*
X04609Y08642*
X04607Y08636*
X04605Y08631*
X04604Y08626*
X04603Y08620*
X04603Y08615*
X04602Y08610*
X04603Y08604*
X04603Y08599*
X04604Y08593*
X04605Y08588*
X04607Y08583*
X04609Y08577*
X04612Y08573*
X04614Y08568*
X04617Y08563*
X04621Y08559*
X04624Y08555*
X04628Y08551*
X04633Y08547*
X04637Y08544*
X04642Y08541*
X04647Y08539*
X04652Y08537*
X04657Y08535*
X04662Y08533*
X04667Y08532*
X04673Y08531*
X04678Y08531*
X04684*
X04689Y08531*
X04695Y08532*
X04700Y08533*
X04705Y08535*
X04711Y08537*
X04716Y08539*
X04720Y08541*
X04725Y08544*
X04730Y08547*
X04734Y08551*
X04738Y08555*
X04741Y08559*
X04745Y08563*
X04748Y08568*
X04751Y08573*
X04753Y08577*
X04755Y08583*
X04757Y08588*
X04758Y08593*
X04759Y08599*
X04760Y08604*
X04760Y08610*
X04558D02*
D01*
X04558Y08615*
X04557Y08620*
X04556Y08626*
X04555Y08631*
X04553Y08636*
X04551Y08642*
X04549Y08646*
X04546Y08651*
X04543Y08656*
X04540Y08660*
X04536Y08664*
X04532Y08668*
X04528Y08672*
X04524Y08675*
X04519Y08678*
X04514Y08680*
X04509Y08682*
X04504Y08684*
X04499Y08686*
X04493Y08687*
X04488Y08688*
X04482Y08688*
X04477*
X04471Y08688*
X04466Y08687*
X04460Y08686*
X04455Y08684*
X04450Y08682*
X04445Y08680*
X04440Y08678*
X04435Y08675*
X04431Y08672*
X04427Y08668*
X04423Y08664*
X04419Y08660*
X04416Y08656*
X04413Y08651*
X04410Y08646*
X04408Y08642*
X04406Y08636*
X04404Y08631*
X04403Y08626*
X04402Y08620*
X04401Y08615*
X04401Y08610*
X04401Y08604*
X04402Y08599*
X04403Y08593*
X04404Y08588*
X04406Y08583*
X04408Y08577*
X04410Y08573*
X04413Y08568*
X04416Y08563*
X04419Y08559*
X04423Y08555*
X04427Y08551*
X04431Y08547*
X04435Y08544*
X04440Y08541*
X04445Y08539*
X04450Y08537*
X04455Y08535*
X04460Y08533*
X04466Y08532*
X04471Y08531*
X04477Y08531*
X04482*
X04488Y08531*
X04493Y08532*
X04499Y08533*
X04504Y08535*
X04509Y08537*
X04514Y08539*
X04519Y08541*
X04524Y08544*
X04528Y08547*
X04532Y08551*
X04536Y08555*
X04540Y08559*
X04543Y08563*
X04546Y08568*
X04549Y08573*
X04551Y08577*
X04553Y08583*
X04555Y08588*
X04556Y08593*
X04557Y08599*
X04558Y08604*
X04558Y08610*
X04995D02*
D01*
X04995Y08615*
X04994Y08620*
X04993Y08626*
X04992Y08631*
X04990Y08636*
X04988Y08642*
X04986Y08646*
X04983Y08651*
X04980Y08656*
X04976Y08660*
X04973Y08664*
X04969Y08668*
X04965Y08672*
X04960Y08675*
X04955Y08678*
X04951Y08680*
X04946Y08682*
X04940Y08684*
X04935Y08686*
X04930Y08687*
X04924Y08688*
X04919Y08688*
X04913*
X04908Y08688*
X04902Y08687*
X04897Y08686*
X04892Y08684*
X04887Y08682*
X04882Y08680*
X04877Y08678*
X04872Y08675*
X04868Y08672*
X04863Y08668*
X04859Y08664*
X04856Y08660*
X04852Y08656*
X04849Y08651*
X04847Y08646*
X04844Y08642*
X04842Y08636*
X04840Y08631*
X04839Y08626*
X04838Y08620*
X04838Y08615*
X04837Y08610*
X04838Y08604*
X04838Y08599*
X04839Y08593*
X04840Y08588*
X04842Y08583*
X04844Y08577*
X04847Y08573*
X04849Y08568*
X04852Y08563*
X04856Y08559*
X04859Y08555*
X04863Y08551*
X04868Y08547*
X04872Y08544*
X04877Y08541*
X04882Y08539*
X04887Y08537*
X04892Y08535*
X04897Y08533*
X04902Y08532*
X04908Y08531*
X04913Y08531*
X04919*
X04924Y08531*
X04930Y08532*
X04935Y08533*
X04940Y08535*
X04946Y08537*
X04951Y08539*
X04955Y08541*
X04960Y08544*
X04965Y08547*
X04969Y08551*
X04973Y08555*
X04976Y08559*
X04980Y08563*
X04983Y08568*
X04986Y08573*
X04988Y08577*
X04990Y08583*
X04992Y08588*
X04993Y08593*
X04994Y08599*
X04995Y08604*
X04995Y08610*
X05395D02*
D01*
X05395Y08615*
X05394Y08620*
X05393Y08626*
X05392Y08631*
X05390Y08636*
X05388Y08642*
X05386Y08646*
X05383Y08651*
X05380Y08656*
X05376Y08660*
X05373Y08664*
X05369Y08668*
X05365Y08672*
X05360Y08675*
X05355Y08678*
X05351Y08680*
X05346Y08682*
X05340Y08684*
X05335Y08686*
X05330Y08687*
X05324Y08688*
X05319Y08688*
X05313*
X05308Y08688*
X05302Y08687*
X05297Y08686*
X05292Y08684*
X05287Y08682*
X05282Y08680*
X05277Y08678*
X05272Y08675*
X05268Y08672*
X05263Y08668*
X05259Y08664*
X05256Y08660*
X05252Y08656*
X05249Y08651*
X05247Y08646*
X05244Y08642*
X05242Y08636*
X05240Y08631*
X05239Y08626*
X05238Y08620*
X05238Y08615*
X05237Y08610*
X05238Y08604*
X05238Y08599*
X05239Y08593*
X05240Y08588*
X05242Y08583*
X05244Y08577*
X05247Y08573*
X05249Y08568*
X05252Y08563*
X05256Y08559*
X05259Y08555*
X05263Y08551*
X05268Y08547*
X05272Y08544*
X05277Y08541*
X05282Y08539*
X05287Y08537*
X05292Y08535*
X05297Y08533*
X05302Y08532*
X05308Y08531*
X05313Y08531*
X05319*
X05324Y08531*
X05330Y08532*
X05335Y08533*
X05340Y08535*
X05346Y08537*
X05351Y08539*
X05355Y08541*
X05360Y08544*
X05365Y08547*
X05369Y08551*
X05373Y08555*
X05376Y08559*
X05380Y08563*
X05383Y08568*
X05386Y08573*
X05388Y08577*
X05390Y08583*
X05392Y08588*
X05393Y08593*
X05394Y08599*
X05395Y08604*
X05395Y08610*
X05193D02*
D01*
X05193Y08615*
X05192Y08620*
X05191Y08626*
X05190Y08631*
X05188Y08636*
X05186Y08642*
X05184Y08646*
X05181Y08651*
X05178Y08656*
X05175Y08660*
X05171Y08664*
X05167Y08668*
X05163Y08672*
X05159Y08675*
X05154Y08678*
X05149Y08680*
X05144Y08682*
X05139Y08684*
X05134Y08686*
X05128Y08687*
X05123Y08688*
X05117Y08688*
X05112*
X05106Y08688*
X05101Y08687*
X05095Y08686*
X05090Y08684*
X05085Y08682*
X05080Y08680*
X05075Y08678*
X05070Y08675*
X05066Y08672*
X05062Y08668*
X05058Y08664*
X05054Y08660*
X05051Y08656*
X05048Y08651*
X05045Y08646*
X05043Y08642*
X05041Y08636*
X05039Y08631*
X05038Y08626*
X05037Y08620*
X05036Y08615*
X05036Y08610*
X05036Y08604*
X05037Y08599*
X05038Y08593*
X05039Y08588*
X05041Y08583*
X05043Y08577*
X05045Y08573*
X05048Y08568*
X05051Y08563*
X05054Y08559*
X05058Y08555*
X05062Y08551*
X05066Y08547*
X05070Y08544*
X05075Y08541*
X05080Y08539*
X05085Y08537*
X05090Y08535*
X05095Y08533*
X05101Y08532*
X05106Y08531*
X05112Y08531*
X05117*
X05123Y08531*
X05128Y08532*
X05134Y08533*
X05139Y08535*
X05144Y08537*
X05149Y08539*
X05154Y08541*
X05159Y08544*
X05163Y08547*
X05167Y08551*
X05171Y08555*
X05175Y08559*
X05178Y08563*
X05181Y08568*
X05184Y08573*
X05186Y08577*
X05188Y08583*
X05190Y08588*
X05191Y08593*
X05192Y08599*
X05193Y08604*
X05193Y08610*
X05625D02*
D01*
X05625Y08615*
X05624Y08620*
X05623Y08626*
X05622Y08631*
X05620Y08636*
X05618Y08642*
X05616Y08646*
X05613Y08651*
X05610Y08656*
X05606Y08660*
X05603Y08664*
X05599Y08668*
X05595Y08672*
X05590Y08675*
X05585Y08678*
X05581Y08680*
X05576Y08682*
X05570Y08684*
X05565Y08686*
X05560Y08687*
X05554Y08688*
X05549Y08688*
X05543*
X05538Y08688*
X05532Y08687*
X05527Y08686*
X05522Y08684*
X05517Y08682*
X05512Y08680*
X05507Y08678*
X05502Y08675*
X05498Y08672*
X05493Y08668*
X05489Y08664*
X05486Y08660*
X05482Y08656*
X05479Y08651*
X05477Y08646*
X05474Y08642*
X05472Y08636*
X05470Y08631*
X05469Y08626*
X05468Y08620*
X05468Y08615*
X05467Y08610*
X05468Y08604*
X05468Y08599*
X05469Y08593*
X05470Y08588*
X05472Y08583*
X05474Y08577*
X05477Y08573*
X05479Y08568*
X05482Y08563*
X05486Y08559*
X05489Y08555*
X05493Y08551*
X05498Y08547*
X05502Y08544*
X05507Y08541*
X05512Y08539*
X05517Y08537*
X05522Y08535*
X05527Y08533*
X05532Y08532*
X05538Y08531*
X05543Y08531*
X05549*
X05554Y08531*
X05560Y08532*
X05565Y08533*
X05570Y08535*
X05576Y08537*
X05581Y08539*
X05585Y08541*
X05590Y08544*
X05595Y08547*
X05599Y08551*
X05603Y08555*
X05606Y08559*
X05610Y08563*
X05613Y08568*
X05616Y08573*
X05618Y08577*
X05620Y08583*
X05622Y08588*
X05623Y08593*
X05624Y08599*
X05625Y08604*
X05625Y08610*
X06025D02*
D01*
X06025Y08615*
X06024Y08620*
X06023Y08626*
X06022Y08631*
X06020Y08636*
X06018Y08642*
X06016Y08646*
X06013Y08651*
X06010Y08656*
X06006Y08660*
X06003Y08664*
X05999Y08668*
X05995Y08672*
X05990Y08675*
X05985Y08678*
X05981Y08680*
X05976Y08682*
X05970Y08684*
X05965Y08686*
X05960Y08687*
X05954Y08688*
X05949Y08688*
X05943*
X05938Y08688*
X05932Y08687*
X05927Y08686*
X05922Y08684*
X05917Y08682*
X05912Y08680*
X05907Y08678*
X05902Y08675*
X05898Y08672*
X05893Y08668*
X05889Y08664*
X05886Y08660*
X05882Y08656*
X05879Y08651*
X05877Y08646*
X05874Y08642*
X05872Y08636*
X05870Y08631*
X05869Y08626*
X05868Y08620*
X05868Y08615*
X05867Y08610*
X05868Y08604*
X05868Y08599*
X05869Y08593*
X05870Y08588*
X05872Y08583*
X05874Y08577*
X05877Y08573*
X05879Y08568*
X05882Y08563*
X05886Y08559*
X05889Y08555*
X05893Y08551*
X05898Y08547*
X05902Y08544*
X05907Y08541*
X05912Y08539*
X05917Y08537*
X05922Y08535*
X05927Y08533*
X05932Y08532*
X05938Y08531*
X05943Y08531*
X05949*
X05954Y08531*
X05960Y08532*
X05965Y08533*
X05970Y08535*
X05976Y08537*
X05981Y08539*
X05985Y08541*
X05990Y08544*
X05995Y08547*
X05999Y08551*
X06003Y08555*
X06006Y08559*
X06010Y08563*
X06013Y08568*
X06016Y08573*
X06018Y08577*
X06020Y08583*
X06022Y08588*
X06023Y08593*
X06024Y08599*
X06025Y08604*
X06025Y08610*
X05823D02*
D01*
X05823Y08615*
X05822Y08620*
X05821Y08626*
X05820Y08631*
X05818Y08636*
X05816Y08642*
X05814Y08646*
X05811Y08651*
X05808Y08656*
X05805Y08660*
X05801Y08664*
X05797Y08668*
X05793Y08672*
X05789Y08675*
X05784Y08678*
X05779Y08680*
X05774Y08682*
X05769Y08684*
X05764Y08686*
X05758Y08687*
X05753Y08688*
X05747Y08688*
X05742*
X05736Y08688*
X05731Y08687*
X05725Y08686*
X05720Y08684*
X05715Y08682*
X05710Y08680*
X05705Y08678*
X05700Y08675*
X05696Y08672*
X05692Y08668*
X05688Y08664*
X05684Y08660*
X05681Y08656*
X05678Y08651*
X05675Y08646*
X05673Y08642*
X05671Y08636*
X05669Y08631*
X05668Y08626*
X05667Y08620*
X05666Y08615*
X05666Y08610*
X05666Y08604*
X05667Y08599*
X05668Y08593*
X05669Y08588*
X05671Y08583*
X05673Y08577*
X05675Y08573*
X05678Y08568*
X05681Y08563*
X05684Y08559*
X05688Y08555*
X05692Y08551*
X05696Y08547*
X05700Y08544*
X05705Y08541*
X05710Y08539*
X05715Y08537*
X05720Y08535*
X05725Y08533*
X05731Y08532*
X05736Y08531*
X05742Y08531*
X05747*
X05753Y08531*
X05758Y08532*
X05764Y08533*
X05769Y08535*
X05774Y08537*
X05779Y08539*
X05784Y08541*
X05789Y08544*
X05793Y08547*
X05797Y08551*
X05801Y08555*
X05805Y08559*
X05808Y08563*
X05811Y08568*
X05814Y08573*
X05816Y08577*
X05818Y08583*
X05820Y08588*
X05821Y08593*
X05822Y08599*
X05823Y08604*
X05823Y08610*
X06255D02*
D01*
X06255Y08615*
X06254Y08620*
X06253Y08626*
X06252Y08631*
X06250Y08636*
X06248Y08642*
X06246Y08646*
X06243Y08651*
X06240Y08656*
X06237Y08660*
X06233Y08664*
X06229Y08668*
X06225Y08672*
X06220Y08675*
X06216Y08678*
X06211Y08680*
X06206Y08682*
X06201Y08684*
X06195Y08686*
X06190Y08687*
X06185Y08688*
X06179Y08688*
X06174*
X06168Y08688*
X06163Y08687*
X06157Y08686*
X06152Y08684*
X06147Y08682*
X06142Y08680*
X06137Y08678*
X06132Y08675*
X06128Y08672*
X06124Y08668*
X06120Y08664*
X06116Y08660*
X06113Y08656*
X06110Y08651*
X06107Y08646*
X06105Y08642*
X06102Y08636*
X06101Y08631*
X06099Y08626*
X06098Y08620*
X06098Y08615*
X06098Y08610*
X06098Y08604*
X06098Y08599*
X06099Y08593*
X06101Y08588*
X06102Y08583*
X06105Y08577*
X06107Y08573*
X06110Y08568*
X06113Y08563*
X06116Y08559*
X06120Y08555*
X06124Y08551*
X06128Y08547*
X06132Y08544*
X06137Y08541*
X06142Y08539*
X06147Y08537*
X06152Y08535*
X06157Y08533*
X06163Y08532*
X06168Y08531*
X06174Y08531*
X06179*
X06185Y08531*
X06190Y08532*
X06195Y08533*
X06201Y08535*
X06206Y08537*
X06211Y08539*
X06216Y08541*
X06220Y08544*
X06225Y08547*
X06229Y08551*
X06233Y08555*
X06237Y08559*
X06240Y08563*
X06243Y08568*
X06246Y08573*
X06248Y08577*
X06250Y08583*
X06252Y08588*
X06253Y08593*
X06254Y08599*
X06255Y08604*
X06255Y08610*
X06655D02*
D01*
X06655Y08615*
X06654Y08620*
X06653Y08626*
X06652Y08631*
X06650Y08636*
X06648Y08642*
X06646Y08646*
X06643Y08651*
X06640Y08656*
X06637Y08660*
X06633Y08664*
X06629Y08668*
X06625Y08672*
X06620Y08675*
X06616Y08678*
X06611Y08680*
X06606Y08682*
X06601Y08684*
X06595Y08686*
X06590Y08687*
X06585Y08688*
X06579Y08688*
X06574*
X06568Y08688*
X06563Y08687*
X06557Y08686*
X06552Y08684*
X06547Y08682*
X06542Y08680*
X06537Y08678*
X06532Y08675*
X06528Y08672*
X06524Y08668*
X06520Y08664*
X06516Y08660*
X06513Y08656*
X06510Y08651*
X06507Y08646*
X06505Y08642*
X06502Y08636*
X06501Y08631*
X06499Y08626*
X06498Y08620*
X06498Y08615*
X06498Y08610*
X06498Y08604*
X06498Y08599*
X06499Y08593*
X06501Y08588*
X06502Y08583*
X06505Y08577*
X06507Y08573*
X06510Y08568*
X06513Y08563*
X06516Y08559*
X06520Y08555*
X06524Y08551*
X06528Y08547*
X06532Y08544*
X06537Y08541*
X06542Y08539*
X06547Y08537*
X06552Y08535*
X06557Y08533*
X06563Y08532*
X06568Y08531*
X06574Y08531*
X06579*
X06585Y08531*
X06590Y08532*
X06595Y08533*
X06601Y08535*
X06606Y08537*
X06611Y08539*
X06616Y08541*
X06620Y08544*
X06625Y08547*
X06629Y08551*
X06633Y08555*
X06637Y08559*
X06640Y08563*
X06643Y08568*
X06646Y08573*
X06648Y08577*
X06650Y08583*
X06652Y08588*
X06653Y08593*
X06654Y08599*
X06655Y08604*
X06655Y08610*
X06454D02*
D01*
X06453Y08615*
X06453Y08620*
X06452Y08626*
X06451Y08631*
X06449Y08636*
X06447Y08642*
X06444Y08646*
X06442Y08651*
X06439Y08656*
X06435Y08660*
X06432Y08664*
X06428Y08668*
X06423Y08672*
X06419Y08675*
X06414Y08678*
X06409Y08680*
X06404Y08682*
X06399Y08684*
X06394Y08686*
X06389Y08687*
X06383Y08688*
X06378Y08688*
X06372*
X06367Y08688*
X06361Y08687*
X06356Y08686*
X06351Y08684*
X06345Y08682*
X06340Y08680*
X06336Y08678*
X06331Y08675*
X06326Y08672*
X06322Y08668*
X06318Y08664*
X06315Y08660*
X06311Y08656*
X06308Y08651*
X06305Y08646*
X06303Y08642*
X06301Y08636*
X06299Y08631*
X06298Y08626*
X06297Y08620*
X06296Y08615*
X06296Y08610*
X06296Y08604*
X06297Y08599*
X06298Y08593*
X06299Y08588*
X06301Y08583*
X06303Y08577*
X06305Y08573*
X06308Y08568*
X06311Y08563*
X06315Y08559*
X06318Y08555*
X06322Y08551*
X06326Y08547*
X06331Y08544*
X06336Y08541*
X06340Y08539*
X06345Y08537*
X06351Y08535*
X06356Y08533*
X06361Y08532*
X06367Y08531*
X06372Y08531*
X06378*
X06383Y08531*
X06389Y08532*
X06394Y08533*
X06399Y08535*
X06404Y08537*
X06409Y08539*
X06414Y08541*
X06419Y08544*
X06423Y08547*
X06428Y08551*
X06432Y08555*
X06435Y08559*
X06439Y08563*
X06442Y08568*
X06444Y08573*
X06447Y08577*
X06449Y08583*
X06451Y08588*
X06452Y08593*
X06453Y08599*
X06453Y08604*
X06454Y08610*
X06775Y07961D02*
X06882Y07854D01*
X06795Y07976D02*
X06900Y07871D01*
X06775Y08361D02*
X06882Y08254D01*
X06795Y08376D02*
X06900Y08271D01*
X06800Y08051D02*
X06905Y08156D01*
X06780Y08071D02*
X06885Y08176D01*
X06780Y05780D02*
X06885Y05675D01*
X06797Y05797D02*
X06905Y05690D01*
X06795Y05475D02*
X06900Y05580D01*
X06905*
X06775Y05495D02*
X06880Y05600D01*
X06533Y05185D02*
X06641Y05292D01*
X06518Y05205D02*
X06623Y05310D01*
X06133Y05185D02*
X06241Y05292D01*
X06118Y05205D02*
X06223Y05310D01*
X06338Y05315D02*
X06443Y05210D01*
X06318Y05295D02*
X06423Y05190D01*
X05903Y05185D02*
X06011Y05292D01*
X05888Y05205D02*
X05993Y05310D01*
X05503Y05185D02*
X05611Y05292D01*
X05488Y05205D02*
X05593Y05310D01*
X05708Y05315D02*
X05813Y05210D01*
X05688Y05295D02*
X05793Y05190D01*
X05273Y05185D02*
X05381Y05292D01*
X05258Y05205D02*
X05363Y05310D01*
X04873Y05185D02*
X04981Y05292D01*
X04858Y05205D02*
X04963Y05310D01*
X05078Y05315D02*
X05183Y05210D01*
X05058Y05295D02*
X05163Y05190D01*
X04643Y05185D02*
X04751Y05292D01*
X04628Y05205D02*
X04733Y05310D01*
X04243Y05185D02*
X04351Y05292D01*
X04228Y05205D02*
X04333Y05310D01*
X04448Y05315D02*
X04553Y05210D01*
X04428Y05295D02*
X04533Y05190D01*
X04013Y05185D02*
X04121Y05292D01*
X03998Y05205D02*
X04103Y05310D01*
X03613Y05185D02*
X03721Y05292D01*
X03598Y05205D02*
X03703Y05310D01*
X03818Y05315D02*
X03923Y05210D01*
X03798Y05295D02*
X03903Y05190D01*
X03383Y05185D02*
X03490Y05292D01*
X03368Y05205D02*
X03473Y05310D01*
X02983Y05185D02*
X03090Y05292D01*
X02968Y05205D02*
X03073Y05310D01*
X03188Y05315D02*
X03293Y05210D01*
X03168Y05295D02*
X03273Y05190D01*
X02753Y05185D02*
X02860Y05292D01*
X02738Y05205D02*
X02843Y05310D01*
X02353Y05185D02*
X02460Y05292D01*
X02338Y05205D02*
X02443Y05310D01*
X02558Y05315D02*
X02663Y05210D01*
X02538Y05295D02*
X02643Y05190D01*
X02123Y05185D02*
X02230Y05292D01*
X02108Y05205D02*
X02213Y05310D01*
X01723Y05185D02*
X01830Y05292D01*
X01708Y05205D02*
X01813Y05310D01*
X01928Y05315D02*
X02033Y05210D01*
X01908Y05295D02*
X02013Y05190D01*
X01405Y03050D02*
X01510Y02945D01*
X01385Y03035D02*
X01492Y02927D01*
X01390Y03145D02*
X01495Y03250D01*
X01385Y03145D02*
X01390D01*
X01410Y03125D02*
X01515Y03230D01*
X04905Y04590D02*
X05010Y04695D01*
X04920Y04570D02*
X05027Y04677D01*
X04705Y04680D02*
X04810Y04575D01*
Y04570D02*
Y04575D01*
X04725Y04700D02*
X04830Y04595D01*
X04430Y04590D02*
X04535Y04695D01*
X04445Y04570D02*
X04553Y04677D01*
X04230Y04680D02*
X04335Y04575D01*
Y04570D02*
Y04575D01*
X04250Y04700D02*
X04355Y04595D01*
X03956Y04590D02*
X04061Y04695D01*
X03971Y04570D02*
X04078Y04677D01*
X03756Y04680D02*
X03861Y04575D01*
Y04570D02*
Y04575D01*
X03776Y04700D02*
X03881Y04595D01*
X03482Y04590D02*
X03587Y04695D01*
X03497Y04570D02*
X03604Y04677D01*
X03282Y04680D02*
X03387Y04575D01*
Y04570D02*
Y04575D01*
X03302Y04700D02*
X03407Y04595D01*
X03007Y04590D02*
X03112Y04695D01*
X03022Y04570D02*
X03130Y04677D01*
X02807Y04680D02*
X02912Y04575D01*
Y04570D02*
Y04575D01*
X02827Y04700D02*
X02932Y04595D01*
X02533Y04590D02*
X02638Y04695D01*
X02548Y04570D02*
X02656Y04677D01*
X02333Y04680D02*
X02438Y04575D01*
Y04570D02*
Y04575D01*
X02353Y04700D02*
X02458Y04595D01*
X02059Y04590D02*
X02164Y04695D01*
X02074Y04570D02*
X02181Y04677D01*
X01859Y04680D02*
X01964Y04575D01*
Y04570D02*
Y04575D01*
X01879Y04700D02*
X01984Y04595D01*
X01585Y04590D02*
X01690Y04695D01*
X01600Y04570D02*
X01707Y04677D01*
X01385Y04680D02*
X01490Y04575D01*
Y04570D02*
Y04575D01*
X01405Y04700D02*
X01510Y04595D01*
X01400Y01445D02*
X01505Y01550D01*
X01382Y01462D02*
X01490Y01570D01*
X01600Y01565D02*
X01705Y01460D01*
X01600Y01565D02*
Y01570D01*
X01580Y01545D02*
X01685Y01440D01*
X01874Y01445D02*
X01979Y01550D01*
X01856Y01462D02*
X01964Y01570D01*
X02074Y01565D02*
X02179Y01460D01*
X02074Y01565D02*
Y01570D01*
X02054Y01545D02*
X02159Y01440D01*
X02348Y01445D02*
X02453Y01550D01*
X02331Y01462D02*
X02438Y01570D01*
X02548Y01565D02*
X02653Y01460D01*
X02548Y01565D02*
Y01570D01*
X02528Y01545D02*
X02633Y01440D01*
X02822Y01445D02*
X02927Y01550D01*
X02805Y01462D02*
X02912Y01570D01*
X03022Y01565D02*
X03127Y01460D01*
X03022Y01565D02*
Y01570D01*
X03002Y01545D02*
X03107Y01440D01*
X03297Y01445D02*
X03402Y01550D01*
X03279Y01462D02*
X03387Y01570D01*
X03497Y01565D02*
X03602Y01460D01*
X03497Y01565D02*
Y01570D01*
X03477Y01545D02*
X03582Y01440D01*
X03771Y01445D02*
X03876Y01550D01*
X03753Y01462D02*
X03861Y01570D01*
X03971Y01565D02*
X04076Y01460D01*
X03971Y01565D02*
Y01570D01*
X03951Y01545D02*
X04056Y01440D01*
X04245Y01445D02*
X04350Y01550D01*
X04228Y01462D02*
X04335Y01570D01*
X04445Y01565D02*
X04550Y01460D01*
X04445Y01565D02*
Y01570D01*
X04425Y01545D02*
X04530Y01440D01*
X04720Y01445D02*
X04825Y01550D01*
X04702Y01462D02*
X04810Y01570D01*
X04920Y01565D02*
X05025Y01460D01*
X04920Y01565D02*
Y01570D01*
X04900Y01545D02*
X05005Y01440D01*
X01702Y08567D02*
X01810Y08675D01*
X01720Y08550D02*
X01825Y08655D01*
X02102Y08567D02*
X02210Y08675D01*
X02120Y08550D02*
X02225Y08655D01*
X01900Y08650D02*
X02005Y08545D01*
X01920Y08670D02*
X02025Y08565D01*
X02332Y08567D02*
X02440Y08675D01*
X02350Y08550D02*
X02455Y08655D01*
X02732Y08567D02*
X02840Y08675D01*
X02750Y08550D02*
X02855Y08655D01*
X02530Y08650D02*
X02635Y08545D01*
X02550Y08670D02*
X02655Y08565D01*
X02962Y08567D02*
X03070Y08675D01*
X02980Y08550D02*
X03085Y08655D01*
X03362Y08567D02*
X03470Y08675D01*
X03380Y08550D02*
X03485Y08655D01*
X03160Y08650D02*
X03265Y08545D01*
X03180Y08670D02*
X03285Y08565D01*
X03592Y08567D02*
X03700Y08675D01*
X03610Y08550D02*
X03715Y08655D01*
X03992Y08567D02*
X04100Y08675D01*
X04010Y08550D02*
X04115Y08655D01*
X03790Y08650D02*
X03895Y08545D01*
X03810Y08670D02*
X03915Y08565D01*
X04217Y08567D02*
X04325Y08675D01*
X04235Y08550D02*
X04340Y08655D01*
X04617Y08567D02*
X04725Y08675D01*
X04635Y08550D02*
X04740Y08655D01*
X04415Y08650D02*
X04520Y08545D01*
X04435Y08670D02*
X04540Y08565D01*
X04852Y08567D02*
X04960Y08675D01*
X04870Y08550D02*
X04975Y08655D01*
X05252Y08567D02*
X05360Y08675D01*
X05270Y08550D02*
X05375Y08655D01*
X05050Y08650D02*
X05155Y08545D01*
X05070Y08670D02*
X05175Y08565D01*
X05482Y08567D02*
X05590Y08675D01*
X05500Y08550D02*
X05605Y08655D01*
X05882Y08567D02*
X05990Y08675D01*
X05900Y08550D02*
X06005Y08655D01*
X05680Y08650D02*
X05785Y08545D01*
X05700Y08670D02*
X05805Y08565D01*
X06112Y08567D02*
X06220Y08675D01*
X06130Y08550D02*
X06235Y08655D01*
X06512Y08567D02*
X06620Y08675D01*
X06530Y08550D02*
X06635Y08655D01*
X06310Y08650D02*
X06415Y08545D01*
X06330Y08670D02*
X06435Y08565D01*
X01235Y04900D02*
X01237Y04897D01*
X05265Y04860D02*
X05705Y04420D01*
X06755*
X05205Y04890D02*
X05235Y04860D01*
X05205Y04890D02*
X05235Y04920D01*
X05205Y04890D02*
X05235D01*
X05265Y04860*
X05730Y04520D02*
Y04480D01*
X05750Y04460*
X05770Y04480*
Y04520*
X05790Y04490D02*
X05830D01*
X05889Y04510D02*
X05880Y04520D01*
X05860*
X05850Y04510*
Y04500*
X05860Y04490*
X05880*
X05889Y04480*
Y04470*
X05880Y04460*
X05860*
X05850Y04470*
X05909Y04520D02*
Y04460D01*
Y04490*
X05949*
Y04520*
Y04460*
X05969D02*
Y04500D01*
X05989Y04520*
X06009Y04500*
Y04460*
Y04490*
X05969*
X06029Y04460D02*
Y04520D01*
X06059*
X06069Y04510*
Y04490*
X06059Y04480*
X06029*
X06129Y04520D02*
X06089D01*
Y04460*
X06129*
X06089Y04490D02*
X06109D01*
X06239Y04520D02*
X06219D01*
X06209Y04510*
Y04470*
X06219Y04460*
X06239*
X06249Y04470*
Y04510*
X06239Y04520*
X06269Y04460D02*
Y04520D01*
X06299*
X06309Y04510*
Y04490*
X06299Y04480*
X06269*
X06289D02*
X06309Y04460D01*
X06449Y04520D02*
Y04460D01*
Y04490*
X06489*
Y04520*
Y04460*
X06539Y04520D02*
X06519D01*
X06509Y04510*
Y04470*
X06519Y04460*
X06539*
X06549Y04470*
Y04510*
X06539Y04520*
X06569D02*
Y04460D01*
X06609*
X06669Y04520D02*
X06629D01*
Y04460*
X06669*
X06629Y04490D02*
X06649D01*
X06729Y04510D02*
X06719Y04520D01*
X06699*
X06689Y04510*
Y04500*
X06699Y04490*
X06719*
X06729Y04480*
Y04470*
X06719Y04460*
X06699*
X06689Y04470*
G54D94*
X02110Y06382D02*
Y06397D01*
X02102Y06390D02*
X02117D01*
X02235Y06382D02*
Y06397D01*
X02227Y06390D02*
X02242D01*
G54D141*
X01237Y04897D02*
X05172D01*
M02*