%FSDAX23Y23*%
%MOIN*%
%SFA1B1*%

%IPPOS*%
%AMD20*
4,1,8,-0.035000,0.014900,-0.035000,-0.014900,-0.020000,-0.029900,0.020000,-0.029900,0.035000,-0.014900,0.035000,0.014900,0.020000,0.029900,-0.020000,0.029900,-0.035000,0.014900,0.0*
1,1,0.030000,-0.020000,0.014900*
1,1,0.030000,-0.020000,-0.014900*
1,1,0.030000,0.020000,-0.014900*
1,1,0.030000,0.020000,0.014900*
%
%ADD10R,0.031500X0.035400*%
%ADD11R,0.039400X0.043300*%
%ADD12R,0.043300X0.039400*%
%ADD13R,0.059100X0.023600*%
%ADD14R,0.059100X0.051200*%
%ADD15R,0.039400X0.045300*%
%ADD16O,0.023600X0.086600*%
%ADD17R,0.051200X0.059100*%
%ADD18O,0.070900X0.011800*%
%ADD19O,0.011800X0.070900*%
G04~CAMADD=20~8~0.0~0.0~598.0~701.0~150.0~0.0~15~0.0~0.0~0.0~0.0~0~0.0~0.0~0.0~0.0~0~0.0~0.0~0.0~90.0~700.0~597.0*
%ADD20D20*%
%ADD21R,0.023600X0.059100*%
%ADD22O,0.023600X0.059100*%
%ADD23O,0.023600X0.074800*%
%ADD24R,0.055100X0.035400*%
%ADD25R,0.055100X0.035400*%
%ADD26R,0.070900X0.094500*%
%ADD27R,0.133900X0.063000*%
%ADD28R,0.023600X0.051200*%
%ADD29R,0.035800X0.048000*%
%ADD30R,0.078700X0.216500*%
%ADD31C,0.059100*%
%ADD32R,0.057100X0.021700*%
%ADD33R,0.043300X0.061000*%
%ADD34R,0.043300X0.061000*%
%ADD35R,0.135800X0.061000*%
%ADD47R,0.066900X0.066900*%
%ADD48C,0.066900*%
%ADD49C,0.098400*%
%ADD50R,0.059100X0.059100*%
%ADD51R,0.059100X0.059100*%
%ADD52R,0.063000X0.063000*%
%ADD53C,0.063000*%
%ADD54C,0.053100*%
%ADD55R,0.053100X0.053100*%
%ADD56C,0.065000*%
%ADD57C,0.060000*%
%ADD58C,0.078700*%
%ADD59R,0.072800X0.072800*%
%ADD60C,0.072800*%
%ADD61C,0.053100*%
%LNde-130817-1*%
%LPD*%
G54D10*
X02920Y07281D03*
X02957Y07202D03*
X02882D03*
X03660Y07281D03*
X03697Y07202D03*
X03622D03*
X03185Y07281D03*
X03222Y07202D03*
X03147D03*
G54D11*
X04977Y06341D03*
Y06274D03*
X05135Y06136D03*
Y06203D03*
Y06358D03*
Y06291D03*
X03012Y07211D03*
Y07278D03*
X03755Y07206D03*
Y07273D03*
X03565Y07203D03*
Y07270D03*
X03090Y07211D03*
Y07278D03*
X05035Y06588D03*
Y06655D03*
X04200Y06513D03*
Y06446D03*
X04260Y06513D03*
Y06446D03*
X04770Y06838D03*
Y06905D03*
X04295Y06920D03*
Y06853D03*
X04235D03*
Y06920D03*
X04200Y06643D03*
Y06576D03*
X04140Y06643D03*
Y06576D03*
X03855Y06858D03*
Y06925D03*
Y06715D03*
Y06648D03*
X04555Y07395D03*
Y07328D03*
X05875Y07590D03*
Y07523D03*
X02010Y06311D03*
Y06378D03*
X01595Y05473D03*
Y05406D03*
X05595Y06905D03*
Y06838D03*
X05680Y06290D03*
Y06223D03*
X05615Y06151D03*
Y06218D03*
X03800Y03443D03*
Y03376D03*
Y03213D03*
Y03146D03*
X04120Y03213D03*
Y03146D03*
Y03443D03*
Y03376D03*
X03280Y07278D03*
Y07211D03*
X04150Y02788D03*
Y02721D03*
X03040Y06798D03*
Y06865D03*
Y06373D03*
Y06440D03*
X01930Y06493D03*
Y06560D03*
X04500Y07090D03*
Y07023D03*
G54D12*
X05216Y06405D03*
X05283D03*
X05216Y06135D03*
X05283D03*
Y06345D03*
X05216D03*
X05283Y06790D03*
X05216D03*
X05283Y06885D03*
X05216D03*
X03446Y07142D03*
X03513D03*
X04641Y06487D03*
X04708D03*
X04363Y06982D03*
X04296D03*
X05598Y07197D03*
X05531D03*
X04863D03*
X04796D03*
X04561Y07587D03*
X04628D03*
X05318Y07197D03*
X05251D03*
X05086D03*
X05153D03*
X05018D03*
X04951D03*
X05593Y07717D03*
X05526D03*
X05388Y07715D03*
X05321D03*
X05218Y07717D03*
X05151D03*
X04726Y07587D03*
X04793D03*
X01431Y06375D03*
X01498D03*
X05538Y06150D03*
X05471D03*
X05798Y06742D03*
X05731D03*
X03483Y06986D03*
X03416D03*
Y06927D03*
X03483D03*
X06656Y07222D03*
X06723D03*
X06656Y07122D03*
X06723D03*
X06656Y07022D03*
X06723D03*
X06656Y06922D03*
X06723D03*
X06656Y06822D03*
X06723D03*
X06656Y06722D03*
X06723D03*
X06656Y06622D03*
X06723D03*
X06656Y06522D03*
X06723D03*
X06926D03*
X06993D03*
X06926Y06622D03*
X06993D03*
X06926Y06722D03*
X06993D03*
X06926Y06822D03*
X06993D03*
X06926Y06922D03*
X06993D03*
X06926Y07022D03*
X06993D03*
X06926Y07122D03*
X06993D03*
X06926Y07222D03*
X06993D03*
G54D13*
X05282Y06202D03*
Y06277D03*
X05207Y06240D03*
G54D14*
X05050Y06352D03*
Y06277D03*
X04215Y07399D03*
Y07324D03*
X04130Y07399D03*
Y07324D03*
X06240Y07524D03*
Y07449D03*
X06400Y07724D03*
Y07649D03*
X06320Y07724D03*
Y07649D03*
X06160Y07524D03*
Y07449D03*
X05445Y06909D03*
Y06834D03*
X05525Y06909D03*
Y06834D03*
X05830Y06286D03*
Y06211D03*
X05750Y06286D03*
Y06211D03*
X05910Y06286D03*
Y06211D03*
X04190Y03217D03*
Y03142D03*
X03475Y03217D03*
Y03142D03*
Y03447D03*
Y03372D03*
X04190Y03447D03*
Y03372D03*
X02010Y06489D03*
Y06564D03*
X04065Y02792D03*
Y02717D03*
X05805Y07594D03*
Y07519D03*
G54D15*
X04140Y06511D03*
Y06418D03*
G54D16*
X03350Y07227D03*
X03400D03*
X03450D03*
X03500D03*
X03350Y07416D03*
X03400D03*
X03450D03*
X03500D03*
X03105Y06622D03*
X03155D03*
X03205D03*
X03255D03*
X03305D03*
X03355D03*
X03405D03*
X03455D03*
X03105Y06811D03*
X03155D03*
X03205D03*
X03255D03*
X03305D03*
X03355D03*
X03405D03*
X03455D03*
X02410Y06197D03*
X02460D03*
X02510D03*
X02560D03*
X02610D03*
X02660D03*
X02710D03*
X02760D03*
X02410Y06386D03*
X02460D03*
X02510D03*
X02560D03*
X02610D03*
X02660D03*
X02710D03*
X02760D03*
X02410Y06622D03*
X02460D03*
X02510D03*
X02560D03*
X02610D03*
X02660D03*
X02710D03*
X02760D03*
X02410Y06811D03*
X02460D03*
X02510D03*
X02560D03*
X02610D03*
X02660D03*
X02710D03*
X02760D03*
X02410Y07047D03*
X02460D03*
X02510D03*
X02560D03*
X02610D03*
X02660D03*
X02710D03*
X02760D03*
X02410Y07236D03*
X02460D03*
X02510D03*
X02560D03*
X02610D03*
X02660D03*
X02710D03*
X02760D03*
X03105Y06197D03*
X03155D03*
X03205D03*
X03255D03*
X03305D03*
X03355D03*
X03405D03*
X03455D03*
X03105Y06386D03*
X03155D03*
X03205D03*
X03255D03*
X03305D03*
X03355D03*
X03405D03*
X03455D03*
G54D17*
X04362Y07052D03*
X04287D03*
X04562Y07657D03*
X04637D03*
X06072Y07687D03*
X05997D03*
X01427Y06300D03*
X01502D03*
X01452Y05415D03*
X01527D03*
X05802Y06672D03*
X05727D03*
X05914Y06117D03*
X05839D03*
X01492Y02270D03*
X01567D03*
X01647Y02030D03*
X01722D03*
X01562D03*
X01487D03*
X01497Y02445D03*
X01572D03*
X01642D03*
X01717D03*
X01972Y02270D03*
X02047D03*
X02127Y02030D03*
X02202D03*
X02037D03*
X01962D03*
X01977Y02445D03*
X02052D03*
X02122D03*
X02197D03*
X02522Y02030D03*
X02447D03*
X02452Y02445D03*
X02527D03*
X02597D03*
X02672D03*
X02447Y02270D03*
X02522D03*
X02607Y02030D03*
X02682D03*
X03077D03*
X03152D03*
X02922Y02270D03*
X02997D03*
X02992Y02030D03*
X02917D03*
X02927Y02445D03*
X03002D03*
X03072D03*
X03147D03*
X03397Y02270D03*
X03472D03*
X03467Y02030D03*
X03392D03*
X03552D03*
X03627D03*
X03402Y02445D03*
X03477D03*
X03547D03*
X03622D03*
X03947Y02030D03*
X03872D03*
Y02269D03*
X03947D03*
X04032Y02030D03*
X04107D03*
X03877Y02445D03*
X03952D03*
X04022D03*
X04097D03*
X04342Y02269D03*
X04417D03*
X04412Y02030D03*
X04337D03*
X04497D03*
X04572D03*
X04347Y02445D03*
X04422D03*
X04492D03*
X04567D03*
X04882Y02030D03*
X04807D03*
X04817Y02269D03*
X04892D03*
X04972Y02030D03*
X05047D03*
X04822Y02445D03*
X04897D03*
X04967D03*
X05042D03*
X04757Y04105D03*
X04682D03*
X04912Y03860D03*
X04837D03*
X04842Y04105D03*
X04917D03*
X04907Y03690D03*
X04832D03*
X04762D03*
X04687D03*
X04282Y04105D03*
X04207D03*
X04437Y03860D03*
X04362D03*
X04432Y03690D03*
X04357D03*
X04287D03*
X04212D03*
X04367Y04105D03*
X04442D03*
X03892D03*
X03967D03*
X03807D03*
X03732D03*
X03962Y03860D03*
X03887D03*
X03957Y03690D03*
X03882D03*
X03812D03*
X03737D03*
X03482Y03860D03*
X03407D03*
X03417Y04105D03*
X03492D03*
X03477Y03690D03*
X03402D03*
X03332D03*
X03257D03*
X03332Y04105D03*
X03257D03*
X02847D03*
X02772D03*
X03002Y03860D03*
X02927D03*
X02932Y04105D03*
X03007D03*
X02997Y03690D03*
X02922D03*
X02852D03*
X02777D03*
X02457Y04105D03*
X02532D03*
X02522Y03860D03*
X02447D03*
X02522Y03690D03*
X02447D03*
X02377D03*
X02302D03*
X02372Y04105D03*
X02297D03*
X01987D03*
X02062D03*
X01902D03*
X01827D03*
X02057Y03860D03*
X01982D03*
X02052Y03690D03*
X01977D03*
X01907D03*
X01832D03*
X01427Y04105D03*
X01352D03*
X01512D03*
X01587D03*
X01582Y03860D03*
X01507D03*
X01432Y03690D03*
X01357D03*
X01582D03*
X01507D03*
G54D18*
X04370Y06835D03*
Y06815D03*
Y06795D03*
Y06776D03*
Y06756D03*
Y06736D03*
Y06717D03*
Y06697D03*
Y06677D03*
Y06658D03*
Y06638D03*
Y06618D03*
X04689D03*
Y06638D03*
Y06658D03*
Y06677D03*
Y06697D03*
Y06717D03*
Y06736D03*
Y06756D03*
Y06776D03*
Y06795D03*
Y06815D03*
Y06835D03*
G54D19*
X04422Y06567D03*
X04441D03*
X04461D03*
X04481D03*
X04500D03*
X04520D03*
X04540D03*
X04559D03*
X04579D03*
X04599D03*
X04618D03*
X04638D03*
Y06886D03*
X04618D03*
X04599D03*
X04579D03*
X04559D03*
X04540D03*
X04520D03*
X04500D03*
X04481D03*
X04461D03*
X04441D03*
X04422D03*
G54D20*
X05695Y07646D03*
X05595D03*
X05495D03*
X05395D03*
X05695Y07272D03*
X05595D03*
X05495D03*
X05395D03*
X04950D03*
X05050D03*
X05150D03*
X05250D03*
X04950Y07646D03*
X05050D03*
X05150D03*
X05250D03*
G54D21*
X04695Y07272D03*
G54D22*
X04795Y07272D03*
X04695Y07508D03*
X04795D03*
G54D23*
X06085Y07584D03*
X06035D03*
X05985D03*
X05935D03*
X06085Y07399D03*
X06035D03*
X05985D03*
X05935D03*
G54D24*
X06158Y07687D03*
X06242Y07649D03*
G54D25*
X06242Y07724D03*
G54D26*
X02110Y06470D03*
Y06309D03*
X02235D03*
Y06470D03*
G54D27*
X01380Y02440D03*
Y02279D03*
X01860Y02440D03*
Y02279D03*
X02335Y02440D03*
Y02279D03*
X02810Y02440D03*
Y02279D03*
X03285Y02443D03*
Y02281D03*
X03760Y02443D03*
Y02281D03*
X04230Y02443D03*
Y02281D03*
X04705Y02443D03*
Y02281D03*
X05025Y03692D03*
Y03853D03*
X04550Y03692D03*
Y03853D03*
X04075Y03692D03*
Y03853D03*
X03595Y03692D03*
Y03853D03*
X03115Y03692D03*
Y03853D03*
X02635Y03692D03*
Y03853D03*
X02170Y03692D03*
Y03853D03*
X01695Y03692D03*
Y03853D03*
G54D28*
X01717Y02361D03*
X01642D03*
X01680Y02278D03*
X01492Y02113D03*
X01567D03*
X01530Y02196D03*
X01342Y02113D03*
X01417D03*
X01380Y02196D03*
X01642Y02113D03*
X01717D03*
X01680Y02196D03*
X02197Y02361D03*
X02122D03*
X02160Y02278D03*
X01972Y02113D03*
X02047D03*
X02010Y02196D03*
X01822Y02113D03*
X01897D03*
X01860Y02196D03*
X02122Y02113D03*
X02197D03*
X02160Y02196D03*
X02672Y02361D03*
X02597D03*
X02635Y02278D03*
X02447Y02113D03*
X02522D03*
X02485Y02196D03*
X02297Y02113D03*
X02372D03*
X02335Y02196D03*
X02597Y02113D03*
X02672D03*
X02635Y02196D03*
X03147Y02361D03*
X03072D03*
X03110Y02278D03*
X02922Y02113D03*
X02997D03*
X02960Y02196D03*
X02772Y02113D03*
X02847D03*
X02810Y02196D03*
X03072Y02113D03*
X03147D03*
X03110Y02196D03*
X03622Y02361D03*
X03547D03*
X03585Y02278D03*
X03397Y02113D03*
X03472D03*
X03435Y02196D03*
X03247Y02113D03*
X03322D03*
X03285Y02196D03*
X03547Y02113D03*
X03622D03*
X03585Y02196D03*
X04097Y02361D03*
X04022D03*
X04060Y02278D03*
X03872Y02113D03*
X03947D03*
X03910Y02196D03*
X03722Y02113D03*
X03797D03*
X03760Y02196D03*
X04022Y02113D03*
X04097D03*
X04060Y02196D03*
X04567Y02361D03*
X04492D03*
X04530Y02278D03*
X04342Y02113D03*
X04417D03*
X04380Y02196D03*
X04192Y02113D03*
X04267D03*
X04230Y02196D03*
X04492Y02113D03*
X04567D03*
X04530Y02196D03*
X05042Y02361D03*
X04967D03*
X05005Y02278D03*
X04817Y02113D03*
X04892D03*
X04855Y02196D03*
X04667Y02113D03*
X04742D03*
X04705Y02196D03*
X04967Y02113D03*
X05042D03*
X05005Y02196D03*
X04687Y03773D03*
X04762D03*
X04725Y03856D03*
X05062Y04021D03*
X04987D03*
X05025Y03938D03*
X04912Y04021D03*
X04837D03*
X04875Y03938D03*
X04762Y04021D03*
X04687D03*
X04725Y03938D03*
X04212Y03773D03*
X04287D03*
X04250Y03856D03*
X04587Y04021D03*
X04512D03*
X04550Y03938D03*
X04437Y04021D03*
X04362D03*
X04400Y03938D03*
X04287Y04021D03*
X04212D03*
X04250Y03938D03*
X03737Y03773D03*
X03812D03*
X03775Y03856D03*
X03962Y04021D03*
X03887D03*
X03925Y03938D03*
X04112Y04021D03*
X04037D03*
X04075Y03938D03*
X03812Y04021D03*
X03737D03*
X03775Y03938D03*
X03257Y03773D03*
X03332D03*
X03295Y03856D03*
X03482Y04021D03*
X03407D03*
X03445Y03938D03*
X03632Y04021D03*
X03557D03*
X03595Y03938D03*
X03332Y04021D03*
X03257D03*
X03295Y03938D03*
X02777Y03773D03*
X02852D03*
X02815Y03856D03*
X03002Y04021D03*
X02927D03*
X02965Y03938D03*
X03152Y04021D03*
X03077D03*
X03115Y03938D03*
X01907Y04021D03*
X01832D03*
X01870Y03938D03*
X02302Y03773D03*
X02377D03*
X02340Y03856D03*
X02527Y04021D03*
X02452D03*
X02490Y03938D03*
X02677Y04021D03*
X02602D03*
X02640Y03938D03*
X02852Y04021D03*
X02777D03*
X02815Y03938D03*
X02057Y04021D03*
X01982D03*
X02020Y03938D03*
X02207Y04021D03*
X02132D03*
X02170Y03938D03*
X01832Y03773D03*
X01907D03*
X01870Y03856D03*
X01732Y04021D03*
X01657D03*
X01695Y03938D03*
X01582Y04021D03*
X01507D03*
X01545Y03938D03*
X01357Y03773D03*
X01432D03*
X01395Y03856D03*
X01432Y04021D03*
X01357D03*
X01395Y03938D03*
X02377Y04021D03*
X02302D03*
X02340Y03938D03*
G54D29*
X01480Y01725D03*
X01609D03*
X01955D03*
X02084D03*
X02430D03*
X02559D03*
X02905D03*
X03034D03*
X03850D03*
X03979D03*
X04325D03*
X04454D03*
X04800D03*
X04929D03*
Y04410D03*
X04800D03*
X04454D03*
X04325D03*
X03979D03*
X03850D03*
X03504D03*
X03375D03*
X03029D03*
X02900D03*
X02559D03*
X02430D03*
X03375Y01725D03*
X03504D03*
X01604Y04410D03*
X01475D03*
X02084D03*
X01955D03*
G54D30*
X04005Y06949D03*
Y06575D03*
G54D31*
X04825Y06485D03*
X04945Y06150D03*
X04485Y06140D03*
Y06240D03*
X04585Y06140D03*
Y06240D03*
X04685Y06140D03*
X01840Y06590D03*
Y06690D03*
Y06790D03*
Y06890D03*
X01405Y06157D03*
X01505D03*
X01405Y06057D03*
X01505D03*
X01405Y05957D03*
X01505D03*
X01405Y05857D03*
X01505D03*
X01405Y05757D03*
X01505D03*
X01405Y05657D03*
X01505D03*
X01405Y05557D03*
Y06492D03*
X01505Y06592D03*
X01405D03*
X01505Y06692D03*
X01405D03*
X01505Y06792D03*
X01405D03*
X05125Y06687D03*
Y06787D03*
Y06887D03*
Y06987D03*
X06730Y07392D03*
X06830Y07492D03*
X06730D03*
X06830Y07222D03*
Y07122D03*
Y07022D03*
Y06922D03*
Y06822D03*
Y06722D03*
Y06622D03*
X06730Y06247D03*
X06830Y06347D03*
X06730D03*
X01405Y07590D03*
Y07490D03*
Y07390D03*
Y07290D03*
Y07190D03*
Y08363D03*
Y08263D03*
Y08163D03*
Y08063D03*
Y07963D03*
X04885Y03455D03*
X04785Y03355D03*
X04885D03*
X04785Y03255D03*
X04885D03*
X04785Y03155D03*
X04885D03*
X04785Y03055D03*
X04885D03*
X04785Y02955D03*
X04885D03*
X04785Y02855D03*
X04885D03*
X04785Y02755D03*
X04885D03*
X04785Y02655D03*
X04885D03*
X06250Y06243D03*
G54D32*
X03516Y07057D03*
X03424D03*
G54D33*
X05674Y06839D03*
G54D34*
X05765Y06839D03*
X05855D03*
G54D35*
X05765Y07104D03*
G54D47*
X03625Y02935D03*
G54D48*
X03625Y02835D03*
Y02735D03*
G54D49*
X06840Y07916D03*
Y08116D03*
Y08316D03*
X06840Y05536D03*
Y05733D03*
X06578Y05250D03*
X06378D03*
X06178D03*
X05948D03*
X05748D03*
X05548D03*
X05318D03*
X05118D03*
X04918D03*
X04688D03*
X04488D03*
X04288D03*
X04058D03*
X03858D03*
X03658D03*
X03428D03*
X03228D03*
X03028D03*
X02798D03*
X02598D03*
X02398D03*
X02168D03*
X01968D03*
X01768D03*
X01450Y03188D03*
Y02991D03*
X04766Y04635D03*
X04963D03*
X04292D03*
X04489D03*
X03818D03*
X04014D03*
X03343D03*
X03540D03*
X02869D03*
X03066D03*
X02395D03*
X02592D03*
X01920D03*
X02117D03*
X01446D03*
X01643D03*
Y01505D03*
X01446D03*
X02117D03*
X01920D03*
X02592D03*
X02395D03*
X03066D03*
X02869D03*
X03540D03*
X03343D03*
X04014D03*
X03818D03*
X04489D03*
X04292D03*
X04963D03*
X04766D03*
X01765Y08610D03*
X01965D03*
X02165D03*
X02395D03*
X02595D03*
X02795D03*
X03025D03*
X03225D03*
X03425D03*
X03655D03*
X03855D03*
X04055D03*
X04280D03*
X04480D03*
X04680D03*
X04915D03*
X05115D03*
X05315D03*
X05545D03*
X05745D03*
X05945D03*
X06175D03*
X06375D03*
X06575D03*
G54D50*
X05045Y06150D03*
X04685Y06240D03*
G54D51*
X01840Y06490D03*
X01505Y05557D03*
Y06492D03*
X05125Y06587D03*
X06830Y07392D03*
Y06522D03*
Y06247D03*
X01405Y07090D03*
Y07863D03*
X04785Y03455D03*
X06250Y06440D03*
G54D52*
X04765Y01865D03*
X04290D03*
X03815D03*
X03340D03*
X02870D03*
X02395D03*
X01920D03*
X01445D03*
X05900Y06437D03*
X04965Y04270D03*
X04490D03*
X03540D03*
X04015D03*
X02595D03*
X03065D03*
X01645D03*
X02120D03*
G54D53*
X04865Y01865D03*
X04965D03*
X04390D03*
X04490D03*
X03915D03*
X04015D03*
X03440D03*
X03540D03*
X02970D03*
X03070D03*
X02495D03*
X02595D03*
X02020D03*
X02120D03*
X01545D03*
X01645D03*
X05700Y06437D03*
X05800D03*
X04865Y04270D03*
X04765D03*
X04390D03*
X04290D03*
X03440D03*
X03340D03*
X03915D03*
X03815D03*
X02495D03*
X02395D03*
X02965D03*
X02865D03*
X01545D03*
X01445D03*
X02020D03*
X01920D03*
G54D54*
X03910Y02710D03*
X03325Y03365D03*
G54D55*
X03910Y02789D03*
X03325Y03444D03*
G54D56*
X03850Y02985D03*
X04150D03*
G54D57*
X04475Y07312D03*
Y07412D03*
Y07512D03*
Y07612D03*
X04040Y03145D03*
Y03245D03*
Y03345D03*
Y03445D03*
X03720Y03145D03*
Y03245D03*
Y03345D03*
Y03445D03*
G54D58*
X06572Y08357D03*
X06178D03*
X06572Y07955D03*
X06178D03*
X06375Y07857D03*
X05942Y08357D03*
X05548D03*
X05942Y07955D03*
X05548D03*
X05745Y07857D03*
X05312Y08357D03*
X04918D03*
X05312Y07955D03*
X04918D03*
X05115Y07857D03*
X04682Y08357D03*
X04288D03*
X04682Y07955D03*
X04288D03*
X04485Y07857D03*
X04052Y08357D03*
X03658D03*
X04052Y07955D03*
X03658D03*
X03855Y07857D03*
X03421Y08357D03*
X03028D03*
X03421Y07955D03*
X03028D03*
X03225Y07857D03*
X02791Y08357D03*
X02398D03*
X02791Y07955D03*
X02398D03*
X02595Y07857D03*
X02161Y08357D03*
X01768D03*
X02161Y07955D03*
X01768D03*
X01965Y07857D03*
X06181Y05497D03*
X06575D03*
X06181Y05898D03*
X06575D03*
X06378Y05997D03*
X05551Y05497D03*
X05945D03*
X05551Y05898D03*
X05945D03*
X05748Y05997D03*
X04921Y05497D03*
X05315D03*
X04921Y05898D03*
X05315D03*
X05118Y05997D03*
X04291Y05497D03*
X04685D03*
X04291Y05898D03*
X04685D03*
X04488Y05997D03*
X03661Y05497D03*
X04055D03*
X03661Y05898D03*
X04055D03*
X03858Y05997D03*
X03031Y05497D03*
X03425D03*
X03031Y05898D03*
X03425D03*
X03228Y05997D03*
X02401Y05497D03*
X02795D03*
X02401Y05898D03*
X02795D03*
X02598Y05997D03*
X01771Y05497D03*
X02165D03*
X01771Y05898D03*
X02165D03*
X01968Y05997D03*
G54D59*
X02845Y03204D03*
X02170D03*
G54D60*
X02845Y02909D03*
X02170D03*
G54D61*
X01720Y02886D03*
Y03286D03*
M02*