%FSDAX23Y23*%
%MOIN*%
%SFA1B1*%

%IPPOS*%
%AMD20*
4,1,8,-0.035000,0.014900,-0.035000,-0.014900,-0.020000,-0.029900,0.020000,-0.029900,0.035000,-0.014900,0.035000,0.014900,0.020000,0.029900,-0.020000,0.029900,-0.035000,0.014900,0.0*
1,1,0.030000,-0.020000,0.014900*
1,1,0.030000,-0.020000,-0.014900*
1,1,0.030000,0.020000,-0.014900*
1,1,0.030000,0.020000,0.014900*
%
%ADD10R,0.031500X0.035400*%
%ADD11R,0.039400X0.043300*%
%ADD12R,0.043300X0.039400*%
%ADD13R,0.059100X0.023600*%
%ADD14R,0.059100X0.051200*%
%ADD15R,0.039400X0.045300*%
%ADD16O,0.023600X0.086600*%
%ADD17R,0.051200X0.059100*%
%ADD18O,0.070900X0.011800*%
%ADD19O,0.011800X0.070900*%
G04~CAMADD=20~8~0.0~0.0~598.0~701.0~150.0~0.0~15~0.0~0.0~0.0~0.0~0~0.0~0.0~0.0~0.0~0~0.0~0.0~0.0~90.0~700.0~597.0*
%ADD20D20*%
%ADD21R,0.023600X0.059100*%
%ADD22O,0.023600X0.059100*%
%ADD23O,0.023600X0.074800*%
%ADD24R,0.055100X0.035400*%
%ADD25R,0.055100X0.035400*%
%ADD26R,0.070900X0.094500*%
%ADD27R,0.133900X0.063000*%
%ADD28R,0.023600X0.051200*%
%ADD29R,0.035800X0.048000*%
%ADD30R,0.078700X0.216500*%
%ADD31C,0.059100*%
%ADD32R,0.057100X0.021700*%
%ADD33R,0.043300X0.061000*%
%ADD34R,0.043300X0.061000*%
%ADD35R,0.135800X0.061000*%
%LNde-130817-1*%
%LPD*%
G54D10*
X02920Y07281D03*
X02957Y07202D03*
X02882D03*
X03660Y07281D03*
X03697Y07202D03*
X03622D03*
X03185Y07281D03*
X03222Y07202D03*
X03147D03*
G54D11*
X04977Y06341D03*
Y06274D03*
X05135Y06136D03*
Y06203D03*
Y06358D03*
Y06291D03*
X03012Y07211D03*
Y07278D03*
X03755Y07206D03*
Y07273D03*
X03565Y07203D03*
Y07270D03*
X03090Y07211D03*
Y07278D03*
X05035Y06588D03*
Y06655D03*
X04200Y06513D03*
Y06446D03*
X04260Y06513D03*
Y06446D03*
X04770Y06838D03*
Y06905D03*
X04295Y06920D03*
Y06853D03*
X04235D03*
Y06920D03*
X04200Y06643D03*
Y06576D03*
X04140Y06643D03*
Y06576D03*
X03855Y06858D03*
Y06925D03*
Y06715D03*
Y06648D03*
X04555Y07395D03*
Y07328D03*
X05875Y07590D03*
Y07523D03*
X02010Y06311D03*
Y06378D03*
X01595Y05473D03*
Y05406D03*
X05595Y06905D03*
Y06838D03*
X05680Y06290D03*
Y06223D03*
X05615Y06151D03*
Y06218D03*
X03800Y03443D03*
Y03376D03*
Y03213D03*
Y03146D03*
X04120Y03213D03*
Y03146D03*
Y03443D03*
Y03376D03*
X03280Y07278D03*
Y07211D03*
X04150Y02788D03*
Y02721D03*
X03040Y06798D03*
Y06865D03*
Y06373D03*
Y06440D03*
X01930Y06493D03*
Y06560D03*
X04500Y07090D03*
Y07023D03*
G54D12*
X05216Y06405D03*
X05283D03*
X05216Y06135D03*
X05283D03*
Y06345D03*
X05216D03*
X05283Y06790D03*
X05216D03*
X05283Y06885D03*
X05216D03*
X03446Y07142D03*
X03513D03*
X04641Y06487D03*
X04708D03*
X04363Y06982D03*
X04296D03*
X05598Y07197D03*
X05531D03*
X04863D03*
X04796D03*
X04561Y07587D03*
X04628D03*
X05318Y07197D03*
X05251D03*
X05086D03*
X05153D03*
X05018D03*
X04951D03*
X05593Y07717D03*
X05526D03*
X05388Y07715D03*
X05321D03*
X05218Y07717D03*
X05151D03*
X04726Y07587D03*
X04793D03*
X01431Y06375D03*
X01498D03*
X05538Y06150D03*
X05471D03*
X05798Y06742D03*
X05731D03*
X03483Y06986D03*
X03416D03*
Y06927D03*
X03483D03*
X06656Y07222D03*
X06723D03*
X06656Y07122D03*
X06723D03*
X06656Y07022D03*
X06723D03*
X06656Y06922D03*
X06723D03*
X06656Y06822D03*
X06723D03*
X06656Y06722D03*
X06723D03*
X06656Y06622D03*
X06723D03*
X06656Y06522D03*
X06723D03*
X06926D03*
X06993D03*
X06926Y06622D03*
X06993D03*
X06926Y06722D03*
X06993D03*
X06926Y06822D03*
X06993D03*
X06926Y06922D03*
X06993D03*
X06926Y07022D03*
X06993D03*
X06926Y07122D03*
X06993D03*
X06926Y07222D03*
X06993D03*
G54D13*
X05282Y06202D03*
Y06277D03*
X05207Y06240D03*
G54D14*
X05050Y06352D03*
Y06277D03*
X04215Y07399D03*
Y07324D03*
X04130Y07399D03*
Y07324D03*
X06240Y07524D03*
Y07449D03*
X06400Y07724D03*
Y07649D03*
X06320Y07724D03*
Y07649D03*
X06160Y07524D03*
Y07449D03*
X05445Y06909D03*
Y06834D03*
X05525Y06909D03*
Y06834D03*
X05830Y06286D03*
Y06211D03*
X05750Y06286D03*
Y06211D03*
X05910Y06286D03*
Y06211D03*
X04190Y03217D03*
Y03142D03*
X03475Y03217D03*
Y03142D03*
Y03447D03*
Y03372D03*
X04190Y03447D03*
Y03372D03*
X02010Y06489D03*
Y06564D03*
X04065Y02792D03*
Y02717D03*
X05805Y07594D03*
Y07519D03*
G54D15*
X04140Y06511D03*
Y06418D03*
G54D16*
X03350Y07227D03*
X03400D03*
X03450D03*
X03500D03*
X03350Y07416D03*
X03400D03*
X03450D03*
X03500D03*
X03105Y06622D03*
X03155D03*
X03205D03*
X03255D03*
X03305D03*
X03355D03*
X03405D03*
X03455D03*
X03105Y06811D03*
X03155D03*
X03205D03*
X03255D03*
X03305D03*
X03355D03*
X03405D03*
X03455D03*
X02410Y06197D03*
X02460D03*
X02510D03*
X02560D03*
X02610D03*
X02660D03*
X02710D03*
X02760D03*
X02410Y06386D03*
X02460D03*
X02510D03*
X02560D03*
X02610D03*
X02660D03*
X02710D03*
X02760D03*
X02410Y06622D03*
X02460D03*
X02510D03*
X02560D03*
X02610D03*
X02660D03*
X02710D03*
X02760D03*
X02410Y06811D03*
X02460D03*
X02510D03*
X02560D03*
X02610D03*
X02660D03*
X02710D03*
X02760D03*
X02410Y07047D03*
X02460D03*
X02510D03*
X02560D03*
X02610D03*
X02660D03*
X02710D03*
X02760D03*
X02410Y07236D03*
X02460D03*
X02510D03*
X02560D03*
X02610D03*
X02660D03*
X02710D03*
X02760D03*
X03105Y06197D03*
X03155D03*
X03205D03*
X03255D03*
X03305D03*
X03355D03*
X03405D03*
X03455D03*
X03105Y06386D03*
X03155D03*
X03205D03*
X03255D03*
X03305D03*
X03355D03*
X03405D03*
X03455D03*
G54D17*
X04362Y07052D03*
X04287D03*
X04562Y07657D03*
X04637D03*
X06072Y07687D03*
X05997D03*
X01427Y06300D03*
X01502D03*
X01452Y05415D03*
X01527D03*
X05802Y06672D03*
X05727D03*
X05914Y06117D03*
X05839D03*
X01492Y02270D03*
X01567D03*
X01647Y02030D03*
X01722D03*
X01562D03*
X01487D03*
X01497Y02445D03*
X01572D03*
X01642D03*
X01717D03*
X01972Y02270D03*
X02047D03*
X02127Y02030D03*
X02202D03*
X02037D03*
X01962D03*
X01977Y02445D03*
X02052D03*
X02122D03*
X02197D03*
X02522Y02030D03*
X02447D03*
X02452Y02445D03*
X02527D03*
X02597D03*
X02672D03*
X02447Y02270D03*
X02522D03*
X02607Y02030D03*
X02682D03*
X03077D03*
X03152D03*
X02922Y02270D03*
X02997D03*
X02992Y02030D03*
X02917D03*
X02927Y02445D03*
X03002D03*
X03072D03*
X03147D03*
X03397Y02270D03*
X03472D03*
X03467Y02030D03*
X03392D03*
X03552D03*
X03627D03*
X03402Y02445D03*
X03477D03*
X03547D03*
X03622D03*
X03947Y02030D03*
X03872D03*
Y02269D03*
X03947D03*
X04032Y02030D03*
X04107D03*
X03877Y02445D03*
X03952D03*
X04022D03*
X04097D03*
X04342Y02269D03*
X04417D03*
X04412Y02030D03*
X04337D03*
X04497D03*
X04572D03*
X04347Y02445D03*
X04422D03*
X04492D03*
X04567D03*
X04882Y02030D03*
X04807D03*
X04817Y02269D03*
X04892D03*
X04972Y02030D03*
X05047D03*
X04822Y02445D03*
X04897D03*
X04967D03*
X05042D03*
X04757Y04105D03*
X04682D03*
X04912Y03860D03*
X04837D03*
X04842Y04105D03*
X04917D03*
X04907Y03690D03*
X04832D03*
X04762D03*
X04687D03*
X04282Y04105D03*
X04207D03*
X04437Y03860D03*
X04362D03*
X04432Y03690D03*
X04357D03*
X04287D03*
X04212D03*
X04367Y04105D03*
X04442D03*
X03892D03*
X03967D03*
X03807D03*
X03732D03*
X03962Y03860D03*
X03887D03*
X03957Y03690D03*
X03882D03*
X03812D03*
X03737D03*
X03482Y03860D03*
X03407D03*
X03417Y04105D03*
X03492D03*
X03477Y03690D03*
X03402D03*
X03332D03*
X03257D03*
X03332Y04105D03*
X03257D03*
X02847D03*
X02772D03*
X03002Y03860D03*
X02927D03*
X02932Y04105D03*
X03007D03*
X02997Y03690D03*
X02922D03*
X02852D03*
X02777D03*
X02457Y04105D03*
X02532D03*
X02522Y03860D03*
X02447D03*
X02522Y03690D03*
X02447D03*
X02377D03*
X02302D03*
X02372Y04105D03*
X02297D03*
X01987D03*
X02062D03*
X01902D03*
X01827D03*
X02057Y03860D03*
X01982D03*
X02052Y03690D03*
X01977D03*
X01907D03*
X01832D03*
X01427Y04105D03*
X01352D03*
X01512D03*
X01587D03*
X01582Y03860D03*
X01507D03*
X01432Y03690D03*
X01357D03*
X01582D03*
X01507D03*
G54D18*
X04370Y06835D03*
Y06815D03*
Y06795D03*
Y06776D03*
Y06756D03*
Y06736D03*
Y06717D03*
Y06697D03*
Y06677D03*
Y06658D03*
Y06638D03*
Y06618D03*
X04689D03*
Y06638D03*
Y06658D03*
Y06677D03*
Y06697D03*
Y06717D03*
Y06736D03*
Y06756D03*
Y06776D03*
Y06795D03*
Y06815D03*
Y06835D03*
G54D19*
X04422Y06567D03*
X04441D03*
X04461D03*
X04481D03*
X04500D03*
X04520D03*
X04540D03*
X04559D03*
X04579D03*
X04599D03*
X04618D03*
X04638D03*
Y06886D03*
X04618D03*
X04599D03*
X04579D03*
X04559D03*
X04540D03*
X04520D03*
X04500D03*
X04481D03*
X04461D03*
X04441D03*
X04422D03*
G54D20*
X05695Y07646D03*
X05595D03*
X05495D03*
X05395D03*
X05695Y07272D03*
X05595D03*
X05495D03*
X05395D03*
X04950D03*
X05050D03*
X05150D03*
X05250D03*
X04950Y07646D03*
X05050D03*
X05150D03*
X05250D03*
G54D21*
X04695Y07272D03*
G54D22*
X04795Y07272D03*
X04695Y07508D03*
X04795D03*
G54D23*
X06085Y07584D03*
X06035D03*
X05985D03*
X05935D03*
X06085Y07399D03*
X06035D03*
X05985D03*
X05935D03*
G54D24*
X06158Y07687D03*
X06242Y07649D03*
G54D25*
X06242Y07724D03*
G54D26*
X02110Y06470D03*
Y06309D03*
X02235D03*
Y06470D03*
G54D27*
X01380Y02440D03*
Y02279D03*
X01860Y02440D03*
Y02279D03*
X02335Y02440D03*
Y02279D03*
X02810Y02440D03*
Y02279D03*
X03285Y02443D03*
Y02281D03*
X03760Y02443D03*
Y02281D03*
X04230Y02443D03*
Y02281D03*
X04705Y02443D03*
Y02281D03*
X05025Y03692D03*
Y03853D03*
X04550Y03692D03*
Y03853D03*
X04075Y03692D03*
Y03853D03*
X03595Y03692D03*
Y03853D03*
X03115Y03692D03*
Y03853D03*
X02635Y03692D03*
Y03853D03*
X02170Y03692D03*
Y03853D03*
X01695Y03692D03*
Y03853D03*
G54D28*
X01717Y02361D03*
X01642D03*
X01680Y02278D03*
X01492Y02113D03*
X01567D03*
X01530Y02196D03*
X01342Y02113D03*
X01417D03*
X01380Y02196D03*
X01642Y02113D03*
X01717D03*
X01680Y02196D03*
X02197Y02361D03*
X02122D03*
X02160Y02278D03*
X01972Y02113D03*
X02047D03*
X02010Y02196D03*
X01822Y02113D03*
X01897D03*
X01860Y02196D03*
X02122Y02113D03*
X02197D03*
X02160Y02196D03*
X02672Y02361D03*
X02597D03*
X02635Y02278D03*
X02447Y02113D03*
X02522D03*
X02485Y02196D03*
X02297Y02113D03*
X02372D03*
X02335Y02196D03*
X02597Y02113D03*
X02672D03*
X02635Y02196D03*
X03147Y02361D03*
X03072D03*
X03110Y02278D03*
X02922Y02113D03*
X02997D03*
X02960Y02196D03*
X02772Y02113D03*
X02847D03*
X02810Y02196D03*
X03072Y02113D03*
X03147D03*
X03110Y02196D03*
X03622Y02361D03*
X03547D03*
X03585Y02278D03*
X03397Y02113D03*
X03472D03*
X03435Y02196D03*
X03247Y02113D03*
X03322D03*
X03285Y02196D03*
X03547Y02113D03*
X03622D03*
X03585Y02196D03*
X04097Y02361D03*
X04022D03*
X04060Y02278D03*
X03872Y02113D03*
X03947D03*
X03910Y02196D03*
X03722Y02113D03*
X03797D03*
X03760Y02196D03*
X04022Y02113D03*
X04097D03*
X04060Y02196D03*
X04567Y02361D03*
X04492D03*
X04530Y02278D03*
X04342Y02113D03*
X04417D03*
X04380Y02196D03*
X04192Y02113D03*
X04267D03*
X04230Y02196D03*
X04492Y02113D03*
X04567D03*
X04530Y02196D03*
X05042Y02361D03*
X04967D03*
X05005Y02278D03*
X04817Y02113D03*
X04892D03*
X04855Y02196D03*
X04667Y02113D03*
X04742D03*
X04705Y02196D03*
X04967Y02113D03*
X05042D03*
X05005Y02196D03*
X04687Y03773D03*
X04762D03*
X04725Y03856D03*
X05062Y04021D03*
X04987D03*
X05025Y03938D03*
X04912Y04021D03*
X04837D03*
X04875Y03938D03*
X04762Y04021D03*
X04687D03*
X04725Y03938D03*
X04212Y03773D03*
X04287D03*
X04250Y03856D03*
X04587Y04021D03*
X04512D03*
X04550Y03938D03*
X04437Y04021D03*
X04362D03*
X04400Y03938D03*
X04287Y04021D03*
X04212D03*
X04250Y03938D03*
X03737Y03773D03*
X03812D03*
X03775Y03856D03*
X03962Y04021D03*
X03887D03*
X03925Y03938D03*
X04112Y04021D03*
X04037D03*
X04075Y03938D03*
X03812Y04021D03*
X03737D03*
X03775Y03938D03*
X03257Y03773D03*
X03332D03*
X03295Y03856D03*
X03482Y04021D03*
X03407D03*
X03445Y03938D03*
X03632Y04021D03*
X03557D03*
X03595Y03938D03*
X03332Y04021D03*
X03257D03*
X03295Y03938D03*
X02777Y03773D03*
X02852D03*
X02815Y03856D03*
X03002Y04021D03*
X02927D03*
X02965Y03938D03*
X03152Y04021D03*
X03077D03*
X03115Y03938D03*
X01907Y04021D03*
X01832D03*
X01870Y03938D03*
X02302Y03773D03*
X02377D03*
X02340Y03856D03*
X02527Y04021D03*
X02452D03*
X02490Y03938D03*
X02677Y04021D03*
X02602D03*
X02640Y03938D03*
X02852Y04021D03*
X02777D03*
X02815Y03938D03*
X02057Y04021D03*
X01982D03*
X02020Y03938D03*
X02207Y04021D03*
X02132D03*
X02170Y03938D03*
X01832Y03773D03*
X01907D03*
X01870Y03856D03*
X01732Y04021D03*
X01657D03*
X01695Y03938D03*
X01582Y04021D03*
X01507D03*
X01545Y03938D03*
X01357Y03773D03*
X01432D03*
X01395Y03856D03*
X01432Y04021D03*
X01357D03*
X01395Y03938D03*
X02377Y04021D03*
X02302D03*
X02340Y03938D03*
G54D29*
X01480Y01725D03*
X01609D03*
X01955D03*
X02084D03*
X02430D03*
X02559D03*
X02905D03*
X03034D03*
X03850D03*
X03979D03*
X04325D03*
X04454D03*
X04800D03*
X04929D03*
Y04410D03*
X04800D03*
X04454D03*
X04325D03*
X03979D03*
X03850D03*
X03504D03*
X03375D03*
X03029D03*
X02900D03*
X02559D03*
X02430D03*
X03375Y01725D03*
X03504D03*
X01604Y04410D03*
X01475D03*
X02084D03*
X01955D03*
G54D30*
X04005Y06949D03*
Y06575D03*
G54D31*
X04825Y06485D03*
G54D32*
X03516Y07057D03*
X03424D03*
G54D33*
X05674Y06839D03*
G54D34*
X05765Y06839D03*
X05855D03*
G54D35*
X05765Y07104D03*
M02*