%FSDAX23Y23*%
%MOIN*%
%SFA1B1*%

%IPPOS*%
%AMD20*
4,1,8,-0.035000,0.014900,-0.035000,-0.014900,-0.020000,-0.029900,0.020000,-0.029900,0.035000,-0.014900,0.035000,0.014900,0.020000,0.029900,-0.020000,0.029900,-0.035000,0.014900,0.0*
1,1,0.030000,-0.020000,0.014900*
1,1,0.030000,-0.020000,-0.014900*
1,1,0.030000,0.020000,-0.014900*
1,1,0.030000,0.020000,0.014900*
%
%ADD10R,0.031500X0.035400*%
%ADD11R,0.039400X0.043300*%
%ADD12R,0.043300X0.039400*%
%ADD13R,0.059100X0.023600*%
%ADD14R,0.059100X0.051200*%
%ADD15R,0.039400X0.045300*%
%ADD16O,0.023600X0.086600*%
%ADD17R,0.051200X0.059100*%
%ADD18O,0.070900X0.011800*%
%ADD19O,0.011800X0.070900*%
G04~CAMADD=20~8~0.0~0.0~598.0~701.0~150.0~0.0~15~0.0~0.0~0.0~0.0~0~0.0~0.0~0.0~0.0~0~0.0~0.0~0.0~90.0~700.0~597.0*
%ADD20D20*%
%ADD21R,0.023600X0.059100*%
%ADD22O,0.023600X0.059100*%
%ADD23O,0.023600X0.074800*%
%ADD24R,0.055100X0.035400*%
%ADD25R,0.055100X0.035400*%
%ADD26R,0.070900X0.094500*%
%ADD27R,0.133900X0.063000*%
%ADD28R,0.023600X0.051200*%
%ADD29R,0.035800X0.048000*%
%ADD30R,0.078700X0.216500*%
%ADD31C,0.059100*%
%ADD32R,0.057100X0.021700*%
%ADD33R,0.043300X0.061000*%
%ADD34R,0.043300X0.061000*%
%ADD35R,0.135800X0.061000*%
%ADD36C,0.030000*%
%ADD37C,0.010000*%
%ADD38C,0.050000*%
%ADD39C,0.100000*%
%ADD40C,0.020000*%
%ADD41C,0.018000*%
%ADD42C,0.040000*%
%ADD43R,0.435000X0.239000*%
%ADD44R,1.705000X0.245000*%
%ADD45R,1.705000X0.240000*%
%ADD46R,1.770000X0.205000*%
%ADD47R,0.066900X0.066900*%
%ADD48C,0.066900*%
%ADD49C,0.098400*%
%ADD50R,0.059100X0.059100*%
%ADD51R,0.059100X0.059100*%
%ADD52R,0.063000X0.063000*%
%ADD53C,0.063000*%
%ADD54C,0.053100*%
%ADD55R,0.053100X0.053100*%
%ADD56C,0.065000*%
%ADD57C,0.060000*%
%ADD58C,0.078700*%
%ADD59R,0.072800X0.072800*%
%ADD60C,0.072800*%
%ADD61C,0.053100*%
%ADD62C,0.031500*%
%LNde-130817-1*%
%LPD*%
G36*
X04453Y06837D02*
X04461Y06835D01*
X04469Y06837*
X04471Y06838*
X04472Y06837*
X04481Y06835*
X04489Y06837*
X04490Y06838*
X04492Y06837*
X04500Y06835*
X04508Y06837*
X04510Y06838*
X04512Y06837*
X04520Y06835*
X04528Y06837*
X04530Y06838*
X04532Y06837*
X04540Y06835*
X04548Y06837*
X04550Y06838*
X04551Y06837*
X04559Y06835*
X04568Y06837*
X04569Y06838*
X04571Y06837*
X04579Y06835*
X04587Y06837*
X04589Y06838*
X04591Y06837*
X04599Y06835*
X04607Y06837*
X04609Y06838*
X04610Y06837*
X04618Y06835*
X04627Y06837*
X04628Y06838*
X04630Y06837*
X04634Y06836*
X04638Y06835*
X04639Y06830*
X04640Y06827*
X04645Y06820*
X04644Y06815*
X04645Y06810*
X04640Y06804*
X04638Y06795*
X04640Y06787*
X04641Y06786*
X04640Y06784*
X04638Y06776*
X04640Y06768*
X04641Y06766*
X04640Y06764*
X04638Y06756*
X04640Y06748*
X04641Y06746*
X04640Y06745*
X04638Y06736*
X04640Y06728*
X04641Y06727*
X04640Y06725*
X04638Y06717*
X04640Y06709*
X04641Y06707*
X04640Y06705*
X04638Y06697*
X04640Y06689*
X04638Y06684*
X04636Y06683*
X04633Y06685*
X04625Y06686*
X04617Y06685*
X04609Y06681*
X04603Y06676*
X04598Y06670*
X04595Y06663*
X04590Y06663*
X04591Y06670*
X04590Y06678*
X04586Y06685*
X04581Y06691*
X04575Y06696*
X04568Y06700*
X04560Y06701*
X04561Y06705*
X04560Y06713*
X04556Y06720*
X04551Y06726*
X04545Y06731*
X04538Y06735*
X04530Y06736*
X04522Y06735*
X04514Y06731*
X04508Y06726*
X04503Y06720*
X04500Y06713*
X04499Y06705*
X04500Y06697*
X04503Y06689*
X04508Y06683*
X04508Y06682*
Y06622*
Y06621*
X04504Y06617*
X04500Y06618*
X04492Y06616*
X04490Y06615*
X04489Y06616*
X04481Y06618*
X04472Y06616*
X04471Y06615*
X04469Y06616*
X04461Y06618*
X04453Y06616*
X04451Y06615*
X04449Y06616*
X04441Y06618*
X04433Y06616*
X04431Y06615*
X04430Y06616*
X04426Y06617*
X04422Y06618*
X04420Y06623*
X04420Y06626*
X04419Y06628*
X04420Y06630*
X04421Y06638*
X04420Y06646*
X04419Y06648*
X04420Y06649*
X04421Y06658*
X04420Y06666*
X04419Y06667*
X04420Y06669*
X04421Y06677*
X04420Y06685*
X04421Y06687*
X04423Y06688*
X04425Y06688*
X04429Y06687*
X04437Y06686*
X04445Y06687*
X04452Y06690*
X04458Y06695*
X04463Y06701*
X04467Y06709*
X04468Y06717*
X04467Y06725*
X04463Y06732*
X04458Y06738*
X04452Y06743*
X04445Y06747*
X04437Y06748*
X04429Y06747*
X04425Y06745*
X04423Y06745*
X04420Y06748*
X04421Y06756*
X04420Y06764*
X04419Y06766*
X04420Y06768*
X04421Y06776*
X04420Y06784*
X04419Y06786*
X04420Y06787*
X04421Y06795*
X04420Y06804*
X04419Y06805*
X04420Y06807*
X04421Y06815*
X04420Y06823*
X04419Y06825*
X04420Y06827*
X04420Y06830*
X04422Y06835*
X04426Y06836*
X04430Y06837*
X04436Y06841*
X04441Y06840*
X04446Y06841*
X04453Y06837*
G37*
G36*
X02844Y07091D02*
Y07007D01*
X02846Y07000*
X02845Y06999*
X02843Y06995*
X02777*
X02776Y06999*
X02776Y07000*
X02780Y07007*
X02782Y07016*
Y07017*
X02786Y07020*
X02788Y07019*
X02790Y07019*
Y07045*
Y07070*
X02788Y07070*
X02786Y07069*
X02782Y07072*
Y07079*
X02780Y07087*
X02779Y07090*
X02781Y07094*
X02841*
X02844Y07091*
G37*
G36*
X05419Y06969D02*
Y06950D01*
X05415*
X05409Y06949*
X05405Y06945*
X05401Y06940*
X05400Y06935*
Y06883*
X05401Y06878*
X05405Y06873*
X05406Y06872*
X05408Y06867*
X05407Y06865*
X05406Y06864*
X05405Y06860*
Y06839*
X05445*
Y06834*
X05450*
Y06798*
X05474*
X05478Y06799*
X05482Y06801*
X05482Y06802*
X05488*
X05488Y06801*
X05491Y06799*
X05495Y06798*
X05520*
Y06834*
X05530*
Y06798*
X05554*
X05558Y06799*
X05562Y06801*
X05564Y06805*
X05564Y06806*
X05565Y06807*
X05569Y06808*
X05569*
X05571Y06807*
X05575Y06806*
X05590*
Y06838*
X05595*
Y06843*
X05625*
Y06860*
X05624Y06864*
X05623Y06865*
X05622Y06867*
X05624Y06872*
X05625Y06873*
X05627Y06875*
X05639*
X05643Y06870*
X05642Y06869*
Y06844*
X05706*
Y06869*
X05706Y06870*
X05710Y06875*
X05725*
X05728Y06871*
X05728Y06869*
Y06808*
X05729Y06802*
X05732Y06797*
X05737Y06794*
X05743Y06793*
X05787*
X05792Y06794*
X05797Y06797*
X05801Y06802*
X05802Y06808*
Y06869*
X05802Y06870*
X05806Y06875*
X05815*
X05819Y06870*
X05818Y06869*
Y06808*
X05819Y06805*
X05791Y06777*
X05777*
X05771Y06775*
X05766Y06772*
X05765Y06771*
X05760Y06768*
X05759Y06770*
X05757Y06771*
X05753Y06771*
X05736*
Y06742*
X05731*
Y06737*
X05700*
Y06722*
X05700Y06718*
X05702Y06716*
Y06716*
X05700Y06712*
X05700Y06711*
X05698Y06710*
X05695Y06708*
X05692Y06705*
X05692Y06701*
Y06677*
X05727*
Y06672*
X05732*
Y06632*
X05753*
X05757Y06633*
X05762Y06630*
Y06463*
X05759Y06460*
X05755Y06449*
X05753Y06437*
X05755Y06424*
X05759Y06413*
X05760Y06413*
Y06327*
X05720*
X05714Y06326*
X05710Y06323*
X05705Y06326*
X05700Y06327*
X05660*
X05654Y06326*
X05649Y06322*
X05646Y06318*
X05646Y06316*
X05430*
X05415Y06330*
Y06415*
X05413Y06424*
X05408Y06433*
X05368Y06473*
X05359Y06478*
X05350Y06480*
X05240*
X05230Y06478*
X05222Y06473*
X05198Y06449*
X05193Y06441*
X05192Y06439*
X05189Y06438*
X05184Y06435*
X05180Y06430*
X05179Y06424*
Y06385*
X05180Y06379*
X05183Y06375*
X05180Y06370*
X05179Y06364*
Y06345*
X05175Y06343*
X05170Y06348*
Y06380*
X05168Y06386*
X05165Y06390*
X05160Y06394*
X05154Y06395*
X05115*
X05109Y06394*
X05104Y06390*
X05101Y06386*
X05100Y06380*
Y06372*
X05094*
Y06378*
X05093Y06383*
X05090Y06388*
X05085Y06392*
X05079Y06393*
X05020*
X05014Y06392*
X05009Y06388*
X05006Y06383*
X05005Y06378*
Y06375*
X05003Y06374*
X05000Y06372*
X04997Y06373*
X04982*
Y06341*
X04977*
Y06336*
X04947*
Y06319*
X04948Y06315*
X04949Y06314*
X04950Y06312*
X04948Y06307*
X04947Y06306*
X04943Y06301*
X04942Y06296*
Y06285*
X04923Y06266*
X04918Y06260*
X04915Y06252*
X04914Y06245*
Y06182*
X04913Y06181*
X04906Y06172*
X04901Y06161*
X04900Y06150*
X04901Y06138*
X04906Y06127*
X04908Y06124*
X04905Y06120*
X04810*
Y06261*
X04964Y06415*
X04968Y06422*
X04970Y06430*
Y06585*
X04968Y06592*
X04964Y06599*
X04891Y06672*
X04893Y06677*
X04902*
X04910Y06678*
X04916Y06683*
X05010Y06776*
X05014Y06783*
X05016Y06791*
Y06944*
X05032Y06960*
X05034Y06960*
X05039Y06960*
X05044Y06957*
Y06755*
X05046Y06745*
X05052Y06737*
X05070Y06718*
X05072Y06717*
X05070Y06712*
X05066*
X05057Y06710*
X05048Y06705*
X05036Y06692*
X05015*
X05009Y06691*
X05004Y06687*
X05003Y06686*
X04998Y06685*
X04995Y06688*
X04991Y06695*
X04986Y06701*
X04980Y06706*
X04973Y06710*
X04965Y06711*
X04957Y06710*
X04949Y06706*
X04943Y06701*
X04938Y06695*
X04935Y06688*
X04934Y06680*
X04935Y06672*
X04938Y06664*
X04943Y06658*
X04949Y06653*
X04957Y06650*
X04959Y06649*
X04971Y06637*
X04979Y06631*
X04989Y06630*
X05001*
X05001Y06628*
X05004Y06623*
Y06621*
X05001Y06616*
X05000Y06610*
Y06566*
X05001Y06561*
X05004Y06556*
X05009Y06552*
X05015Y06551*
X05055*
X05060Y06552*
X05065Y06556*
X05069Y06561*
X05069Y06563*
X05080*
Y06557*
X05081Y06551*
X05085Y06546*
X05089Y06543*
X05095Y06542*
X05154*
X05160Y06543*
X05165Y06546*
X05169Y06551*
X05170Y06557*
Y06563*
X05171Y06563*
X05180Y06569*
X05203Y06592*
X05208Y06600*
X05210Y06610*
Y06725*
X05208Y06734*
X05203Y06743*
X05196Y06750*
X05198Y06755*
X05238*
X05244Y06756*
X05249Y06759*
X05251*
X05256Y06756*
X05261Y06755*
X05305*
X05311Y06756*
X05315Y06759*
X05316Y06760*
X05317Y06760*
X05325Y06759*
X05333Y06760*
X05340Y06763*
X05346Y06768*
X05351Y06774*
X05355Y06782*
X05356Y06790*
X05355Y06798*
X05351Y06805*
X05346Y06811*
X05340Y06816*
X05333Y06820*
X05325Y06821*
X05317Y06820*
X05316Y06819*
X05315Y06820*
X05311Y06823*
X05305Y06825*
X05261*
X05256Y06823*
X05251Y06820*
X05249*
X05244Y06823*
X05238Y06825*
X05194*
X05189Y06823*
X05184Y06820*
X05180Y06815*
X05180Y06812*
X05161*
X05157Y06818*
X05147Y06825*
X05136Y06830*
X05125Y06831*
X05113Y06830*
X05102Y06825*
X05100Y06823*
X05095Y06825*
Y06848*
X05100Y06850*
X05102Y06848*
X05113Y06843*
X05125Y06842*
X05136Y06843*
X05147Y06848*
X05157Y06855*
X05161Y06861*
X05180*
X05180Y06859*
X05184Y06854*
X05189Y06851*
X05194Y06850*
X05238*
X05244Y06851*
X05249Y06854*
X05251*
X05256Y06851*
X05261Y06850*
X05305*
X05311Y06851*
X05315Y06854*
X05316Y06855*
X05317Y06855*
X05325Y06854*
X05333Y06855*
X05340Y06858*
X05346Y06863*
X05351Y06869*
X05355Y06877*
X05356Y06885*
X05355Y06893*
X05351Y06900*
X05346Y06906*
X05340Y06911*
X05333Y06915*
X05325Y06916*
X05317Y06915*
X05316Y06914*
X05315Y06915*
X05311Y06918*
X05305Y06920*
X05261*
X05256Y06918*
X05251Y06915*
X05249*
X05244Y06918*
X05238Y06920*
X05194*
X05189Y06918*
X05184Y06915*
X05182Y06912*
X05161*
X05157Y06918*
X05147Y06925*
X05136Y06930*
X05125Y06931*
X05113Y06930*
X05102Y06925*
X05100Y06923*
X05095Y06925*
Y06953*
X05100Y06956*
X05105Y06952*
X05115Y06948*
X05120Y06947*
Y06987*
X05125*
Y06992*
X05164*
X05163Y06997*
X05159Y07006*
X05154Y07014*
X05155Y07019*
X05300*
X05301Y07014*
X05300Y07013*
X05296Y07008*
X05293Y07001*
X05293Y07000*
X05344*
X05343Y07001*
X05341Y07008*
X05337Y07013*
X05335Y07014*
X05337Y07019*
X05369*
X05419Y06969*
G37*
G36*
X01615Y07740D02*
X01769D01*
X01782Y07727*
X01790Y07721*
X01800Y07719*
X02329*
X02384Y07664*
Y07276*
X02384Y07275*
X02383Y07268*
Y07205*
X02384Y07198*
X02386Y07191*
X02391Y07185*
X02396Y07181*
X02398Y07180*
X02400Y07174*
X02400Y07173*
X02392Y07168*
X02347Y07123*
X02341Y07114*
X02339Y07105*
Y06980*
X02341Y06970*
X02347Y06962*
X02379Y06929*
X02380Y06927*
X02383Y06919*
X02388Y06913*
X02394Y06908*
X02402Y06905*
X02410Y06904*
X02418Y06905*
X02425Y06908*
X02431Y06913*
X02434Y06917*
X02439Y06915*
Y06909*
X02441Y06901*
X02445Y06895*
X02467Y06874*
X02464Y06869*
X02460Y06870*
X02453Y06869*
X02446Y06866*
X02441Y06862*
X02438Y06858*
X02437Y06858*
X02433*
X02432Y06858*
X02429Y06862*
X02423Y06866*
X02417Y06869*
X02410Y06870*
X02403Y06869*
X02396Y06866*
X02391Y06862*
X02386Y06856*
X02384Y06850*
X02383Y06843*
Y06820*
X02279Y06716*
X02273Y06707*
X02271Y06698*
Y06621*
X02266Y06619*
X02263Y06623*
X02218Y06668*
X02210Y06674*
X02200Y06679*
X02190Y06680*
X01996*
X01985Y06691*
Y06930*
X01984Y06940*
X01979Y06950*
X01973Y06958*
X01903Y07028*
X01895Y07034*
X01885Y07039*
X01875Y07040*
X01485*
X01474Y07039*
X01464Y07034*
X01456Y07028*
X01450Y07020*
X01446Y07010*
X01444Y07000*
X01446Y06989*
X01450Y06979*
X01456Y06971*
X01464Y06965*
X01474Y06961*
X01485Y06959*
X01858*
X01904Y06913*
Y06675*
X01906Y06664*
X01910Y06654*
X01916Y06646*
X01951Y06611*
X01959Y06605*
X01969Y06601*
X01970Y06600*
X01970Y06600*
X01972Y06595*
X01971Y06593*
X01970Y06590*
Y06569*
X02010*
X02050*
Y06590*
X02049Y06593*
X02048Y06594*
X02051Y06599*
X02173*
X02194Y06578*
Y06532*
X02193Y06532*
X02188Y06528*
X02185Y06523*
X02184Y06518*
Y06423*
X02185Y06417*
X02188Y06412*
X02193Y06409*
X02199Y06408*
X02270*
X02271Y06407*
Y06372*
X02270Y06371*
X02199*
X02193Y06370*
X02188Y06367*
X02185Y06362*
X02184Y06356*
Y06339*
X02160*
Y06356*
X02159Y06362*
X02156Y06367*
X02151Y06370*
X02145Y06371*
X02074*
X02068Y06370*
X02063Y06367*
X02060Y06362*
X02059Y06356*
Y06262*
X02060Y06256*
X02063Y06251*
X02068Y06247*
X02074Y06246*
X02145*
X02151Y06247*
X02156Y06251*
X02159Y06256*
X02160Y06262*
Y06279*
X02184*
Y06262*
X02185Y06256*
X02188Y06251*
X02193Y06247*
X02199Y06246*
X02270*
X02271Y06245*
Y06097*
X02264Y06090*
X01535*
X01527Y06095*
X01516Y06100*
X01505Y06101*
X01493Y06100*
X01491Y06099*
X01466Y06124*
X01460Y06128*
X01452Y06130*
X01440*
X01438Y06134*
X01439Y06137*
X01443Y06146*
X01444Y06152*
X01405*
Y06157*
X01400*
Y06196*
X01395Y06195*
X01385Y06191*
X01377Y06185*
X01376Y06183*
X01371Y06185*
Y06421*
X01376Y06422*
X01379Y06415*
X01383Y06409*
X01395Y06398*
X01394Y06394*
Y06355*
X01395Y06349*
X01396Y06348*
Y06343*
X01391Y06340*
X01387Y06335*
X01386Y06329*
Y06270*
X01387Y06264*
X01391Y06259*
X01396Y06256*
X01402Y06255*
X01453*
X01459Y06256*
X01464Y06259*
X01465Y06261*
X01469Y06263*
X01471Y06262*
X01472Y06261*
X01476Y06260*
X01497*
Y06300*
Y06339*
X01476*
X01472Y06338*
X01471Y06337*
X01469Y06336*
X01465Y06338*
X01464Y06339*
X01464Y06342*
X01464Y06345*
X01465Y06346*
X01469Y06348*
X01471Y06347*
X01472Y06345*
X01476Y06345*
X01493*
Y06375*
Y06404*
X01476*
X01472Y06404*
X01471Y06403*
X01469Y06401*
X01465Y06404*
X01464Y06405*
X01459Y06408*
X01457Y06409*
X01456Y06416*
X01453Y06423*
X01449Y06429*
X01435Y06443*
Y06459*
X01437Y06460*
X01444Y06469*
X01448Y06480*
X01450Y06492*
X01448Y06503*
X01444Y06514*
X01439Y06520*
X01441Y06525*
X01442Y06526*
X01449Y06530*
X01469Y06550*
X01472Y06554*
X01478Y06556*
X01482Y06553*
X01493Y06548*
X01505Y06547*
X01516Y06548*
X01527Y06553*
X01537Y06560*
X01544Y06569*
X01548Y06580*
X01550Y06592*
X01548Y06603*
X01544Y06614*
X01537Y06623*
X01527Y06630*
X01516Y06635*
X01505Y06636*
X01493Y06635*
X01490Y06634*
X01487Y06638*
X01497Y06648*
X01505Y06647*
X01516Y06648*
X01527Y06653*
X01537Y06660*
X01544Y06669*
X01548Y06680*
X01550Y06692*
X01548Y06703*
X01544Y06714*
X01537Y06723*
X01527Y06730*
X01516Y06735*
X01505Y06736*
X01493Y06735*
X01482Y06730*
X01477Y06733*
X01477Y06735*
X01491Y06749*
X01493Y06748*
X01505Y06747*
X01516Y06748*
X01527Y06753*
X01537Y06760*
X01544Y06769*
X01548Y06780*
X01550Y06792*
X01548Y06803*
X01544Y06814*
X01537Y06823*
X01527Y06830*
X01516Y06835*
X01505Y06836*
X01493Y06835*
X01482Y06830*
X01473Y06823*
X01466Y06814*
X01461Y06803*
X01460Y06792*
X01461Y06780*
X01462Y06778*
X01440Y06756*
X01436Y06749*
X01434Y06741*
Y06731*
X01430Y06729*
X01427Y06730*
X01416Y06735*
X01405Y06736*
X01393Y06735*
X01382Y06730*
X01373Y06723*
X01366Y06714*
X01365Y06712*
X01359Y06710*
X01352Y06706*
X01300Y06654*
X01296Y06647*
X01294Y06640*
Y06529*
X01289Y06526*
X01283Y06529*
X01273Y06530*
X01262Y06529*
X01259Y06527*
X01255Y06530*
Y07680*
Y08500*
X01615*
Y07740*
G37*
G36*
X04454Y07164D02*
X04455Y07157D01*
X04458Y07149*
X04463Y07143*
X04469Y07138*
X04477Y07135*
X04485Y07134*
X04493Y07135*
X04500Y07138*
X04506Y07143*
X04510Y07148*
X04511Y07148*
X04516Y07145*
Y07122*
X04505*
Y07090*
X04500*
Y07085*
X04470*
Y07068*
X04471Y07064*
X04472Y07063*
X04473Y07061*
X04471Y07057*
X04469Y07056*
X04468Y07053*
X04462Y07052*
X04458Y07056*
X04459Y07061*
X04458Y07069*
X04454Y07076*
X04454Y07077*
X04453Y07079*
X04449Y07086*
X04442Y07090*
X04435Y07092*
X04431Y07091*
X04428Y07092*
X04420Y07091*
X04412Y07087*
X04406Y07082*
X04403Y07079*
X04398Y07081*
Y07081*
X04397Y07085*
X04395Y07088*
X04392Y07090*
X04388Y07091*
X04367*
Y07052*
X04357*
Y07091*
X04337*
X04333Y07090*
X04331Y07089*
X04329Y07088*
X04325Y07090*
X04324Y07092*
X04319Y07095*
X04313Y07096*
X04262*
X04256Y07095*
X04251Y07092*
X04248Y07087*
X04247Y07082*
X04244*
X04239Y07083*
X04231Y07082*
X04223Y07078*
X04217Y07073*
X04212Y07067*
X04209Y07060*
X04208Y07052*
X04209Y07044*
X04212Y07036*
X04217Y07030*
X04223Y07025*
X04231Y07022*
X04239Y07021*
X04244Y07021*
X04247*
X04248Y07016*
X04251Y07011*
X04256Y07008*
X04258Y07008*
X04258Y07004*
X04259Y07001*
Y06962*
X04261Y06956*
X04261Y06955*
X04259Y06953*
X04258Y06951*
X04255Y06952*
X04240*
Y06920*
X04230*
Y06952*
X04215*
X04211Y06951*
X04210Y06950*
X04205Y06953*
Y06965*
X04203Y06972*
X04199Y06979*
X04175Y07003*
Y07100*
X04173Y07107*
X04170Y07112*
X04171Y07115*
X04170Y07123*
X04166Y07130*
X04161Y07136*
X04155Y07141*
X04148Y07145*
X04140Y07146*
X04132Y07145*
X04128Y07143*
X04121Y07145*
X04116Y07151*
X04110Y07156*
X04103Y07160*
X04095Y07161*
X04087Y07160*
X04083Y07158*
X03983*
X03980Y07163*
X03981Y07170*
X03980Y07178*
X03978Y07180*
X03981Y07184*
X04169*
X04175Y07184*
X04183Y07185*
X04190Y07188*
X04196Y07193*
X04201Y07199*
X04205Y07207*
X04206Y07215*
X04205Y07223*
X04204Y07225*
X04206Y07229*
X04388*
X04454Y07164*
G37*
G36*
X03134Y06881D02*
Y06860D01*
X03133Y06858*
X03132Y06858*
X03128*
X03127Y06858*
X03124Y06862*
X03118Y06866*
X03112Y06869*
X03105Y06870*
X03098Y06869*
X03091Y06866*
X03086Y06862*
X03081Y06856*
X03079Y06850*
X03078Y06843*
Y06828*
X03073Y06827*
X03070Y06831*
X03069Y06832*
X03067Y06836*
X03068Y06838*
X03069Y06839*
X03070Y06843*
Y06860*
X03040*
Y06870*
X03070*
Y06887*
X03069Y06891*
X03067Y06894*
X03066Y06894*
X03063Y06897*
X03064Y06901*
X03065Y06904*
X03065Y06906*
X03040*
Y06916*
X03065*
X03065Y06917*
X03064Y06920*
X03067Y06925*
X03090*
X03134Y06881*
G37*
G36*
X05449Y07241D02*
X05453Y07235D01*
X05460Y07230*
X05467Y07227*
X05475Y07226*
X05493*
X05494Y07225*
X05495Y07222*
X05493Y07217*
X05398*
X05390Y07215*
X05383Y07211*
X05355Y07183*
X05350Y07185*
Y07192*
X05318*
Y07202*
X05350*
Y07216*
X05349Y07220*
X05347Y07223*
X05344Y07226*
X05343Y07231*
X05343Y07233*
X05344Y07239*
X05346Y07240*
X05349Y07241*
X05353Y07235*
X05360Y07230*
X05367Y07227*
X05375Y07226*
X05415*
X05423Y07227*
X05430Y07230*
X05436Y07235*
X05441Y07241*
X05442Y07244*
X05448*
X05449Y07241*
G37*
G36*
X02908Y06609D02*
D01*
X02915Y06605*
X02923Y06603*
X02967*
X03045Y06525*
X03051Y06521*
X03059Y06519*
X03106*
X03134Y06491*
Y06435*
X03133Y06433*
X03132Y06433*
X03128*
X03127Y06433*
X03124Y06437*
X03118Y06441*
X03112Y06444*
X03105Y06445*
X03098Y06444*
X03091Y06441*
X03086Y06437*
X03081Y06431*
X03079Y06425*
X03078Y06418*
Y06403*
X03073Y06402*
X03070Y06406*
X03069Y06407*
X03067Y06411*
X03068Y06413*
X03069Y06414*
X03070Y06418*
Y06435*
X03040*
Y06445*
X03070*
Y06462*
X03069Y06466*
X03067Y06469*
X03065Y06470*
X03063Y06473*
X03063Y06476*
X03065Y06481*
X03065Y06483*
X03040*
Y06488*
X03035*
Y06513*
X03033Y06513*
X03027Y06510*
X03022Y06506*
X03019Y06503*
X03013Y06503*
X03008Y06509*
X03002Y06514*
X02995Y06518*
X02987Y06519*
X02979Y06518*
X02971Y06514*
X02965Y06509*
X02960Y06503*
X02957Y06496*
X02956Y06488*
X02956Y06485*
X02951Y06482*
X02871Y06562*
X02865Y06566*
X02857Y06568*
X02774*
X02773Y06573*
X02776Y06575*
X02780Y06582*
X02782Y06591*
Y06597*
X02786Y06600*
X02788Y06599*
X02790Y06599*
Y06625*
Y06650*
X02788Y06650*
X02786Y06649*
X02782Y06652*
Y06654*
X02781Y06661*
X02783Y06666*
X02851*
X02908Y06609*
G37*
G36*
X07120Y06090D02*
X06541D01*
X06513Y06118*
X06504Y06123*
X06495Y06125*
X06200*
X06190Y06123*
X06182Y06118*
X06154Y06090*
X05955*
Y06146*
X05954Y06152*
X05950Y06157*
X05945Y06160*
X05944Y06160*
Y06171*
X05945Y06172*
X05950Y06175*
X05954Y06180*
X05954Y06181*
X05956*
X05964Y06182*
X05971Y06185*
X05978Y06190*
X05996Y06208*
X06001Y06214*
X06004Y06222*
X06005Y06230*
Y06330*
X06004Y06337*
X06001Y06345*
X05996Y06351*
X05969Y06378*
X05963Y06382*
X05956Y06385*
X05948Y06386*
X05939*
X05938Y06388*
X05938Y06391*
X05942Y06394*
X05945Y06399*
X05947Y06405*
Y06468*
X05945Y06474*
X05942Y06479*
X05937Y06482*
X05931Y06483*
X05868*
X05863Y06482*
X05858Y06479*
X05854Y06474*
X05853Y06468*
Y06405*
X05854Y06399*
X05858Y06394*
X05863Y06391*
X05868Y06390*
X05869*
Y06360*
X05870Y06352*
X05873Y06344*
X05878Y06338*
X05881Y06335*
X05885Y06332*
X05884Y06327*
X05880*
X05874Y06326*
X05870Y06323*
X05865Y06326*
X05859Y06327*
X05840*
Y06413*
X05840Y06413*
X05845Y06424*
X05847Y06437*
X05845Y06449*
X05843Y06455*
Y06639*
X05843Y06642*
Y06701*
X05842Y06707*
X05839Y06712*
X05838Y06713*
X05834Y06716*
X05835Y06722*
Y06736*
X05877Y06777*
X05882Y06784*
X05885Y06791*
X05885Y06796*
X05888Y06797*
X05891Y06802*
X05892Y06808*
Y06808*
X06039*
X06047Y06809*
X06054Y06812*
X06060Y06817*
X06086Y06843*
X06091Y06849*
X06094Y06857*
X06095Y06865*
Y07184*
X06210*
X06217Y07185*
X06225Y07188*
X06231Y07193*
X06399Y07361*
X06697*
X06698Y07360*
X06707Y07353*
X06718Y07348*
X06730Y07347*
X06741Y07348*
X06749Y07351*
X06790*
X06794Y07348*
X06800Y07347*
X06859*
X06865Y07348*
X06870Y07351*
X06874Y07356*
X06875Y07362*
Y07421*
X06874Y07427*
X06870Y07432*
Y07473*
X06873Y07480*
X06875Y07492*
X06873Y07503*
X06869Y07514*
X06862Y07523*
X06852Y07530*
X06841Y07535*
X06830Y07536*
X06818Y07535*
X06811Y07532*
X06749*
X06741Y07535*
X06730Y07536*
X06718Y07535*
X06707Y07530*
X06698Y07523*
X06691Y07514*
X06686Y07503*
X06685Y07492*
X06686Y07480*
X06690Y07473*
Y07422*
X06387*
X06379Y07421*
X06371Y07418*
X06365Y07413*
X06197Y07245*
X06070*
X06065Y07246*
X06057Y07245*
X06049Y07241*
X06043Y07236*
X06038Y07230*
X06035Y07223*
X06034Y07215*
X06034Y07209*
Y06877*
X06026Y06869*
X05898*
X05897Y06870*
X05900Y06875*
X05990*
X05995Y06876*
X06000Y06880*
X06004Y06885*
X06005Y06891*
Y07130*
X06004Y07135*
X06000Y07140*
X05995Y07144*
X05990Y07145*
X05844*
X05844Y07146*
X05839Y07149*
X05833Y07150*
X05697*
X05691Y07149*
X05686Y07146*
X05686Y07145*
X05555*
X05549Y07144*
X05544Y07140*
X05540Y07135*
X05539Y07130*
Y06950*
X05526*
Y06957*
X05527Y06963*
X05526Y06971*
X05522Y06978*
X05517Y06984*
X05511Y06989*
X05504Y06993*
X05496Y06994*
X05488Y06993*
X05480Y06989*
X05474Y06985*
X05469Y06986*
X05468Y06989*
X05463Y06997*
X05398Y07063*
X05389Y07068*
X05380Y07070*
X05100*
X05090Y07068*
X05082Y07063*
X05058Y07039*
X05053Y07041*
Y07114*
X05058Y07119*
X05060Y07119*
X05068Y07120*
X05075Y07123*
X05081Y07128*
X05086Y07134*
X05087Y07136*
X05358*
X05365Y07138*
X05372Y07142*
X05406Y07176*
X05494*
X05495Y07171*
X05499Y07166*
X05504Y07163*
X05509Y07162*
X05553*
X05559Y07163*
X05564Y07166*
X05566*
X05571Y07163*
X05576Y07162*
X05620*
X05626Y07163*
X05630Y07166*
X05634Y07171*
X05635Y07177*
Y07216*
X05634Y07222*
X05631Y07226*
X05631Y07228*
X05632Y07232*
X05636Y07235*
X05641Y07241*
X05642Y07244*
X05648*
X05649Y07241*
X05653Y07235*
X05660Y07230*
X05667Y07227*
X05675Y07226*
X05715*
X05723Y07227*
X05730Y07230*
X05736Y07235*
X05741Y07241*
X05744Y07249*
X05745Y07257*
Y07287*
X05744Y07294*
X05741Y07302*
X05736Y07308*
X05730Y07313*
X05723Y07316*
X05715Y07317*
X05675*
X05667Y07316*
X05660Y07313*
X05653Y07308*
X05649Y07302*
X05648Y07299*
X05642*
X05641Y07302*
X05636Y07308*
X05630Y07313*
X05623Y07316*
X05615Y07317*
X05575*
X05567Y07316*
X05560Y07313*
X05553Y07308*
X05549Y07302*
X05548Y07299*
X05542*
X05541Y07302*
X05536Y07308*
X05530Y07313*
X05525Y07315*
Y07332*
X05526Y07336*
X05525Y07339*
Y07346*
X05524Y07354*
X05521Y07361*
X05516Y07368*
X05493Y07391*
X05487Y07396*
X05479Y07399*
X05472Y07400*
X04740*
X04732Y07399*
X04724Y07396*
X04718Y07391*
X04673Y07346*
X04669Y07340*
X04666Y07333*
X04665Y07325*
Y07272*
X04666Y07264*
X04668Y07259*
Y07242*
X04669Y07236*
X04672Y07231*
X04677Y07228*
X04683Y07227*
X04707*
X04713Y07228*
X04717Y07231*
X04721Y07236*
X04722Y07242*
Y07259*
X04724Y07264*
X04725Y07272*
Y07312*
X04752Y07339*
X05459*
X05464Y07335*
X05465Y07328*
X05465Y07327*
Y07315*
X05460Y07313*
X05453Y07308*
X05449Y07302*
X05448Y07299*
X05442*
X05441Y07302*
X05436Y07308*
X05430Y07313*
X05423Y07316*
X05415Y07317*
X05375*
X05367Y07316*
X05360Y07313*
X05353Y07308*
X05349Y07302*
X05346Y07294*
X05345Y07287*
Y07257*
X05345Y07256*
X05340Y07254*
X05337Y07258*
X05331Y07262*
X05325Y07265*
X05323Y07265*
Y07240*
X05313*
Y07265*
X05312Y07265*
X05305Y07262*
X05305Y07262*
X05300Y07264*
Y07287*
X05299Y07294*
X05296Y07302*
X05291Y07308*
X05285Y07313*
X05278Y07316*
X05270Y07317*
X05230*
X05222Y07316*
X05215Y07313*
X05208Y07308*
X05204Y07302*
X05196*
X05191Y07308*
X05185Y07313*
X05178Y07316*
X05170Y07317*
X05130*
X05122Y07316*
X05115Y07313*
X05108Y07308*
X05104Y07302*
X05103Y07299*
X05097*
X05096Y07302*
X05091Y07308*
X05085Y07313*
X05078Y07316*
X05070Y07317*
X05030*
X05022Y07316*
X05015Y07313*
X05008Y07308*
X05004Y07302*
X05001Y07294*
X05000Y07289*
X04995Y07289*
X04993Y07296*
X04988Y07305*
X04980Y07310*
X04970Y07312*
X04955*
Y07272*
X04950*
Y07267*
X04904*
Y07257*
X04906Y07247*
X04912Y07239*
X04920Y07233*
X04929Y07231*
X04930Y07226*
X04926Y07226*
X04923Y07223*
X04920Y07220*
X04920Y07216*
Y07202*
X04951*
Y07192*
X04920*
Y07177*
X04900*
Y07216*
X04899Y07222*
X04896Y07227*
X04891Y07230*
X04885Y07232*
X04842*
X04836Y07230*
X04831Y07227*
X04829*
X04825Y07230*
Y07272*
X04824Y07279*
X04822Y07285*
Y07289*
X04821Y07296*
X04818Y07303*
X04814Y07308*
X04808Y07313*
X04802Y07315*
X04795Y07316*
X04788Y07315*
X04781Y07313*
X04776Y07308*
X04771Y07303*
X04769Y07296*
X04768Y07289*
Y07285*
X04766Y07279*
X04765Y07272*
Y07227*
X04764Y07227*
X04761Y07222*
X04759Y07216*
Y07177*
X04761Y07171*
X04764Y07166*
X04769Y07163*
X04775Y07162*
X04818*
X04824Y07163*
X04829Y07166*
X04831*
X04836Y07163*
X04842Y07162*
X04847*
X04849Y07158*
X04865Y07142*
X04872Y07138*
X04880Y07136*
X04950*
X04954Y07132*
Y07073*
X04953Y07071*
X04948Y07065*
X04945Y07058*
X04944Y07050*
X04945Y07042*
X04948Y07034*
X04953Y07028*
X04958Y07024*
X04959Y07018*
X04945Y07004*
X04941Y06997*
X04939Y06990*
Y06861*
X04935Y06859*
X04933Y06860*
X04925Y06861*
X04917Y06860*
X04909Y06856*
X04903Y06851*
X04902Y06851*
X04855*
X04847Y06849*
X04841Y06845*
X04812Y06816*
X04800*
X04800Y06816*
Y06833*
X04770*
Y06843*
X04800*
Y06860*
X04799Y06864*
X04798Y06865*
X04797Y06867*
X04799Y06872*
X04800Y06873*
X04802Y06874*
X04809*
X04815Y06874*
X04823Y06875*
X04830Y06878*
X04836Y06883*
X04841Y06889*
X04845Y06897*
X04846Y06905*
X04845Y06913*
X04841Y06920*
X04836Y06926*
X04830Y06931*
X04823Y06935*
X04815Y06936*
X04809Y06935*
X04802*
X04800Y06937*
X04800Y06938*
Y07014*
X04799Y07022*
X04796Y07029*
X04791Y07036*
X04645Y07182*
X04641Y07186*
X04635Y07191*
X04628Y07195*
X04620Y07196*
X04612Y07195*
X04604Y07191*
X04601Y07189*
X04597Y07187*
X04593Y07189*
X04590Y07191*
X04583Y07195*
X04575Y07196*
X04567Y07195*
X04559Y07191*
X04553Y07186*
X04549Y07181*
X04543Y07180*
X04446Y07277*
X04449Y07281*
X04455Y07277*
X04464Y07273*
X04470Y07272*
Y07307*
X04435*
X04436Y07301*
X04440Y07291*
X04444Y07286*
X04440Y07283*
X04439Y07284*
X04432Y07288*
X04425Y07290*
X04257*
X04254Y07295*
Y07295*
X04255Y07299*
Y07319*
X04215*
Y07329*
X04255*
Y07350*
X04254Y07354*
X04253Y07355*
X04252Y07357*
X04254Y07362*
X04255Y07363*
X04259Y07368*
X04259Y07369*
X04389*
X04397Y07370*
X04404Y07373*
X04410Y07378*
X04414Y07381*
X04441*
X04443Y07379*
X04452Y07372*
X04463Y07368*
X04475Y07366*
X04487Y07368*
X04498Y07372*
X04499Y07373*
X04504Y07369*
X04511Y07366*
X04519Y07365*
X04523*
X04524Y07363*
X04526Y07362*
X04528Y07357*
X04527Y07355*
X04526Y07354*
X04525Y07350*
Y07333*
X04555*
X04585*
Y07350*
X04584Y07354*
X04583Y07355*
X04582Y07357*
X04584Y07362*
X04585Y07363*
X04589Y07368*
X04590Y07373*
Y07417*
X04589Y07423*
X04585Y07427*
X04580Y07431*
X04575Y07432*
X04535*
X04529Y07431*
X04527Y07430*
X04524Y07433*
X04518Y07438*
X04510Y07441*
X04509Y07441*
X04507Y07444*
X04498Y07451*
X04487Y07455*
X04475Y07457*
X04463Y07455*
X04452Y07451*
X04443Y07444*
X04441Y07442*
X04402*
X04394Y07441*
X04386Y07438*
X04380Y07433*
X04376Y07429*
X04259*
X04259Y07430*
X04255Y07435*
X04250Y07439*
X04244Y07440*
X04185*
X04179Y07439*
X04175Y07435*
X04170*
X04165Y07439*
X04159Y07440*
X04100*
X04094Y07439*
X04090Y07435*
X04086Y07430*
X04085Y07425*
Y07373*
X04086Y07368*
X04090Y07363*
X04091Y07362*
X04093Y07357*
X04092Y07355*
X04091Y07354*
X04090Y07350*
Y07329*
X04130*
Y07319*
X04090*
Y07315*
X04086Y07313*
X04069Y07329*
X04063Y07333*
X04055Y07335*
X03858*
X03794Y07399*
X03787Y07403*
X03780Y07405*
X03625*
X03617Y07403*
X03610Y07399*
X03556Y07345*
X03423*
X03420Y07350*
X03423Y07355*
X03425Y07365*
Y07365*
X03430Y07366*
X03431Y07365*
X03436Y07361*
X03443Y07358*
X03450Y07358*
X03457Y07358*
X03463Y07361*
X03469Y07365*
X03472Y07369*
X03473Y07369*
X03477*
X03478Y07369*
X03481Y07365*
X03486Y07361*
X03493Y07358*
X03500Y07358*
X03507Y07358*
X03513Y07361*
X03519Y07365*
X03523Y07371*
X03526Y07378*
X03527Y07385*
Y07391*
X03531*
X03541Y07392*
X03549Y07398*
X03565Y07414*
X03937*
X03939Y07413*
X03947Y07410*
X03955Y07409*
X03963Y07410*
X03970Y07413*
X03976Y07418*
X03981Y07424*
X03985Y07432*
X03986Y07440*
X03985Y07448*
X03983Y07450*
X03986Y07454*
X03990*
X03999Y07455*
X04007Y07459*
X04015Y07465*
X04020Y07472*
X04024Y07480*
X04025Y07490*
X04024Y07499*
X04020Y07507*
X04015Y07515*
X04007Y07520*
X03999Y07524*
X03990Y07525*
X03795*
X03785Y07524*
X03777Y07520*
X03770Y07515*
X03764Y07507*
X03760Y07499*
X03759Y07490*
X03760Y07480*
X03764Y07472*
X03766Y07470*
X03764Y07465*
X03555*
X03545Y07463*
X03537Y07458*
X03531Y07452*
X03526Y07454*
X03526Y07455*
X03523Y07461*
X03519Y07467*
X03513Y07471*
X03507Y07474*
X03500Y07475*
X03493Y07474*
X03486Y07471*
X03481Y07467*
X03478Y07463*
X03477Y07463*
X03473*
X03472Y07463*
X03469Y07467*
X03463Y07471*
X03457Y07474*
X03450Y07475*
X03443Y07474*
X03436Y07471*
X03431Y07467*
X03428Y07463*
X03427Y07463*
X03423*
X03422Y07463*
X03419Y07467*
X03413Y07471*
X03407Y07474*
X03400Y07475*
X03393Y07474*
X03386Y07471*
X03381Y07467*
X03376Y07461*
X03375Y07458*
X03374Y07457*
X03370Y07457*
X03366Y07463*
X03358Y07468*
X03355Y07469*
Y07416*
Y07363*
X03355Y07363*
X03358Y07359*
X03354Y07355*
X03305*
X03295Y07353*
X03287Y07348*
X03262Y07323*
X03256Y07315*
X03256Y07314*
X03254Y07314*
X03249Y07310*
X03246Y07305*
X03245Y07300*
Y07285*
X03240*
X03232Y07284*
X03226Y07279*
X03221Y07274*
X03216Y07276*
Y07299*
X03215Y07304*
X03211Y07309*
X03206Y07313*
X03201Y07314*
X03169*
X03163Y07313*
X03158Y07309*
X03155Y07304*
X03154Y07299*
Y07295*
X03125*
Y07300*
X03123Y07306*
X03120Y07310*
X03115Y07314*
Y07314*
Y07352*
X03116Y07354*
X03120Y07362*
X03121Y07370*
X03120Y07378*
X03116Y07385*
X03111Y07391*
X03105Y07396*
X03098Y07400*
X03090Y07401*
X03082Y07400*
X03074Y07396*
X03068Y07391*
X03063Y07385*
X03060Y07378*
X03059Y07370*
X03060Y07362*
X03063Y07354*
X03064Y07352*
Y07314*
Y07314*
X03059Y07310*
X03056Y07306*
X03055Y07300*
Y07256*
X03056Y07251*
X03059Y07246*
X03059Y07245*
X03057Y07241*
X03045*
X03042Y07245*
X03042Y07246*
X03045Y07251*
X03047Y07256*
Y07300*
X03045Y07306*
X03042Y07310*
X03037Y07314*
X03031Y07315*
X02992*
X02986Y07314*
X02981Y07310*
X02978Y07306*
X02977Y07300*
X02950*
X02950Y07301*
Y07352*
X02951Y07354*
X02955Y07362*
X02956Y07370*
X02955Y07378*
X02951Y07385*
X02946Y07391*
X02940Y07396*
X02933Y07400*
X02925Y07401*
X02917Y07400*
X02909Y07396*
X02903Y07391*
X02898Y07385*
X02895Y07378*
X02894Y07372*
X02890Y07369*
X02889Y07369*
X02886Y07370*
X02885Y07370*
Y07345*
Y07319*
X02886Y07319*
X02893Y07322*
X02894Y07323*
X02899Y07321*
Y07313*
X02898Y07313*
X02893Y07309*
X02890Y07304*
X02889Y07299*
Y07263*
X02890Y07257*
X02893Y07252*
X02898Y07249*
X02904Y07248*
X02935*
X02941Y07249*
X02946Y07252*
X02949Y07257*
X02950Y07259*
X02977*
Y07256*
X02978Y07251*
X02981Y07246*
Y07244*
X02978Y07239*
X02977Y07233*
X02973Y07230*
X02973Y07230*
X02962*
Y07202*
Y07174*
X02973*
X02977Y07175*
X02980Y07177*
X02981Y07179*
X02981*
X02986Y07175*
X02992Y07174*
X03030*
X03031Y07169*
X03027Y07168*
X03022Y07163*
X03017Y07158*
X03015Y07152*
X03015Y07150*
X03040*
Y07145*
X03045*
Y07120*
X03047Y07120*
X03053Y07123*
X03058Y07127*
X03060Y07128*
X03066*
X03068Y07126*
X03074Y07121*
X03082Y07118*
X03090Y07117*
X03098Y07118*
X03105Y07121*
X03111Y07126*
X03116Y07133*
X03120Y07140*
X03121Y07148*
X03120Y07154*
Y07168*
X03125Y07171*
X03126Y07170*
X03132Y07169*
X03163*
X03169Y07170*
X03174Y07174*
X03177Y07179*
X03179Y07184*
Y07207*
X03186Y07214*
X03191Y07212*
Y07184*
X03192Y07179*
X03196Y07174*
X03201Y07170*
X03207Y07169*
X03238*
X03244Y07170*
X03249Y07174*
X03251Y07177*
X03254Y07175*
X03260Y07174*
X03300*
X03305Y07175*
X03310Y07179*
X03314Y07183*
X03314Y07184*
X03326*
X03326Y07182*
X03331Y07176*
X03336Y07172*
X03343Y07169*
X03350Y07169*
X03357Y07169*
X03363Y07172*
X03369Y07176*
X03372Y07180*
X03373Y07180*
X03377*
X03378Y07180*
X03381Y07176*
X03385Y07173*
Y07169*
X03385Y07168*
X03379Y07163*
X03375Y07158*
X03372Y07152*
X03372Y07150*
X03398*
Y07145*
X03403*
Y07120*
X03404Y07120*
X03410Y07122*
X03410Y07122*
X03413Y07121*
X03415Y07120*
X03415Y07118*
X03418Y07115*
X03421Y07112*
X03425Y07112*
X03441*
Y07142*
X03451*
Y07112*
X03468*
X03472Y07112*
X03474Y07114*
X03475Y07115*
X03480Y07113*
X03481Y07111*
X03486Y07108*
X03486Y07108*
X03486Y07105*
X03487Y07097*
X03490Y07089*
X03491Y07088*
Y07083*
X03488*
X03482Y07082*
X03477Y07078*
X03473Y07073*
X03472Y07067*
X03467*
X03466Y07073*
X03463Y07078*
X03458Y07082*
X03452Y07083*
X03395*
X03389Y07082*
X03384Y07078*
X03381Y07073*
X03380Y07067*
Y07046*
X03381Y07040*
X03384Y07035*
X03389Y07032*
X03391Y07031*
Y07020*
X03389Y07020*
X03384Y07017*
X03381Y07012*
X03379Y07006*
Y06966*
X03380Y06963*
X03375Y06961*
X03374Y06963*
X03369Y06967*
X03362Y06970*
X03361Y06970*
Y06945*
Y06919*
X03362Y06919*
X03369Y06922*
X03374Y06926*
X03374Y06927*
X03379Y06925*
Y06907*
X03381Y06901*
X03383Y06897*
X03381Y06895*
X03379Y06885*
Y06863*
X03374Y06861*
X03374Y06862*
X03368Y06866*
X03362Y06869*
X03355Y06870*
X03348Y06869*
X03341Y06866*
X03336Y06862*
X03333Y06858*
X03332Y06858*
X03328*
X03327Y06858*
X03324Y06862*
Y06866*
X03326Y06868*
X03331Y06874*
X03335Y06882*
X03336Y06890*
X03335Y06898*
X03331Y06905*
X03326Y06911*
X03320Y06916*
X03313Y06920*
X03305Y06921*
X03302Y06920*
X03297Y06923*
X03290Y06925*
X03273*
X03271Y06930*
X03272Y06932*
X03275Y06938*
X03275Y06940*
X03250*
Y06945*
X03245*
Y06970*
X03243Y06970*
X03237Y06967*
X03231Y06963*
X03227Y06958*
X03224Y06951*
X03224Y06945*
X03158*
X03119Y06984*
X03112Y06988*
X03105Y06990*
X02943*
X02903Y07030*
Y07170*
X02904Y07170*
X02909Y07174*
X02912Y07179*
X02913Y07184*
Y07220*
X02912Y07226*
X02909Y07231*
X02904Y07234*
X02898Y07235*
X02866*
X02865Y07236*
Y07317*
X02870Y07321*
X02873Y07319*
X02875Y07319*
Y07345*
Y07370*
X02873Y07370*
X02870Y07368*
X02865Y07372*
Y07514*
X02885Y07534*
X04120*
X04129Y07536*
X04138Y07542*
X04336Y07740*
X04405*
X04407Y07735*
X04388Y07716*
X04383Y07710*
X04380Y07702*
X04379Y07695*
Y07535*
X04380Y07527*
X04383Y07519*
X04388Y07513*
X04411Y07490*
X04417Y07485*
X04425Y07482*
X04433Y07481*
X04441*
X04443Y07479*
X04452Y07472*
X04463Y07468*
X04475Y07466*
X04487Y07468*
X04498Y07472*
X04507Y07479*
X04514Y07489*
X04519Y07500*
X04520Y07512*
X04519Y07523*
X04514Y07534*
X04507Y07544*
X04498Y07551*
X04487Y07555*
X04475Y07557*
X04463Y07555*
X04452Y07551*
X04444Y07544*
X04440Y07547*
Y07575*
X04445Y07578*
X04452Y07572*
X04463Y07568*
X04475Y07566*
X04487Y07568*
X04498Y07572*
X04498Y07573*
X04506Y07565*
X04512Y07560*
X04520Y07557*
X04528Y07556*
X04529*
X04529Y07556*
X04531Y07555*
Y07528*
X04532Y07520*
X04535Y07513*
X04540Y07506*
X04560Y07486*
X04566Y07482*
X04573Y07479*
X04581Y07478*
X04659*
Y07470*
X04660Y07462*
X04663Y07454*
X04668Y07448*
X04688Y07428*
X04694Y07423*
X04702Y07420*
X04710Y07419*
X04820*
X04827Y07420*
X04835Y07423*
X04841Y07428*
X04852Y07439*
X05572*
X05674Y07337*
X05680Y07332*
X05688Y07329*
X05696Y07328*
X05826*
X05876Y07278*
X05883Y07273*
X05890Y07270*
X05898Y07269*
X06120*
X06127Y07270*
X06135Y07273*
X06141Y07278*
X06181Y07318*
X06186Y07325*
X06189Y07332*
X06190Y07340*
Y07408*
X06195Y07409*
X06200Y07413*
X06204Y07409*
X06210Y07408*
X06269*
X06275Y07409*
X06280Y07413*
X06284Y07418*
X06284Y07419*
X06294*
X06302Y07420*
X06309Y07423*
X06316Y07428*
X06336Y07448*
X06341Y07454*
X06344Y07462*
X06345Y07470*
Y07547*
X06347Y07549*
X06543*
X06551Y07550*
X06558Y07553*
X06565Y07558*
X06746Y07740*
X07120*
Y06090*
G37*
G36*
X04070Y07075D02*
X04077Y07071D01*
X04082Y07070*
X04083Y07069*
X04088Y07063*
X04094Y07058*
X04102Y07055*
X04110Y07054*
X04118Y07055*
X04125Y07058*
X04129Y07061*
X04134Y07058*
Y06995*
X04136Y06987*
X04140Y06980*
X04164Y06956*
Y06835*
X04166Y06827*
X04170Y06821*
X04168Y06816*
X04130*
X04123Y06814*
X04117Y06810*
X04115Y06811*
X04107Y06810*
X04099Y06806*
X04093Y06801*
X04089Y06797*
X04084Y06798*
X04082Y06803*
X04078Y06810*
X04057Y06831*
X04059Y06835*
X04060Y06841*
Y07057*
X04059Y07063*
X04056Y07068*
X04051Y07071*
X04045Y07073*
X03966*
X03960Y07071*
X03955Y07068*
X03952Y07063*
X03951Y07057*
Y06994*
X03903*
X03896Y06992*
X03889Y06988*
X03863Y06962*
X03835*
X03829Y06961*
X03824Y06957*
X03821Y06953*
X03820Y06947*
Y06903*
X03821Y06898*
X03824Y06893*
X03826Y06892*
X03828Y06887*
X03827Y06885*
X03826Y06884*
X03825Y06880*
Y06863*
X03855*
X03885*
Y06880*
X03884Y06884*
X03883Y06885*
X03882Y06887*
X03884Y06892*
X03885Y06893*
X03889Y06898*
X03890Y06903*
Y06931*
X03912Y06953*
X03951*
Y06841*
X03952Y06835*
X03955Y06830*
X03960Y06827*
X03966Y06826*
X04005*
X04043Y06787*
Y06765*
X04045Y06758*
X04049Y06751*
X04071Y06730*
X04069Y06725*
X04015*
X04007Y06723*
X04000Y06719*
X03990Y06709*
X03986Y06703*
X03985Y06699*
X03966*
X03960Y06697*
X03955Y06694*
X03952Y06689*
X03951Y06683*
Y06620*
X03912*
X03890Y06642*
Y06670*
X03889Y06676*
X03885Y06681*
X03884Y06682*
X03882Y06686*
X03883Y06688*
X03884Y06689*
X03885Y06693*
Y06710*
X03825*
Y06693*
X03826Y06689*
X03827Y06688*
X03828Y06686*
X03826Y06682*
X03824Y06681*
X03821Y06676*
X03820Y06670*
Y06626*
X03821Y06621*
X03824Y06616*
X03829Y06612*
X03835Y06611*
X03863*
X03889Y06585*
X03896Y06581*
X03903Y06579*
X03951*
Y06467*
X03952Y06461*
X03955Y06456*
X03960Y06453*
X03966Y06451*
X04045*
X04051Y06453*
X04056Y06456*
X04058Y06459*
X04063*
X04063Y06459*
X04068Y06453*
X04078Y06443*
X04084Y06438*
X04092Y06435*
X04100Y06434*
X04105*
Y06396*
X04106Y06390*
X04109Y06385*
X04114Y06382*
X04115Y06381*
Y06377*
X04117Y06368*
X04115Y06363*
X04103*
X04100Y06367*
X04101Y06370*
X04100Y06378*
X04096Y06385*
X04091Y06391*
X04085Y06396*
X04078Y06400*
X04070Y06401*
X04062Y06400*
X04054Y06396*
X04048Y06391*
X04043Y06385*
X04040Y06378*
X04039Y06370*
X04039Y06367*
X04036Y06363*
X03805*
X03744Y06424*
Y06756*
X03749Y06759*
X03755Y06759*
X03763Y06760*
X03770Y06763*
X03776Y06768*
X03781Y06774*
X03785Y06782*
X03786Y06790*
X03785Y06798*
X03781Y06805*
X03776Y06811*
X03775Y06813*
Y06946*
X03829Y07000*
X03833Y07007*
X03834Y07011*
X03836Y07013*
X03841Y07019*
X03845Y07027*
X03846Y07035*
X03845Y07043*
X03841Y07050*
X03836Y07056*
X03832Y07060*
X03831Y07066*
X03865Y07099*
X04046*
X04070Y07075*
G37*
G36*
X04401Y06998D02*
X04406Y06992D01*
X04408Y06990*
X04409Y06987*
X04413Y06980*
X04441Y06953*
Y06933*
X04436Y06931*
X04430Y06935*
X04422Y06937*
X04413Y06935*
X04407Y06931*
X04406*
X04402Y06934*
X04395Y06939*
X04388Y06940*
X04330*
Y06942*
X04329Y06948*
X04328Y06948*
X04330Y06952*
X04335Y06954*
X04336Y06954*
X04338Y06952*
X04342Y06952*
X04358*
Y06982*
X04363*
Y06987*
X04395*
Y06998*
X04400Y06999*
X04401Y06998*
G37*
G36*
X04675Y06458D02*
X04676Y06456D01*
X04678Y06455*
Y06446*
X04679Y06438*
X04679Y06437*
Y06402*
X04663Y06386*
X04658Y06380*
X04655Y06372*
X04654Y06365*
Y06284*
X04649Y06283*
X04644Y06280*
X04641Y06275*
X04640Y06269*
Y06220*
X04635Y06218*
X04627Y06226*
X04628Y06228*
X04629Y06240*
X04628Y06251*
X04623Y06262*
X04616Y06271*
X04607Y06278*
X04596Y06283*
X04585Y06284*
X04573Y06283*
X04565Y06280*
X04560Y06283*
Y06302*
X04608Y06349*
X04610Y06349*
X04618Y06350*
X04625Y06353*
X04631Y06358*
X04636Y06364*
X04640Y06372*
X04641Y06380*
X04640Y06388*
X04636Y06395*
X04631Y06401*
X04625Y06406*
X04618Y06410*
X04610Y06411*
X04602Y06410*
X04594Y06406*
X04588Y06401*
X04583Y06395*
X04580Y06388*
X04579Y06380*
X04579Y06378*
X04526Y06324*
X04521Y06318*
X04520Y06310*
Y06275*
X04515Y06273*
X04507Y06278*
X04496Y06283*
X04485Y06284*
X04473Y06283*
X04462Y06278*
X04453Y06271*
X04446Y06262*
X04441Y06251*
X04440Y06240*
X04441Y06228*
X04446Y06217*
X04453Y06208*
X04462Y06201*
X04473Y06196*
X04485Y06195*
X04496Y06196*
X04507Y06201*
X04515Y06207*
X04520Y06204*
Y06167*
X04515Y06165*
X04513Y06168*
X04504Y06174*
X04495Y06178*
X04490Y06179*
Y06140*
Y06100*
X04495Y06101*
X04504Y06105*
X04513Y06111*
X04515Y06114*
X04517Y06114*
X04520Y06112*
X04521Y06106*
X04526Y06099*
X04531Y06094*
X04529Y06090*
X04285*
X04279Y06093*
X04270Y06095*
X03473*
X03472Y06100*
X03473Y06101*
X03477Y06107*
X03480Y06113*
X03480Y06115*
X03430*
X03430Y06113*
X03432Y06107*
X03437Y06101*
X03438Y06100*
X03436Y06095*
X03331*
X03328Y06100*
X03331Y06104*
X03335Y06112*
X03336Y06120*
X03335Y06128*
X03331Y06135*
X03326Y06141*
X03325Y06142*
Y06148*
X03327Y06150*
X03328Y06150*
X03332*
X03333Y06150*
X03336Y06146*
X03341Y06142*
X03348Y06139*
X03355Y06139*
X03362Y06139*
X03368Y06142*
X03374Y06146*
X03377Y06150*
X03378Y06150*
X03382*
X03383Y06150*
X03386Y06146*
X03391Y06142*
X03398Y06139*
X03405Y06139*
X03412Y06139*
X03418Y06142*
X03424Y06146*
X03428Y06152*
X03430Y06156*
X03430Y06156*
X03435Y06156*
X03439Y06150*
X03442Y06148*
X03442Y06142*
X03437Y06138*
X03432Y06133*
X03430Y06126*
X03430Y06125*
X03480*
X03480Y06126*
X03477Y06133*
X03473Y06138*
X03468Y06142*
X03467Y06148*
X03471Y06150*
X03475Y06157*
X03477Y06166*
Y06192*
X03455*
Y06197*
X03450*
Y06250*
X03446Y06249*
X03439Y06244*
X03435Y06238*
X03430Y06238*
X03430Y06239*
X03428Y06242*
X03424Y06248*
X03418Y06252*
X03412Y06255*
X03410Y06255*
X03395Y06269*
X03397Y06274*
X03520*
X03520Y06274*
X03524Y06270*
X03524Y06269*
X03524Y06265*
X03525Y06257*
X03528Y06249*
X03533Y06243*
X03539Y06238*
X03547Y06235*
X03555Y06234*
X03563Y06235*
X03570Y06238*
X03576Y06243*
X03578Y06244*
X03636*
X03690Y06190*
X03697Y06186*
X03705Y06184*
X04345*
X04353Y06186*
X04359Y06190*
X04609Y06440*
X04614Y06438*
Y06438*
X04617Y06432*
X04621Y06426*
X04627Y06422*
X04633Y06419*
X04635Y06419*
Y06445*
X04640*
Y06450*
X04665*
X04665Y06451*
X04664Y06452*
X04667Y06457*
X04672Y06459*
X04675Y06458*
G37*
G36*
X05364Y06404D02*
Y06320D01*
X05366Y06310*
X05372Y06302*
X05401Y06272*
X05409Y06266*
X05419Y06265*
X05646*
X05646Y06263*
X05649Y06258*
X05651Y06257*
X05653Y06252*
X05652Y06250*
X05651Y06249*
X05650Y06245*
Y06228*
X05680*
Y06223*
X05685*
Y06191*
X05700*
X05703Y06192*
X05705Y06193*
X05710Y06191*
X05710Y06191*
Y06186*
X05711Y06182*
X05713Y06178*
X05716Y06176*
X05720Y06175*
X05745*
Y06211*
X05755*
Y06175*
X05779*
X05783Y06176*
X05787Y06178*
X05787Y06179*
X05793*
X05793Y06178*
X05796Y06176*
X05800Y06175*
X05825*
Y06211*
X05835*
Y06175*
X05859*
X05863Y06176*
X05870Y06175*
X05874Y06172*
X05880Y06170*
X05884*
Y06160*
X05882Y06160*
X05877Y06157*
X05876Y06155*
X05872Y06153*
X05870Y06154*
X05868Y06155*
X05865Y06156*
X05844*
Y06117*
X05839*
Y06112*
X05803*
Y06090*
X05564*
Y06115*
X05566Y06116*
X05570Y06119*
X05574Y06124*
X05574*
X05581*
X05581Y06124*
X05584Y06119*
X05589Y06115*
X05595Y06114*
X05634*
X05640Y06115*
X05645Y06119*
X05648Y06124*
X05650Y06129*
Y06173*
X05648Y06179*
X05645Y06184*
X05644Y06185*
X05641Y06189*
X05643Y06191*
X05644Y06192*
X05644Y06196*
Y06213*
X05585*
Y06196*
X05585Y06192*
X05587Y06191*
X05588Y06189*
X05586Y06185*
X05584Y06184*
X05581Y06179*
X05580Y06175*
X05574*
X05574*
X05570Y06180*
X05566Y06183*
X05560Y06185*
X05516*
X05511Y06183*
X05508Y06182*
X05505Y06180*
X05501Y06182*
X05499Y06183*
X05493Y06185*
X05449*
X05444Y06183*
X05439Y06180*
X05435Y06175*
X05434Y06170*
X05355*
X05347Y06168*
X05340Y06164*
X05325Y06149*
X05325Y06149*
X05320Y06150*
Y06154*
X05319Y06160*
X05315Y06165*
X05311Y06168*
X05305Y06170*
X05303*
Y06175*
X05311*
X05317Y06176*
X05322Y06180*
X05326Y06184*
X05327Y06190*
Y06214*
X05326Y06220*
X05322Y06225*
X05317Y06228*
X05311Y06229*
X05303*
Y06250*
X05311*
X05317Y06251*
X05322Y06254*
X05326Y06259*
X05327Y06265*
Y06289*
X05326Y06295*
X05322Y06300*
X05317Y06303*
X05311Y06304*
X05303*
Y06310*
X05305*
X05311Y06311*
X05315Y06314*
X05319Y06319*
X05320Y06325*
Y06364*
X05319Y06370*
X05315Y06375*
X05314Y06376*
X05312Y06378*
X05314Y06381*
X05315Y06385*
Y06400*
X05283*
Y06410*
X05315*
Y06424*
X05319Y06429*
X05339*
X05364Y06404*
G37*
%LNde-130817-2*%
%LPC*%
G36*
X02820Y07040D02*
X02800D01*
Y07019*
X02801Y07019*
X02808Y07022*
X02813Y07026*
X02817Y07032*
X02820Y07038*
X02820Y07040*
G37*
G36*
X02800Y07070D02*
Y07050D01*
X02820*
X02820Y07051*
X02817Y07058*
X02813Y07063*
X02808Y07067*
X02801Y07070*
X02800Y07070*
G37*
G36*
X05700Y06483D02*
X05688Y06482D01*
X05676Y06477*
X05667Y06470*
X05659Y06460*
X05655Y06449*
X05653Y06437*
X05655Y06424*
X05659Y06413*
X05667Y06403*
X05676Y06396*
X05688Y06391*
X05700Y06390*
X05712Y06391*
X05723Y06396*
X05733Y06403*
X05740Y06413*
X05745Y06424*
X05747Y06437*
X05745Y06449*
X05740Y06460*
X05733Y06470*
X05723Y06477*
X05712Y06482*
X05700Y06483*
G37*
G36*
X05722Y06555D02*
X05702D01*
X05702Y06553*
X05705Y06547*
X05709Y06541*
X05714Y06537*
X05721Y06534*
X05722Y06534*
Y06555*
G37*
G36*
X05753D02*
X05732D01*
Y06534*
X05734Y06534*
X05740Y06537*
X05746Y06541*
X05750Y06547*
X05753Y06553*
X05753Y06555*
G37*
G36*
X05722Y06585D02*
X05721Y06585D01*
X05714Y06582*
X05709Y06578*
X05705Y06573*
X05702Y06566*
X05702Y06565*
X05722*
Y06585*
G37*
G36*
X05732D02*
Y06565D01*
X05753*
X05753Y06566*
X05750Y06573*
X05746Y06578*
X05740Y06582*
X05734Y06585*
X05732Y06585*
G37*
G36*
X04972Y06373D02*
X04957D01*
X04954Y06372*
X04950Y06370*
X04948Y06366*
X04947Y06363*
Y06346*
X04972*
Y06373*
G37*
G36*
X05344Y06990D02*
X05323D01*
Y06969*
X05325Y06969*
X05331Y06972*
X05337Y06976*
X05341Y06982*
X05343Y06988*
X05344Y06990*
G37*
G36*
X05669Y06834D02*
X05642D01*
Y06808*
X05643Y06804*
X05645Y06801*
X05649Y06799*
X05653Y06798*
X05669*
Y06834*
G37*
G36*
X05726Y06771D02*
X05710D01*
X05706Y06771*
X05703Y06768*
X05700Y06765*
X05700Y06761*
Y06747*
X05726*
Y06771*
G37*
G36*
X05722Y06667D02*
X05692D01*
Y06642*
X05692Y06638*
X05695Y06635*
X05698Y06633*
X05702Y06632*
X05722*
Y06667*
G37*
G36*
X05164Y06982D02*
X05130D01*
Y06947*
X05135Y06948*
X05145Y06952*
X05153Y06958*
X05159Y06967*
X05163Y06976*
X05164Y06982*
G37*
G36*
X05313Y06990D02*
X05293D01*
X05293Y06988*
X05296Y06982*
X05300Y06976*
X05305Y06972*
X05312Y06969*
X05313Y06969*
Y06990*
G37*
G36*
X05625Y06833D02*
X05600D01*
Y06806*
X05615*
X05618Y06807*
X05622Y06809*
X05624Y06813*
X05625Y06816*
Y06833*
G37*
G36*
X05706Y06834D02*
X05679D01*
Y06798*
X05696*
X05700Y06799*
X05703Y06801*
X05705Y06804*
X05706Y06808*
Y06834*
G37*
G36*
X05440Y06829D02*
X05405D01*
Y06809*
X05406Y06805*
X05408Y06801*
X05411Y06799*
X05415Y06798*
X05440*
Y06829*
G37*
G36*
X01534Y06531D02*
X01510D01*
Y06497*
X01545*
Y06521*
X01544Y06525*
X01542Y06528*
X01538Y06530*
X01534Y06531*
G37*
G36*
X01500D02*
X01475D01*
X01471Y06530*
X01468Y06528*
X01466Y06525*
X01465Y06521*
Y06497*
X01500*
Y06531*
G37*
G36*
X02050Y06559D02*
X02010D01*
X01970*
Y06538*
X01971Y06534*
X01972Y06533*
X01973Y06531*
X01971Y06527*
X01970Y06526*
X01968Y06523*
X01962*
X01960Y06526*
X01959Y06527*
X01957Y06531*
X01958Y06533*
X01959Y06534*
X01960Y06538*
Y06555*
X01930*
X01900*
Y06538*
X01901Y06534*
X01902Y06533*
X01903Y06531*
X01901Y06527*
X01899Y06526*
X01896Y06521*
X01896Y06519*
X01884*
X01883Y06525*
X01880Y06530*
X01875Y06533*
X01869Y06534*
X01810*
X01804Y06533*
X01799Y06530*
X01796Y06525*
X01795Y06519*
Y06460*
X01796Y06454*
X01799Y06449*
X01804Y06446*
X01810Y06445*
X01869*
X01875Y06446*
X01880Y06449*
X01883Y06454*
X01884Y06459*
X01902*
X01904Y06457*
X01910Y06456*
X01950*
X01955Y06457*
X01958Y06459*
X01966*
X01966Y06458*
X01970Y06453*
X01974Y06449*
X01980Y06448*
Y06411*
X01979Y06410*
X01976Y06406*
X01975Y06400*
Y06356*
X01976Y06351*
X01979Y06346*
X01977Y06341*
X01977Y06340*
X01955*
X01950Y06341*
X01942Y06340*
X01934Y06336*
X01928Y06331*
X01923Y06325*
X01920Y06318*
X01919Y06310*
X01920Y06302*
X01923Y06294*
X01928Y06288*
X01934Y06283*
X01942Y06280*
X01950Y06279*
X01955Y06279*
X01979*
X01979Y06279*
X01984Y06275*
X01990Y06274*
X02029*
X02035Y06275*
X02040Y06279*
X02043Y06284*
X02045Y06289*
Y06333*
X02043Y06339*
X02040Y06344*
Y06346*
X02043Y06351*
X02045Y06356*
Y06400*
X02043Y06406*
X02040Y06410*
Y06448*
X02045Y06449*
X02049Y06452*
X02052Y06449*
X02059Y06444*
X02059*
Y06423*
X02060Y06417*
X02063Y06412*
X02068Y06409*
X02074Y06408*
X02145*
X02151Y06409*
X02156Y06412*
X02159Y06417*
X02160Y06423*
Y06518*
X02159Y06523*
X02156Y06528*
X02151Y06532*
X02145Y06533*
X02074*
X02068Y06532*
X02063Y06528*
X02060Y06523*
X02059Y06519*
X02054*
X02054Y06521*
X02050Y06526*
X02049Y06527*
X02047Y06531*
X02048Y06533*
X02049Y06534*
X02050Y06538*
Y06559*
G37*
G36*
X01500Y06487D02*
X01465D01*
Y06462*
X01466Y06458*
X01468Y06455*
X01471Y06453*
X01475Y06452*
X01500*
Y06487*
G37*
G36*
X01545D02*
X01510D01*
Y06452*
X01534*
X01538Y06453*
X01542Y06455*
X01544Y06458*
X01545Y06462*
Y06487*
G37*
G36*
X01950Y06592D02*
X01935D01*
Y06565*
X01960*
Y06582*
X01959Y06586*
X01957Y06589*
X01953Y06591*
X01950Y06592*
G37*
G36*
X01925D02*
X01910D01*
X01906Y06591*
X01903Y06589*
X01901Y06586*
X01900Y06582*
Y06565*
X01925*
Y06592*
G37*
G36*
X01835Y06629D02*
X01829Y06628D01*
X01820Y06624*
X01811Y06618*
X01805Y06609*
X01801Y06600*
X01800Y06595*
X01835*
Y06629*
G37*
G36*
X01845D02*
Y06595D01*
X01879*
X01878Y06600*
X01874Y06609*
X01868Y06618*
X01859Y06624*
X01850Y06628*
X01845Y06629*
G37*
G36*
X01835Y06585D02*
X01800D01*
X01801Y06579*
X01805Y06570*
X01811Y06561*
X01820Y06555*
X01829Y06551*
X01835Y06550*
Y06585*
G37*
G36*
X01879D02*
X01845D01*
Y06550*
X01850Y06551*
X01859Y06555*
X01868Y06561*
X01874Y06570*
X01878Y06579*
X01879Y06585*
G37*
G36*
X01544Y06152D02*
X01510D01*
Y06117*
X01515Y06118*
X01525Y06122*
X01533Y06128*
X01539Y06137*
X01543Y06146*
X01544Y06152*
G37*
G36*
X01500D02*
X01466D01*
X01466Y06146*
X01470Y06137*
X01477Y06128*
X01485Y06122*
X01495Y06118*
X01500Y06117*
Y06152*
G37*
G36*
X01510Y06196D02*
Y06162D01*
X01544*
X01543Y06167*
X01539Y06176*
X01533Y06185*
X01525Y06191*
X01515Y06195*
X01510Y06196*
G37*
G36*
X01500D02*
X01495Y06195D01*
X01485Y06191*
X01477Y06185*
X01470Y06176*
X01466Y06167*
X01466Y06162*
X01500*
Y06196*
G37*
G36*
X01410D02*
Y06162D01*
X01444*
X01443Y06167*
X01439Y06176*
X01433Y06185*
X01425Y06191*
X01415Y06195*
X01410Y06196*
G37*
G36*
X01530Y06370D02*
X01503D01*
Y06345*
X01520*
X01524Y06345*
X01527Y06348*
X01529Y06351*
X01530Y06355*
Y06370*
G37*
G36*
X01520Y06404D02*
X01503D01*
Y06380*
X01530*
Y06394*
X01529Y06398*
X01527Y06401*
X01524Y06404*
X01520Y06404*
G37*
G36*
X01538Y06295D02*
X01507D01*
Y06260*
X01528*
X01531Y06261*
X01535Y06263*
X01537Y06266*
X01538Y06270*
Y06295*
G37*
G36*
X01528Y06339D02*
X01507D01*
Y06305*
X01538*
Y06329*
X01537Y06333*
X01535Y06336*
X01531Y06338*
X01528Y06339*
G37*
G36*
X01400Y07129D02*
X01375D01*
X01371Y07128*
X01368Y07126*
X01366Y07123*
X01365Y07119*
Y07095*
X01400*
Y07129*
G37*
G36*
X01434D02*
X01410D01*
Y07095*
X01445*
Y07119*
X01444Y07123*
X01442Y07126*
X01438Y07128*
X01434Y07129*
G37*
G36*
X01445Y07085D02*
X01410D01*
Y07050*
X01434*
X01438Y07051*
X01442Y07053*
X01444Y07056*
X01445Y07060*
Y07085*
G37*
G36*
X01400D02*
X01365D01*
Y07060*
X01366Y07056*
X01368Y07053*
X01371Y07051*
X01375Y07050*
X01400*
Y07085*
G37*
G36*
X01405Y08408D02*
X01393Y08406D01*
X01382Y08402*
X01373Y08394*
X01366Y08385*
X01361Y08374*
X01360Y08363*
X01361Y08351*
X01366Y08340*
X01373Y08331*
X01375Y08330*
Y08296*
X01373Y08294*
X01366Y08285*
X01361Y08274*
X01360Y08263*
X01361Y08251*
X01366Y08240*
X01373Y08231*
X01382Y08224*
X01393Y08219*
X01405Y08218*
X01407Y08218*
X01413Y08212*
X01411Y08207*
X01405Y08208*
X01393Y08206*
X01382Y08202*
X01373Y08194*
X01366Y08185*
X01361Y08174*
X01360Y08163*
X01361Y08151*
X01366Y08140*
X01373Y08131*
X01382Y08124*
X01393Y08119*
X01405Y08118*
X01413Y08119*
X01423Y08109*
X01420Y08105*
X01416Y08106*
X01405Y08108*
X01393Y08106*
X01382Y08102*
X01373Y08094*
X01366Y08085*
X01361Y08074*
X01360Y08063*
X01361Y08051*
X01366Y08040*
X01373Y08031*
X01382Y08024*
X01393Y08019*
X01405Y08018*
X01413Y08019*
X01423Y08009*
X01420Y08005*
X01416Y08006*
X01405Y08008*
X01393Y08006*
X01382Y08002*
X01373Y07994*
X01366Y07985*
X01361Y07974*
X01360Y07966*
X01276Y07882*
X01270Y07873*
X01268Y07864*
Y07680*
Y07301*
X01270Y07291*
X01276Y07283*
X01361Y07197*
X01360Y07190*
X01361Y07178*
X01366Y07167*
X01373Y07158*
X01382Y07151*
X01393Y07146*
X01405Y07145*
X01416Y07146*
X01427Y07151*
X01437Y07158*
X01444Y07167*
X01448Y07178*
X01450Y07190*
X01449Y07197*
X01555Y07304*
X02297*
X02299Y07303*
X02307Y07300*
X02315Y07299*
X02323Y07300*
X02330Y07303*
X02336Y07308*
X02341Y07314*
X02345Y07322*
X02346Y07330*
X02345Y07338*
X02343Y07340*
X02346Y07344*
X02348Y07345*
X02355Y07348*
X02361Y07353*
X02366Y07359*
X02370Y07367*
X02371Y07375*
X02370Y07377*
X02371Y07380*
Y07425*
X02369Y07434*
X02363Y07443*
X02341Y07465*
X02333Y07470*
X02323Y07472*
X02287*
X02277Y07470*
X02269Y07465*
X02221Y07418*
X01440*
X01437Y07421*
X01427Y07428*
X01416Y07433*
X01405Y07434*
X01397Y07433*
X01387Y07443*
X01390Y07447*
X01393Y07446*
X01405Y07445*
X01416Y07446*
X01427Y07451*
X01437Y07458*
X01444Y07467*
X01448Y07478*
X01450Y07490*
X01448Y07501*
X01444Y07512*
X01437Y07521*
X01435Y07522*
Y07557*
X01437Y07558*
X01444Y07567*
X01448Y07578*
X01450Y07590*
X01450Y07591*
X01542Y07684*
X01552Y07694*
X01557Y07700*
X01560Y07707*
X01561Y07715*
Y07740*
Y08137*
X01560Y08145*
X01557Y08152*
X01552Y08158*
X01450Y08261*
X01450Y08263*
X01448Y08274*
X01444Y08285*
X01437Y08294*
X01435Y08296*
Y08330*
X01437Y08331*
X01444Y08340*
X01448Y08351*
X01450Y08363*
X01448Y08374*
X01444Y08385*
X01437Y08394*
X01427Y08402*
X01416Y08406*
X01405Y08408*
G37*
G36*
Y06836D02*
X01393Y06835D01*
X01382Y06830*
X01373Y06823*
X01366Y06814*
X01361Y06803*
X01360Y06792*
X01361Y06780*
X01366Y06769*
X01373Y06760*
X01382Y06753*
X01393Y06748*
X01405Y06747*
X01416Y06748*
X01427Y06753*
X01437Y06760*
X01444Y06769*
X01448Y06780*
X01450Y06792*
X01448Y06803*
X01444Y06814*
X01437Y06823*
X01427Y06830*
X01416Y06835*
X01405Y06836*
G37*
G36*
X01840Y06734D02*
X01828Y06733D01*
X01817Y06728*
X01808Y06721*
X01801Y06712*
X01796Y06701*
X01795Y06690*
X01796Y06678*
X01801Y06667*
X01808Y06658*
X01817Y06651*
X01828Y06646*
X01840Y06645*
X01851Y06646*
X01862Y06651*
X01871Y06658*
X01878Y06667*
X01883Y06678*
X01884Y06690*
X01883Y06701*
X01878Y06712*
X01871Y06721*
X01862Y06728*
X01851Y06733*
X01840Y06734*
G37*
G36*
Y06834D02*
X01828Y06833D01*
X01817Y06828*
X01808Y06821*
X01801Y06812*
X01796Y06801*
X01795Y06790*
X01796Y06778*
X01801Y06767*
X01808Y06758*
X01817Y06751*
X01828Y06746*
X01840Y06745*
X01851Y06746*
X01862Y06751*
X01871Y06758*
X01878Y06767*
X01883Y06778*
X01884Y06790*
X01883Y06801*
X01878Y06812*
X01871Y06821*
X01862Y06828*
X01851Y06833*
X01840Y06834*
G37*
G36*
Y06934D02*
X01828Y06933D01*
X01817Y06928*
X01808Y06921*
X01801Y06912*
X01796Y06901*
X01795Y06890*
X01796Y06878*
X01801Y06867*
X01808Y06858*
X01817Y06851*
X01828Y06846*
X01840Y06845*
X01851Y06846*
X01862Y06851*
X01871Y06858*
X01878Y06867*
X01883Y06878*
X01884Y06890*
X01883Y06901*
X01878Y06912*
X01871Y06921*
X01862Y06928*
X01851Y06933*
X01840Y06934*
G37*
G36*
X04495Y07122D02*
X04480D01*
X04476Y07121*
X04473Y07119*
X04471Y07116*
X04470Y07112*
Y07095*
X04495*
Y07122*
G37*
G36*
X03045Y06513D02*
Y06493D01*
X03065*
X03065Y06494*
X03062Y06501*
X03058Y06506*
X03053Y06510*
X03047Y06513*
X03045Y06513*
G37*
G36*
X02800Y06650D02*
Y06630D01*
X02820*
X02820Y06631*
X02817Y06638*
X02813Y06643*
X02808Y06647*
X02801Y06650*
X02800Y06650*
G37*
G36*
X02820Y06620D02*
X02800D01*
Y06599*
X02801Y06599*
X02808Y06602*
X02813Y06606*
X02817Y06612*
X02820Y06618*
X02820Y06620*
G37*
G36*
X07015Y06551D02*
X06998D01*
Y06527*
X07025*
Y06541*
X07024Y06545*
X07022Y06548*
X07019Y06551*
X07015Y06551*
G37*
G36*
X06279Y06485D02*
X06220D01*
X06214Y06484*
X06210Y06480*
X06206Y06475*
X06205Y06470*
Y06410*
X06206Y06405*
X06210Y06400*
X06214Y06396*
X06220Y06395*
X06279*
X06285Y06396*
X06290Y06400*
X06294Y06405*
X06295Y06410*
Y06470*
X06294Y06475*
X06290Y06480*
X06285Y06484*
X06279Y06485*
G37*
G36*
X07025Y06517D02*
X06998D01*
Y06492*
X07015*
X07019Y06492*
X07022Y06495*
X07024Y06498*
X07025Y06502*
Y06517*
G37*
G36*
Y06617D02*
X06998D01*
Y06592*
X07015*
X07019Y06592*
X07022Y06595*
X07024Y06598*
X07025Y06602*
Y06617*
G37*
G36*
X06040Y06585D02*
Y06565D01*
X06060*
X06060Y06566*
X06057Y06573*
X06053Y06578*
X06048Y06582*
X06041Y06585*
X06040Y06585*
G37*
G36*
X07015Y06651D02*
X06998D01*
Y06627*
X07025*
Y06641*
X07024Y06645*
X07022Y06648*
X07019Y06651*
X07015Y06651*
G37*
G36*
X06030Y06585D02*
X06028Y06585D01*
X06022Y06582*
X06016Y06578*
X06012Y06573*
X06009Y06566*
X06009Y06565*
X06030*
Y06585*
G37*
G36*
Y06555D02*
X06009D01*
X06009Y06553*
X06012Y06547*
X06016Y06541*
X06022Y06537*
X06028Y06534*
X06030Y06534*
Y06555*
G37*
G36*
X06060D02*
X06040D01*
Y06534*
X06041Y06534*
X06048Y06537*
X06053Y06541*
X06057Y06547*
X06060Y06553*
X06060Y06555*
G37*
G36*
X06859Y06566D02*
X06800D01*
X06794Y06565*
X06790Y06562*
X06786Y06557*
X06785Y06552*
X06756*
X06756Y06552*
X06751Y06555*
X06745Y06557*
X06702*
X06696Y06555*
X06694Y06554*
X06690Y06552*
X06686Y06554*
X06684Y06555*
X06678Y06557*
X06635*
X06629Y06555*
X06624Y06552*
X06623Y06550*
X06621Y06547*
X06616Y06548*
X06613Y06550*
X06605Y06551*
X06597Y06550*
X06589Y06546*
X06587Y06545*
X06397*
X06395Y06546*
X06388Y06550*
X06380Y06551*
X06372Y06550*
X06364Y06546*
X06358Y06541*
X06353Y06535*
X06350Y06528*
X06349Y06520*
X06350Y06512*
X06353Y06504*
X06358Y06498*
X06364Y06493*
X06372Y06490*
X06380Y06489*
X06388Y06490*
X06395Y06493*
X06397Y06494*
X06587*
X06589Y06493*
X06597Y06490*
X06605Y06489*
X06613Y06490*
X06620Y06493*
X06624Y06491*
X06629Y06488*
X06635Y06487*
X06678*
X06684Y06488*
X06686Y06489*
X06690Y06491*
X06694Y06489*
X06696Y06488*
X06702Y06487*
X06745*
X06751Y06488*
X06756Y06491*
X06756Y06491*
X06785*
X06786Y06486*
X06790Y06481*
X06794Y06478*
X06800Y06477*
X06859*
X06865Y06478*
X06870Y06481*
X06874Y06486*
X06875Y06491*
X06894*
X06894Y06491*
X06899Y06488*
X06905Y06487*
X06948*
X06954Y06488*
X06959Y06491*
X06960Y06493*
X06964Y06495*
X06966Y06494*
X06968Y06492*
X06972Y06492*
X06988*
Y06522*
Y06551*
X06972*
X06968Y06551*
X06966Y06550*
X06964Y06548*
X06960Y06551*
X06959Y06552*
X06954Y06555*
X06948Y06557*
X06905*
X06899Y06555*
X06894Y06552*
X06894Y06552*
X06875*
X06874Y06557*
X06870Y06562*
X06865Y06565*
X06859Y06566*
G37*
G36*
X06289Y06238D02*
X06255D01*
Y06204*
X06260Y06205*
X06270Y06209*
X06278Y06215*
X06284Y06223*
X06288Y06233*
X06289Y06238*
G37*
G36*
X06825Y06242D02*
X06790D01*
Y06217*
X06791Y06213*
X06793Y06210*
X06796Y06208*
X06800Y06207*
X06825*
Y06242*
G37*
G36*
X06245Y06238D02*
X06211D01*
X06211Y06233*
X06215Y06223*
X06222Y06215*
X06230Y06209*
X06240Y06205*
X06245Y06204*
Y06238*
G37*
G36*
X06870Y06242D02*
X06835D01*
Y06207*
X06859*
X06863Y06208*
X06867Y06210*
X06869Y06213*
X06870Y06217*
Y06242*
G37*
G36*
X06725D02*
X06691D01*
X06691Y06236*
X06695Y06227*
X06702Y06218*
X06710Y06212*
X06720Y06208*
X06725Y06207*
Y06242*
G37*
G36*
X06769D02*
X06735D01*
Y06207*
X06740Y06208*
X06750Y06212*
X06758Y06218*
X06764Y06227*
X06768Y06236*
X06769Y06242*
G37*
G36*
X06245Y06282D02*
X06240Y06282D01*
X06230Y06278*
X06222Y06271*
X06215Y06263*
X06211Y06253*
X06211Y06248*
X06245*
Y06282*
G37*
G36*
X06769Y06342D02*
X06735D01*
Y06307*
X06740Y06308*
X06750Y06312*
X06758Y06318*
X06764Y06327*
X06768Y06336*
X06769Y06342*
G37*
G36*
X06869D02*
X06835D01*
Y06307*
X06840Y06308*
X06850Y06312*
X06858Y06318*
X06864Y06327*
X06868Y06336*
X06869Y06342*
G37*
G36*
X06725Y06386D02*
X06720Y06385D01*
X06710Y06381*
X06702Y06375*
X06695Y06366*
X06691Y06357*
X06691Y06352*
X06725*
Y06386*
G37*
G36*
X06835D02*
Y06352D01*
X06869*
X06868Y06357*
X06864Y06366*
X06858Y06375*
X06850Y06381*
X06840Y06385*
X06835Y06386*
G37*
G36*
X06825D02*
X06820Y06385D01*
X06810Y06381*
X06802Y06375*
X06795Y06366*
X06791Y06357*
X06791Y06352*
X06825*
Y06386*
G37*
G36*
X06735D02*
Y06352D01*
X06769*
X06768Y06357*
X06764Y06366*
X06758Y06375*
X06750Y06381*
X06740Y06385*
X06735Y06386*
G37*
G36*
X06725Y06286D02*
X06720Y06285D01*
X06710Y06281*
X06702Y06275*
X06695Y06266*
X06691Y06257*
X06691Y06252*
X06725*
Y06286*
G37*
G36*
X06735D02*
Y06252D01*
X06769*
X06768Y06257*
X06764Y06266*
X06758Y06275*
X06750Y06281*
X06740Y06285*
X06735Y06286*
G37*
G36*
X06255Y06282D02*
Y06248D01*
X06289*
X06288Y06253*
X06284Y06263*
X06278Y06271*
X06270Y06278*
X06260Y06282*
X06255Y06282*
G37*
G36*
X06825Y06286D02*
X06800D01*
X06796Y06285*
X06793Y06283*
X06791Y06280*
X06790Y06276*
Y06252*
X06825*
Y06286*
G37*
G36*
X06859D02*
X06835D01*
Y06252*
X06870*
Y06276*
X06869Y06280*
X06867Y06283*
X06863Y06285*
X06859Y06286*
G37*
G36*
X06725Y06342D02*
X06691D01*
X06691Y06336*
X06695Y06327*
X06702Y06318*
X06710Y06312*
X06720Y06308*
X06725Y06307*
Y06342*
G37*
G36*
X06825D02*
X06791D01*
X06791Y06336*
X06795Y06327*
X06802Y06318*
X06810Y06312*
X06820Y06308*
X06825Y06307*
Y06342*
G37*
G36*
X05345Y07100D02*
X05325D01*
Y07079*
X05326Y07079*
X05333Y07082*
X05338Y07086*
X05342Y07092*
X05345Y07098*
X05345Y07100*
G37*
G36*
X07025Y07117D02*
X06998D01*
Y07092*
X07015*
X07019Y07092*
X07022Y07095*
X07024Y07098*
X07025Y07102*
Y07117*
G37*
G36*
X05325Y07130D02*
Y07110D01*
X05345*
X05345Y07111*
X05342Y07118*
X05338Y07123*
X05333Y07127*
X05326Y07130*
X05325Y07130*
G37*
G36*
X03035Y07140D02*
X03015D01*
X03015Y07138*
X03017Y07132*
X03022Y07127*
X03027Y07123*
X03033Y07120*
X03035Y07120*
Y07140*
G37*
G36*
X05315Y07130D02*
X05313Y07130D01*
X05307Y07127*
X05301Y07123*
X05297Y07118*
X05294Y07111*
X05294Y07110*
X05315*
Y07130*
G37*
G36*
Y07100D02*
X05294D01*
X05294Y07098*
X05297Y07092*
X05301Y07086*
X05307Y07082*
X05313Y07079*
X05315Y07079*
Y07100*
G37*
G36*
X07015Y07051D02*
X06998D01*
Y07027*
X07025*
Y07041*
X07024Y07045*
X07022Y07048*
X07019Y07051*
X07015Y07051*
G37*
G36*
X07025Y07017D02*
X06998D01*
Y06992*
X07015*
X07019Y06992*
X07022Y06995*
X07024Y06998*
X07025Y07002*
Y07017*
G37*
G36*
X06830Y07066D02*
X06818Y07065D01*
X06807Y07060*
X06798Y07053*
X06797Y07052*
X06756*
X06756Y07052*
X06751Y07055*
X06745Y07057*
X06702*
X06696Y07055*
X06691Y07052*
X06689*
X06684Y07055*
X06678Y07057*
X06635*
X06629Y07055*
X06624Y07052*
X06623Y07050*
X06621Y07047*
X06616Y07048*
X06613Y07050*
X06605Y07051*
X06597Y07050*
X06589Y07046*
X06587Y07045*
X06397*
X06395Y07046*
X06388Y07050*
X06380Y07051*
X06372Y07050*
X06364Y07046*
X06358Y07041*
X06353Y07035*
X06350Y07028*
X06349Y07020*
X06350Y07012*
X06353Y07004*
X06358Y06998*
X06364Y06993*
X06372Y06990*
X06380Y06989*
X06388Y06990*
X06395Y06993*
X06397Y06994*
X06587*
X06589Y06993*
X06597Y06990*
X06605Y06989*
X06613Y06990*
X06620Y06993*
X06624Y06991*
X06629Y06988*
X06635Y06987*
X06678*
X06684Y06988*
X06689Y06991*
X06691*
X06696Y06988*
X06702Y06987*
X06745*
X06751Y06988*
X06756Y06991*
X06756Y06991*
X06797*
X06798Y06990*
X06807Y06983*
X06818Y06978*
X06830Y06977*
X06841Y06978*
X06852Y06983*
X06862Y06990*
X06863Y06991*
X06894*
X06894Y06991*
X06899Y06988*
X06905Y06987*
X06948*
X06954Y06988*
X06959Y06991*
X06960Y06993*
X06964Y06995*
X06966Y06994*
X06968Y06992*
X06972Y06992*
X06988*
Y07022*
Y07051*
X06972*
X06968Y07051*
X06966Y07050*
X06964Y07048*
X06960Y07051*
X06959Y07052*
X06954Y07055*
X06948Y07057*
X06905*
X06899Y07055*
X06894Y07052*
X06894Y07052*
X06863*
X06862Y07053*
X06852Y07060*
X06841Y07065*
X06830Y07066*
G37*
G36*
X04585Y07323D02*
X04560D01*
Y07296*
X04575*
X04578Y07297*
X04582Y07299*
X04584Y07303*
X04585Y07306*
Y07323*
G37*
G36*
X04470Y07351D02*
X04464Y07351D01*
X04455Y07346*
X04446Y07340*
X04440Y07332*
X04436Y07322*
X04435Y07317*
X04470*
Y07351*
G37*
G36*
X04945Y07312D02*
X04930D01*
X04920Y07310*
X04912Y07305*
X04906Y07296*
X04904Y07287*
Y07277*
X04945*
Y07312*
G37*
G36*
X04550Y07323D02*
X04525D01*
Y07306*
X04526Y07303*
X04528Y07299*
X04531Y07297*
X04535Y07296*
X04550*
Y07323*
G37*
G36*
X03345Y07469D02*
X03341Y07468D01*
X03334Y07463*
X03329Y07456*
X03328Y07448*
Y07421*
X03345*
Y07469*
G37*
G36*
X04480Y07351D02*
Y07317D01*
X04515*
X04514Y07322*
X04510Y07332*
X04503Y07340*
X04495Y07346*
X04485Y07351*
X04480Y07351*
G37*
G36*
X03345Y07411D02*
X03328D01*
Y07385*
X03329Y07376*
X03334Y07369*
X03341Y07364*
X03345Y07363*
Y07411*
G37*
G36*
X04515Y07307D02*
X04480D01*
Y07272*
X04485Y07273*
X04495Y07277*
X04503Y07283*
X04510Y07291*
X04514Y07301*
X04515Y07307*
G37*
G36*
X06830Y07166D02*
X06818Y07165D01*
X06807Y07160*
X06798Y07153*
X06797Y07152*
X06756*
X06756Y07152*
X06751Y07155*
X06745Y07157*
X06702*
X06696Y07155*
X06691Y07152*
X06689*
X06684Y07155*
X06678Y07157*
X06635*
X06629Y07155*
X06624Y07152*
X06623Y07150*
X06621Y07147*
X06616Y07148*
X06613Y07150*
X06605Y07151*
X06597Y07150*
X06589Y07146*
X06587Y07145*
X06397*
X06395Y07146*
X06388Y07150*
X06380Y07151*
X06372Y07150*
X06364Y07146*
X06358Y07141*
X06353Y07135*
X06350Y07128*
X06349Y07120*
X06350Y07112*
X06353Y07104*
X06358Y07098*
X06364Y07093*
X06372Y07090*
X06380Y07089*
X06388Y07090*
X06395Y07093*
X06397Y07094*
X06587*
X06589Y07093*
X06597Y07090*
X06605Y07089*
X06613Y07090*
X06620Y07093*
X06624Y07091*
X06629Y07088*
X06635Y07087*
X06678*
X06684Y07088*
X06689Y07091*
X06691*
X06696Y07088*
X06702Y07087*
X06745*
X06751Y07088*
X06756Y07091*
X06756Y07091*
X06797*
X06798Y07090*
X06807Y07083*
X06818Y07078*
X06830Y07077*
X06841Y07078*
X06852Y07083*
X06862Y07090*
X06863Y07091*
X06894*
X06894Y07091*
X06899Y07088*
X06905Y07087*
X06948*
X06954Y07088*
X06959Y07091*
X06960Y07093*
X06964Y07095*
X06966Y07094*
X06968Y07092*
X06972Y07092*
X06988*
Y07122*
Y07151*
X06972*
X06968Y07151*
X06966Y07150*
X06964Y07148*
X06960Y07151*
X06959Y07152*
X06954Y07155*
X06948Y07157*
X06905*
X06899Y07155*
X06894Y07152*
X06894Y07152*
X06863*
X06862Y07153*
X06852Y07160*
X06841Y07165*
X06830Y07166*
G37*
G36*
X02952Y07197D02*
X02931D01*
Y07184*
X02932Y07181*
X02934Y07177*
X02937Y07175*
X02941Y07174*
X02952*
Y07197*
G37*
G36*
X03393Y07140D02*
X03372D01*
X03372Y07138*
X03375Y07132*
X03379Y07127*
X03385Y07123*
X03391Y07120*
X03393Y07120*
Y07140*
G37*
G36*
X07015Y07151D02*
X06998D01*
Y07127*
X07025*
Y07141*
X07024Y07145*
X07022Y07148*
X07019Y07151*
X07015Y07151*
G37*
G36*
Y07251D02*
X06998D01*
Y07227*
X07025*
Y07241*
X07024Y07245*
X07022Y07248*
X07019Y07251*
X07015Y07251*
G37*
G36*
X06830Y07266D02*
X06818Y07265D01*
X06807Y07260*
X06798Y07253*
X06797Y07252*
X06756*
X06756Y07252*
X06751Y07255*
X06745Y07257*
X06702*
X06696Y07255*
X06691Y07252*
X06689*
X06684Y07255*
X06678Y07257*
X06635*
X06629Y07255*
X06624Y07252*
X06623Y07250*
X06621Y07247*
X06616Y07248*
X06613Y07250*
X06605Y07251*
X06597Y07250*
X06589Y07246*
X06587Y07245*
X06397*
X06395Y07246*
X06388Y07250*
X06380Y07251*
X06372Y07250*
X06364Y07246*
X06358Y07241*
X06353Y07235*
X06350Y07228*
X06349Y07220*
X06350Y07212*
X06353Y07204*
X06358Y07198*
X06364Y07193*
X06372Y07190*
X06380Y07189*
X06388Y07190*
X06395Y07193*
X06397Y07194*
X06587*
X06589Y07193*
X06597Y07190*
X06605Y07189*
X06613Y07190*
X06620Y07193*
X06624Y07191*
X06629Y07188*
X06635Y07187*
X06678*
X06684Y07188*
X06689Y07191*
X06691*
X06696Y07188*
X06702Y07187*
X06745*
X06751Y07188*
X06756Y07191*
X06756Y07191*
X06797*
X06798Y07190*
X06807Y07183*
X06818Y07178*
X06830Y07177*
X06841Y07178*
X06852Y07183*
X06862Y07190*
X06863Y07191*
X06894*
X06894Y07191*
X06899Y07188*
X06905Y07187*
X06948*
X06954Y07188*
X06959Y07191*
X06960Y07193*
X06964Y07195*
X06966Y07194*
X06968Y07192*
X06972Y07192*
X06988*
Y07222*
Y07251*
X06972*
X06968Y07251*
X06966Y07250*
X06964Y07248*
X06960Y07251*
X06959Y07252*
X06954Y07255*
X06948Y07257*
X06905*
X06899Y07255*
X06894Y07252*
X06894Y07252*
X06863*
X06862Y07253*
X06852Y07260*
X06841Y07265*
X06830Y07266*
G37*
G36*
X07025Y07217D02*
X06998D01*
Y07192*
X07015*
X07019Y07192*
X07022Y07195*
X07024Y07198*
X07025Y07202*
Y07217*
G37*
G36*
X02952Y07230D02*
X02941D01*
X02937Y07229*
X02934Y07227*
X02932Y07224*
X02931Y07220*
Y07207*
X02952*
Y07230*
G37*
G36*
X06830Y06766D02*
X06818Y06765D01*
X06807Y06760*
X06798Y06753*
X06797Y06752*
X06756*
X06756Y06752*
X06751Y06755*
X06745Y06757*
X06702*
X06696Y06755*
X06691Y06752*
X06689*
X06684Y06755*
X06678Y06757*
X06635*
X06629Y06755*
X06624Y06752*
X06623Y06750*
X06621Y06747*
X06616Y06748*
X06613Y06750*
X06605Y06751*
X06597Y06750*
X06589Y06746*
X06587Y06745*
X06397*
X06395Y06746*
X06388Y06750*
X06380Y06751*
X06372Y06750*
X06364Y06746*
X06358Y06741*
X06353Y06735*
X06350Y06728*
X06349Y06720*
X06350Y06712*
X06353Y06704*
X06358Y06698*
X06364Y06693*
X06372Y06690*
X06380Y06689*
X06388Y06690*
X06395Y06693*
X06397Y06694*
X06587*
X06589Y06693*
X06597Y06690*
X06605Y06689*
X06613Y06690*
X06620Y06693*
X06624Y06691*
X06629Y06688*
X06635Y06687*
X06678*
X06684Y06688*
X06686Y06689*
X06690Y06691*
X06694Y06689*
X06696Y06688*
X06702Y06687*
X06745*
X06751Y06688*
X06756Y06691*
X06756Y06691*
X06797*
X06798Y06690*
X06807Y06683*
X06818Y06678*
X06830Y06677*
X06841Y06678*
X06852Y06683*
X06862Y06690*
X06863Y06691*
X06894*
X06894Y06691*
X06899Y06688*
X06905Y06687*
X06948*
X06954Y06688*
X06959Y06691*
X06960Y06693*
X06964Y06695*
X06966Y06694*
X06968Y06692*
X06972Y06692*
X06988*
Y06722*
Y06751*
X06972*
X06968Y06751*
X06966Y06750*
X06964Y06748*
X06960Y06751*
X06959Y06752*
X06954Y06755*
X06948Y06757*
X06905*
X06899Y06755*
X06894Y06752*
X06894Y06752*
X06863*
X06862Y06753*
X06852Y06760*
X06841Y06765*
X06830Y06766*
G37*
G36*
X07025Y06817D02*
X06998D01*
Y06792*
X07015*
X07019Y06792*
X07022Y06795*
X07024Y06798*
X07025Y06802*
Y06817*
G37*
G36*
X06830Y06666D02*
X06818Y06665D01*
X06807Y06660*
X06798Y06653*
X06797Y06652*
X06756*
X06756Y06652*
X06751Y06655*
X06745Y06657*
X06702*
X06696Y06655*
X06694Y06654*
X06690Y06652*
X06686Y06654*
X06684Y06655*
X06678Y06657*
X06635*
X06629Y06655*
X06624Y06652*
X06623Y06650*
X06621Y06647*
X06616Y06648*
X06613Y06650*
X06605Y06651*
X06597Y06650*
X06589Y06646*
X06587Y06645*
X06397*
X06395Y06646*
X06388Y06650*
X06380Y06651*
X06372Y06650*
X06364Y06646*
X06358Y06641*
X06353Y06635*
X06350Y06628*
X06349Y06620*
X06350Y06612*
X06353Y06604*
X06358Y06598*
X06364Y06593*
X06372Y06590*
X06380Y06589*
X06388Y06590*
X06395Y06593*
X06397Y06594*
X06587*
X06589Y06593*
X06597Y06590*
X06605Y06589*
X06613Y06590*
X06620Y06593*
X06624Y06591*
X06629Y06588*
X06635Y06587*
X06678*
X06684Y06588*
X06686Y06589*
X06690Y06591*
X06694Y06589*
X06696Y06588*
X06702Y06587*
X06745*
X06751Y06588*
X06756Y06591*
X06756Y06591*
X06797*
X06798Y06590*
X06807Y06583*
X06818Y06578*
X06830Y06577*
X06841Y06578*
X06852Y06583*
X06862Y06590*
X06863Y06591*
X06894*
X06894Y06591*
X06899Y06588*
X06905Y06587*
X06948*
X06954Y06588*
X06959Y06591*
X06960Y06593*
X06964Y06595*
X06966Y06594*
X06968Y06592*
X06972Y06592*
X06988*
Y06622*
Y06651*
X06972*
X06968Y06651*
X06966Y06650*
X06964Y06648*
X06960Y06651*
X06959Y06652*
X06954Y06655*
X06948Y06657*
X06905*
X06899Y06655*
X06894Y06652*
X06894Y06652*
X06863*
X06862Y06653*
X06852Y06660*
X06841Y06665*
X06830Y06666*
G37*
G36*
X07025Y06717D02*
X06998D01*
Y06692*
X07015*
X07019Y06692*
X07022Y06695*
X07024Y06698*
X07025Y06702*
Y06717*
G37*
G36*
X07015Y06751D02*
X06998D01*
Y06727*
X07025*
Y06741*
X07024Y06745*
X07022Y06748*
X07019Y06751*
X07015Y06751*
G37*
G36*
X03255Y06970D02*
Y06950D01*
X03275*
X03275Y06951*
X03272Y06958*
X03268Y06963*
X03263Y06967*
X03256Y06970*
X03255Y06970*
G37*
G36*
X03351Y06940D02*
X03330D01*
X03330Y06938*
X03333Y06932*
X03337Y06926*
X03343Y06922*
X03349Y06919*
X03351Y06919*
Y06940*
G37*
G36*
X07015Y06951D02*
X06998D01*
Y06927*
X07025*
Y06941*
X07024Y06945*
X07022Y06948*
X07019Y06951*
X07015Y06951*
G37*
G36*
X06830Y06966D02*
X06818Y06965D01*
X06807Y06960*
X06798Y06953*
X06797Y06952*
X06756*
X06756Y06952*
X06751Y06955*
X06745Y06957*
X06702*
X06696Y06955*
X06691Y06952*
X06689*
X06684Y06955*
X06678Y06957*
X06635*
X06629Y06955*
X06624Y06952*
X06623Y06950*
X06621Y06947*
X06616Y06948*
X06613Y06950*
X06605Y06951*
X06597Y06950*
X06589Y06946*
X06587Y06945*
X06397*
X06395Y06946*
X06388Y06950*
X06380Y06951*
X06372Y06950*
X06364Y06946*
X06358Y06941*
X06353Y06935*
X06350Y06928*
X06349Y06920*
X06350Y06912*
X06353Y06904*
X06358Y06898*
X06364Y06893*
X06372Y06890*
X06380Y06889*
X06388Y06890*
X06395Y06893*
X06397Y06894*
X06587*
X06589Y06893*
X06597Y06890*
X06605Y06889*
X06613Y06890*
X06620Y06893*
X06624Y06891*
X06629Y06888*
X06635Y06887*
X06678*
X06684Y06888*
X06689Y06891*
X06691*
X06696Y06888*
X06702Y06887*
X06745*
X06751Y06888*
X06756Y06891*
X06756Y06891*
X06797*
X06798Y06890*
X06807Y06883*
X06818Y06878*
X06830Y06877*
X06841Y06878*
X06852Y06883*
X06862Y06890*
X06863Y06891*
X06894*
X06894Y06891*
X06899Y06888*
X06905Y06887*
X06948*
X06954Y06888*
X06959Y06891*
X06960Y06893*
X06964Y06895*
X06966Y06894*
X06968Y06892*
X06972Y06892*
X06988*
Y06922*
Y06951*
X06972*
X06968Y06951*
X06966Y06950*
X06964Y06948*
X06960Y06951*
X06959Y06952*
X06954Y06955*
X06948Y06957*
X06905*
X06899Y06955*
X06894Y06952*
X06894Y06952*
X06863*
X06862Y06953*
X06852Y06960*
X06841Y06965*
X06830Y06966*
G37*
G36*
X03351Y06970D02*
X03349Y06970D01*
X03343Y06967*
X03337Y06963*
X03333Y06958*
X03330Y06951*
X03330Y06950*
X03351*
Y06970*
G37*
G36*
X07025Y06917D02*
X06998D01*
Y06892*
X07015*
X07019Y06892*
X07022Y06895*
X07024Y06898*
X07025Y06902*
Y06917*
G37*
G36*
X06830Y06866D02*
X06818Y06865D01*
X06807Y06860*
X06798Y06853*
X06797Y06852*
X06756*
X06756Y06852*
X06751Y06855*
X06745Y06857*
X06702*
X06696Y06855*
X06691Y06852*
X06689*
X06684Y06855*
X06678Y06857*
X06635*
X06629Y06855*
X06624Y06852*
X06623Y06850*
X06621Y06847*
X06616Y06848*
X06613Y06850*
X06605Y06851*
X06597Y06850*
X06589Y06846*
X06587Y06845*
X06397*
X06395Y06846*
X06388Y06850*
X06380Y06851*
X06372Y06850*
X06364Y06846*
X06358Y06841*
X06353Y06835*
X06350Y06828*
X06349Y06820*
X06350Y06812*
X06353Y06804*
X06358Y06798*
X06364Y06793*
X06372Y06790*
X06380Y06789*
X06388Y06790*
X06395Y06793*
X06397Y06794*
X06587*
X06589Y06793*
X06597Y06790*
X06605Y06789*
X06613Y06790*
X06620Y06793*
X06624Y06791*
X06629Y06788*
X06635Y06787*
X06678*
X06684Y06788*
X06689Y06791*
X06691*
X06696Y06788*
X06702Y06787*
X06745*
X06751Y06788*
X06756Y06791*
X06756Y06791*
X06797*
X06798Y06790*
X06807Y06783*
X06818Y06778*
X06830Y06777*
X06841Y06778*
X06852Y06783*
X06862Y06790*
X06863Y06791*
X06894*
X06894Y06791*
X06899Y06788*
X06905Y06787*
X06948*
X06954Y06788*
X06959Y06791*
X06960Y06793*
X06964Y06795*
X06966Y06794*
X06968Y06792*
X06972Y06792*
X06988*
Y06822*
Y06851*
X06972*
X06968Y06851*
X06966Y06850*
X06964Y06848*
X06960Y06851*
X06959Y06852*
X06954Y06855*
X06948Y06857*
X06905*
X06899Y06855*
X06894Y06852*
X06894Y06852*
X06863*
X06862Y06853*
X06852Y06860*
X06841Y06865*
X06830Y06866*
G37*
G36*
X07015Y06851D02*
X06998D01*
Y06827*
X07025*
Y06841*
X07024Y06845*
X07022Y06848*
X07019Y06851*
X07015Y06851*
G37*
G36*
X03850Y06780D02*
X03829D01*
X03829Y06778*
X03832Y06772*
X03836Y06766*
X03842Y06762*
X03848Y06759*
X03850Y06759*
Y06780*
G37*
G36*
X03880D02*
X03860D01*
Y06759*
X03861Y06759*
X03868Y06762*
X03873Y06766*
X03877Y06772*
X03880Y06778*
X03880Y06780*
G37*
G36*
X03850Y06810D02*
X03848Y06810D01*
X03842Y06807*
X03836Y06803*
X03832Y06798*
X03829Y06791*
X03829Y06790*
X03850*
Y06810*
G37*
G36*
X03860D02*
Y06790D01*
X03880*
X03880Y06791*
X03877Y06798*
X03873Y06803*
X03868Y06807*
X03861Y06810*
X03860Y06810*
G37*
G36*
X03850Y06747D02*
X03835D01*
X03831Y06746*
X03828Y06744*
X03826Y06741*
X03825Y06737*
Y06720*
X03850*
Y06747*
G37*
G36*
X03875D02*
X03860D01*
Y06720*
X03885*
Y06737*
X03884Y06741*
X03882Y06744*
X03878Y06746*
X03875Y06747*
G37*
G36*
X03850Y06853D02*
X03825D01*
Y06836*
X03826Y06833*
X03828Y06829*
X03831Y06827*
X03835Y06826*
X03850*
Y06853*
G37*
G36*
X03885D02*
X03860D01*
Y06826*
X03875*
X03878Y06827*
X03882Y06829*
X03884Y06833*
X03885Y06836*
Y06853*
G37*
G36*
X04395Y06977D02*
X04368D01*
Y06952*
X04385*
X04389Y06952*
X04392Y06955*
X04394Y06958*
X04395Y06962*
Y06977*
G37*
G36*
X04665Y06440D02*
X04645D01*
Y06419*
X04646Y06419*
X04653Y06422*
X04658Y06426*
X04662Y06432*
X04665Y06438*
X04665Y06440*
G37*
G36*
X03460Y06250D02*
Y06202D01*
X03477*
Y06229*
X03475Y06237*
X03471Y06244*
X03463Y06249*
X03460Y06250*
G37*
G36*
X04480Y06135D02*
X04445D01*
X04446Y06129*
X04450Y06120*
X04456Y06111*
X04465Y06105*
X04474Y06101*
X04480Y06100*
Y06135*
G37*
G36*
Y06179D02*
X04474Y06178D01*
X04465Y06174*
X04456Y06168*
X04450Y06159*
X04446Y06150*
X04445Y06145*
X04480*
Y06179*
G37*
G36*
X05610Y06250D02*
X05595D01*
X05591Y06249*
X05588Y06247*
X05585Y06244*
X05585Y06240*
Y06223*
X05610*
Y06250*
G37*
G36*
X05634D02*
X05620D01*
Y06223*
X05644*
Y06240*
X05644Y06244*
X05641Y06247*
X05638Y06249*
X05634Y06250*
G37*
G36*
X05834Y06156D02*
X05813D01*
X05810Y06155*
X05806Y06153*
X05804Y06150*
X05803Y06146*
Y06122*
X05834*
Y06156*
G37*
G36*
X05675Y06218D02*
X05650D01*
Y06201*
X05651Y06198*
X05653Y06194*
X05656Y06192*
X05660Y06191*
X05675*
Y06218*
G37*
%LNde-130817-3*%
%LPD*%
G36*
X01365Y07893D02*
X01365Y07892D01*
Y07868*
X01405*
Y07863*
X01410*
Y07823*
X01434*
X01435Y07823*
X01440Y07819*
Y07804*
X01324Y07688*
X01319Y07690*
Y07853*
X01360Y07894*
X01365Y07893*
G37*
%LNde-130817-4*%
%LPC*%
G36*
X01400Y07858D02*
X01365D01*
Y07833*
X01366Y07829*
X01368Y07826*
X01371Y07824*
X01375Y07823*
X01400*
Y07858*
G37*
%LNde-130817-5*%
%LPD*%
G54D10*
X02920Y07281D03*
X02957Y07202D03*
X02882D03*
X03660Y07281D03*
X03697Y07202D03*
X03622D03*
X03185Y07281D03*
X03222Y07202D03*
X03147D03*
G54D11*
X04977Y06341D03*
Y06274D03*
X05135Y06136D03*
Y06203D03*
Y06358D03*
Y06291D03*
X03012Y07211D03*
Y07278D03*
X03755Y07206D03*
Y07273D03*
X03565Y07203D03*
Y07270D03*
X03090Y07211D03*
Y07278D03*
X05035Y06588D03*
Y06655D03*
X04200Y06513D03*
Y06446D03*
X04260Y06513D03*
Y06446D03*
X04770Y06838D03*
Y06905D03*
X04295Y06920D03*
Y06853D03*
X04235D03*
Y06920D03*
X04200Y06643D03*
Y06576D03*
X04140Y06643D03*
Y06576D03*
X03855Y06858D03*
Y06925D03*
Y06715D03*
Y06648D03*
X04555Y07395D03*
Y07328D03*
X05875Y07590D03*
Y07523D03*
X02010Y06311D03*
Y06378D03*
X01595Y05473D03*
Y05406D03*
X05595Y06905D03*
Y06838D03*
X05680Y06290D03*
Y06223D03*
X05615Y06151D03*
Y06218D03*
X03800Y03443D03*
Y03376D03*
Y03213D03*
Y03146D03*
X04120Y03213D03*
Y03146D03*
Y03443D03*
Y03376D03*
X03280Y07278D03*
Y07211D03*
X04150Y02788D03*
Y02721D03*
X03040Y06798D03*
Y06865D03*
Y06373D03*
Y06440D03*
X01930Y06493D03*
Y06560D03*
X04500Y07090D03*
Y07023D03*
G54D12*
X05216Y06405D03*
X05283D03*
X05216Y06135D03*
X05283D03*
Y06345D03*
X05216D03*
X05283Y06790D03*
X05216D03*
X05283Y06885D03*
X05216D03*
X03446Y07142D03*
X03513D03*
X04641Y06487D03*
X04708D03*
X04363Y06982D03*
X04296D03*
X05598Y07197D03*
X05531D03*
X04863D03*
X04796D03*
X04561Y07587D03*
X04628D03*
X05318Y07197D03*
X05251D03*
X05086D03*
X05153D03*
X05018D03*
X04951D03*
X05593Y07717D03*
X05526D03*
X05388Y07715D03*
X05321D03*
X05218Y07717D03*
X05151D03*
X04726Y07587D03*
X04793D03*
X01431Y06375D03*
X01498D03*
X05538Y06150D03*
X05471D03*
X05798Y06742D03*
X05731D03*
X03483Y06986D03*
X03416D03*
Y06927D03*
X03483D03*
X06656Y07222D03*
X06723D03*
X06656Y07122D03*
X06723D03*
X06656Y07022D03*
X06723D03*
X06656Y06922D03*
X06723D03*
X06656Y06822D03*
X06723D03*
X06656Y06722D03*
X06723D03*
X06656Y06622D03*
X06723D03*
X06656Y06522D03*
X06723D03*
X06926D03*
X06993D03*
X06926Y06622D03*
X06993D03*
X06926Y06722D03*
X06993D03*
X06926Y06822D03*
X06993D03*
X06926Y06922D03*
X06993D03*
X06926Y07022D03*
X06993D03*
X06926Y07122D03*
X06993D03*
X06926Y07222D03*
X06993D03*
G54D13*
X05282Y06202D03*
Y06277D03*
X05207Y06240D03*
G54D14*
X05050Y06352D03*
Y06277D03*
X04215Y07399D03*
Y07324D03*
X04130Y07399D03*
Y07324D03*
X06240Y07524D03*
Y07449D03*
X06400Y07724D03*
Y07649D03*
X06320Y07724D03*
Y07649D03*
X06160Y07524D03*
Y07449D03*
X05445Y06909D03*
Y06834D03*
X05525Y06909D03*
Y06834D03*
X05830Y06286D03*
Y06211D03*
X05750Y06286D03*
Y06211D03*
X05910Y06286D03*
Y06211D03*
X04190Y03217D03*
Y03142D03*
X03475Y03217D03*
Y03142D03*
Y03447D03*
Y03372D03*
X04190Y03447D03*
Y03372D03*
X02010Y06489D03*
Y06564D03*
X04065Y02792D03*
Y02717D03*
X05805Y07594D03*
Y07519D03*
G54D15*
X04140Y06511D03*
Y06418D03*
G54D16*
X03350Y07227D03*
X03400D03*
X03450D03*
X03500D03*
X03350Y07416D03*
X03400D03*
X03450D03*
X03500D03*
X03105Y06622D03*
X03155D03*
X03205D03*
X03255D03*
X03305D03*
X03355D03*
X03405D03*
X03455D03*
X03105Y06811D03*
X03155D03*
X03205D03*
X03255D03*
X03305D03*
X03355D03*
X03405D03*
X03455D03*
X02410Y06197D03*
X02460D03*
X02510D03*
X02560D03*
X02610D03*
X02660D03*
X02710D03*
X02760D03*
X02410Y06386D03*
X02460D03*
X02510D03*
X02560D03*
X02610D03*
X02660D03*
X02710D03*
X02760D03*
X02410Y06622D03*
X02460D03*
X02510D03*
X02560D03*
X02610D03*
X02660D03*
X02710D03*
X02760D03*
X02410Y06811D03*
X02460D03*
X02510D03*
X02560D03*
X02610D03*
X02660D03*
X02710D03*
X02760D03*
X02410Y07047D03*
X02460D03*
X02510D03*
X02560D03*
X02610D03*
X02660D03*
X02710D03*
X02760D03*
X02410Y07236D03*
X02460D03*
X02510D03*
X02560D03*
X02610D03*
X02660D03*
X02710D03*
X02760D03*
X03105Y06197D03*
X03155D03*
X03205D03*
X03255D03*
X03305D03*
X03355D03*
X03405D03*
X03455D03*
X03105Y06386D03*
X03155D03*
X03205D03*
X03255D03*
X03305D03*
X03355D03*
X03405D03*
X03455D03*
G54D17*
X04362Y07052D03*
X04287D03*
X04562Y07657D03*
X04637D03*
X06072Y07687D03*
X05997D03*
X01427Y06300D03*
X01502D03*
X01452Y05415D03*
X01527D03*
X05802Y06672D03*
X05727D03*
X05914Y06117D03*
X05839D03*
X01492Y02270D03*
X01567D03*
X01647Y02030D03*
X01722D03*
X01562D03*
X01487D03*
X01497Y02445D03*
X01572D03*
X01642D03*
X01717D03*
X01972Y02270D03*
X02047D03*
X02127Y02030D03*
X02202D03*
X02037D03*
X01962D03*
X01977Y02445D03*
X02052D03*
X02122D03*
X02197D03*
X02522Y02030D03*
X02447D03*
X02452Y02445D03*
X02527D03*
X02597D03*
X02672D03*
X02447Y02270D03*
X02522D03*
X02607Y02030D03*
X02682D03*
X03077D03*
X03152D03*
X02922Y02270D03*
X02997D03*
X02992Y02030D03*
X02917D03*
X02927Y02445D03*
X03002D03*
X03072D03*
X03147D03*
X03397Y02270D03*
X03472D03*
X03467Y02030D03*
X03392D03*
X03552D03*
X03627D03*
X03402Y02445D03*
X03477D03*
X03547D03*
X03622D03*
X03947Y02030D03*
X03872D03*
Y02269D03*
X03947D03*
X04032Y02030D03*
X04107D03*
X03877Y02445D03*
X03952D03*
X04022D03*
X04097D03*
X04342Y02269D03*
X04417D03*
X04412Y02030D03*
X04337D03*
X04497D03*
X04572D03*
X04347Y02445D03*
X04422D03*
X04492D03*
X04567D03*
X04882Y02030D03*
X04807D03*
X04817Y02269D03*
X04892D03*
X04972Y02030D03*
X05047D03*
X04822Y02445D03*
X04897D03*
X04967D03*
X05042D03*
X04757Y04105D03*
X04682D03*
X04912Y03860D03*
X04837D03*
X04842Y04105D03*
X04917D03*
X04907Y03690D03*
X04832D03*
X04762D03*
X04687D03*
X04282Y04105D03*
X04207D03*
X04437Y03860D03*
X04362D03*
X04432Y03690D03*
X04357D03*
X04287D03*
X04212D03*
X04367Y04105D03*
X04442D03*
X03892D03*
X03967D03*
X03807D03*
X03732D03*
X03962Y03860D03*
X03887D03*
X03957Y03690D03*
X03882D03*
X03812D03*
X03737D03*
X03482Y03860D03*
X03407D03*
X03417Y04105D03*
X03492D03*
X03477Y03690D03*
X03402D03*
X03332D03*
X03257D03*
X03332Y04105D03*
X03257D03*
X02847D03*
X02772D03*
X03002Y03860D03*
X02927D03*
X02932Y04105D03*
X03007D03*
X02997Y03690D03*
X02922D03*
X02852D03*
X02777D03*
X02457Y04105D03*
X02532D03*
X02522Y03860D03*
X02447D03*
X02522Y03690D03*
X02447D03*
X02377D03*
X02302D03*
X02372Y04105D03*
X02297D03*
X01987D03*
X02062D03*
X01902D03*
X01827D03*
X02057Y03860D03*
X01982D03*
X02052Y03690D03*
X01977D03*
X01907D03*
X01832D03*
X01427Y04105D03*
X01352D03*
X01512D03*
X01587D03*
X01582Y03860D03*
X01507D03*
X01432Y03690D03*
X01357D03*
X01582D03*
X01507D03*
G54D18*
X04370Y06835D03*
Y06815D03*
Y06795D03*
Y06776D03*
Y06756D03*
Y06736D03*
Y06717D03*
Y06697D03*
Y06677D03*
Y06658D03*
Y06638D03*
Y06618D03*
X04689D03*
Y06638D03*
Y06658D03*
Y06677D03*
Y06697D03*
Y06717D03*
Y06736D03*
Y06756D03*
Y06776D03*
Y06795D03*
Y06815D03*
Y06835D03*
G54D19*
X04422Y06567D03*
X04441D03*
X04461D03*
X04481D03*
X04500D03*
X04520D03*
X04540D03*
X04559D03*
X04579D03*
X04599D03*
X04618D03*
X04638D03*
Y06886D03*
X04618D03*
X04599D03*
X04579D03*
X04559D03*
X04540D03*
X04520D03*
X04500D03*
X04481D03*
X04461D03*
X04441D03*
X04422D03*
G54D20*
X05695Y07646D03*
X05595D03*
X05495D03*
X05395D03*
X05695Y07272D03*
X05595D03*
X05495D03*
X05395D03*
X04950D03*
X05050D03*
X05150D03*
X05250D03*
X04950Y07646D03*
X05050D03*
X05150D03*
X05250D03*
G54D21*
X04695Y07272D03*
G54D22*
X04795Y07272D03*
X04695Y07508D03*
X04795D03*
G54D23*
X06085Y07584D03*
X06035D03*
X05985D03*
X05935D03*
X06085Y07399D03*
X06035D03*
X05985D03*
X05935D03*
G54D24*
X06158Y07687D03*
X06242Y07649D03*
G54D25*
X06242Y07724D03*
G54D26*
X02110Y06470D03*
Y06309D03*
X02235D03*
Y06470D03*
G54D27*
X01380Y02440D03*
Y02279D03*
X01860Y02440D03*
Y02279D03*
X02335Y02440D03*
Y02279D03*
X02810Y02440D03*
Y02279D03*
X03285Y02443D03*
Y02281D03*
X03760Y02443D03*
Y02281D03*
X04230Y02443D03*
Y02281D03*
X04705Y02443D03*
Y02281D03*
X05025Y03692D03*
Y03853D03*
X04550Y03692D03*
Y03853D03*
X04075Y03692D03*
Y03853D03*
X03595Y03692D03*
Y03853D03*
X03115Y03692D03*
Y03853D03*
X02635Y03692D03*
Y03853D03*
X02170Y03692D03*
Y03853D03*
X01695Y03692D03*
Y03853D03*
G54D28*
X01717Y02361D03*
X01642D03*
X01680Y02278D03*
X01492Y02113D03*
X01567D03*
X01530Y02196D03*
X01342Y02113D03*
X01417D03*
X01380Y02196D03*
X01642Y02113D03*
X01717D03*
X01680Y02196D03*
X02197Y02361D03*
X02122D03*
X02160Y02278D03*
X01972Y02113D03*
X02047D03*
X02010Y02196D03*
X01822Y02113D03*
X01897D03*
X01860Y02196D03*
X02122Y02113D03*
X02197D03*
X02160Y02196D03*
X02672Y02361D03*
X02597D03*
X02635Y02278D03*
X02447Y02113D03*
X02522D03*
X02485Y02196D03*
X02297Y02113D03*
X02372D03*
X02335Y02196D03*
X02597Y02113D03*
X02672D03*
X02635Y02196D03*
X03147Y02361D03*
X03072D03*
X03110Y02278D03*
X02922Y02113D03*
X02997D03*
X02960Y02196D03*
X02772Y02113D03*
X02847D03*
X02810Y02196D03*
X03072Y02113D03*
X03147D03*
X03110Y02196D03*
X03622Y02361D03*
X03547D03*
X03585Y02278D03*
X03397Y02113D03*
X03472D03*
X03435Y02196D03*
X03247Y02113D03*
X03322D03*
X03285Y02196D03*
X03547Y02113D03*
X03622D03*
X03585Y02196D03*
X04097Y02361D03*
X04022D03*
X04060Y02278D03*
X03872Y02113D03*
X03947D03*
X03910Y02196D03*
X03722Y02113D03*
X03797D03*
X03760Y02196D03*
X04022Y02113D03*
X04097D03*
X04060Y02196D03*
X04567Y02361D03*
X04492D03*
X04530Y02278D03*
X04342Y02113D03*
X04417D03*
X04380Y02196D03*
X04192Y02113D03*
X04267D03*
X04230Y02196D03*
X04492Y02113D03*
X04567D03*
X04530Y02196D03*
X05042Y02361D03*
X04967D03*
X05005Y02278D03*
X04817Y02113D03*
X04892D03*
X04855Y02196D03*
X04667Y02113D03*
X04742D03*
X04705Y02196D03*
X04967Y02113D03*
X05042D03*
X05005Y02196D03*
X04687Y03773D03*
X04762D03*
X04725Y03856D03*
X05062Y04021D03*
X04987D03*
X05025Y03938D03*
X04912Y04021D03*
X04837D03*
X04875Y03938D03*
X04762Y04021D03*
X04687D03*
X04725Y03938D03*
X04212Y03773D03*
X04287D03*
X04250Y03856D03*
X04587Y04021D03*
X04512D03*
X04550Y03938D03*
X04437Y04021D03*
X04362D03*
X04400Y03938D03*
X04287Y04021D03*
X04212D03*
X04250Y03938D03*
X03737Y03773D03*
X03812D03*
X03775Y03856D03*
X03962Y04021D03*
X03887D03*
X03925Y03938D03*
X04112Y04021D03*
X04037D03*
X04075Y03938D03*
X03812Y04021D03*
X03737D03*
X03775Y03938D03*
X03257Y03773D03*
X03332D03*
X03295Y03856D03*
X03482Y04021D03*
X03407D03*
X03445Y03938D03*
X03632Y04021D03*
X03557D03*
X03595Y03938D03*
X03332Y04021D03*
X03257D03*
X03295Y03938D03*
X02777Y03773D03*
X02852D03*
X02815Y03856D03*
X03002Y04021D03*
X02927D03*
X02965Y03938D03*
X03152Y04021D03*
X03077D03*
X03115Y03938D03*
X01907Y04021D03*
X01832D03*
X01870Y03938D03*
X02302Y03773D03*
X02377D03*
X02340Y03856D03*
X02527Y04021D03*
X02452D03*
X02490Y03938D03*
X02677Y04021D03*
X02602D03*
X02640Y03938D03*
X02852Y04021D03*
X02777D03*
X02815Y03938D03*
X02057Y04021D03*
X01982D03*
X02020Y03938D03*
X02207Y04021D03*
X02132D03*
X02170Y03938D03*
X01832Y03773D03*
X01907D03*
X01870Y03856D03*
X01732Y04021D03*
X01657D03*
X01695Y03938D03*
X01582Y04021D03*
X01507D03*
X01545Y03938D03*
X01357Y03773D03*
X01432D03*
X01395Y03856D03*
X01432Y04021D03*
X01357D03*
X01395Y03938D03*
X02377Y04021D03*
X02302D03*
X02340Y03938D03*
G54D29*
X01480Y01725D03*
X01609D03*
X01955D03*
X02084D03*
X02430D03*
X02559D03*
X02905D03*
X03034D03*
X03850D03*
X03979D03*
X04325D03*
X04454D03*
X04800D03*
X04929D03*
Y04410D03*
X04800D03*
X04454D03*
X04325D03*
X03979D03*
X03850D03*
X03504D03*
X03375D03*
X03029D03*
X02900D03*
X02559D03*
X02430D03*
X03375Y01725D03*
X03504D03*
X01604Y04410D03*
X01475D03*
X02084D03*
X01955D03*
G54D30*
X04005Y06949D03*
Y06575D03*
G54D31*
X04825Y06485D03*
X04945Y06150D03*
X04485Y06140D03*
Y06240D03*
X04585Y06140D03*
Y06240D03*
X04685Y06140D03*
X01840Y06590D03*
Y06690D03*
Y06790D03*
Y06890D03*
X01405Y06157D03*
X01505D03*
X01405Y06057D03*
X01505D03*
X01405Y05957D03*
X01505D03*
X01405Y05857D03*
X01505D03*
X01405Y05757D03*
X01505D03*
X01405Y05657D03*
X01505D03*
X01405Y05557D03*
Y06492D03*
X01505Y06592D03*
X01405D03*
X01505Y06692D03*
X01405D03*
X01505Y06792D03*
X01405D03*
X05125Y06687D03*
Y06787D03*
Y06887D03*
Y06987D03*
X06730Y07392D03*
X06830Y07492D03*
X06730D03*
X06830Y07222D03*
Y07122D03*
Y07022D03*
Y06922D03*
Y06822D03*
Y06722D03*
Y06622D03*
X06730Y06247D03*
X06830Y06347D03*
X06730D03*
X01405Y07590D03*
Y07490D03*
Y07390D03*
Y07290D03*
Y07190D03*
Y08363D03*
Y08263D03*
Y08163D03*
Y08063D03*
Y07963D03*
X04885Y03455D03*
X04785Y03355D03*
X04885D03*
X04785Y03255D03*
X04885D03*
X04785Y03155D03*
X04885D03*
X04785Y03055D03*
X04885D03*
X04785Y02955D03*
X04885D03*
X04785Y02855D03*
X04885D03*
X04785Y02755D03*
X04885D03*
X04785Y02655D03*
X04885D03*
X06250Y06243D03*
G54D32*
X03516Y07057D03*
X03424D03*
G54D33*
X05674Y06839D03*
G54D34*
X05765Y06839D03*
X05855D03*
G54D35*
X05765Y07104D03*
G54D36*
X03741Y02730D02*
X03760Y02710D01*
X03380Y02730D02*
X03741D01*
X03115Y03040D02*
Y03445D01*
X03120Y03444D02*
X03325D01*
X03846Y02788D02*
X04150D01*
X04042Y03447D02*
X04190D01*
X03760Y02710D02*
X03910D01*
X03380Y02895D02*
X03392Y02882D01*
X03380Y02895D02*
Y03190D01*
X03407Y03217D02*
X03475D01*
X03380Y03190D02*
X03407Y03217D01*
X03800Y03146D02*
X04120D01*
X04155*
X04150Y03141D02*
X04155Y03146D01*
X04150Y02985D02*
Y03141D01*
X02635Y03853D02*
X02640Y03858D01*
X04016Y02721D02*
X04150D01*
X04196*
X04210Y02735*
Y02850*
X04150Y02910D02*
X04210Y02850D01*
X04150Y02910D02*
Y02985D01*
X03910Y02710D02*
X04005D01*
X04016Y02721*
X03800Y02835D02*
X03846Y02788D01*
X03625Y02835D02*
X03800D01*
X03560D02*
X03625D01*
X03512Y02882D02*
X03560Y02835D01*
X03392Y02882D02*
X03512D01*
X03800Y02935D02*
X03850Y02985D01*
X03625Y02935D02*
X03800D01*
X04040Y03245D02*
X04088D01*
X03905D02*
X04040D01*
X04120Y03213D02*
X04186D01*
X04088Y03245D02*
X04120Y03213D01*
X03873D02*
X03905Y03245D01*
X03800Y03213D02*
X03873D01*
X04067Y03372D02*
X04190D01*
X04040Y03345D02*
X04067Y03372D01*
X03910Y03345D02*
X04040D01*
X03878Y03376D02*
X03910Y03345D01*
X03800Y03376D02*
X03878D01*
X03800Y03443D02*
X04038D01*
X03721Y03146D02*
X03800D01*
X03475Y03142D02*
X03477Y03145D01*
X03720*
Y03245D02*
X03785D01*
X03800Y03230*
Y03213D02*
Y03230D01*
X03620Y03245D02*
X03720D01*
X03592Y03217D02*
X03620Y03245D01*
X03475Y03217D02*
X03592D01*
X03768Y03345D02*
X03800Y03376D01*
X03720Y03345D02*
X03768D01*
X03675D02*
X03720D01*
X03647Y03372D02*
X03675Y03345D01*
X03475Y03372D02*
X03647D01*
X03721Y03443D02*
X03800D01*
X03475Y03447D02*
X03717D01*
X03325Y03444D02*
X03472D01*
X03325Y03365D02*
X03468D01*
X05335Y06405D02*
X05345Y06395D01*
Y06265D02*
Y06395D01*
Y06265D02*
X05386Y06223D01*
X06830Y06349D02*
X06939D01*
X06993Y06403*
Y06522*
X05975Y06230D02*
Y06330D01*
X05956Y06211D02*
X05975Y06230D01*
X05910Y06211D02*
X05956D01*
X01405Y06157D02*
X01505D01*
X01502Y06159D02*
X01550D01*
X01575Y06135*
Y05555D02*
Y06135D01*
Y05555D02*
X01590Y05540D01*
X01625*
X01640Y05525*
Y05420D02*
Y05525D01*
X01626Y05406D02*
X01640Y05420D01*
X01595Y05406D02*
X01626D01*
X01502Y06300D02*
Y06371D01*
Y06159D02*
Y06300D01*
Y06159D02*
X01505Y06157D01*
X03356Y06945D02*
Y07103D01*
X04200Y06643D02*
Y06685D01*
Y06400D02*
Y06446D01*
X04260*
X04140Y06643D02*
X04200D01*
X05762Y06905D02*
X05765Y06903D01*
X05595Y06905D02*
X05762D01*
X05494Y06909D02*
X05496Y06911D01*
Y06963*
X05494Y06909D02*
X05525D01*
X05445D02*
X05494D01*
X05472Y07370D02*
X05495Y07346D01*
X04740Y07370D02*
X05472D01*
X05202Y07197D02*
X05251D01*
X05250Y07198D02*
Y07272D01*
X06100Y07620D02*
Y07687D01*
X05695Y07592D02*
Y07646D01*
X06133Y07620D02*
X06161Y07592D01*
X06100Y07620D02*
X06133D01*
X04362Y07085D02*
Y07107D01*
Y07052D02*
Y07085D01*
X04358Y07112D02*
X04362Y07107D01*
X04218Y07112D02*
X04358D01*
X04198Y07092D02*
X04218Y07112D01*
X04198Y07020D02*
Y07092D01*
Y07020D02*
X04235Y06983D01*
Y06920D02*
Y06983D01*
X04239Y07052D02*
X04287D01*
X03398Y07145D02*
X03449D01*
X03356Y07103D02*
X03398Y07145D01*
X03090Y07148D02*
Y07211D01*
X03450Y07146D02*
Y07190D01*
X03449Y07145D02*
X03450Y07146D01*
X03483Y06986D02*
X03515D01*
X03483Y06926D02*
X03483Y06927D01*
X03483Y06879D02*
Y06926D01*
X02974Y07145D02*
X03040D01*
Y06440D02*
Y06488D01*
Y06865D02*
Y06911D01*
X01405Y06430D02*
X01427Y06408D01*
X01405Y06430D02*
Y06492D01*
X01531Y07715D02*
Y08137D01*
X01405Y07590D02*
X01531Y07715D01*
X01405Y08263D02*
X01531Y08137D01*
X02957Y07162D02*
X02974Y07145D01*
X02957Y07162D02*
Y07202D01*
X03015Y07211D02*
X03085D01*
X05696Y07359D02*
X05839D01*
X05585Y07470D02*
X05696Y07359D01*
X04840Y07470D02*
X05585D01*
X04820Y07450D02*
X04840Y07470D01*
X04710Y07450D02*
X04820D01*
X04295Y06920D02*
Y07004D01*
X04287Y07012D02*
X04295Y07004D01*
X04287Y07012D02*
Y07052D01*
X05830Y06286D02*
X05910D01*
X05680Y06223D02*
X05696D01*
X05710Y06210*
X05839Y06117D02*
Y06199D01*
X05828Y06210D02*
X05839Y06199D01*
X05710Y06210D02*
X05828D01*
X05914Y06117D02*
Y06207D01*
X05910Y06211D02*
X05914Y06207D01*
X06723Y07222D02*
X06830D01*
X06926*
X06723Y07122D02*
X06830D01*
X06926*
X06723Y07022D02*
X06830D01*
X06926*
X06723Y06922D02*
X06830D01*
X06926*
X06723Y06822D02*
X06830D01*
X06926*
X06723Y06722D02*
X06830D01*
X06926*
X06723Y06622D02*
X06830D01*
X06926*
X06723Y06522D02*
X06830D01*
X06926*
X06993D02*
Y06622D01*
Y06722*
Y06822*
Y06922*
Y07022*
Y07122*
Y07222*
X06242Y07649D02*
X06320D01*
X06242Y07526D02*
Y07649D01*
X06240Y07524D02*
X06242Y07526D01*
X06160Y07524D02*
X06240D01*
X06320Y07724D02*
X06400D01*
X06242D02*
X06320D01*
X05809Y07523D02*
X05875D01*
X05809Y07590D02*
X05875D01*
X05805Y07594D02*
X05809Y07590D01*
X05875D02*
X05919D01*
X06100Y07687D02*
X06158D01*
X05395Y07646D02*
X05495D01*
X05502Y07717D02*
X05526D01*
X05495Y07710D02*
X05502Y07717D01*
X05495Y07646D02*
Y07710D01*
X04475Y07612D02*
X04503D01*
X04528Y07587*
X04561*
X04562Y07588*
Y07657*
X04628Y07587D02*
Y07608D01*
X04637Y07617*
Y07657*
X04628Y07587D02*
X04726D01*
X04637Y07657D02*
Y07717D01*
X04625Y07730D02*
X04637Y07717D01*
X04445Y07730D02*
X04625D01*
X04410Y07695D02*
X04445Y07730D01*
X04410Y07535D02*
Y07695D01*
Y07535D02*
X04433Y07512D01*
X04475*
X04561Y07528D02*
Y07587D01*
Y07528D02*
X04581Y07508D01*
X05750Y07519D02*
X05805D01*
X05695Y07574D02*
X05750Y07519D01*
X05805Y07594D02*
Y07704D01*
X05745Y07765D02*
X05805Y07704D01*
X05535Y07765D02*
X05745D01*
X05526Y07756D02*
X05535Y07765D01*
X05526Y07717D02*
Y07756D01*
X04581Y07508D02*
X04690D01*
Y07470D02*
X04710Y07450D01*
X05839Y07359D02*
X05898Y07300D01*
X04690Y07470D02*
Y07508D01*
X05898Y07300D02*
X06120D01*
X06160Y07340*
Y07449*
X06400Y07649D02*
X06559D01*
X06740Y07830*
Y08085*
X06771Y08116*
X06840*
X06789Y07916D02*
X06840D01*
X06778Y07905D02*
X06789Y07916D01*
X06778Y07814D02*
Y07905D01*
X06315Y07560D02*
X06335Y07580D01*
X06315Y07470D02*
Y07560D01*
X06294Y07449D02*
X06315Y07470D01*
X06240Y07449D02*
X06294D01*
X06335Y07580D02*
X06543D01*
X06778Y07814*
X05218Y07717D02*
X05303D01*
X05325Y07695*
Y07650D02*
Y07695D01*
Y07650D02*
X05329Y07646D01*
X05395*
X04625Y07730D02*
X05040D01*
X05075Y07765*
X05365*
X05388Y07741*
Y07715D02*
Y07741D01*
X04475Y07412D02*
X04503D01*
X04519Y07395*
X04555*
X04475Y07312D02*
X04502D01*
X04518Y07328*
X04555*
X04130Y07399D02*
X04215D01*
X04389*
X04402Y07412*
X04475*
X04130Y07324D02*
X04215D01*
X04385*
X04400Y07310*
X04473*
X04475Y07312*
X04951Y07197D02*
Y07270D01*
X04950Y07272D02*
X04951Y07270D01*
X05050Y07197D02*
Y07272D01*
X05018Y07197D02*
X05086D01*
X05153D02*
Y07268D01*
X05150Y07272D02*
X05153Y07268D01*
X05150Y07272D02*
X05250D01*
X05596Y07197D02*
Y07270D01*
X05595Y07272D02*
X05596Y07270D01*
X04795Y07198D02*
Y07272D01*
Y07198D02*
X04796Y07197D01*
X01840Y06590D02*
X01875D01*
X01900Y06564*
X01840Y06490D02*
X01840Y06489D01*
X02010Y06378D02*
Y06489D01*
X02074Y06470D02*
X02110D01*
X02060Y06485D02*
X02074Y06470D01*
X02014Y06485D02*
X02060D01*
X02010Y06489D02*
X02014Y06485D01*
X01840Y06489D02*
X02010D01*
X02110Y06309D02*
X02235D01*
X01498Y06375D02*
X01502Y06371D01*
X01505Y06465D02*
Y06492D01*
X01498Y06375D02*
Y06458D01*
X01505Y06465*
Y05500D02*
Y05557D01*
X01490Y05485D02*
X01505Y05500D01*
X01465Y05485D02*
X01490D01*
X01452Y05472D02*
X01465Y05485D01*
X01452Y05415D02*
Y05472D01*
X01566Y05473D02*
X01595D01*
X01555Y05485D02*
X01566Y05473D01*
X01490Y05485D02*
X01555D01*
X01535Y05406D02*
X01595D01*
X01527Y05415D02*
X01535Y05406D01*
X01405Y08263D02*
Y08363D01*
Y07490D02*
Y07590D01*
X05670Y06834D02*
X05674Y06839D01*
X05445Y06834D02*
X05525D01*
Y06909D02*
X05591D01*
X05595Y06905*
X05727Y06672D02*
Y06738D01*
X05731Y06742*
X05674Y06799D02*
X05731Y06742D01*
X05674Y06799D02*
Y06839D01*
X05525Y06834D02*
X05670D01*
X05802Y06672D02*
Y06738D01*
X05798Y06742D02*
X05802Y06738D01*
X05798Y06742D02*
X05855Y06799D01*
Y06839*
X05765D02*
Y07104D01*
X05800Y06286D02*
X05830D01*
X05680Y06290D02*
X05746D01*
X05750Y06286*
X05900Y06436D02*
X05900Y06437D01*
X05900Y06360D02*
Y06436D01*
Y06360D02*
X05903Y06356D01*
X05948*
X05975Y06330*
X05050Y06277D02*
X05131D01*
X05135Y06281*
Y06240D02*
X05207D01*
X05135Y06203D02*
Y06240D01*
Y06281*
X04977Y06277D02*
X05050D01*
X04945Y06245D02*
X04977Y06277D01*
X04945Y06150D02*
Y06245D01*
X05298Y07332D02*
X05318Y07311D01*
X04695Y07272D02*
Y07325D01*
X04740Y07370*
X04745Y07310D02*
X04767Y07332D01*
X04745Y07225D02*
Y07310D01*
X04725Y07205D02*
X04745Y07225D01*
X04615Y07235D02*
Y07310D01*
X04596Y07328D02*
X04615Y07310D01*
X04555Y07328D02*
X04596D01*
X04950Y07272D02*
Y07325D01*
X04957Y07332*
X04767D02*
X05298D01*
X02760Y06120D02*
Y06197D01*
X02760Y06197*
X02775Y06625D02*
X02795D01*
X02775Y07045D02*
X02795D01*
X04770Y06905D02*
X04815D01*
X04770Y06905D02*
X04770Y06905D01*
X04771Y06840D02*
X04815D01*
X04770Y06838D02*
X04771Y06840D01*
X02795Y06625D02*
X02870D01*
X02900Y06595*
X02960*
X03040Y06514*
Y06488D02*
Y06514D01*
X01427Y06300D02*
Y06408D01*
X01950Y06310D02*
X02008D01*
X02010Y06311*
X02840Y07595D02*
X04095D01*
X04240Y07740*
X03535Y06796D02*
X03595Y06736D01*
X03535Y06796D02*
Y06967D01*
X03515Y06986D02*
X03535Y06967D01*
X04615Y06695D02*
X04630Y06710D01*
Y06815*
X04455Y06820D02*
X04610D01*
X04630*
X04181Y06465D02*
X04200Y06446D01*
X04100Y06465D02*
X04181D01*
X04090Y06475D02*
X04100Y06465D01*
X04090Y06475D02*
Y06630D01*
X04103Y06643*
X04140*
X04815Y06840D02*
X04865Y06890D01*
X01900Y06564D02*
X02010D01*
X02795Y07550D02*
X02840Y07595D01*
X02775Y07235D02*
X02795D01*
Y07201D02*
Y07235D01*
Y07550*
X03333Y07415D02*
X03345Y07402D01*
X02910Y07415D02*
X03333D01*
X04685Y06240D02*
Y06365D01*
X04710Y06390*
Y06445*
X04708Y06446D02*
X04710Y06445D01*
X04708Y06446D02*
Y06487D01*
Y06525*
X05283Y06405D02*
X05335D01*
X05495Y07272D02*
Y07346D01*
X05385Y06845D02*
X05400Y06830D01*
X05385Y06845D02*
Y06965D01*
X05125Y06987D02*
X05133Y06995D01*
X05355D02*
X05385Y06965D01*
X05318Y07197D02*
Y07240D01*
Y07311*
X05133Y06995D02*
X05318D01*
X05355*
X03855Y06715D02*
Y06858D01*
X03570Y07145D02*
X03595D01*
X03610Y07160*
X03516Y07105D02*
X03517Y07104D01*
X03612*
X03630Y07122*
X03702*
X03860Y07215D02*
X04175D01*
X03850Y07205D02*
X03860Y07215D01*
X04615Y07235D02*
X04645Y07205D01*
X04725*
X04865Y06890D02*
Y06980D01*
X04745Y07100D02*
Y07225D01*
Y07100D02*
X04865Y06980D01*
X04620Y07165D02*
X04770Y07014D01*
Y06905D02*
Y07014D01*
X03755Y07206D02*
X03791D01*
X03845Y07260*
X04025*
X05727Y06560D02*
Y06672D01*
X03610Y07160D02*
X03750D01*
X03755Y07165*
Y07206*
X05855Y06839D02*
X06039D01*
X06065Y06865*
Y07215*
X06210*
X06387Y07392*
X06730*
X05386Y06223D02*
X05680D01*
X03529Y06304D02*
X03595Y06370D01*
Y06736*
X04822Y02445D02*
Y02572D01*
X04785Y02610D02*
X04822Y02572D01*
X04785Y02610D02*
Y02655D01*
G54D37*
X03115Y03692D02*
Y03740D01*
X03090Y03765D02*
X03115Y03740D01*
X03010Y03765D02*
X03090D01*
X02927Y03847D02*
X03010Y03765D01*
X02927Y03847D02*
Y03860D01*
X02849Y03938D02*
X02927Y03860D01*
X02815Y03938D02*
X02849D01*
X02635Y03692D02*
Y03745D01*
X02615Y03765D02*
X02635Y03745D01*
X02530Y03765D02*
X02615D01*
X02447Y03847D02*
X02530Y03765D01*
X02447Y03847D02*
Y03860D01*
X02369Y03938D02*
X02447Y03860D01*
X02340Y03938D02*
X02369D01*
X02170Y03692D02*
Y03745D01*
X02150Y03765D02*
X02170Y03745D01*
X02070Y03765D02*
X02150D01*
X01982Y03852D02*
X02070Y03765D01*
X01982Y03852D02*
Y03860D01*
X01904Y03938D02*
X01982Y03860D01*
X01870Y03938D02*
X01904D01*
X01695Y03692D02*
Y03740D01*
X01670Y03765D02*
X01695Y03740D01*
X01590Y03765D02*
X01670D01*
X01507Y03847D02*
X01590Y03765D01*
X01507Y03847D02*
Y03860D01*
X01429Y03938D02*
X01507Y03860D01*
X01395Y03938D02*
X01429D01*
X04175Y06705D02*
X04207Y06736D01*
X04015Y06705D02*
X04175D01*
X04207Y06736D02*
X04370D01*
X04201Y06756D02*
X04370D01*
X04169Y06724D02*
X04201Y06756D01*
X04105Y06724D02*
X04169D01*
X04171Y06776D02*
X04370D01*
X04160Y06765D02*
X04171Y06776D01*
X04005Y06600D02*
Y06695D01*
X04015Y06705*
X04064Y06765D02*
X04105Y06724D01*
X04064Y06765D02*
Y06795D01*
X04115Y06780D02*
X04130Y06795D01*
X04370*
X04185Y06835D02*
X04204Y06815D01*
X04370*
X01907Y04021D02*
Y04127D01*
X01875Y04160D02*
X01907Y04127D01*
X01800Y04160D02*
X01875D01*
X02140Y01975D02*
X02230D01*
X02127Y01987D02*
X02140Y01975D01*
X02127Y01987D02*
Y02030D01*
X01945Y03810D02*
X01990D01*
X01935Y03820D02*
X01945Y03810D01*
X01935Y03820D02*
Y03870D01*
X03370Y03810D02*
X03400D01*
X03355Y03825D02*
X03370Y03810D01*
X03355Y03825D02*
Y03875D01*
X03400Y03810D02*
X03477Y03732D01*
X03330Y03900D02*
X03355Y03875D01*
X04688Y03856D02*
X04725D01*
X04640Y03905D02*
X04688Y03856D01*
X04640Y03905D02*
Y04145D01*
X04208Y03856D02*
X04250D01*
X04165Y03900D02*
X04208Y03856D01*
X04165Y03900D02*
Y04145D01*
X02773Y03856D02*
X02815D01*
X02730Y03900D02*
X02773Y03856D01*
X02730Y03900D02*
Y04145D01*
X01823Y03856D02*
X01870D01*
X01785Y03895D02*
X01823Y03856D01*
X01785Y03895D02*
Y04145D01*
X01348Y03856D02*
X01395D01*
X01310Y03895D02*
X01348Y03856D01*
X01310Y03895D02*
Y04140D01*
X02265Y04160D02*
X02345D01*
X02255Y04150D02*
X02265Y04160D01*
X02255Y03900D02*
Y04150D01*
X01785Y04145D02*
X01800Y04160D01*
X03200Y02000D02*
Y02225D01*
X03185Y01985D02*
X03200Y02000D01*
X03080Y01985D02*
X03185D01*
X03146Y02278D02*
X03200Y02225D01*
X04150Y01995D02*
Y02225D01*
X04135Y01980D02*
X04150Y01995D01*
X04035Y01980D02*
X04135D01*
X04400Y01616D02*
Y01775D01*
X04343Y01831D02*
X04400Y01775D01*
X04343Y01831D02*
Y01908D01*
X03675Y01995D02*
Y02220D01*
X03660Y01980D02*
X03675Y01995D01*
X03565Y01980D02*
X03660D01*
X03616Y02278D02*
X03675Y02220D01*
X02725Y01990D02*
Y02225D01*
X02715Y01980D02*
X02725Y01990D01*
X02610Y01980D02*
X02715D01*
X02048Y02196D02*
X02085Y02160D01*
Y01960D02*
Y02160D01*
X02060Y01935D02*
X02085Y01960D01*
X01800Y02650D02*
X04425D01*
X01642Y02492D02*
X01800Y02650D01*
X01642Y02445D02*
Y02492D01*
X04732Y03017D02*
Y03082D01*
X04755Y03105*
X04940*
X04451Y02596D02*
X04710Y02855D01*
X04444Y02614D02*
X04733Y02902D01*
X04437Y02632D02*
X04715Y02910D01*
X02232Y02632D02*
X04437D01*
X02675Y02614D02*
X04444D01*
X02981Y02596D02*
X04451D01*
X02970Y02585D02*
X02981Y02596D01*
X02597Y02536D02*
X02675Y02614D01*
X02122Y02522D02*
X02232Y02632D01*
X04425Y02650D02*
X04695Y02920D01*
X02567Y01967D02*
Y02155D01*
X02672*
X02522Y02196D02*
X02567Y02152D01*
X02485Y02196D02*
X02522D01*
X04705D02*
Y02281D01*
X04615Y02280D02*
X04703D01*
X04230Y02196D02*
Y02281D01*
X04145Y02280D02*
X04228D01*
X03758D02*
X03760Y02281D01*
X03675Y02280D02*
X03758D01*
X03285Y02281D02*
Y02335D01*
X02810Y02196D02*
Y02279D01*
X02725Y02275D02*
X02805D01*
X02335Y02196D02*
Y02279D01*
X02250Y02275D02*
X02330D01*
X02230Y01975D02*
X02245Y01990D01*
Y02220*
X02186Y02278D02*
X02245Y02220D01*
X02160Y02278D02*
X02186D01*
X02330Y02275D02*
X02335Y02279D01*
X01860Y02196D02*
Y02279D01*
X01775Y02275D02*
X01855D01*
X01380Y02279D02*
X01405Y02304D01*
Y02350*
X04615Y01990D02*
Y02225D01*
X04561Y02278D02*
X04615Y02225D01*
X04530Y02278D02*
X04561D01*
X03340Y02350D02*
X03405D01*
X03285Y02405D02*
X03340Y02350D01*
X03285Y02405D02*
Y02443D01*
X02671Y02278D02*
X02725Y02225D01*
X02635Y02278D02*
X02671D01*
X01470Y02350D02*
X01514D01*
X01380Y02440D02*
X01470Y02350D01*
X01695Y03853D02*
X01698Y03850D01*
X01780*
X02170Y03853D02*
X02173Y03850D01*
X02255*
X02648D02*
X02720D01*
X03115Y03795D02*
Y03853D01*
X03681D02*
X03685Y03850D01*
X03595Y03853D02*
X03681D01*
X04156D02*
X04160Y03850D01*
X04075Y03853D02*
X04156D01*
X04636D02*
X04640Y03850D01*
X04550Y03853D02*
X04636D01*
X05025D02*
X05111D01*
X01530Y01935D02*
X01590D01*
X01498Y01903D02*
X01530Y01935D01*
X01498Y01821D02*
Y01903D01*
X01590Y01935D02*
X01605Y01950D01*
X01448Y01510D02*
X01555Y01616D01*
Y01765*
X01498Y01821D02*
X01555Y01765D01*
X01605Y01950D02*
Y02155D01*
X01717*
X01563Y02196D02*
X01605Y02155D01*
X01530Y02196D02*
X01563D01*
X01760Y01975D02*
X01770Y01985D01*
X01655Y01975D02*
X01760D01*
X01642Y01987D02*
X01655Y01975D01*
X01770Y01985D02*
Y02225D01*
X01720Y02275D02*
X01770Y02225D01*
X02000Y01935D02*
X02060D01*
X01973Y01908D02*
X02000Y01935D01*
X01973Y01816D02*
Y01908D01*
X02025Y01612D02*
Y01765D01*
X01973Y01816D02*
X02025Y01765D01*
X01922Y01510D02*
X02025Y01612D01*
X02090Y02155D02*
X02197D01*
X02010Y02196D02*
X02048D01*
X02923Y01908D02*
X02950Y01935D01*
X02923Y01836D02*
X02970Y01790D01*
X02923Y01836D02*
Y01908D01*
X02950Y01935D02*
X03015D01*
X02396Y01510D02*
X02485Y01598D01*
Y01790*
X02448Y01826D02*
X02485Y01790D01*
X02448Y01826D02*
Y01893D01*
X02490Y01935*
X02535*
X02567Y01967*
X02597Y01992D02*
X02610Y01980D01*
X02871Y01510D02*
X02970Y01609D01*
Y01790*
X03015Y01935D02*
X03037Y01957D01*
Y02152*
X03040Y02155*
X03345Y01510D02*
X03430Y01594D01*
Y01785*
X03393Y01821D02*
X03430Y01785D01*
X03393Y01821D02*
Y01908D01*
X03420Y01935*
X03495*
X03510Y01950*
Y02155*
X03819Y01510D02*
X03905Y01595D01*
Y01780*
X03865Y01820D02*
X03905Y01780D01*
X03865Y01820D02*
Y01900D01*
X03900Y01935*
X03965*
X03990Y01960*
Y02155*
X04096Y02278D02*
X04150Y02225D01*
X04455Y02160D02*
X04567D01*
X04435D02*
X04455D01*
X04293Y01510D02*
X04400Y01616D01*
X04343Y01908D02*
X04370Y01935D01*
X04435*
X04455Y01955*
Y02160*
X04930Y02155D02*
X05042D01*
X04915D02*
X04930D01*
X04768Y01510D02*
X04790D01*
X04865Y01585*
Y01775*
X04818Y01821D02*
X04865Y01775D01*
X04818Y01821D02*
Y01913D01*
X04840Y01935*
X04900*
X04930Y01965*
Y02155*
X03002Y02445D02*
Y02502D01*
X02970Y02535D02*
X03002Y02502D01*
X02970Y02535D02*
Y02585D01*
X01590Y02365D02*
X01643D01*
X04967Y02445D02*
Y02522D01*
X03545Y02520D02*
X03547Y02517D01*
X04022Y02522D02*
X04025Y02525D01*
X04492Y02445D02*
Y02522D01*
X04022Y02445D02*
Y02522D01*
X03547Y02445D02*
Y02517D01*
X04905Y03305D02*
X04971Y03371D01*
X04835Y03305D02*
X04905D01*
X04785Y03255D02*
X04835Y03305D01*
X04971Y03371D02*
Y03524D01*
X04695Y02980D02*
X04732Y03017D01*
X04695Y02920D02*
Y02980D01*
X04715Y02965D02*
X04750Y03000D01*
X04715Y02910D02*
Y02965D01*
X04710Y02855D02*
X04785D01*
X04733Y02903D02*
X04734Y02905D01*
X04733Y02902D02*
Y02903D01*
X04750Y03000D02*
X04930D01*
X04734Y02905D02*
X04835D01*
X04940Y03105D02*
X04965Y03080D01*
Y02780D02*
Y03080D01*
X04940Y02755D02*
X04965Y02780D01*
X04930Y03000D02*
X04945Y02985D01*
Y02815D02*
Y02985D01*
X04935Y02805D02*
X04945Y02815D01*
X04835Y02805D02*
X04935D01*
X04885Y02755D02*
X04940D01*
X04785D02*
X04835Y02805D01*
Y02905D02*
X04885Y02855D01*
X04480Y03800D02*
X04550Y03730D01*
X04410Y03800D02*
X04480D01*
X04362Y03847D02*
X04410Y03800D01*
X04362Y03847D02*
Y03860D01*
X04840Y03810D02*
X04903Y03746D01*
X04805Y03810D02*
X04840D01*
X04795Y03820D02*
X04805Y03810D01*
X04903Y03693D02*
Y03746D01*
X04785Y03455D02*
Y03490D01*
X04765Y03510D02*
X04785Y03490D01*
X01635Y03510D02*
X04765D01*
X04885Y03455D02*
Y03510D01*
X04867Y03528D02*
X04885Y03510D01*
X02050Y03528D02*
X04867D01*
X02597Y02445D02*
Y02536D01*
X02122Y02445D02*
Y02522D01*
X04812Y01972D02*
Y02030D01*
X04765Y01925D02*
X04812Y01972D01*
X04765Y01865D02*
Y01925D01*
Y01760D02*
Y01865D01*
Y01760D02*
X04800Y01725D01*
X04342Y01967D02*
Y02030D01*
X04290Y01915D02*
X04342Y01967D01*
X04290Y01865D02*
Y01915D01*
Y01760D02*
Y01865D01*
Y01760D02*
X04325Y01725D01*
X03872Y01967D02*
Y02030D01*
X03815Y01910D02*
X03872Y01967D01*
X03815Y01865D02*
Y01910D01*
Y01760D02*
Y01865D01*
Y01760D02*
X03850Y01725D01*
X03397Y01972D02*
Y02030D01*
X03340Y01915D02*
X03397Y01972D01*
X03340Y01865D02*
Y01915D01*
Y01760D02*
Y01865D01*
Y01760D02*
X03375Y01725D01*
X02922Y01967D02*
Y02030D01*
X02870Y01915D02*
X02922Y01967D01*
X02870Y01865D02*
Y01915D01*
Y01760D02*
Y01865D01*
Y01760D02*
X02905Y01725D01*
X02447Y01967D02*
Y02030D01*
X02395Y01915D02*
X02447Y01967D01*
X02395Y01865D02*
Y01915D01*
Y01760D02*
Y01865D01*
Y01760D02*
X02430Y01725D01*
X01972Y01957D02*
Y02030D01*
X01920Y01905D02*
X01972Y01957D01*
X01920Y01865D02*
Y01905D01*
Y01760D02*
Y01865D01*
Y01760D02*
X01955Y01725D01*
X01492Y01952D02*
Y02030D01*
X01445Y01905D02*
X01492Y01952D01*
X01445Y01865D02*
Y01905D01*
Y01735D02*
Y01865D01*
Y01735D02*
X01455Y01725D01*
X01480*
X02047Y02270D02*
X02121Y02196D01*
X02160*
X02335Y02375D02*
Y02440D01*
Y02375D02*
X02360Y02350D01*
X02450*
X02510Y02290*
Y02282D02*
Y02290D01*
Y02282D02*
X02522Y02270D01*
X02596Y02196*
X02635*
X02672Y02155D02*
Y02222D01*
Y02030D02*
Y02155D01*
X02505Y02330D02*
X02550D01*
X02565Y02315*
Y02275D02*
Y02315D01*
X02452Y02382D02*
X02505Y02330D01*
X02452Y02382D02*
Y02445D01*
X02565Y02275D02*
X02600Y02240D01*
X02655*
X02672Y02222*
X01492Y02155D02*
Y02275D01*
Y02113D02*
Y02155D01*
X01355D02*
X01492D01*
X01342Y02142D02*
X01355Y02155D01*
X01342Y02113D02*
Y02142D01*
X01972Y02155D02*
Y02275D01*
Y02113D02*
Y02155D01*
X01835D02*
X01972D01*
X01822Y02142D02*
X01835Y02155D01*
X01822Y02113D02*
Y02142D01*
X02447Y02270D02*
Y02275D01*
Y02155D02*
Y02270D01*
Y02113D02*
Y02155D01*
X02310D02*
X02447D01*
X02297Y02142D02*
X02310Y02155D01*
X02297Y02113D02*
Y02142D01*
X02922Y02155D02*
Y02275D01*
Y02113D02*
Y02155D01*
X02780D02*
X02922D01*
X02772Y02147D02*
X02780Y02155D01*
X02772Y02113D02*
Y02147D01*
X03147Y02155D02*
Y02222D01*
Y02035D02*
Y02155D01*
X03040D02*
X03147D01*
X02998Y02196D02*
X03040Y02155D01*
X02960Y02196D02*
X02998D01*
X04820Y02350D02*
X04890Y02280D01*
X04740Y02350D02*
X04820D01*
X04705Y02385D02*
X04740Y02350D01*
X04350D02*
X04415Y02285D01*
X04255Y02350D02*
X04350D01*
X04230Y02375D02*
X04255Y02350D01*
X03405D02*
X03470Y02285D01*
X01514Y02350D02*
X01567Y02297D01*
X01985Y02350D02*
X02047Y02287D01*
X01885Y02350D02*
X01985D01*
X01860Y02375D02*
X01885Y02350D01*
X02047Y02270D02*
Y02287D01*
X02040Y02330D02*
X02075D01*
X01977Y02392D02*
X02040Y02330D01*
X01977Y02392D02*
Y02445D01*
X01860Y02375D02*
Y02440D01*
X02197Y02155D02*
Y02222D01*
Y02030D02*
Y02155D01*
X02075Y02330D02*
X02095Y02310D01*
Y02280D02*
Y02310D01*
Y02280D02*
X02135Y02240D01*
X02180*
X02197Y02222*
X01717Y02155D02*
Y02222D01*
Y02030D02*
Y02155D01*
X01497Y02397D02*
Y02445D01*
Y02397D02*
X01570Y02325D01*
X01605*
X01615Y02315*
Y02265D02*
Y02315D01*
Y02265D02*
X01640Y02240D01*
X01700*
X01717Y02222*
X01680Y02278D02*
X01683Y02275D01*
X01720*
X01642Y01987D02*
Y02030D01*
X01567Y02270D02*
Y02297D01*
Y02270D02*
X01641Y02196D01*
X01680*
X02997Y02074D02*
Y02113D01*
Y02035D02*
Y02074D01*
X02996Y02075D02*
X02997Y02074D01*
X02865Y02075D02*
X02996D01*
X02847Y02092D02*
X02865Y02075D01*
X02847Y02092D02*
Y02113D01*
X02522Y02075D02*
Y02113D01*
Y02035D02*
Y02075D01*
X02385D02*
X02522D01*
X02372Y02087D02*
X02385Y02075D01*
X02372Y02087D02*
Y02113D01*
X02047Y02075D02*
Y02113D01*
Y02030D02*
Y02075D01*
X01905D02*
X02047D01*
X01897Y02082D02*
X01905Y02075D01*
X01897Y02082D02*
Y02113D01*
X01567Y02075D02*
Y02113D01*
Y02035D02*
Y02075D01*
X01430D02*
X01567D01*
X01417Y02087D02*
X01430Y02075D01*
X01417Y02087D02*
Y02113D01*
X02935Y02350D02*
X02997Y02287D01*
X02830Y02350D02*
X02935D01*
X02810Y02370D02*
X02830Y02350D01*
X02927Y02397D02*
Y02445D01*
Y02397D02*
X02995Y02330D01*
X03020*
X03050Y02300*
Y02265D02*
Y02300D01*
Y02265D02*
X03075Y02240D01*
X03130*
X03147Y02222*
X03110Y02278D02*
X03146D01*
X03072Y01992D02*
X03080Y01985D01*
X03072Y01992D02*
Y02035D01*
X02810Y02370D02*
Y02440D01*
X02997Y02270D02*
Y02287D01*
Y02270D02*
X03071Y02196D01*
X03110*
X03472Y02030D02*
Y02075D01*
X03330D02*
X03472D01*
X03322Y02082D02*
X03330Y02075D01*
X03472Y02030D02*
Y02113D01*
X03322Y02082D02*
Y02113D01*
X03397Y02155D02*
Y02275D01*
Y02113D02*
Y02155D01*
X03260D02*
X03397D01*
X03247Y02142D02*
X03260Y02155D01*
X03247Y02113D02*
Y02142D01*
X03547Y01997D02*
Y02113D01*
Y01997D02*
X03565Y01980D01*
X03585Y02278D02*
X03616D01*
X03975Y02330D02*
X04005Y02300D01*
X03940Y02330D02*
X03975D01*
X03877Y02392D02*
X03940Y02330D01*
X03497Y02327D02*
X03525Y02300D01*
X03462Y02327D02*
X03497D01*
X03402Y02387D02*
X03462Y02327D01*
X03402Y02387D02*
Y02445D01*
X03470Y02272D02*
Y02285D01*
X03525Y02260D02*
Y02300D01*
X03510Y02155D02*
X03622D01*
Y02222*
Y02113D02*
Y02155D01*
X03525Y02260D02*
X03545Y02240D01*
X03605*
X03622Y02222*
X03468Y02196D02*
X03510Y02155D01*
X03435Y02196D02*
X03468D01*
X03622Y02030D02*
Y02113D01*
X03472Y02270D02*
X03546Y02196D01*
X03470Y02272D02*
X03472Y02270D01*
X03546Y02196D02*
X03585D01*
X04495Y02240D02*
X04555D01*
X04470Y02265D02*
X04495Y02240D01*
X04470Y02265D02*
Y02310D01*
X04005Y02265D02*
Y02300D01*
Y02265D02*
X04030Y02240D01*
X03877Y02392D02*
Y02445D01*
X03872Y02155D02*
Y02274D01*
Y02113D02*
Y02155D01*
X03735D02*
X03872D01*
X03722Y02142D02*
X03735Y02155D01*
X03722Y02113D02*
Y02142D01*
X03947Y02075D02*
Y02113D01*
Y02030D02*
Y02075D01*
X03805D02*
X03947D01*
X03797Y02082D02*
X03805Y02075D01*
X03797Y02082D02*
Y02113D01*
X04022Y01992D02*
X04035Y01980D01*
X04060Y02278D02*
X04096D01*
X04097Y02152D02*
Y02222D01*
Y02113D02*
Y02152D01*
X04030Y02240D02*
X04080D01*
X04097Y02222*
X04095Y02155D02*
X04097Y02152D01*
X03990Y02155D02*
X04095D01*
X03948Y02196D02*
X03990Y02155D01*
X03910Y02196D02*
X03948D01*
X03880Y02350D02*
X03947Y02282D01*
X03780Y02350D02*
X03880D01*
X03760Y02370D02*
X03780Y02350D01*
X03947Y02269D02*
Y02282D01*
X03760Y02370D02*
Y02443D01*
X03947Y02269D02*
X04020Y02196D01*
X04060*
X04097Y02113D02*
D01*
Y02030D02*
Y02113D01*
X04342Y02155D02*
Y02274D01*
Y02113D02*
Y02155D01*
X04205D02*
X04342D01*
X04192Y02142D02*
X04205Y02155D01*
X04192Y02113D02*
Y02142D01*
X04567Y02160D02*
Y02227D01*
Y02113D02*
Y02160D01*
X04400Y02195D02*
X04435Y02160D01*
X04381Y02195D02*
X04400D01*
X04380Y02196D02*
X04381Y02195D01*
X04492Y01997D02*
X04510Y01980D01*
X04605*
X04615Y01990*
X04417Y02075D02*
Y02113D01*
Y02030D02*
Y02075D01*
X04270D02*
X04417D01*
X04267Y02077D02*
X04270Y02075D01*
X04267Y02077D02*
Y02113D01*
X04450Y02330D02*
X04470Y02310D01*
X04405Y02330D02*
X04450D01*
X04953Y02262D02*
Y02297D01*
X04920Y02330D02*
X04953Y02297D01*
X04880Y02330D02*
X04920D01*
X04822Y02387D02*
X04880Y02330D01*
X04822Y02387D02*
Y02445D01*
X04347Y02387D02*
Y02445D01*
Y02387D02*
X04405Y02330D01*
X04415Y02272D02*
Y02285D01*
X04417Y02269D02*
X04490Y02196D01*
X04415Y02272D02*
X04417Y02269D01*
X04490Y02196D02*
X04530D01*
X04230Y02375D02*
Y02443D01*
X04555Y02240D02*
X04567Y02227D01*
Y02113D02*
D01*
Y02030D02*
Y02113D01*
X04967Y01992D02*
X04980Y01980D01*
X05080*
X05090Y01990*
Y02235*
X05046Y02278D02*
X05090Y02235D01*
X05005Y02278D02*
X05046D01*
X04892Y02075D02*
Y02113D01*
Y02035D02*
Y02075D01*
X04745D02*
X04892D01*
X04742Y02077D02*
X04745Y02075D01*
X04742Y02077D02*
Y02113D01*
X04817Y02155D02*
Y02269D01*
Y02113D02*
Y02155D01*
X04680D02*
X04817D01*
X04667Y02142D02*
X04680Y02155D01*
X04667Y02113D02*
Y02142D01*
X04817Y02269D02*
Y02274D01*
X05042Y02155D02*
Y02222D01*
Y02113D02*
Y02155D01*
X04873Y02196D02*
X04915Y02155D01*
X04855Y02196D02*
X04873D01*
X04705Y02385D02*
Y02443D01*
X04896Y02273D02*
X04973Y02196D01*
X04953Y02262D02*
X04975Y02240D01*
X05025*
X05042Y02222*
X04973Y02196D02*
X05005D01*
X05042Y02113D02*
D01*
Y02030D02*
Y02113D01*
Y02361D02*
Y02445D01*
X04817Y02269D02*
D01*
X02447Y02270D02*
D01*
X04492Y01997D02*
Y02113D01*
X04967Y01992D02*
Y02113D01*
X04897Y02445D02*
X04967D01*
X03477D02*
X03547D01*
X03002D02*
X03072D01*
X02527D02*
X02597D01*
X02052D02*
X02122D01*
X01572D02*
X01642D01*
X03952D02*
X04022D01*
X04422D02*
X04492D01*
X04567Y02361D02*
Y02445D01*
X03760Y02196D02*
Y02281D01*
X04022Y01992D02*
Y02113D01*
X04097Y02361D02*
Y02445D01*
X03622Y02361D02*
Y02445D01*
X03285Y02196D02*
Y02281D01*
X03147Y02361D02*
Y02445D01*
X03072Y02035D02*
Y02113D01*
X02672Y02361D02*
Y02445D01*
X02597Y01992D02*
Y02113D01*
X02197Y02361D02*
Y02445D01*
X02122Y02035D02*
Y02113D01*
X01717Y02361D02*
Y02445D01*
X01380Y02196D02*
Y02279D01*
X01642Y02035D02*
Y02113D01*
X05007Y03297D02*
Y03539D01*
X04915Y03205D02*
X05007Y03297D01*
X05025Y03289D02*
Y03547D01*
X04890Y03155D02*
X05025Y03289D01*
X04832Y03652D02*
Y03690D01*
Y03652D02*
X04849Y03636D01*
X04936*
X05025Y03547*
X04885Y03155D02*
X04890D01*
X04845Y03205D02*
X04915D01*
X04795Y03155D02*
X04845Y03205D01*
X04785Y03155D02*
X04795D01*
X04928Y03618D02*
X05007Y03539D01*
X04372Y03618D02*
X04928D01*
X04357Y03632D02*
X04372Y03618D01*
X04357Y03632D02*
Y03690D01*
X03882Y03632D02*
Y03690D01*
Y03632D02*
X03915Y03600D01*
X04921*
X04989Y03532*
Y03359D02*
Y03532D01*
X04885Y03255D02*
X04989Y03359D01*
X03402Y03632D02*
Y03690D01*
Y03632D02*
X03453Y03582D01*
X04913*
X04971Y03524*
X02922Y03611D02*
Y03690D01*
Y03611D02*
X02970Y03564D01*
X04906*
X04953Y03517*
Y03388D02*
Y03517D01*
X04920Y03355D02*
X04953Y03388D01*
X04885Y03355D02*
X04920D01*
X04785D02*
X04835Y03405D01*
X04920*
X04935Y03420*
Y03510*
X04899Y03546D02*
X04935Y03510D01*
X02510Y03546D02*
X04899D01*
X02447Y03608D02*
X02510Y03546D01*
X02447Y03608D02*
Y03690D01*
X01977Y03600D02*
Y03690D01*
Y03600D02*
X02050Y03528D01*
X01505Y03687D02*
X01507Y03690D01*
X01505Y03640D02*
Y03687D01*
Y03640D02*
X01635Y03510D01*
X04655Y04160D02*
X04730D01*
X04640Y04145D02*
X04655Y04160D01*
X04762Y04105D02*
Y04127D01*
X04730Y04160D02*
X04762Y04127D01*
X04287Y04105D02*
Y04122D01*
X04250Y04160D02*
X04287Y04122D01*
X04180Y04160D02*
X04250D01*
X03812Y04021D02*
Y04127D01*
X03780Y04160D02*
X03812Y04127D01*
X03705Y04160D02*
X03780D01*
X03690Y04145D02*
X03705Y04160D01*
X03332Y04021D02*
Y04127D01*
X03300Y04160D02*
X03332Y04127D01*
X03225Y04160D02*
X03300D01*
X01405D02*
X01432Y04132D01*
X01330Y04160D02*
X01405D01*
X01310Y04140D02*
X01330Y04160D01*
X02345D02*
X02382Y04122D01*
X02825Y04160D02*
X02852Y04132D01*
X02745Y04160D02*
X02825D01*
X02730Y04145D02*
X02745Y04160D01*
X02852Y04105D02*
Y04132D01*
X02382Y04026D02*
Y04122D01*
X04865Y04533D02*
X04960Y04628D01*
X04800Y03980D02*
X04815D01*
X04687D02*
X04800D01*
X04865Y04365D02*
Y04533D01*
Y04365D02*
X04915Y04315D01*
Y04220D02*
Y04315D01*
X04870Y04175D02*
X04915Y04220D01*
X04825Y04175D02*
X04870D01*
X04800Y04150D02*
X04825Y04175D01*
X04800Y03980D02*
Y04150D01*
X04325Y03980D02*
X04340D01*
X04215D02*
X04325D01*
X04485Y04625D02*
X04489D01*
X04385Y04525D02*
X04485Y04625D01*
X04385Y04370D02*
Y04525D01*
Y04370D02*
X04440Y04315D01*
Y04220D02*
Y04315D01*
X04395Y04175D02*
X04440Y04220D01*
X04345Y04175D02*
X04395D01*
X04325Y04155D02*
X04345Y04175D01*
X04325Y03980D02*
Y04155D01*
X04165Y04145D02*
X04180Y04160D01*
X03690Y03905D02*
Y04145D01*
Y03905D02*
X03738Y03856D01*
X03915Y04525D02*
X04014Y04625D01*
X03850Y03980D02*
X03865D01*
X03740D02*
X03850D01*
X03915Y04370D02*
Y04525D01*
Y04370D02*
X03965Y04320D01*
Y04215D02*
Y04320D01*
X03925Y04175D02*
X03965Y04215D01*
X03870Y04175D02*
X03925D01*
X03850Y04155D02*
X03870Y04175D01*
X03850Y03980D02*
Y04155D01*
X02255Y03900D02*
X02298Y03856D01*
X03440Y04524D02*
X03540Y04625D01*
X03440Y04370D02*
Y04524D01*
Y04370D02*
X03490Y04320D01*
Y04220D02*
Y04320D01*
X03445Y04175D02*
X03490Y04220D01*
X03395Y04175D02*
X03445D01*
X03375Y04155D02*
X03395Y04175D01*
X03375Y03980D02*
Y04155D01*
X03055Y04625D02*
X03066D01*
X02965Y04535D02*
X03055Y04625D01*
X02965Y04375D02*
Y04535D01*
Y04375D02*
X03015Y04325D01*
Y04230D02*
Y04325D01*
X02960Y04175D02*
X03015Y04230D01*
X02915Y04175D02*
X02960D01*
X02890Y04150D02*
X02915Y04175D01*
X02890Y03980D02*
Y04150D01*
X02415Y03959D02*
X02436Y03938D01*
X02395Y03980D02*
X02415Y03959D01*
X02500Y04533D02*
X02592Y04625D01*
X02500Y04360D02*
Y04533D01*
Y04360D02*
X02545Y04315D01*
Y04220D02*
Y04315D01*
X02500Y04175D02*
X02545Y04220D01*
X02440Y04175D02*
X02500D01*
X02415Y04150D02*
X02440Y04175D01*
X02415Y03959D02*
Y04150D01*
X01945Y03955D02*
X01960Y03940D01*
X01920Y03980D02*
X01945Y03955D01*
X02010Y04517D02*
X02117Y04625D01*
X02010Y04375D02*
Y04517D01*
Y04375D02*
X02070Y04315D01*
Y04230D02*
Y04315D01*
X02015Y04175D02*
X02070Y04230D01*
X01970Y04175D02*
X02015D01*
X01945Y04150D02*
X01970Y04175D01*
X01945Y03955D02*
Y04150D01*
X01545Y04526D02*
X01643Y04625D01*
X01545Y04375D02*
Y04526D01*
Y04375D02*
X01595Y04325D01*
Y04225D02*
Y04325D01*
X01545Y04175D02*
X01595Y04225D01*
X01490Y04175D02*
X01545D01*
X01471Y04156D02*
X01490Y04175D01*
X01471Y03938D02*
Y04156D01*
X04687Y03980D02*
Y04021D01*
Y03917D02*
Y03980D01*
X04815D02*
X04856Y03938D01*
X04875*
X05025Y03692D02*
Y03755D01*
X04985Y03795D02*
X05025Y03755D01*
X04885Y03795D02*
X04985D01*
X04837Y03842D02*
X04885Y03795D01*
X04837Y03842D02*
Y03860D01*
X04759Y03938D02*
X04837Y03860D01*
X04725Y03938D02*
X04759D01*
X04903Y03693D02*
X04907Y03690D01*
X04795Y03820D02*
Y03865D01*
X04760Y03900D02*
X04795Y03865D01*
X04705Y03900D02*
X04760D01*
X04687Y03917D02*
X04705Y03900D01*
X03738Y03856D02*
X03775D01*
X04550Y03692D02*
Y03730D01*
X04284Y03938D02*
X04362Y03860D01*
X04250Y03938D02*
X04284D01*
X04212Y04021D02*
Y04105D01*
Y03912D02*
Y04021D01*
X04432Y03690D02*
Y03737D01*
X04365Y03805D02*
X04432Y03737D01*
X04335Y03805D02*
X04365D01*
X04320Y03820D02*
X04335Y03805D01*
X04320Y03820D02*
Y03855D01*
X04275Y03900D02*
X04320Y03855D01*
X04225Y03900D02*
X04275D01*
X04212Y03912D02*
X04225Y03900D01*
X04340Y03980D02*
X04381Y03938D01*
X04400*
X04362Y04060D02*
Y04105D01*
Y04021D02*
Y04060D01*
X04500*
X04512Y04047*
Y04021D02*
Y04047D01*
X04912Y03980D02*
Y04021D01*
Y03860D02*
Y03980D01*
X05021*
X05062Y04021*
X04437Y03980D02*
Y04021D01*
Y03860D02*
Y03980D01*
X04546*
X04587Y04021*
X03962Y03980D02*
Y04021D01*
Y03860D02*
Y03980D01*
X04071*
X04112Y04021*
X04837Y04060D02*
Y04105D01*
Y04021D02*
Y04060D01*
X04980*
X04987Y04052*
Y04021D02*
Y04052D01*
X04965Y04220D02*
Y04270D01*
X04912Y04167D02*
X04965Y04220D01*
X04912Y04105D02*
Y04167D01*
X04929Y04410D02*
X04955D01*
X04965Y04400*
Y04270D02*
Y04400D01*
X04454Y04410D02*
X04459Y04415D01*
X04480*
X04490Y04405*
Y04270D02*
Y04405D01*
Y04225D02*
Y04270D01*
X04437Y04172D02*
X04490Y04225D01*
X04437Y04105D02*
Y04172D01*
X03029Y04410D02*
X03045D01*
X03065Y04390*
Y04270D02*
Y04390D01*
X02559Y04410D02*
X02580D01*
X02595Y04395*
Y04270D02*
Y04395D01*
X03504Y04410D02*
X03525D01*
X03540Y04395*
Y04270D02*
Y04395D01*
X03979Y04410D02*
X03984Y04415D01*
X04000*
X04015Y04400*
Y04270D02*
Y04400D01*
Y04220D02*
Y04270D01*
X03962Y04167D02*
X04015Y04220D01*
X03962Y04105D02*
Y04167D01*
X03887Y04063D02*
Y04105D01*
Y04021D02*
Y04063D01*
X04026*
X04037Y04052*
Y04021D02*
Y04052D01*
X03737Y03982D02*
Y04105D01*
X03957Y03690D02*
Y03742D01*
X03895Y03805D02*
X03957Y03742D01*
X03865Y03805D02*
X03895D01*
X03845Y03825D02*
X03865Y03805D01*
X03845Y03825D02*
Y03855D01*
X03800Y03900D02*
X03845Y03855D01*
X03750Y03900D02*
X03800D01*
X03737Y03912D02*
X03750Y03900D01*
X03737Y03912D02*
Y03982D01*
X03740Y03980*
X03865D02*
X03906Y03938D01*
X03925*
X04075Y03692D02*
Y03765D01*
X04045Y03795D02*
X04075Y03765D01*
X03940Y03795D02*
X04045D01*
X03887Y03847D02*
X03940Y03795D01*
X03887Y03847D02*
Y03860D01*
X03809Y03938D02*
X03887Y03860D01*
X03775Y03938D02*
X03809D01*
X03962Y03860D02*
D01*
X05025Y03853D02*
Y03938D01*
X04550Y03853D02*
Y03938D01*
X04075Y03853D02*
Y03938D01*
X04762Y04021D02*
Y04105D01*
X04687Y04021D02*
Y04105D01*
Y03690D02*
Y03773D01*
X04762Y03690D02*
X04832D01*
X04287Y04021D02*
Y04105D01*
Y03690D02*
X04357D01*
X04212D02*
Y03773D01*
X03812Y03690D02*
X03882D01*
X03737D02*
Y03773D01*
X03332Y03690D02*
X03402D01*
X03257D02*
Y03773D01*
X03595Y03853D02*
Y03938D01*
X02777Y04021D02*
Y04105D01*
X03257Y03980D02*
Y04021D01*
Y03907D02*
Y03980D01*
X03375*
X03416Y03938*
X03445*
X03215Y04150D02*
X03225Y04160D01*
X03215Y03895D02*
Y04150D01*
Y03895D02*
X03253Y03856D01*
X03295*
X03265Y03900D02*
X03330D01*
X03329Y03938D02*
X03407Y03860D01*
X03295Y03938D02*
X03329D01*
X03595Y03692D02*
Y03765D01*
X03565Y03795D02*
X03595Y03765D01*
X03450Y03795D02*
X03565D01*
X03407Y03837D02*
X03450Y03795D01*
X03407Y03837D02*
Y03860D01*
X03477Y03690D02*
Y03732D01*
X03257Y03907D02*
X03265Y03900D01*
X03407Y04060D02*
Y04105D01*
Y04021D02*
Y04060D01*
X03550*
X03557Y04052*
Y04021D02*
Y04052D01*
X03482Y03980D02*
Y04021D01*
Y03860D02*
Y03980D01*
X03610*
X03632Y04002*
Y04021*
X04905Y02365D02*
X04958D01*
X04435D02*
X04488D01*
X03965D02*
X04018D01*
X03490D02*
X03543D01*
X03015D02*
X03068D01*
X02535D02*
X02588D01*
X02065D02*
X02118D01*
X04771Y03770D02*
X04825D01*
X04296D02*
X04350D01*
X03821D02*
X03875D01*
X03341D02*
X03395D01*
X02381D02*
X02435D01*
X02852Y03773D02*
X02856Y03770D01*
X02915*
X02997Y03690D02*
Y03742D01*
X02935Y03805D02*
X02997Y03742D01*
X02895Y03805D02*
X02935D01*
X02885Y03815D02*
X02895Y03805D01*
X02885Y03815D02*
Y03865D01*
X02522Y03690D02*
Y03737D01*
X02445Y03815D02*
X02522Y03737D01*
X02400Y03815D02*
X02445D01*
X03115Y03853D02*
Y03938D01*
X03002Y03980D02*
Y04021D01*
Y03860D02*
Y03980D01*
X03140*
X03152Y03992*
Y04021*
X02927Y04060D02*
Y04105D01*
Y04021D02*
Y04060D01*
X03070*
X03077Y04052*
Y04021D02*
Y04052D01*
X02777Y03690D02*
Y03773D01*
X02852Y03690D02*
X02922D01*
X02850Y03900D02*
X02885Y03865D01*
X02785Y03900D02*
X02850D01*
X02777Y03907D02*
X02785Y03900D01*
X02777Y03907D02*
Y04021D01*
X02931Y03938D02*
X02965D01*
X02890Y03980D02*
X02931Y03938D01*
X02777Y03980D02*
X02890D01*
X03540Y04215D02*
Y04270D01*
X03482Y04157D02*
X03540Y04215D01*
X03482Y04105D02*
Y04157D01*
X03257Y04021D02*
Y04105D01*
X03065Y04220D02*
Y04270D01*
X03002Y04157D02*
X03065Y04220D01*
X03002Y04105D02*
Y04157D01*
X02852Y04105D02*
D01*
Y04021D02*
Y04105D01*
X02302Y03912D02*
Y04021D01*
Y03912D02*
X02320Y03895D01*
X02375*
X02390Y03880*
Y03825D02*
Y03880D01*
Y03825D02*
X02400Y03815D01*
X02640Y03858D02*
Y03938D01*
X02527Y03980D02*
Y04021D01*
Y03865D02*
Y03980D01*
X02665*
X02677Y03992*
Y04021*
X02522Y03860D02*
X02527Y03865D01*
X02298Y03856D02*
X02340D01*
X02377Y03690D02*
X02447D01*
X02302D02*
Y03773D01*
X02436Y03938D02*
X02490D01*
X02302Y03980D02*
X02395D01*
X02595Y04210D02*
Y04270D01*
X02527Y04142D02*
X02595Y04210D01*
X02527Y04105D02*
Y04142D01*
X02452Y04057D02*
Y04105D01*
Y04021D02*
Y04057D01*
X02455Y04060*
X02595*
X02602Y04052*
Y04021D02*
Y04052D01*
X02302Y04021D02*
Y04100D01*
X02307Y04105*
X01604Y04410D02*
X01645Y04369D01*
Y04270D02*
Y04369D01*
X02084Y04410D02*
X02100D01*
X02120Y04390*
Y04270D02*
Y04390D01*
Y04215D02*
Y04270D01*
X02057Y04152D02*
X02120Y04215D01*
X02057Y04105D02*
Y04152D01*
X01511Y03810D02*
X01582Y03738D01*
X01470Y03810D02*
X01511D01*
X01460Y03820D02*
X01470Y03810D01*
X01460Y03820D02*
Y03865D01*
X01910Y03895D02*
X01935Y03870D01*
X02170Y03853D02*
Y03938D01*
X02057Y03980D02*
Y04021D01*
Y03860D02*
Y03980D01*
X02207Y03992D02*
Y04021D01*
X02195Y03980D02*
X02207Y03992D01*
X02057Y03980D02*
X02195D01*
X01982Y04060D02*
Y04105D01*
Y04021D02*
Y04060D01*
X02132Y04021D02*
Y04057D01*
X02130Y04060D02*
X02132Y04057D01*
X01982Y04060D02*
X02130D01*
X01907Y03690D02*
X01977D01*
X01832D02*
Y03773D01*
X01916Y03765D02*
X01970D01*
X02052Y03690D02*
Y03747D01*
X01990Y03810D02*
X02052Y03747D01*
X01845Y03895D02*
X01910D01*
X01832Y03907D02*
X01845Y03895D01*
X01832Y03907D02*
Y04021D01*
X02018Y03940D02*
X02020Y03938D01*
X01960Y03940D02*
X02018D01*
X01832Y03980D02*
X01920D01*
X01832Y04021D02*
D01*
Y04105D01*
X01582Y03690D02*
Y03738D01*
X01441Y03765D02*
X01490D01*
X01432Y03773D02*
X01441Y03765D01*
X01430Y03895D02*
X01460Y03865D01*
X01375Y03895D02*
X01430D01*
X01357Y03912D02*
X01375Y03895D01*
X01357Y03912D02*
Y04021D01*
X01655Y04060D02*
X01657Y04057D01*
X01512Y04060D02*
X01655D01*
X01507Y04065D02*
X01512Y04060D01*
X01507Y04021D02*
Y04065D01*
Y04105*
X01657Y04021D02*
Y04057D01*
X01582Y03980D02*
Y04021D01*
Y03860D02*
Y03980D01*
X01710*
X01732Y04002*
Y04021*
X01645Y04220D02*
Y04270D01*
X01582Y04157D02*
X01645Y04220D01*
X01582Y04105D02*
Y04157D01*
Y04021D02*
X01586D01*
X01695Y03853D02*
Y03938D01*
X01582Y03860D02*
D01*
X01357Y03690D02*
Y03773D01*
X01432Y03690D02*
X01507D01*
X01432Y04105D02*
D01*
Y04021D02*
Y04105D01*
Y04132D01*
X01471Y03938D02*
X01545D01*
X01430Y03980D02*
X01471Y03938D01*
X01357Y03980D02*
X01430D01*
X01357Y04105D02*
D01*
Y04021D02*
Y04105D01*
X01370Y06645D02*
X01430D01*
X01333Y06608D02*
X01370Y06645D01*
X01333Y06042D02*
Y06608D01*
X01455Y06565D02*
Y06634D01*
X01435Y06545D02*
X01455Y06565D01*
X01371Y06545D02*
X01435D01*
X01455Y06670D02*
Y06741D01*
X01430Y06645D02*
X01455Y06670D01*
X01452Y06110D02*
X01505Y06057D01*
X01370Y06110D02*
X01452D01*
X01351Y06129D02*
X01370Y06110D01*
X01351Y06129D02*
Y06525D01*
X01371Y06545*
X01455Y06634D02*
X01505Y06684D01*
Y06692*
X01452Y06010D02*
X01505Y05957D01*
X01365Y06010D02*
X01452D01*
X01333Y06042D02*
X01365Y06010D01*
X01455Y06741D02*
X01505Y06792D01*
X01367Y06692D02*
X01405D01*
X01315Y06640D02*
X01367Y06692D01*
X01315Y06000D02*
Y06640D01*
Y06000D02*
X01358Y05957D01*
X01405*
X03355Y06465D02*
Y06474D01*
Y06386D02*
Y06465D01*
X03305Y06386D02*
Y06487D01*
X03255Y06465D02*
Y06485D01*
Y06386D02*
Y06465D01*
X03205Y06811D02*
Y06889D01*
X04005Y06600D02*
X04005Y06600D01*
X04240Y06660D02*
X04257Y06677D01*
X04240Y06600D02*
Y06660D01*
X04216Y06576D02*
X04240Y06600D01*
X04200Y06576D02*
X04216D01*
X04275Y06645D02*
X04288Y06658D01*
X04370*
X04313Y06638D02*
X04370D01*
X04260Y06585D02*
X04313Y06638D01*
X04260Y06515D02*
Y06585D01*
X04200Y06513D02*
X04257D01*
X04212Y06697D02*
X04370D01*
X04200Y06685D02*
X04212Y06697D01*
X04257Y06677D02*
X04370D01*
X04140Y06576D02*
X04200D01*
X04140Y06511D02*
Y06576D01*
X05398Y07197D02*
X05531D01*
X05358Y07157D02*
X05398Y07197D01*
X04978Y06980D02*
X05033Y07035D01*
X04975Y07050D02*
Y07141D01*
X04959Y07157D02*
X04975Y07141D01*
X04880Y07157D02*
X04959D01*
X04996Y06953D02*
X05034Y06991D01*
X04960Y06990D02*
X05006Y07036D01*
Y07184D02*
X05018Y07197D01*
X04863Y07173D02*
X04880Y07157D01*
X04863Y07173D02*
Y07197D01*
X04481Y06886D02*
Y06973D01*
X04458Y06996D02*
X04481Y06973D01*
X04458Y06996D02*
Y07027D01*
X04435Y07051D02*
X04458Y07027D01*
X04435Y07061D02*
Y07071D01*
X04428Y06995D02*
Y07014D01*
Y06995D02*
X04461Y06961D01*
Y06886D02*
Y06961D01*
X04430Y06950D02*
X04441Y06938D01*
Y06886D02*
Y06938D01*
X03413Y07325D02*
X03565D01*
X03350Y07262D02*
X03413Y07325D01*
X03430Y07305D02*
X03574D01*
X03400Y07275D02*
X03430Y07305D01*
X03565Y07270D02*
Y07305D01*
X03350Y07227D02*
Y07262D01*
X03183Y07240D02*
X03215D01*
X03147Y07204D02*
X03183Y07240D01*
X03147Y07192D02*
Y07204D01*
X03066Y06259D02*
X03326D01*
X02943Y06382D02*
X03066Y06259D01*
X03326D02*
X03355Y06229D01*
X03073Y06277D02*
X03360D01*
X02961Y06389D02*
X03073Y06277D01*
X03360D02*
X03405Y06231D01*
X03223Y06325D02*
X03473D01*
X03205Y06342D02*
X03223Y06325D01*
X03425Y06471D02*
X03497D01*
X03370Y06489D02*
X03489D01*
X03325Y06507D02*
X03482D01*
X03295Y06525D02*
X03475D01*
X03405Y06197D02*
Y06231D01*
X03355Y06197D02*
Y06229D01*
X02850Y06530D02*
X02943Y06437D01*
Y06382D02*
Y06437D01*
X02857Y06548D02*
X02961Y06444D01*
Y06389D02*
Y06444D01*
X02918Y07280D02*
X03000D01*
X03635Y07240D02*
X03685D01*
X03604Y07270D02*
X03635Y07240D01*
X03565Y07270D02*
X03604D01*
X03697Y07202D02*
Y07227D01*
X03685Y07240D02*
X03697Y07227D01*
X03744Y07281D02*
X03755Y07270D01*
X03240Y07265D02*
X03280D01*
X03215Y07240D02*
X03240Y07265D01*
X03094Y07275D02*
X03181D01*
X03000Y07280D02*
X03015Y07265D01*
X02910Y07271D02*
X02918Y07280D01*
X03327Y07205D02*
X03350Y07227D01*
X03235Y07205D02*
X03327D01*
X03222Y07192D02*
X03235Y07205D01*
X03903Y06600D02*
X04005D01*
X03855Y06648D02*
X03903Y06600D01*
Y06974D02*
X04005D01*
X03855Y06925D02*
X03903Y06974D01*
X03660Y07281D02*
X03744D01*
X03181Y07275D02*
X03185Y07271D01*
X03400Y07227D02*
Y07275D01*
X04618Y06510D02*
X04641Y06487D01*
X04618Y06510D02*
Y06567D01*
X04638D02*
X04661Y06545D01*
X04758Y06838D02*
X04770D01*
X04735Y06815D02*
X04758Y06838D01*
X04689Y06815D02*
X04735D01*
X04735Y06905D02*
X04770D01*
X04715Y06885D02*
X04735Y06905D01*
X04715Y06860D02*
Y06885D01*
X04689Y06835D02*
X04715Y06860D01*
X04295Y06920D02*
X04388D01*
X04422Y06886*
X04295Y06853D02*
X04316D01*
X04235D02*
X04295D01*
X04316D02*
X04334Y06835D01*
X04370*
X04500Y06886D02*
Y07023D01*
X05283Y06125D02*
Y06201D01*
X05282Y06202D02*
X05283Y06201D01*
X05050Y06352D02*
X05131D01*
X05135Y06348*
X05216Y06345D02*
Y06405D01*
X02835Y06885D02*
X02850Y06870D01*
X02510Y06924D02*
Y07047D01*
Y06924D02*
X02532Y06903D01*
X02842*
X02868Y06877*
X03155Y06622D02*
Y06664D01*
X02849Y06921D02*
X02886Y06884D01*
X02610Y06954D02*
Y07047D01*
Y06954D02*
X02626Y06939D01*
X02857*
X02904Y06892*
X02864Y06957D02*
X02922Y06899D01*
Y06785D02*
Y06899D01*
X02940Y06792D02*
Y06907D01*
X02872Y06975D02*
X02940Y06907D01*
X02725Y06975D02*
X02872D01*
X02710Y06990D02*
X02725Y06975D01*
X02710Y06990D02*
Y07047D01*
X02710Y07047*
X02560Y06939D02*
Y07047D01*
Y06939D02*
X02579Y06921D01*
X02849*
X02460Y06909D02*
Y07047D01*
Y06909D02*
X02485Y06885D01*
X02835*
X02660Y06974D02*
Y07047D01*
Y06974D02*
X02678Y06957D01*
X02864*
X02850Y06750D02*
Y06870D01*
X02868Y06757D02*
Y06877D01*
X02886Y06764D02*
Y06884D01*
X02904Y06772D02*
Y06892D01*
X02850Y06750D02*
X02940Y06660D01*
X02868Y06757D02*
X02947Y06678D01*
X02886Y06764D02*
X02954Y06696D01*
X02940Y06660D02*
X03067D01*
X03105Y06622*
X02947Y06678D02*
X03142D01*
X03155Y06664*
X02940Y06792D02*
X02982Y06750D01*
X02922Y06785D02*
X02975Y06732D01*
X02904Y06772D02*
X02962Y06714D01*
X02410Y06622D02*
X02460D01*
X02510*
X02560D02*
X02610D01*
X02660*
X02710*
X02560Y06574D02*
Y06622D01*
X02510Y06574D02*
Y06622D01*
Y06574D02*
X02555Y06530D01*
X02850*
X02560Y06574D02*
X02587Y06548D01*
X02857*
X03255Y06622D02*
Y06654D01*
X03242Y06666D02*
X03243D01*
X03255Y06654*
X03305Y06622D02*
Y06659D01*
X03195Y06714D02*
X03242Y06666D01*
X02954Y06696D02*
X03179D01*
X03205Y06669*
Y06622D02*
Y06669D01*
X02962Y06714D02*
X03195D01*
X03255Y06485D02*
X03295Y06525D01*
X03305Y06487D02*
X03325Y06507D01*
X03305Y06811D02*
X03305Y06811D01*
X03355Y06474D02*
X03370Y06489D01*
X03405Y06386D02*
Y06451D01*
X03425Y06471*
X03255Y06780D02*
Y06811D01*
Y06780D02*
X03340Y06695D01*
X03305Y06785D02*
Y06811D01*
Y06785D02*
X03376Y06713D01*
X03477*
X03355Y06784D02*
Y06811D01*
Y06784D02*
X03408Y06731D01*
X03484*
X03405Y06774D02*
Y06811D01*
Y06774D02*
X03430Y06749D01*
X03492*
X03340Y06695D02*
X03469D01*
X03355Y06622D02*
Y06644D01*
X02982Y06750D02*
X03250D01*
X03355Y06644*
X02975Y06732D02*
X03233D01*
X03305Y06659*
X02410Y06197D02*
Y06224D01*
X02348Y06287D02*
X02410Y06224D01*
X02869Y06705D02*
X02932Y06642D01*
X02983*
X03400Y06570D02*
Y06617D01*
X03405Y06622*
X03205Y06342D02*
Y06386D01*
X03455Y06811D02*
D01*
X03155Y06386D02*
Y06499D01*
X02923Y06624D02*
X02975D01*
X02860Y06687D02*
X02923Y06624D01*
X02392Y06267D02*
X02437D01*
X02460Y06244*
Y06197D02*
Y06244D01*
X02366Y06294D02*
X02392Y06267D01*
X02348Y06287D02*
Y06663D01*
X02390Y06705*
X02869*
X02366Y06294D02*
Y06651D01*
X02402Y06687*
X02860*
X02975Y06624D02*
X03059Y06540D01*
X03115*
X03155Y06499*
X02983Y06642D02*
X03065Y06560D01*
X03390*
X03400Y06570*
X02410Y07047D02*
Y07095D01*
X02430Y07115*
X03105Y06120D02*
Y06197D01*
X03155Y06120D02*
Y06197D01*
X03155Y06120D02*
X03155Y06120D01*
X03205D02*
Y06197D01*
X03205Y06120D02*
X03205Y06120D01*
X03255D02*
Y06197D01*
X03305Y06120D02*
Y06197D01*
X03305Y06120D02*
X03305Y06120D01*
X02510D02*
Y06197D01*
X02560Y06120D02*
Y06197D01*
X02560Y06120D02*
X02560Y06120D01*
X02610D02*
Y06197D01*
X02660Y06120D02*
Y06197D01*
X02710Y06120D02*
Y06197D01*
X02410Y06386D02*
Y06454D01*
X02410Y06455D02*
X02410Y06454D01*
X04851Y06756D02*
X04865Y06770D01*
X04689Y06776D02*
X04827D01*
X04852Y06800*
X04894*
X04895Y06800*
X04689Y06795D02*
X04820D01*
X04855Y06830*
X04924*
X04925Y06830*
X04559Y06886D02*
Y06969D01*
X04520Y06981D02*
X04537Y06997D01*
X04540Y06975D02*
X04555Y06990D01*
X04540Y06886D02*
Y06975D01*
X04520Y06886D02*
Y06981D01*
X04559Y06969D02*
X04590Y07000D01*
Y07014*
X04599Y06886D02*
Y06954D01*
X04579Y06886D02*
Y06960D01*
X04620Y07001*
Y07044*
X04599Y06954D02*
X04650Y07005D01*
Y07030*
X04665Y07045*
X04638Y06886D02*
Y06923D01*
X04695Y06980*
X04725*
X04618Y06886D02*
Y06938D01*
X04694Y07014*
X04695*
X04540Y06567D02*
Y06611D01*
X04529Y06622D02*
X04540Y06611D01*
X04529Y06622D02*
Y06705D01*
X04441Y06833D02*
Y06886D01*
Y06833D02*
X04455Y06820D01*
X04610D02*
X04614Y06815D01*
X04085Y07090D02*
X04105D01*
X03625Y07050D02*
X03679D01*
X03695Y07035*
X03746Y06790D02*
X03755Y06799D01*
X03750Y06315D02*
X03753Y06312D01*
X05006Y07036D02*
Y07184D01*
X05033Y07035D02*
Y07123D01*
X05067Y07157*
X05358*
X04636Y06618D02*
X04689D01*
X04520Y06430D02*
Y06567D01*
X04500Y06440D02*
Y06567D01*
X04481Y06446D02*
Y06567D01*
X04461Y06452D02*
Y06567D01*
X04441Y06458D02*
Y06567D01*
X04422Y06463D02*
Y06567D01*
X04579Y06464D02*
Y06567D01*
X04599Y06458D02*
Y06567D01*
X03746Y06790D02*
X03755D01*
X03650Y07020D02*
X03668Y07002D01*
X03455Y06811D02*
X03567Y06699D01*
X03497Y06471D02*
X03549Y06522D01*
Y06692*
X03492Y06749D02*
X03549Y06692D01*
X03489Y06489D02*
X03531Y06530D01*
Y06684*
X03484Y06731D02*
X03531Y06684D01*
X03482Y06507D02*
X03513Y06537D01*
Y06677*
X03477Y06713D02*
X03513Y06677D01*
X03475Y06525D02*
X03495Y06545D01*
Y06670*
X03469Y06695D02*
X03495Y06670D01*
X03615Y06830D02*
X03650Y06795D01*
X03615Y07040D02*
X03625Y07050D01*
X03615Y06830D02*
Y07040D01*
X03632Y06333D02*
Y06763D01*
X04055Y07120D02*
X04085Y07090D01*
Y07135D02*
X04088Y07138D01*
X04085Y07135D02*
X04095Y07125D01*
X04155Y06995D02*
Y07100D01*
X04140Y07115D02*
X04155Y07100D01*
X04185Y06835D02*
Y06965D01*
X04155Y06995D02*
X04185Y06965D01*
X04585Y06240D02*
X04635Y06190D01*
X04540Y06114D02*
X04602Y06052D01*
X04260Y06513D02*
X04306D01*
X04310Y06510*
X04257Y06513D02*
X04260Y06515D01*
X04343Y06618D02*
X04370D01*
X04310Y06585D02*
X04343Y06618D01*
X04310Y06560D02*
Y06585D01*
X04070Y06343D02*
Y06370D01*
X04641Y06446D02*
Y06487D01*
X04640Y06445D02*
X04641Y06446D01*
X04625Y06630D02*
X04636Y06618D01*
X04625Y06630D02*
Y06655D01*
X04618Y06567D02*
Y06606D01*
X04594Y06630D02*
X04618Y06606D01*
X04594Y06630D02*
Y06674D01*
X04615Y06695*
X04614Y06815D02*
X04630D01*
X04689*
X04540Y06114D02*
Y06310D01*
X04610Y06380*
X04301Y06343D02*
X04422Y06463D01*
X04308Y06325D02*
X04441Y06458D01*
X04318Y06284D02*
X04481Y06446D01*
X04314Y06305D02*
X04461Y06452D01*
X04325Y06265D02*
X04500Y06440D01*
X04334Y06245D02*
X04520Y06430D01*
X04340Y06225D02*
X04579Y06464D01*
X04345Y06205D02*
X04599Y06458D01*
X03632Y06333D02*
X03642Y06323D01*
X03737Y06284D02*
X04318D01*
X03730Y06265D02*
X04325D01*
X03650Y06345D02*
X03730Y06265D01*
X03642Y06323D02*
X03642D01*
X03595Y06305D02*
X03635D01*
X03642Y06323D02*
X03720Y06245D01*
X04334*
X03635Y06305D02*
X03715Y06225D01*
X04340*
X03555Y06265D02*
X03645D01*
X03705Y06205*
X04345*
X03650Y06345D02*
Y06795D01*
X03668Y06353D02*
Y07002D01*
Y06353D02*
X03737Y06284D01*
X03687Y06378D02*
X03753Y06312D01*
X03760Y06305*
X04314*
X03785Y06325D02*
X04308D01*
X03705Y06405D02*
X03785Y06325D01*
X03724Y06415D02*
X03797Y06343D01*
X04301*
X04482Y07165D02*
X04485D01*
X04537Y06997D02*
Y07158D01*
X04555Y06990D02*
Y07145D01*
X04575Y07165*
X04689Y06756D02*
X04851D01*
X04661Y06545D02*
X04695D01*
X04708Y06531*
X04559Y06567D02*
Y06669D01*
X04560Y06670*
X04370Y06717D02*
X04436D01*
X04437Y06717*
X04708Y06525D02*
Y06531D01*
X05282Y06202D02*
X05283Y06203D01*
X05212Y06277D02*
X05282D01*
X05141Y06348D02*
X05212Y06277D01*
X05135Y06348D02*
X05141D01*
X05283Y06203D02*
Y06345D01*
X04425Y07270D02*
X04537Y07158D01*
X04397Y07250D02*
X04482Y07165D01*
X03783Y07046D02*
X03856Y07120D01*
X04055*
X03848Y07138D02*
X04088D01*
X03855Y07170D02*
X03950D01*
X04095Y07250D02*
X04397D01*
X04100Y07270D02*
X04425D01*
X05045Y06150D02*
X05095D01*
X05118Y06126*
X05135*
X05143Y06135*
X05206*
X05216Y06125*
X05325Y06100D02*
X05340Y06115D01*
Y06135*
X05355Y06150*
X05471*
X03574Y07305D02*
X03634Y07365D01*
X03565Y07325D02*
X03625Y07385D01*
X03840Y07295D02*
X04050D01*
X04095Y07250*
X03634Y07365D02*
X03769D01*
X03840Y07295*
X04055Y07315D02*
X04100Y07270D01*
X03850Y07315D02*
X04055D01*
X03780Y07385D02*
X03850Y07315D01*
X03625Y07385D02*
X03780D01*
X03792Y07082D02*
X03848Y07138D01*
X03765Y07055D02*
X03792Y07082D01*
X03792*
X03720Y07100D02*
X03785D01*
X03855Y07170*
X03695Y07075D02*
X03720Y07100D01*
X03624Y07075D02*
X03695D01*
X03580Y06815D02*
X03632Y06763D01*
X03580Y06815D02*
Y07030D01*
X03624Y07075*
X03705Y06405D02*
Y06970D01*
X03765Y07030*
Y07055*
X03687Y06378D02*
Y06987D01*
X03730Y07030*
Y07065*
X03724Y06415D02*
Y06959D01*
X03783Y07018*
Y07046*
X03755Y06799D02*
Y06955D01*
X03815Y07015*
Y07035*
X04685Y06140D02*
X04700D01*
X04750Y06190*
X04689Y06677D02*
X04857D01*
X04689Y06658D02*
X04851D01*
X04689Y06638D02*
X04845D01*
X04857Y06677D02*
X04950Y06585D01*
X04851Y06658D02*
X04932Y06577D01*
X04845Y06638D02*
X04914Y06570D01*
X04790Y06270D02*
X04950Y06430D01*
Y06585*
X04772Y06277D02*
X04932Y06437D01*
Y06577*
X04914Y06444D02*
Y06570D01*
X04750Y06280D02*
X04914Y06444D01*
X04750Y06190D02*
Y06280D01*
X04790Y06120D02*
Y06270D01*
X04602Y06052D02*
X04747D01*
X04795Y06100*
X05325*
X04739Y06070D02*
X04787Y06118D01*
X04788*
X04790Y06120*
X04732Y06088D02*
X04772Y06127D01*
Y06277*
X04655Y06070D02*
X04739D01*
X04585Y06140D02*
X04655Y06070D01*
X04635Y06120D02*
Y06190D01*
Y06120D02*
X04667Y06088D01*
X04732*
X04689Y06697D02*
X04902D01*
X04996Y06791*
Y06953*
X04689Y06717D02*
X04896D01*
X04978Y06798*
X04689Y06736D02*
X04890D01*
X04960Y06805*
X04978Y06798D02*
Y06980D01*
X04960Y06805D02*
Y06990D01*
X04005Y06854D02*
Y06974D01*
Y06854D02*
X04064Y06795D01*
X03473Y06325D02*
X03567Y06419D01*
Y06699*
X02926Y06946D02*
X03099D01*
X03155Y06889*
Y06811D02*
Y06889D01*
X02865Y07007D02*
X02926Y06946D01*
X02883Y07022D02*
X02935Y06970D01*
X02882Y07202D02*
X02883Y07202D01*
Y07022D02*
Y07202D01*
X02430Y07115D02*
X02850D01*
X02865Y07100*
Y07007D02*
Y07100D01*
X02935Y06970D02*
X03105D01*
X03150Y06925*
X03290Y06905D02*
X03305Y06890D01*
X03245Y06905D02*
X03290D01*
X03225Y06925D02*
X03245Y06905D01*
X03150Y06925D02*
X03225D01*
G54D38*
X03010Y03615D02*
X03315D01*
X03227Y02732D02*
X03380D01*
X03205Y02755D02*
X03227Y02732D01*
X03015Y02555D02*
X03375D01*
X06083Y06243D02*
X06250D01*
X06466D02*
X06726D01*
X06250D02*
X06466D01*
X06726D02*
X06730Y06247D01*
X06466Y06243D02*
X06695Y06015D01*
Y05685D02*
Y06015D01*
Y05685D02*
X06840Y05540D01*
X06730Y06349D02*
X06830D01*
Y06347D02*
Y06349D01*
Y06247D02*
Y06347D01*
X05802Y06437D02*
Y06672D01*
X01768Y05244D02*
X01771Y05247D01*
X02165D02*
X02168Y05244D01*
X02795Y05247D02*
X02798Y05244D01*
X05800Y06286D02*
Y06437D01*
X05800Y06286D02*
X05800Y06286D01*
X05750Y06286D02*
X05800D01*
X06730Y06247D02*
Y06347D01*
Y06349*
Y07492D02*
X06830D01*
Y07392D02*
Y07492D01*
X06730Y07392D02*
X06830D01*
X06730D02*
Y07491D01*
X06730Y07491D02*
X06730Y07491D01*
X05535Y06010D02*
X05551Y05993D01*
Y05898D02*
Y05993D01*
X04921Y05898D02*
X05198D01*
X05310Y06010*
X05535*
X04291Y05795D02*
Y05898D01*
X03661Y05795D02*
Y05898D01*
X04895Y05795D02*
X04921Y05821D01*
Y05898*
X03070Y05795D02*
X03661D01*
X03031Y05833D02*
X03070Y05795D01*
X03031Y05833D02*
Y05898D01*
X03661Y05795D02*
X04291D01*
X04895*
X01340Y05415D02*
X01452D01*
X01273Y05482D02*
X01340Y05415D01*
X01273Y05482D02*
Y06490D01*
X01707Y06492D02*
X01730Y06515D01*
Y06565*
X01755Y06590*
X01840*
X01425Y06920D02*
X01515D01*
X01405Y06939D02*
X01425Y06920D01*
X01405Y06939D02*
Y07090D01*
X01505Y06492D02*
X01707D01*
X01580D02*
Y06855D01*
X01515Y06920D02*
X01580Y06855D01*
X02235Y06470D02*
Y06595D01*
X02190Y06640D02*
X02235Y06595D01*
X01485Y07000D02*
X01875D01*
X06035Y06195D02*
X06083Y06243D01*
X05975Y06035D02*
X06035Y06095D01*
X05860Y06035D02*
X05975D01*
X05839Y06055D02*
X05860Y06035D01*
X05839Y06055D02*
Y06117D01*
X06035Y06095D02*
Y06195D01*
Y06560*
X01980Y06640D02*
X02190D01*
X01945Y06675D02*
X01980Y06640D01*
X01945Y06675D02*
Y06930D01*
X01875Y07000D02*
X01945Y06930D01*
X04785Y02655D02*
X04885D01*
G54D39*
X03205Y02755D02*
Y02870D01*
X03166Y02909D02*
X03205Y02870D01*
X02845Y02909D02*
X03166D01*
X01720Y02988D02*
X02090D01*
X01431D02*
X01720D01*
Y02886D02*
Y02988D01*
Y03204D02*
X02170D01*
X01451D02*
X01720D01*
Y03286*
X03330Y01378D02*
X04768D01*
X04768Y01378*
Y01510*
X04293Y01384D02*
Y01510D01*
X03819Y01382D02*
Y01510D01*
X02870Y01378D02*
X03330D01*
X03345Y01393*
Y01510*
X01920Y01378D02*
X02870D01*
X02871Y01379*
Y01510*
X02396Y01386D02*
Y01510D01*
X01465Y01378D02*
X01920D01*
X01922Y01380*
Y01510*
X01448Y01394D02*
Y01510D01*
Y01394D02*
X01465Y01378D01*
X02140Y04765D02*
X02600D01*
X01645D02*
X02140D01*
X02117Y04742D02*
X02140Y04765D01*
X02117Y04625D02*
Y04742D01*
X02600Y04765D02*
X03065D01*
X02592Y04757D02*
X02600Y04765D01*
X02592Y04625D02*
Y04757D01*
X03065Y04765D02*
X03550D01*
X03065D02*
X03066Y04763D01*
Y04625D02*
Y04763D01*
X03550Y04765D02*
X04955D01*
X03540Y04755D02*
X03550Y04765D01*
X03540Y04625D02*
Y04755D01*
X04014Y04625D02*
Y04759D01*
X04489Y04625D02*
Y04759D01*
X04960Y04628D02*
Y04760D01*
X04955Y04765D02*
X04960Y04760D01*
X01643Y04763D02*
X01645Y04765D01*
X01643Y04625D02*
Y04763D01*
X02170Y02909D02*
X02845D01*
X02090Y02988D02*
X02170Y02909D01*
Y03204D02*
X02845D01*
X01431Y03185D02*
X01451Y03204D01*
X04965Y01510D02*
Y01865D01*
X04490Y01510D02*
Y01865D01*
X04015Y01511D02*
Y01865D01*
X03540Y01512D02*
Y01865D01*
X03070Y01512D02*
Y01865D01*
X03067Y01510D02*
X03070Y01512D01*
X02595Y01511D02*
Y01865D01*
X02120Y01510D02*
Y01865D01*
X02119Y01510D02*
X02120Y01510D01*
X01645Y01510D02*
Y01865D01*
Y01510D02*
D01*
X04765Y04270D02*
Y04623D01*
X04766Y04625*
X04290Y04270D02*
Y04622D01*
X04292Y04625*
X03815Y04270D02*
Y04622D01*
X03340Y04270D02*
Y04621D01*
X02865Y04270D02*
Y04620D01*
X02869Y04625*
X02395Y04270D02*
Y04624D01*
X02395Y04625*
X01920Y04270D02*
Y04624D01*
X01920Y04625*
X01445Y04270D02*
Y04623D01*
X01446Y04625*
X01771Y05247D02*
Y05497D01*
X02165Y05247D02*
Y05497D01*
X02401Y05247D02*
Y05497D01*
X02795Y05247D02*
Y05497D01*
X03031Y05247D02*
Y05497D01*
X03425Y05247D02*
Y05497D01*
X03661Y05247D02*
Y05497D01*
X04055Y05247D02*
Y05497D01*
X04291Y05247D02*
Y05497D01*
X04288Y05244D02*
X04291Y05247D01*
X04685D02*
Y05497D01*
X04921Y05247D02*
Y05497D01*
X05315Y05247D02*
Y05497D01*
X05551Y05247D02*
Y05497D01*
X05945Y05247D02*
Y05497D01*
X06181Y05247D02*
Y05497D01*
X01765Y08360D02*
Y08610D01*
X02165Y08360D02*
Y08610D01*
X02395Y08360D02*
Y08610D01*
X02795Y08360D02*
Y08610D01*
X02791Y08357D02*
X02795Y08360D01*
X03025D02*
Y08610D01*
Y08360D02*
X03028Y08357D01*
X03425Y08360D02*
Y08610D01*
X03421Y08357D02*
X03425Y08360D01*
X03655D02*
Y08610D01*
Y08360D02*
X03658Y08357D01*
X04055Y08360D02*
Y08610D01*
X04052Y08357D02*
X04055Y08360D01*
X04285D02*
Y08610D01*
Y08360D02*
X04288Y08357D01*
X04685Y08360D02*
Y08610D01*
X04682Y08357D02*
X04685Y08360D01*
X04915D02*
Y08610D01*
Y08360D02*
X04918Y08357D01*
X05315Y08360D02*
Y08610D01*
X05545Y08360D02*
Y08610D01*
X05945Y08360D02*
Y08610D01*
X05942Y08357D02*
X05945Y08360D01*
X06175D02*
Y08610D01*
Y08360D02*
X06178Y08357D01*
X06575Y08360D02*
Y08610D01*
X06572Y08357D02*
X06575Y08360D01*
X01965Y07857D02*
Y08610D01*
X02595Y07857D02*
Y08610D01*
X03225Y07857D02*
Y08610D01*
X03855Y07857D02*
Y08610D01*
X06375Y07857D02*
Y08610D01*
X01968Y05244D02*
Y05997D01*
X02598Y05244D02*
Y05997D01*
X06378Y05244D02*
Y05997D01*
X06575Y05247D02*
Y05497D01*
Y05247D02*
X06578Y05244D01*
G54D40*
X05380Y07045D02*
X05445Y06979D01*
X05100Y07045D02*
X05380D01*
X05070Y07015D02*
X05100Y07045D01*
X06654Y06520D02*
X06656Y06522D01*
X06605Y06520D02*
X06654D01*
X06605Y06620D02*
X06654D01*
X06605Y06720D02*
X06654D01*
X06605Y06820D02*
X06654D01*
X06605Y06920D02*
X06654D01*
Y07020D02*
X06656Y07022D01*
X06605Y07020D02*
X06654D01*
X06605Y07120D02*
X06654D01*
X06605Y07220D02*
X06654D01*
X02995Y06826D02*
Y06910D01*
X02111Y05990D02*
X02200D01*
X02080Y05959D02*
X02111Y05990D01*
X02080Y05830D02*
Y05959D01*
Y05830D02*
X02105Y05805D01*
X02192*
X04363Y06958D02*
Y07051D01*
X04373Y07096D02*
X04500D01*
X04362Y07085D02*
X04373Y07096D01*
X04500Y07090D02*
Y07096D01*
X04371Y06950D02*
X04430D01*
X04362Y07052D02*
X04363Y07051D01*
Y06958D02*
X04371Y06950D01*
X02957Y07202D02*
Y07219D01*
X02935Y07242D02*
X02957Y07219D01*
X02890Y07242D02*
X02935D01*
X03129Y06300D02*
X03525D01*
X03529Y06304*
X03105Y06323D02*
X03129Y06300D01*
X03105Y06323D02*
Y06386D01*
X03455Y06556D02*
Y06622D01*
Y06120D02*
Y06197D01*
X02987Y06410D02*
Y06488D01*
Y06410D02*
X03023Y06373D01*
X03040*
X01476Y07361D02*
X02261D01*
X01405Y07290D02*
X01476Y07361D01*
X01405Y07392D02*
X02232D01*
X01496Y07783D02*
Y08072D01*
X01350Y07637D02*
X01496Y07783D01*
X01350Y07445D02*
Y07637D01*
X01466Y07794D02*
Y08002D01*
X01322Y07650D02*
X01466Y07794D01*
X01322Y07373D02*
Y07650D01*
X01405Y08163D02*
X01496Y08072D01*
X01350Y07445D02*
X01405Y07390D01*
X01322Y07373D02*
X01405Y07290D01*
X01294Y07864D02*
X01393Y07963D01*
X01294Y07301D02*
Y07864D01*
Y07301D02*
X01405Y07190D01*
Y08063D02*
X01466Y08002D01*
X01393Y07963D02*
X01405D01*
Y07390D02*
Y07392D01*
X01545Y07330D02*
X02315D01*
X01405Y07190D02*
X01545Y07330D01*
X03513Y07142D02*
Y07213D01*
X03500Y07227D02*
X03513Y07213D01*
X03525Y07202D02*
X03622D01*
X03500Y07227D02*
X03525Y07202D01*
X03500Y07227D02*
X03500Y07227D01*
X03660Y07281D02*
Y07335D01*
X03305Y07330D02*
X03365D01*
X03280Y07305D02*
X03305Y07330D01*
X03280Y07295D02*
Y07305D01*
X03450Y07416D02*
X03500D01*
X03400D02*
X03450D01*
X03365Y07330D02*
X03400Y07365D01*
Y07416*
X03400Y07416*
X06055Y07525D02*
X06159D01*
X06035Y07544D02*
X06055Y07525D01*
X06035Y07544D02*
Y07584D01*
X06110Y07449D02*
X06135D01*
X06065Y07495D02*
X06110Y07449D01*
X05960Y07495D02*
X06065D01*
X06085Y07399D02*
Y07429D01*
X06055Y07460D02*
X06085Y07429D01*
X05735Y07460D02*
X06055D01*
X05713Y07392D02*
X05853D01*
X05598Y07507D02*
X05713Y07392D01*
X04796Y07507D02*
X05598D01*
X05727Y07423D02*
X05892D01*
X05610Y07540D02*
X05727Y07423D01*
X05058Y07540D02*
X05610D01*
X05595Y07599D02*
X05735Y07460D01*
X05595Y07599D02*
Y07646D01*
X05050Y07547D02*
X05058Y07540D01*
X06159Y07525D02*
X06160Y07524D01*
X05985Y07584D02*
Y07630D01*
X05997Y07642*
Y07687*
X06242Y07724D02*
Y07752D01*
X05997Y07687D02*
Y07742D01*
X05150Y07646D02*
Y07715D01*
X05151Y07717*
X05593Y07647D02*
Y07717D01*
Y07647D02*
X05595Y07646D01*
X04795Y07508D02*
Y07585D01*
X04793Y07587D02*
X04795Y07585D01*
X05935Y07519D02*
X05960Y07495D01*
X05935Y07519D02*
Y07584D01*
X05985Y07345D02*
Y07399D01*
X05985Y07399*
X06035*
X05050Y07547D02*
Y07646D01*
X05975Y07335D02*
X05985Y07345D01*
X04795Y07508D02*
X04796Y07507D01*
X05915Y07399D02*
X05935D01*
X05853Y07392D02*
X05910Y07335D01*
X05975*
X05892Y07423D02*
X05915Y07399D01*
X05997Y07742D02*
X06015Y07760D01*
X06235*
X06242Y07752*
X01768Y07776D02*
Y07955D01*
X02398Y07741D02*
Y07955D01*
Y07741D02*
X02460Y07679D01*
Y07236D02*
Y07679D01*
X01768Y07776D02*
X01800Y07745D01*
X02340*
X02410Y07674*
Y07236D02*
Y07674D01*
X02510Y07236D02*
Y07690D01*
X02560Y07236D02*
Y07680D01*
X02610Y07236D02*
Y07645D01*
X02660Y07236D02*
Y07615D01*
X02710Y07236D02*
Y07585D01*
X02510Y07690D02*
X02595Y07775D01*
X02847*
X03028Y07955*
X02560Y07680D02*
X02620Y07740D01*
X03442*
X03658Y07955*
X02610Y07645D02*
X02670Y07705D01*
X02660Y07615D02*
X02715Y07670D01*
X02710Y07585D02*
X02760Y07635D01*
X04685Y07825D02*
X04959D01*
X04885Y07875D02*
X04950D01*
X04535Y08060D02*
X04700D01*
X04885Y07875*
X04525Y08095D02*
X04778D01*
X04918Y07955*
X04950Y07875D02*
X05170Y08095D01*
X05408*
X05548Y07955*
X04959Y07825D02*
X05194Y08060D01*
X05795D02*
X06073D01*
X06178Y07955*
X05194Y08060D02*
X05335D01*
X05520Y07875*
X05610*
X05795Y08060*
X02165Y05898D02*
X02325Y06058D01*
X02545Y06745D02*
X02560Y06760D01*
Y06811*
X02610*
X02660*
X02710*
X02297Y06698D02*
X02410Y06811D01*
X02297Y06087D02*
Y06698D01*
X02200Y05990D02*
X02297Y06087D01*
X02410Y06811D02*
X02460D01*
X02510*
X03031Y05898D02*
Y06008D01*
X02710Y06386D02*
Y06435D01*
X02725Y06450*
X02660Y06386D02*
Y06435D01*
X02703Y06478*
X02900Y06140D02*
X03031Y06008D01*
X02610Y06386D02*
Y06430D01*
X02686Y06506*
X02560Y06329D02*
Y06386D01*
X02510Y06324D02*
Y06386D01*
X02460Y06314D02*
Y06386D01*
X02725Y06450D02*
X02810D01*
X02703Y06478D02*
X02821D01*
X02686Y06506D02*
X02833D01*
X02920Y06419*
X02821Y06478D02*
X02890Y06409D01*
X02810Y06450D02*
X02860Y06400D01*
X02987Y06172D02*
Y06296D01*
X02956Y06164D02*
Y06288D01*
X02928Y06152D02*
Y06276D01*
X02900Y06140D02*
Y06265D01*
X02920Y06363D02*
Y06419D01*
Y06363D02*
X02987Y06296D01*
X02890Y06354D02*
Y06409D01*
Y06354D02*
X02956Y06288D01*
X02860Y06344D02*
Y06400D01*
Y06344D02*
X02928Y06276D01*
X02802Y06323D02*
X02872Y06253D01*
X02785Y06295D02*
X02844Y06236D01*
X02560Y06329D02*
X02567Y06323D01*
X02802*
X02510Y06324D02*
X02540Y06295D01*
X02785*
X02460Y06314D02*
X02510Y06265D01*
X02775*
X02813Y06226*
X02872Y06128D02*
Y06253D01*
X02844Y06116D02*
Y06236D01*
X02813Y06106D02*
Y06226D01*
X03040Y06373D02*
X03092D01*
X03105Y06386*
X03040Y06798D02*
X03092D01*
X03105Y06811*
X03416Y07049D02*
X03424Y07057D01*
X03405Y06811D02*
Y06885D01*
X03415Y06895*
Y06925*
X03416Y06927*
Y07049*
X03483Y06986D02*
Y07003D01*
X03516Y07036*
Y07057*
X03513Y07142D02*
X03516Y07139D01*
X05035Y06655D02*
X05066Y06687D01*
X05125*
X05035Y06588D02*
X05123D01*
X05125Y06587*
Y06787D02*
X05221D01*
X05125Y06887D02*
X05221D01*
X04055Y05880D02*
Y05898D01*
X02987Y06172D02*
X03089Y06070D01*
X02325Y06058D02*
Y06680D01*
X02390Y06745*
X02545*
X02795Y06370D02*
X02900Y06265D01*
X02795Y06370D02*
Y06386D01*
X02760D02*
X02795D01*
X02766Y06805D02*
X02795D01*
X02760Y06811D02*
X02766Y06805D01*
X02365Y07105D02*
X02410Y07150D01*
X02365Y06980D02*
Y07105D01*
Y06980D02*
X02410Y06935D01*
X02795Y05898D02*
Y06014D01*
X06065Y05830D02*
Y05965D01*
X06200Y06100*
X06495*
X06575Y06019*
Y05898D02*
Y06019D01*
X03089Y06070D02*
X04270D01*
X04441Y05898*
X04685*
X04040Y05895D02*
X04055Y05880D01*
X03705Y05975D02*
X03785Y05895D01*
X04040*
X03035Y05745D02*
X05161D01*
X05315Y05898*
X03023Y05717D02*
X05763D01*
X03011Y05689D02*
X05924D01*
X06065Y05830*
X05763Y05717D02*
X05945Y05898D01*
X02928Y06152D02*
X03080Y06000D01*
Y05955D02*
Y06000D01*
X03110Y05965D02*
Y06010D01*
X02956Y06164D02*
X03110Y06010D01*
X03380Y05975D02*
X03705D01*
X03386Y05860D02*
X03425Y05898D01*
X03080Y05955D02*
X03175Y05860D01*
X03386*
X03110Y05965D02*
X03185Y05890D01*
X03295*
X03380Y05975*
X02872Y06128D02*
X02970Y06030D01*
X02844Y06116D02*
X02940Y06020D01*
X02970Y05810D02*
X03035Y05745D01*
X02970Y05810D02*
Y06030D01*
X02940Y05800D02*
Y06020D01*
Y05800D02*
X03023Y05717D01*
X02910Y05790D02*
X03011Y05689D01*
X02910Y05790D02*
Y06010D01*
X02813Y06106D02*
X02910Y06010D01*
X02670Y07705D02*
X04037D01*
X04288Y07955*
X04310Y07880D02*
X04525Y08095D01*
X04255Y07880D02*
X04310D01*
X04045Y07670D02*
X04255Y07880D01*
X02715Y07670D02*
X04045D01*
X04320Y07845D02*
X04535Y08060D01*
X04265Y07845D02*
X04320D01*
X04055Y07635D02*
X04265Y07845D01*
X02760Y07635D02*
X04055D01*
X02840Y07525D02*
X02875Y07560D01*
X04120*
X04345Y07785*
Y07825*
X04460Y07940*
X04570*
X04685Y07825*
X04620Y06445D02*
X04640D01*
X04435Y06190D02*
X04485Y06140D01*
X04435Y06190D02*
Y06260D01*
X04620Y06445*
X04989Y06655D02*
X05035D01*
X04965Y06680D02*
X04989Y06655D01*
X02410Y07150D02*
X02815D01*
X02840Y07175*
Y07525*
X02795Y07195D02*
Y07201D01*
X02920Y07281D02*
X02925Y07286D01*
Y07370*
X03085Y07278D02*
X03090Y07283D01*
Y07370*
X02880Y07252D02*
X02890Y07242D01*
X02880Y07252D02*
Y07385D01*
X02910Y07415*
X05400Y06830D02*
X05440D01*
X05445Y06834*
X05288Y06787D02*
X05291Y06790D01*
X05325*
X05288Y06887D02*
X05290Y06885D01*
X05330*
X03702Y07122D02*
X03709D01*
X03710Y07123*
X03516Y07057D02*
Y07105D01*
Y07139*
X03710Y07123D02*
X03768D01*
X03850Y07205*
X03555Y07440D02*
X03955D01*
X03531Y07416D02*
X03555Y07440D01*
X03500Y07416D02*
X03531D01*
X05216Y06405D02*
Y06431D01*
X05538Y06150D02*
X05608D01*
X05615Y06156*
X05538Y06013D02*
Y06150D01*
X05535Y06010D02*
X05538Y06013D01*
X05419Y06290D02*
X05680D01*
X06380Y07220D02*
X06605D01*
X06380Y07120D02*
X06605D01*
X06380Y07020D02*
X06605D01*
X06380Y06920D02*
X06605D01*
X06380Y06820D02*
X06605D01*
X06380Y06720D02*
X06605D01*
X06380Y06620D02*
X06605D01*
X06380Y06520D02*
X06605D01*
X05125Y06587D02*
X05162D01*
X05185Y06610*
Y06725*
X05173Y06736D02*
X05185Y06725D01*
X05088Y06736D02*
X05173D01*
X05445Y06909D02*
Y06979D01*
X05070Y06755D02*
X05088Y06736D01*
X05070Y06755D02*
Y07015D01*
X05216Y06431D02*
X05240Y06455D01*
X05350*
X05390Y06320D02*
X05419Y06290D01*
X05390Y06320D02*
Y06415D01*
X05350Y06455D02*
X05390Y06415D01*
X02192Y05805D02*
X02467Y06080D01*
X02730*
X02795Y06014*
X02287Y07447D02*
X02323D01*
X02232Y07392D02*
X02287Y07447D01*
X02261Y07361D02*
X02310Y07410D01*
X02340Y07375D02*
X02345Y07380D01*
Y07425*
X02323Y07447D02*
X02345Y07425D01*
X02995Y06826D02*
X03022Y06798D01*
X03040*
G54D41*
X04140Y06377D02*
Y06418D01*
X04330Y06405D02*
Y06445D01*
X04140Y06377D02*
X04152Y06365D01*
X04290*
X04330Y06405*
G54D42*
X03795Y07490D02*
X03990D01*
G54D43*
X05772Y07010D03*
G54D44*
X02212Y03232D03*
G54D45*
X02212Y02950D03*
G54D46*
X02445Y02782D03*
G54D47*
X03625Y02935D03*
G54D48*
X03625Y02835D03*
Y02735D03*
G54D49*
X06840Y07916D03*
Y08116D03*
Y08316D03*
X06840Y05536D03*
Y05733D03*
X06578Y05250D03*
X06378D03*
X06178D03*
X05948D03*
X05748D03*
X05548D03*
X05318D03*
X05118D03*
X04918D03*
X04688D03*
X04488D03*
X04288D03*
X04058D03*
X03858D03*
X03658D03*
X03428D03*
X03228D03*
X03028D03*
X02798D03*
X02598D03*
X02398D03*
X02168D03*
X01968D03*
X01768D03*
X01450Y03188D03*
Y02991D03*
X04766Y04635D03*
X04963D03*
X04292D03*
X04489D03*
X03818D03*
X04014D03*
X03343D03*
X03540D03*
X02869D03*
X03066D03*
X02395D03*
X02592D03*
X01920D03*
X02117D03*
X01446D03*
X01643D03*
Y01505D03*
X01446D03*
X02117D03*
X01920D03*
X02592D03*
X02395D03*
X03066D03*
X02869D03*
X03540D03*
X03343D03*
X04014D03*
X03818D03*
X04489D03*
X04292D03*
X04963D03*
X04766D03*
X01765Y08610D03*
X01965D03*
X02165D03*
X02395D03*
X02595D03*
X02795D03*
X03025D03*
X03225D03*
X03425D03*
X03655D03*
X03855D03*
X04055D03*
X04280D03*
X04480D03*
X04680D03*
X04915D03*
X05115D03*
X05315D03*
X05545D03*
X05745D03*
X05945D03*
X06175D03*
X06375D03*
X06575D03*
G54D50*
X05045Y06150D03*
X04685Y06240D03*
G54D51*
X01840Y06490D03*
X01505Y05557D03*
Y06492D03*
X05125Y06587D03*
X06830Y07392D03*
Y06522D03*
Y06247D03*
X01405Y07090D03*
Y07863D03*
X04785Y03455D03*
X06250Y06440D03*
G54D52*
X04765Y01865D03*
X04290D03*
X03815D03*
X03340D03*
X02870D03*
X02395D03*
X01920D03*
X01445D03*
X05900Y06437D03*
X04965Y04270D03*
X04490D03*
X03540D03*
X04015D03*
X02595D03*
X03065D03*
X01645D03*
X02120D03*
G54D53*
X04865Y01865D03*
X04965D03*
X04390D03*
X04490D03*
X03915D03*
X04015D03*
X03440D03*
X03540D03*
X02970D03*
X03070D03*
X02495D03*
X02595D03*
X02020D03*
X02120D03*
X01545D03*
X01645D03*
X05700Y06437D03*
X05800D03*
X04865Y04270D03*
X04765D03*
X04390D03*
X04290D03*
X03440D03*
X03340D03*
X03915D03*
X03815D03*
X02495D03*
X02395D03*
X02965D03*
X02865D03*
X01545D03*
X01445D03*
X02020D03*
X01920D03*
G54D54*
X03910Y02710D03*
X03325Y03365D03*
G54D55*
X03910Y02789D03*
X03325Y03444D03*
G54D56*
X03850Y02985D03*
X04150D03*
G54D57*
X04475Y07312D03*
Y07412D03*
Y07512D03*
Y07612D03*
X04040Y03145D03*
Y03245D03*
Y03345D03*
Y03445D03*
X03720Y03145D03*
Y03245D03*
Y03345D03*
Y03445D03*
G54D58*
X06572Y08357D03*
X06178D03*
X06572Y07955D03*
X06178D03*
X06375Y07857D03*
X05942Y08357D03*
X05548D03*
X05942Y07955D03*
X05548D03*
X05745Y07857D03*
X05312Y08357D03*
X04918D03*
X05312Y07955D03*
X04918D03*
X05115Y07857D03*
X04682Y08357D03*
X04288D03*
X04682Y07955D03*
X04288D03*
X04485Y07857D03*
X04052Y08357D03*
X03658D03*
X04052Y07955D03*
X03658D03*
X03855Y07857D03*
X03421Y08357D03*
X03028D03*
X03421Y07955D03*
X03028D03*
X03225Y07857D03*
X02791Y08357D03*
X02398D03*
X02791Y07955D03*
X02398D03*
X02595Y07857D03*
X02161Y08357D03*
X01768D03*
X02161Y07955D03*
X01768D03*
X01965Y07857D03*
X06181Y05497D03*
X06575D03*
X06181Y05898D03*
X06575D03*
X06378Y05997D03*
X05551Y05497D03*
X05945D03*
X05551Y05898D03*
X05945D03*
X05748Y05997D03*
X04921Y05497D03*
X05315D03*
X04921Y05898D03*
X05315D03*
X05118Y05997D03*
X04291Y05497D03*
X04685D03*
X04291Y05898D03*
X04685D03*
X04488Y05997D03*
X03661Y05497D03*
X04055D03*
X03661Y05898D03*
X04055D03*
X03858Y05997D03*
X03031Y05497D03*
X03425D03*
X03031Y05898D03*
X03425D03*
X03228Y05997D03*
X02401Y05497D03*
X02795D03*
X02401Y05898D03*
X02795D03*
X02598Y05997D03*
X01771Y05497D03*
X02165D03*
X01771Y05898D03*
X02165D03*
X01968Y05997D03*
G54D59*
X02845Y03204D03*
X02170D03*
G54D60*
X02845Y02909D03*
X02170D03*
G54D61*
X01720Y02886D03*
Y03286D03*
G54D62*
X04160Y06765D03*
X04115Y06780D03*
X03115Y03040D03*
Y03445D03*
X03010Y03615D03*
X04615Y02280D03*
X04145D03*
X03675D03*
X03285Y02335D03*
X02725Y02275D03*
X02250D03*
X01775D03*
X01405Y02350D03*
X05115Y03850D03*
X04640D03*
X04160D03*
X03685D03*
X03115Y03795D03*
X02720Y03850D03*
X02255D03*
X01780D03*
X03315Y03615D03*
X03375Y02555D03*
X03015D03*
X03545Y02520D03*
X04025Y02525D03*
X04490D03*
X04965D03*
X05320Y07105D03*
X04905Y02365D03*
X04435D03*
X03965D03*
X03490D03*
X03015D03*
X02535D03*
X02065D03*
X01590D03*
X04825Y03770D03*
X04350D03*
X03875D03*
X03395D03*
X02915D03*
X02435D03*
X01970Y03765D03*
X01490D03*
X04865Y06770D03*
X04895Y06800D03*
X04925Y06830D03*
X04725Y06980D03*
X04665Y07045D03*
X04620D03*
X04590Y07014D03*
X06605Y06520D03*
Y06620D03*
Y06720D03*
Y06820D03*
Y06920D03*
Y07020D03*
Y07120D03*
Y07220D03*
X02995Y06910D03*
X03555Y06265D03*
X03595Y06305D03*
X03356Y06945D03*
X03355Y06465D03*
X03305D03*
X03255D03*
X03205Y06890D03*
X04437Y06717D03*
X04200Y06400D03*
X04275Y06645D03*
X04200Y06685D03*
X05496Y06963D03*
X05495Y07336D03*
X05034Y06991D03*
X04975Y07050D03*
X05202Y07197D03*
X05696Y07592D03*
X06161D03*
X04239Y07052D03*
X04428Y07061D03*
Y07014D03*
X03090Y07148D03*
X03483Y06879D03*
X03455Y06120D03*
Y06556D03*
X03040Y06488D03*
X02987D03*
X03040Y07145D03*
Y06911D03*
X02315Y07330D03*
X03660Y07335D03*
X03105Y06120D03*
X03155D03*
X03205D03*
X03255D03*
X03305D03*
X02510D03*
X02560D03*
X02610D03*
X02660D03*
X02710D03*
X02760D03*
X02410Y06455D03*
X02795Y06805D03*
Y06625D03*
Y06386D03*
Y07045D03*
X02410Y06935D03*
X04815Y06905D03*
X06380Y06720D03*
Y06820D03*
Y06620D03*
Y06520D03*
Y07220D03*
X04695Y07014D03*
X06380Y06920D03*
X04560Y06670D03*
X06380Y07120D03*
Y07020D03*
X04140Y07115D03*
X04095Y07130D03*
X03815Y07035D03*
X03730Y07065D03*
X03750Y06315D03*
X05005Y07150D03*
X05060D03*
X01273Y06492D03*
X01950Y06310D03*
X01485Y07000D03*
X04240Y07740D03*
X03305Y06890D03*
X04110Y07085D03*
X03650Y07020D03*
X03755Y06790D03*
X03690Y07042D03*
X03615Y06830D03*
X03950Y07170D03*
X04310Y06510D03*
Y06560D03*
X04070Y06370D03*
X04640Y06445D03*
X04710D03*
X04625Y06655D03*
X04330Y06445D03*
X04610Y06380D03*
X04485Y07165D03*
X04575D03*
X04710Y06525D03*
X04530Y06705D03*
X04965Y06680D03*
X03398Y07145D03*
X02795Y07195D03*
X02925Y07370D03*
X03090D03*
X02880Y07345D03*
X05318Y07240D03*
X05325Y06790D03*
Y06885D03*
X05318Y06995D03*
X06065Y07215D03*
X03855Y06785D03*
X03570Y07145D03*
X04175Y07215D03*
X04620Y07165D03*
X03955Y07440D03*
X04025Y07260D03*
X03795Y07490D03*
X03990D03*
X05727Y06560D03*
X06035D03*
X05645Y07080D03*
X05695D03*
X05745D03*
X05795D03*
X05845D03*
X05895D03*
X05595D03*
X05945D03*
X05595Y07015D03*
X05945D03*
X05895D03*
X05845D03*
X05795D03*
X05745D03*
X05695D03*
X05645D03*
X02310Y07410D03*
X02340Y07375D03*
X03250Y06945D03*
X01575Y05705D03*
X02181Y03300D03*
X02252D03*
X02323D03*
X02394D03*
X02465D03*
X02536D03*
X02608D03*
X02679D03*
X02750D03*
X02821D03*
X02892D03*
X02963D03*
X03035D03*
X02110D03*
Y03140D03*
X03035D03*
X02963D03*
X02892D03*
X02821D03*
X02750D03*
X02679D03*
X02608D03*
X02536D03*
X02465D03*
X02394D03*
X02323D03*
X02252D03*
X02181D03*
X01965Y03005D03*
X02890D03*
X02818D03*
X02747D03*
X02676D03*
X02605D03*
X02534D03*
X02463D03*
X02391D03*
X02320D03*
X02249D03*
X02178D03*
X02107D03*
X02036D03*
X01965Y02720D03*
X02890D03*
X02818D03*
X02747D03*
X02676D03*
X02605D03*
X02534D03*
X02463D03*
X02391D03*
X02320D03*
X02249D03*
X02178D03*
X02107D03*
X02036D03*
X01670Y04775D03*
X02595D03*
X02523D03*
X02452D03*
X02381D03*
X02310D03*
X02239D03*
X02168D03*
X02096D03*
X02025D03*
X01954D03*
X01883D03*
X01812D03*
X01741D03*
X02680D03*
X03605D03*
X03533D03*
X03462D03*
X03391D03*
X03320D03*
X03249D03*
X03178D03*
X03106D03*
X03035D03*
X02964D03*
X02893D03*
X02822D03*
X02751D03*
X03695D03*
X04620D03*
X04548D03*
X04477D03*
X04406D03*
X04335D03*
X04264D03*
X04193D03*
X04121D03*
X04050D03*
X03979D03*
X03908D03*
X03837D03*
X03766D03*
X01470Y01378D03*
X02395D03*
X02323D03*
X02252D03*
X02181D03*
X02110D03*
X02039D03*
X01968D03*
X01896D03*
X01825D03*
X01754D03*
X01683D03*
X01612D03*
X01541D03*
X02620D03*
X03545D03*
X03473D03*
X03402D03*
X03331D03*
X03260D03*
X03189D03*
X03118D03*
X03046D03*
X02975D03*
X02904D03*
X02833D03*
X02762D03*
X02691D03*
X03843Y01378D03*
X04768D03*
X04697D03*
X04625D03*
X04554D03*
X04483D03*
X04412D03*
X04341D03*
X04270D03*
X04198D03*
X04127D03*
X04056D03*
X03985D03*
X03914D03*
M02*