%FSDAX23Y23*%
%MOIN*%
%SFA1B1*%

%IPPOS*%
%ADD94C,0.003900*%
%ADD142C,0.002000*%
%LNde-130817-1*%
%LPD*%
G54D94*
X03605Y02835D02*
X03644D01*
X03625Y02815D02*
Y02854D01*
X06520Y07202D02*
Y07241D01*
X06500Y07222D02*
X06540D01*
X06520Y07102D02*
Y07141D01*
X06500Y07122D02*
X06540D01*
X06520Y07002D02*
Y07041D01*
X06500Y07022D02*
X06540D01*
X06520Y06902D02*
Y06941D01*
X06500Y06922D02*
X06540D01*
X06520Y06802D02*
Y06841D01*
X06500Y06822D02*
X06540D01*
X06520Y06702D02*
Y06741D01*
X06500Y06722D02*
X06540D01*
X06520Y06602D02*
Y06641D01*
X06500Y06622D02*
X06540D01*
X06520Y06502D02*
Y06541D01*
X06500Y06522D02*
X06540D01*
X04845Y01865D02*
X04884D01*
X04865Y01845D02*
Y01884D01*
X04370Y01865D02*
X04409D01*
X04390Y01845D02*
Y01884D01*
X03895Y01865D02*
X03934D01*
X03915Y01845D02*
Y01884D01*
X03420Y01865D02*
X03459D01*
X03440Y01845D02*
Y01884D01*
X02950Y01865D02*
X02989D01*
X02970Y01845D02*
Y01884D01*
X02475Y01865D02*
X02514D01*
X02495Y01845D02*
Y01884D01*
X02000Y01865D02*
X02039D01*
X02020Y01845D02*
Y01884D01*
X01525Y01865D02*
X01564D01*
X01545Y01845D02*
Y01884D01*
X02900Y07242D02*
X02939D01*
X02920Y07222D02*
Y07261D01*
X05225Y06240D02*
X05264D01*
X05245Y06220D02*
Y06259D01*
X03640Y07242D02*
X03680D01*
X03660Y07222D02*
Y07261D01*
X03165Y07242D02*
X03205D01*
X03185Y07222D02*
Y07261D01*
X04120Y06465D02*
X04159D01*
X04140Y06445D02*
Y06484D01*
X04177Y06386D02*
Y06543D01*
X04102Y06386D02*
Y06543D01*
X04177*
X04102Y06386D02*
X04177D01*
X03405Y07322D02*
X03445D01*
X03425Y07302D02*
Y07341D01*
X03317Y07174D02*
Y07469D01*
X03533Y07174D02*
Y07469D01*
X03317Y07174D02*
X03533D01*
X03317Y07469D02*
X03533D01*
X04510Y06727D02*
X04550D01*
X04530Y06707D02*
Y06746D01*
X05990Y07492D02*
X06030D01*
X06010Y07472D02*
Y07511D01*
X06112Y07358D02*
Y07625D01*
X05908Y07358D02*
Y07625D01*
X06112*
X05908Y07358D02*
X06112D01*
X06200Y07667D02*
Y07706D01*
X06180Y07687D02*
X06220D01*
X06137Y07750D02*
X06263D01*
X06137Y07624D02*
X06263D01*
X06137D02*
Y07750D01*
X06263Y07624D02*
Y07750D01*
X03073Y06569D02*
X03487D01*
X03073Y06864D02*
X03487D01*
X03073Y06569D02*
Y06864D01*
X03487Y06569D02*
Y06864D01*
X03280Y06697D02*
Y06736D01*
X03260Y06717D02*
X03300D01*
X02378Y06144D02*
X02792D01*
X02378Y06439D02*
X02792D01*
X02378Y06144D02*
Y06439D01*
X02792Y06144D02*
Y06439D01*
X02585Y06272D02*
Y06311D01*
X02565Y06292D02*
X02605D01*
X02378Y06569D02*
X02792D01*
X02378Y06864D02*
X02792D01*
X02378Y06569D02*
Y06864D01*
X02792Y06569D02*
Y06864D01*
X02585Y06697D02*
Y06736D01*
X02565Y06717D02*
X02605D01*
X02378Y06994D02*
X02792D01*
X02378Y07289D02*
X02792D01*
X02378Y06994D02*
Y07289D01*
X02792Y06994D02*
Y07289D01*
X02585Y07122D02*
Y07161D01*
X02565Y07142D02*
X02605D01*
X01611Y02396D02*
X01748D01*
X01611Y02243D02*
X01748D01*
Y02396*
X01611Y02243D02*
Y02396D01*
X01680Y02300D02*
Y02339D01*
X01660Y02320D02*
X01699D01*
X01461Y02078D02*
X01598D01*
X01461Y02231D02*
X01598D01*
X01461Y02078D02*
Y02231D01*
X01598Y02078D02*
Y02231D01*
X01530Y02135D02*
Y02174D01*
X01510Y02155D02*
X01549D01*
X01311Y02078D02*
X01448D01*
X01311Y02231D02*
X01448D01*
X01311Y02078D02*
Y02231D01*
X01448Y02078D02*
Y02231D01*
X01380Y02135D02*
Y02174D01*
X01360Y02155D02*
X01399D01*
X01611Y02078D02*
X01748D01*
X01611Y02231D02*
X01748D01*
X01611Y02078D02*
Y02231D01*
X01748Y02078D02*
Y02231D01*
X01680Y02135D02*
Y02174D01*
X01660Y02155D02*
X01699D01*
X01525Y01725D02*
X01564D01*
X01545Y01705D02*
Y01744D01*
X02091Y02396D02*
X02228D01*
X02091Y02243D02*
X02228D01*
Y02396*
X02091Y02243D02*
Y02396D01*
X02160Y02300D02*
Y02339D01*
X02140Y02320D02*
X02179D01*
X01941Y02078D02*
X02078D01*
X01941Y02231D02*
X02078D01*
X01941Y02078D02*
Y02231D01*
X02078Y02078D02*
Y02231D01*
X02010Y02135D02*
Y02174D01*
X01990Y02155D02*
X02029D01*
X01791Y02078D02*
X01928D01*
X01791Y02231D02*
X01928D01*
X01791Y02078D02*
Y02231D01*
X01928Y02078D02*
Y02231D01*
X01860Y02135D02*
Y02174D01*
X01840Y02155D02*
X01879D01*
X02091Y02078D02*
X02228D01*
X02091Y02231D02*
X02228D01*
X02091Y02078D02*
Y02231D01*
X02228Y02078D02*
Y02231D01*
X02160Y02135D02*
Y02174D01*
X02140Y02155D02*
X02179D01*
X02000Y01725D02*
X02039D01*
X02020Y01705D02*
Y01744D01*
X02566Y02396D02*
X02703D01*
X02566Y02243D02*
X02703D01*
Y02396*
X02566Y02243D02*
Y02396D01*
X02635Y02300D02*
Y02339D01*
X02615Y02320D02*
X02654D01*
X02416Y02078D02*
X02553D01*
X02416Y02231D02*
X02553D01*
X02416Y02078D02*
Y02231D01*
X02553Y02078D02*
Y02231D01*
X02485Y02135D02*
Y02174D01*
X02465Y02155D02*
X02504D01*
X02266Y02078D02*
X02403D01*
X02266Y02231D02*
X02403D01*
X02266Y02078D02*
Y02231D01*
X02403Y02078D02*
Y02231D01*
X02335Y02135D02*
Y02174D01*
X02315Y02155D02*
X02354D01*
X02566Y02078D02*
X02703D01*
X02566Y02231D02*
X02703D01*
X02566Y02078D02*
Y02231D01*
X02703Y02078D02*
Y02231D01*
X02635Y02135D02*
Y02174D01*
X02615Y02155D02*
X02654D01*
X02475Y01725D02*
X02514D01*
X02495Y01705D02*
Y01744D01*
X03041Y02396D02*
X03178D01*
X03041Y02243D02*
X03178D01*
Y02396*
X03041Y02243D02*
Y02396D01*
X03110Y02300D02*
Y02339D01*
X03090Y02320D02*
X03129D01*
X02891Y02078D02*
X03028D01*
X02891Y02231D02*
X03028D01*
X02891Y02078D02*
Y02231D01*
X03028Y02078D02*
Y02231D01*
X02960Y02135D02*
Y02174D01*
X02940Y02155D02*
X02979D01*
X02741Y02078D02*
X02878D01*
X02741Y02231D02*
X02878D01*
X02741Y02078D02*
Y02231D01*
X02878Y02078D02*
Y02231D01*
X02810Y02135D02*
Y02174D01*
X02790Y02155D02*
X02829D01*
X03041Y02078D02*
X03178D01*
X03041Y02231D02*
X03178D01*
X03041Y02078D02*
Y02231D01*
X03178Y02078D02*
Y02231D01*
X03110Y02135D02*
Y02174D01*
X03090Y02155D02*
X03129D01*
X02950Y01725D02*
X02989D01*
X02970Y01705D02*
Y01744D01*
X03516Y02396D02*
X03653D01*
X03516Y02243D02*
X03653D01*
Y02396*
X03516Y02243D02*
Y02396D01*
X03585Y02300D02*
Y02339D01*
X03565Y02320D02*
X03604D01*
X03366Y02078D02*
X03503D01*
X03366Y02231D02*
X03503D01*
X03366Y02078D02*
Y02231D01*
X03503Y02078D02*
Y02231D01*
X03435Y02135D02*
Y02174D01*
X03415Y02155D02*
X03454D01*
X03216Y02078D02*
X03353D01*
X03216Y02231D02*
X03353D01*
X03216Y02078D02*
Y02231D01*
X03353Y02078D02*
Y02231D01*
X03285Y02135D02*
Y02174D01*
X03265Y02155D02*
X03304D01*
X03516Y02078D02*
X03653D01*
X03516Y02231D02*
X03653D01*
X03516Y02078D02*
Y02231D01*
X03653Y02078D02*
Y02231D01*
X03585Y02135D02*
Y02174D01*
X03565Y02155D02*
X03604D01*
X03991Y02396D02*
X04128D01*
X03991Y02243D02*
X04128D01*
Y02396*
X03991Y02243D02*
Y02396D01*
X04060Y02300D02*
Y02339D01*
X04040Y02320D02*
X04079D01*
X03841Y02078D02*
X03978D01*
X03841Y02231D02*
X03978D01*
X03841Y02078D02*
Y02231D01*
X03978Y02078D02*
Y02231D01*
X03910Y02135D02*
Y02174D01*
X03890Y02155D02*
X03929D01*
X03691Y02078D02*
X03828D01*
X03691Y02231D02*
X03828D01*
X03691Y02078D02*
Y02231D01*
X03828Y02078D02*
Y02231D01*
X03760Y02135D02*
Y02174D01*
X03740Y02155D02*
X03779D01*
X03991Y02078D02*
X04128D01*
X03991Y02231D02*
X04128D01*
X03991Y02078D02*
Y02231D01*
X04128Y02078D02*
Y02231D01*
X04060Y02135D02*
Y02174D01*
X04040Y02155D02*
X04079D01*
X03895Y01725D02*
X03934D01*
X03915Y01705D02*
Y01744D01*
X04370Y01725D02*
X04409D01*
X04390Y01705D02*
Y01744D01*
X04461Y02396D02*
X04598D01*
X04461Y02243D02*
X04598D01*
Y02396*
X04461Y02243D02*
Y02396D01*
X04530Y02300D02*
Y02339D01*
X04510Y02320D02*
X04549D01*
X04311Y02078D02*
X04448D01*
X04311Y02231D02*
X04448D01*
X04311Y02078D02*
Y02231D01*
X04448Y02078D02*
Y02231D01*
X04380Y02135D02*
Y02174D01*
X04360Y02155D02*
X04399D01*
X04161Y02078D02*
X04298D01*
X04161Y02231D02*
X04298D01*
X04161Y02078D02*
Y02231D01*
X04298Y02078D02*
Y02231D01*
X04230Y02135D02*
Y02174D01*
X04210Y02155D02*
X04249D01*
X04461Y02078D02*
X04598D01*
X04461Y02231D02*
X04598D01*
X04461Y02078D02*
Y02231D01*
X04598Y02078D02*
Y02231D01*
X04530Y02135D02*
Y02174D01*
X04510Y02155D02*
X04549D01*
X04845Y01725D02*
X04884D01*
X04865Y01705D02*
Y01744D01*
X04936Y02396D02*
X05073D01*
X04936Y02243D02*
X05073D01*
Y02396*
X04936Y02243D02*
Y02396D01*
X05005Y02300D02*
Y02339D01*
X04985Y02320D02*
X05024D01*
X04786Y02078D02*
X04923D01*
X04786Y02231D02*
X04923D01*
X04786Y02078D02*
Y02231D01*
X04923Y02078D02*
Y02231D01*
X04855Y02135D02*
Y02174D01*
X04835Y02155D02*
X04874D01*
X04636Y02078D02*
X04773D01*
X04636Y02231D02*
X04773D01*
X04636Y02078D02*
Y02231D01*
X04773Y02078D02*
Y02231D01*
X04705Y02135D02*
Y02174D01*
X04685Y02155D02*
X04724D01*
X04936Y02078D02*
X05073D01*
X04936Y02231D02*
X05073D01*
X04936Y02078D02*
Y02231D01*
X05073Y02078D02*
Y02231D01*
X05005Y02135D02*
Y02174D01*
X04985Y02155D02*
X05024D01*
X04845Y04410D02*
X04884D01*
X04865Y04390D02*
Y04429D01*
X04656Y03738D02*
X04793D01*
X04656Y03891D02*
X04793D01*
X04656Y03738D02*
Y03891D01*
X04793Y03738D02*
Y03891D01*
X04725Y03795D02*
Y03834D01*
X04705Y03815D02*
X04744D01*
X04956Y04056D02*
X05093D01*
X04956Y03903D02*
X05093D01*
Y04056*
X04956Y03903D02*
Y04056D01*
X05025Y03960D02*
Y03999D01*
X05005Y03980D02*
X05044D01*
X04806Y04056D02*
X04943D01*
X04806Y03903D02*
X04943D01*
Y04056*
X04806Y03903D02*
Y04056D01*
X04875Y03960D02*
Y03999D01*
X04855Y03980D02*
X04894D01*
X04656Y04056D02*
X04793D01*
X04656Y03903D02*
X04793D01*
Y04056*
X04656Y03903D02*
Y04056D01*
X04725Y03960D02*
Y03999D01*
X04705Y03980D02*
X04744D01*
X04181Y03738D02*
X04318D01*
X04181Y03891D02*
X04318D01*
X04181Y03738D02*
Y03891D01*
X04318Y03738D02*
Y03891D01*
X04250Y03795D02*
Y03834D01*
X04230Y03815D02*
X04269D01*
X04481Y04056D02*
X04618D01*
X04481Y03903D02*
X04618D01*
Y04056*
X04481Y03903D02*
Y04056D01*
X04550Y03960D02*
Y03999D01*
X04530Y03980D02*
X04569D01*
X04331Y04056D02*
X04468D01*
X04331Y03903D02*
X04468D01*
Y04056*
X04331Y03903D02*
Y04056D01*
X04400Y03960D02*
Y03999D01*
X04380Y03980D02*
X04419D01*
X04181Y04056D02*
X04318D01*
X04181Y03903D02*
X04318D01*
Y04056*
X04181Y03903D02*
Y04056D01*
X04250Y03960D02*
Y03999D01*
X04230Y03980D02*
X04269D01*
X04370Y04410D02*
X04409D01*
X04390Y04390D02*
Y04429D01*
X03706Y03738D02*
X03843D01*
X03706Y03891D02*
X03843D01*
X03706Y03738D02*
Y03891D01*
X03843Y03738D02*
Y03891D01*
X03775Y03795D02*
Y03834D01*
X03755Y03815D02*
X03794D01*
X03856Y04056D02*
X03993D01*
X03856Y03903D02*
X03993D01*
Y04056*
X03856Y03903D02*
Y04056D01*
X03925Y03960D02*
Y03999D01*
X03905Y03980D02*
X03944D01*
X04006Y04056D02*
X04143D01*
X04006Y03903D02*
X04143D01*
Y04056*
X04006Y03903D02*
Y04056D01*
X04075Y03960D02*
Y03999D01*
X04055Y03980D02*
X04094D01*
X03706Y04056D02*
X03843D01*
X03706Y03903D02*
X03843D01*
Y04056*
X03706Y03903D02*
Y04056D01*
X03775Y03960D02*
Y03999D01*
X03755Y03980D02*
X03794D01*
X03895Y04410D02*
X03934D01*
X03915Y04390D02*
Y04429D01*
X03226Y03738D02*
X03363D01*
X03226Y03891D02*
X03363D01*
X03226Y03738D02*
Y03891D01*
X03363Y03738D02*
Y03891D01*
X03295Y03795D02*
Y03834D01*
X03275Y03815D02*
X03314D01*
X03376Y04056D02*
X03513D01*
X03376Y03903D02*
X03513D01*
Y04056*
X03376Y03903D02*
Y04056D01*
X03445Y03960D02*
Y03999D01*
X03425Y03980D02*
X03464D01*
X03526Y04056D02*
X03663D01*
X03526Y03903D02*
X03663D01*
Y04056*
X03526Y03903D02*
Y04056D01*
X03595Y03960D02*
Y03999D01*
X03575Y03980D02*
X03614D01*
X03226Y04056D02*
X03363D01*
X03226Y03903D02*
X03363D01*
Y04056*
X03226Y03903D02*
Y04056D01*
X03295Y03960D02*
Y03999D01*
X03275Y03980D02*
X03314D01*
X03420Y04410D02*
X03459D01*
X03440Y04390D02*
Y04429D01*
X02945Y04410D02*
X02984D01*
X02965Y04390D02*
Y04429D01*
X02746Y03738D02*
X02883D01*
X02746Y03891D02*
X02883D01*
X02746Y03738D02*
Y03891D01*
X02883Y03738D02*
Y03891D01*
X02815Y03795D02*
Y03834D01*
X02795Y03815D02*
X02834D01*
X02896Y04056D02*
X03033D01*
X02896Y03903D02*
X03033D01*
Y04056*
X02896Y03903D02*
Y04056D01*
X02965Y03960D02*
Y03999D01*
X02945Y03980D02*
X02984D01*
X03046Y04056D02*
X03183D01*
X03046Y03903D02*
X03183D01*
Y04056*
X03046Y03903D02*
Y04056D01*
X03115Y03960D02*
Y03999D01*
X03095Y03980D02*
X03134D01*
X01801Y04056D02*
X01938D01*
X01801Y03903D02*
X01938D01*
Y04056*
X01801Y03903D02*
Y04056D01*
X01870Y03960D02*
Y03999D01*
X01850Y03980D02*
X01889D01*
X02475Y04410D02*
X02514D01*
X02495Y04390D02*
Y04429D01*
X02271Y03738D02*
X02408D01*
X02271Y03891D02*
X02408D01*
X02271Y03738D02*
Y03891D01*
X02408Y03738D02*
Y03891D01*
X02340Y03795D02*
Y03834D01*
X02320Y03815D02*
X02359D01*
X02421Y04056D02*
X02558D01*
X02421Y03903D02*
X02558D01*
Y04056*
X02421Y03903D02*
Y04056D01*
X02490Y03960D02*
Y03999D01*
X02470Y03980D02*
X02509D01*
X02571Y04056D02*
X02708D01*
X02571Y03903D02*
X02708D01*
Y04056*
X02571Y03903D02*
Y04056D01*
X02640Y03960D02*
Y03999D01*
X02620Y03980D02*
X02659D01*
X02746Y04056D02*
X02883D01*
X02746Y03903D02*
X02883D01*
Y04056*
X02746Y03903D02*
Y04056D01*
X02815Y03960D02*
Y03999D01*
X02795Y03980D02*
X02834D01*
X01951Y04056D02*
X02088D01*
X01951Y03903D02*
X02088D01*
Y04056*
X01951Y03903D02*
Y04056D01*
X02020Y03960D02*
Y03999D01*
X02000Y03980D02*
X02039D01*
X02101Y04056D02*
X02238D01*
X02101Y03903D02*
X02238D01*
Y04056*
X02101Y03903D02*
Y04056D01*
X02170Y03960D02*
Y03999D01*
X02150Y03980D02*
X02189D01*
X01801Y03738D02*
X01938D01*
X01801Y03891D02*
X01938D01*
X01801Y03738D02*
Y03891D01*
X01938Y03738D02*
Y03891D01*
X01870Y03795D02*
Y03834D01*
X01850Y03815D02*
X01889D01*
X04845Y04270D02*
X04884D01*
X04865Y04250D02*
Y04289D01*
X04370Y04270D02*
X04409D01*
X04390Y04250D02*
Y04289D01*
X03420Y04270D02*
X03459D01*
X03440Y04250D02*
Y04289D01*
X03895Y04270D02*
X03934D01*
X03915Y04250D02*
Y04289D01*
X02475Y04270D02*
X02514D01*
X02495Y04250D02*
Y04289D01*
X02945Y04270D02*
X02984D01*
X02965Y04250D02*
Y04289D01*
X01525Y04270D02*
X01564D01*
X01545Y04250D02*
Y04289D01*
X02000Y04270D02*
X02039D01*
X02020Y04250D02*
Y04289D01*
X03420Y01725D02*
X03459D01*
X03440Y01705D02*
Y01744D01*
X01520Y04410D02*
X01559D01*
X01540Y04390D02*
Y04429D01*
X01626Y04056D02*
X01763D01*
X01626Y03903D02*
X01763D01*
Y04056*
X01626Y03903D02*
Y04056D01*
X01695Y03960D02*
Y03999D01*
X01675Y03980D02*
X01714D01*
X01476Y04056D02*
X01613D01*
X01476Y03903D02*
X01613D01*
Y04056*
X01476Y03903D02*
Y04056D01*
X01545Y03960D02*
Y03999D01*
X01525Y03980D02*
X01564D01*
X01326Y03738D02*
X01463D01*
X01326Y03891D02*
X01463D01*
X01326Y03738D02*
Y03891D01*
X01463Y03738D02*
Y03891D01*
X01395Y03795D02*
Y03834D01*
X01375Y03815D02*
X01414D01*
X01326Y04056D02*
X01463D01*
X01326Y03903D02*
X01463D01*
Y04056*
X01326Y03903D02*
Y04056D01*
X01395Y03960D02*
Y03999D01*
X01375Y03980D02*
X01414D01*
X02000Y04410D02*
X02039D01*
X02020Y04390D02*
Y04429D01*
X02271Y04056D02*
X02408D01*
X02271Y03903D02*
X02408D01*
Y04056*
X02271Y03903D02*
Y04056D01*
X02340Y03960D02*
Y03999D01*
X02320Y03980D02*
X02359D01*
X03073Y06144D02*
X03487D01*
X03073Y06439D02*
X03487D01*
X03073Y06144D02*
Y06439D01*
X03487Y06144D02*
Y06439D01*
X03280Y06272D02*
Y06311D01*
X03260Y06292D02*
X03300D01*
G54D142*
X06460Y07191D02*
Y07252D01*
Y07191D02*
X06580D01*
Y07252*
X06460D02*
X06580D01*
X06460Y07091D02*
Y07152D01*
Y07091D02*
X06580D01*
Y07152*
X06460D02*
X06580D01*
X06460Y06991D02*
Y07052D01*
Y06991D02*
X06580D01*
Y07052*
X06460D02*
X06580D01*
X06460Y06891D02*
Y06952D01*
Y06891D02*
X06580D01*
Y06952*
X06460D02*
X06580D01*
X06460Y06791D02*
Y06852D01*
Y06791D02*
X06580D01*
Y06852*
X06460D02*
X06580D01*
X06460Y06691D02*
Y06752D01*
Y06691D02*
X06580D01*
Y06752*
X06460D02*
X06580D01*
X06460Y06591D02*
Y06652D01*
Y06591D02*
X06580D01*
Y06652*
X06460D02*
X06580D01*
X06460Y06491D02*
Y06552D01*
Y06491D02*
X06580D01*
Y06552*
X06460D02*
X06580D01*
X02981Y07181D02*
Y07303D01*
X02858Y07181D02*
Y07303D01*
X02981*
X02858Y07181D02*
X02981D01*
X05321Y06171D02*
Y06308D01*
X05168Y06171D02*
Y06308D01*
Y06171D02*
X05321D01*
X05168Y06308D02*
X05321D01*
X03721Y07181D02*
Y07303D01*
X03598Y07181D02*
Y07303D01*
X03721*
X03598Y07181D02*
X03721D01*
X03246D02*
Y07303D01*
X03123Y07181D02*
Y07303D01*
X03246*
X03123Y07181D02*
X03246D01*
X04325Y06522D02*
Y06931D01*
X04735Y06522D02*
Y06931D01*
X04325D02*
X04735D01*
X04325Y06522D02*
X04735D01*
X01458Y01760D02*
X01631D01*
Y01689D02*
Y01760D01*
X01458Y01689D02*
Y01760D01*
Y01689D02*
X01631D01*
X01933Y01760D02*
X02106D01*
Y01689D02*
Y01760D01*
X01933Y01689D02*
Y01760D01*
Y01689D02*
X02106D01*
X02408Y01760D02*
X02581D01*
Y01689D02*
Y01760D01*
X02408Y01689D02*
Y01760D01*
Y01689D02*
X02581D01*
X02883Y01760D02*
X03056D01*
Y01689D02*
Y01760D01*
X02883Y01689D02*
Y01760D01*
Y01689D02*
X03056D01*
X03828Y01760D02*
X04001D01*
Y01689D02*
Y01760D01*
X03828Y01689D02*
Y01760D01*
Y01689D02*
X04001D01*
X04303Y01760D02*
X04476D01*
Y01689D02*
Y01760D01*
X04303Y01689D02*
Y01760D01*
Y01689D02*
X04476D01*
X04778Y01760D02*
X04951D01*
Y01689D02*
Y01760D01*
X04778Y01689D02*
Y01760D01*
Y01689D02*
X04951D01*
X04778Y04374D02*
X04951D01*
X04778D02*
Y04445D01*
X04951Y04374D02*
Y04445D01*
X04778D02*
X04951D01*
X04303Y04374D02*
X04476D01*
X04303D02*
Y04445D01*
X04476Y04374D02*
Y04445D01*
X04303D02*
X04476D01*
X03828Y04374D02*
X04001D01*
X03828D02*
Y04445D01*
X04001Y04374D02*
Y04445D01*
X03828D02*
X04001D01*
X03353Y04374D02*
X03526D01*
X03353D02*
Y04445D01*
X03526Y04374D02*
Y04445D01*
X03353D02*
X03526D01*
X02878Y04374D02*
X03051D01*
X02878D02*
Y04445D01*
X03051Y04374D02*
Y04445D01*
X02878D02*
X03051D01*
X02408Y04374D02*
X02581D01*
X02408D02*
Y04445D01*
X02581Y04374D02*
Y04445D01*
X02408D02*
X02581D01*
X03353Y01760D02*
X03526D01*
Y01689D02*
Y01760D01*
X03353Y01689D02*
Y01760D01*
Y01689D02*
X03526D01*
X01453Y04374D02*
X01626D01*
X01453D02*
Y04445D01*
X01626Y04374D02*
Y04445D01*
X01453D02*
X01626D01*
X01933Y04374D02*
X02106D01*
X01933D02*
Y04445D01*
X02106Y04374D02*
Y04445D01*
X01933D02*
X02106D01*
M02*