%FSDAX23Y23*%
%MOIN*%
%SFA1B1*%

%IPPOS*%
%ADD9500C,0.015700*%
%ADD9501C,0.030000*%
%ADD9502C,0.031500*%
%ADD9503C,0.035400*%
%ADD9504C,0.039400*%
%ADD9505C,0.043300*%
%ADD9506C,0.047200*%
%ADD9507C,0.055100*%
%ADD9508C,0.157500*%
%LNde-130817-1*%
%LPD*%
G54D9500*
X01470Y01378D03*
X01541D03*
X01612D03*
X01683D03*
X01754D03*
X01825D03*
X01896D03*
X01968D03*
X02039D03*
X02110D03*
X02181D03*
X02252D03*
X02323D03*
X02395D03*
X02620D03*
X02691D03*
X02762D03*
X02833D03*
X02904D03*
X02975D03*
X03046D03*
X03118D03*
X03189D03*
X03260D03*
X03331D03*
X03402D03*
X03473D03*
X03545D03*
X03843Y01378D03*
X03914D03*
X03985D03*
X04056D03*
X04127D03*
X04198D03*
X04270D03*
X04341D03*
X04412D03*
X04483D03*
X04554D03*
X04625D03*
X04697D03*
X04768D03*
X04905Y02365D03*
X04965Y02525D03*
X04490D03*
X04435Y02365D03*
X04615Y02280D03*
X04145D03*
X03965Y02365D03*
X04025Y02525D03*
X03545Y02520D03*
X03375Y02555D03*
X03490Y02365D03*
X03285Y02335D03*
X03675Y02280D03*
X03015Y02365D03*
Y02555D03*
X02890Y02720D03*
X02818D03*
X02747D03*
X02676D03*
X02605D03*
X02534D03*
X02463D03*
X02391D03*
X02320D03*
X02249D03*
X02178D03*
X02107D03*
X02036D03*
X01965D03*
Y03005D03*
X02036D03*
X02107D03*
X02178D03*
X02249D03*
X02320D03*
X02391D03*
X02463D03*
X02534D03*
X02605D03*
X02676D03*
X02747D03*
X02818D03*
X02890D03*
X03115Y03040D03*
X02725Y02275D03*
X02535Y02365D03*
X02250Y02275D03*
X02065Y02365D03*
X01775Y02275D03*
X01590Y02365D03*
X01405Y02350D03*
X01490Y03765D03*
X01780Y03850D03*
X01970Y03765D03*
X02255Y03850D03*
X02435Y03770D03*
X02720Y03850D03*
X02915Y03770D03*
X03115Y03795D03*
X03010Y03615D03*
X03115Y03445D03*
X03035Y03300D03*
X02963D03*
X02892D03*
X02821D03*
X02750D03*
X02679D03*
X02608D03*
X02536D03*
X02465D03*
X02394D03*
X02323D03*
X02252D03*
X02181D03*
X02110D03*
Y03140D03*
X02181D03*
X02252D03*
X02323D03*
X02394D03*
X02465D03*
X02536D03*
X02608D03*
X02679D03*
X02750D03*
X02821D03*
X02892D03*
X02963D03*
X03035D03*
X03315Y03615D03*
X03395Y03770D03*
X03685Y03850D03*
X03875Y03770D03*
X04160Y03850D03*
X04350Y03770D03*
X04640Y03850D03*
X04825Y03770D03*
X05115Y03850D03*
X04620Y04775D03*
X04548D03*
X04477D03*
X04406D03*
X04335D03*
X04264D03*
X04193D03*
X04121D03*
X04050D03*
X03979D03*
X03908D03*
X03837D03*
X03766D03*
X03695D03*
X03605D03*
X03533D03*
X03462D03*
X03391D03*
X03320D03*
X03249D03*
X03178D03*
X03155Y06120D03*
X03205D03*
X03255D03*
X03305D03*
X03455D03*
X03105D03*
X02760D03*
X02710D03*
X02660D03*
X02610D03*
X02560D03*
X02510D03*
X01575Y05705D03*
X01670Y04775D03*
X01741D03*
X01812D03*
X01883D03*
X01954D03*
X02025D03*
X02096D03*
X02168D03*
X02239D03*
X02310D03*
X02381D03*
X02452D03*
X02523D03*
X02595D03*
X02680D03*
X02751D03*
X02822D03*
X02893D03*
X02964D03*
X03035D03*
X03106D03*
X01273Y06492D03*
X01485Y07000D03*
X02410Y06935D03*
Y06455D03*
X02795Y06386D03*
Y06625D03*
Y06805D03*
Y07045D03*
Y07195D03*
X02880Y07345D03*
X02925Y07370D03*
X03090D03*
Y07148D03*
X03040Y07145D03*
Y06911D03*
X02995Y06910D03*
X02987Y06488D03*
X03040D03*
X01950Y06310D03*
X02315Y07330D03*
X02340Y07375D03*
X02310Y07410D03*
X03398Y07145D03*
X03570Y07145D03*
X03650Y07020D03*
X03690Y07042D03*
X03730Y07065D03*
X03815Y07035D03*
X03950Y07170D03*
X04025Y07260D03*
X04175Y07215D03*
X04140Y07115D03*
X04095Y07130D03*
X04110Y07085D03*
X04239Y07052D03*
X04428Y07061D03*
Y07014D03*
X04590D03*
X04620Y07045D03*
X04665D03*
X04620Y07165D03*
X04575D03*
X04485D03*
X04437Y06717D03*
X04530Y06705D03*
X04560Y06670D03*
X04625Y06655D03*
X04640Y06445D03*
X04610Y06380D03*
X04330Y06445D03*
X04310Y06510D03*
Y06560D03*
X04275Y06645D03*
X04200Y06685D03*
X04160Y06765D03*
X04115Y06780D03*
X03855Y06785D03*
X03755Y06790D03*
X03615Y06830D03*
X03483Y06879D03*
X03305Y06890D03*
X03205D03*
X03250Y06945D03*
X03356D03*
X03355Y06465D03*
X03305D03*
X03255D03*
X03455Y06556D03*
X03555Y06265D03*
X03595Y06305D03*
X03750Y06315D03*
X04070Y06370D03*
X04200Y06400D03*
X03955Y07440D03*
X03990Y07490D03*
X03795D03*
X03660Y07335D03*
X04240Y07740D03*
X04695Y07014D03*
X04725Y06980D03*
X04815Y06905D03*
X04865Y06770D03*
X04895Y06800D03*
X04925Y06830D03*
X04965Y06680D03*
X05034Y06991D03*
X04975Y07050D03*
X05005Y07150D03*
X05060D03*
X05202Y07197D03*
X05318Y07240D03*
X05320Y07105D03*
X05318Y06995D03*
X05325Y06885D03*
Y06790D03*
X05496Y06963D03*
X05595Y07015D03*
X05645D03*
X05695D03*
X05745D03*
X05795D03*
X05845D03*
X05895D03*
X05945D03*
Y07080D03*
X05895D03*
X05845D03*
X05795D03*
X05745D03*
X05695D03*
X05645D03*
X05595D03*
X05495Y07336D03*
X05696Y07592D03*
X06161D03*
X06065Y07215D03*
X06035Y06560D03*
X05727D03*
X04710Y06525D03*
Y06445D03*
X06380Y06520D03*
Y06620D03*
Y06720D03*
Y06820D03*
Y06920D03*
Y07020D03*
Y07120D03*
Y07220D03*
X06605D03*
Y07120D03*
Y07020D03*
Y06920D03*
Y06820D03*
Y06720D03*
Y06620D03*
Y06520D03*
G54D9501*
X03720Y03145D03*
Y03245D03*
Y03345D03*
Y03445D03*
X04040D03*
Y03345D03*
Y03245D03*
Y03145D03*
X04475Y07312D03*
Y07412D03*
Y07512D03*
Y07612D03*
G54D9502*
X03910Y02710D03*
Y02789D03*
X01720Y02886D03*
Y03286D03*
X03325Y03365D03*
Y03444D03*
G54D9503*
X04785Y02655D03*
Y02755D03*
Y02855D03*
Y02955D03*
Y03055D03*
X04885D03*
Y02955D03*
Y02855D03*
Y02755D03*
Y02655D03*
Y03155D03*
Y03255D03*
Y03355D03*
Y03455D03*
X04785D03*
Y03355D03*
Y03255D03*
Y03155D03*
X06250Y06243D03*
X06730Y06247D03*
X06830D03*
X05045Y06150D03*
X04945D03*
X04685Y06140D03*
X04585D03*
X04485D03*
Y06240D03*
X04585D03*
X04685D03*
X01505Y06157D03*
X01405D03*
Y06057D03*
X01505D03*
Y05957D03*
X01405D03*
Y05857D03*
X01505D03*
Y05757D03*
X01405D03*
Y05657D03*
X01505D03*
Y05557D03*
X01405D03*
Y06492D03*
X01505D03*
Y06592D03*
X01405D03*
Y06692D03*
X01505D03*
Y06792D03*
X01405D03*
Y07090D03*
Y07190D03*
Y07290D03*
Y07390D03*
Y07490D03*
Y07590D03*
X01840Y06890D03*
Y06790D03*
Y06690D03*
Y06590D03*
Y06490D03*
X05125Y06587D03*
Y06687D03*
Y06787D03*
Y06887D03*
Y06987D03*
X06250Y06440D03*
X06730Y06347D03*
X06830D03*
Y06522D03*
Y06622D03*
Y06722D03*
Y06822D03*
Y06922D03*
Y07022D03*
Y07122D03*
Y07222D03*
Y07392D03*
X06730D03*
Y07492D03*
X06830D03*
X01405Y07863D03*
Y07963D03*
Y08063D03*
Y08163D03*
Y08263D03*
Y08363D03*
G54D9504*
X04765Y01865D03*
X04865D03*
X04965D03*
X04490D03*
X04390D03*
X04290D03*
X04015D03*
X03915D03*
X03815D03*
X03540D03*
X03440D03*
X03340D03*
X03850Y02985D03*
X04150D03*
X03070Y01865D03*
X02970D03*
X02870D03*
X02595D03*
X02495D03*
X02395D03*
X02120D03*
X02020D03*
X01920D03*
X01645D03*
X01545D03*
X01445D03*
Y04270D03*
X01545D03*
X01645D03*
X01920D03*
X02020D03*
X02120D03*
X02395D03*
X02495D03*
X02595D03*
X02865D03*
X02965D03*
X03065D03*
X03340D03*
X03440D03*
X03540D03*
X03815D03*
X03915D03*
X04015D03*
X04290D03*
X04390D03*
X04490D03*
X04765D03*
X04865D03*
X04965D03*
X05700Y06437D03*
X05800D03*
X05900D03*
G54D9505*
X03625Y02735D03*
Y02835D03*
Y02935D03*
X02845Y02909D03*
X02170D03*
Y03204D03*
X02845D03*
G54D9506*
X01446Y01505D03*
X01643D03*
X01920D03*
X02117D03*
X02395D03*
X02592D03*
X02869D03*
X03066D03*
X03343D03*
X03540D03*
X03818D03*
X04014D03*
X04292D03*
X04489D03*
X04766D03*
X04963D03*
X01450Y02991D03*
Y03188D03*
X01446Y04635D03*
X01643D03*
X01920D03*
X02117D03*
X02395D03*
X02592D03*
X02869D03*
X03066D03*
X03343D03*
X03540D03*
X03818D03*
X04014D03*
X04292D03*
X04489D03*
X04766D03*
X04963D03*
X06378Y05250D03*
X06578D03*
X06840Y05536D03*
Y05733D03*
X06178Y05250D03*
X05948D03*
X05748D03*
X05548D03*
X05318D03*
X05118D03*
X04918D03*
X04688D03*
X04488D03*
X04288D03*
X04058D03*
X03858D03*
X03658D03*
X03428D03*
X03228D03*
X03028D03*
X02798D03*
X02598D03*
X02398D03*
X02168D03*
X01968D03*
X01768D03*
X06840Y07916D03*
Y08116D03*
Y08316D03*
X06575Y08610D03*
X06375D03*
X06175D03*
X05945D03*
X05745D03*
X05545D03*
X05315D03*
X05115D03*
X04915D03*
X04680D03*
X04480D03*
X04280D03*
X04055D03*
X03855D03*
X03655D03*
X03425D03*
X03225D03*
X03025D03*
X02795D03*
X02595D03*
X02395D03*
X02165D03*
X01965D03*
X01765D03*
G54D9507*
X06575Y05497D03*
Y05898D03*
X06378Y05997D03*
X06181Y05898D03*
X05945D03*
X05748Y05997D03*
X05551Y05898D03*
X05315D03*
X05118Y05997D03*
X04921Y05898D03*
Y05497D03*
X05315D03*
X05551D03*
X05945D03*
X06181D03*
X04685D03*
X04291D03*
X04055D03*
X03661D03*
X03425D03*
Y05898D03*
X03661D03*
X03858Y05997D03*
X04055Y05898D03*
X04291D03*
X04488Y05997D03*
X04685Y05898D03*
X03228Y05997D03*
X03031Y05898D03*
X02795D03*
X02598Y05997D03*
X02401Y05898D03*
X02165D03*
X01968Y05997D03*
X01771Y05898D03*
Y05497D03*
X02165D03*
X02401D03*
X02795D03*
X03031D03*
X06375Y07857D03*
X06572Y07955D03*
Y08357D03*
X06178D03*
X05942D03*
X05548D03*
X05312D03*
X04918D03*
Y07955D03*
X05115Y07857D03*
X05312Y07955D03*
X05548D03*
X05745Y07857D03*
X05942Y07955D03*
X06178D03*
X04682D03*
X04485Y07857D03*
X04288Y07955D03*
X04052D03*
X03855Y07857D03*
X03658Y07955D03*
X03421D03*
X03225Y07857D03*
X03421Y08357D03*
X03658D03*
X04052D03*
X04288D03*
X04682D03*
X03028D03*
X02791D03*
X02398D03*
X02161D03*
X01768D03*
Y07955D03*
X01965Y07857D03*
X02161Y07955D03*
X02398D03*
X02595Y07857D03*
X02791Y07955D03*
X03028D03*
G54D9508*
X04460Y03105D03*
X01431Y02693D03*
Y03480D03*
X06904Y05173D03*
X01471D03*
X06904Y08637D03*
X01471D03*
M02*