%FSDAX23Y23*%
%MOIN*%
%SFA1B1*%

%IPPOS*%
%ADD12R,0.043300X0.039400*%
%ADD31C,0.059100*%
%ADD47R,0.066900X0.066900*%
%ADD48C,0.066900*%
%ADD49C,0.098400*%
%ADD50R,0.059100X0.059100*%
%ADD51R,0.059100X0.059100*%
%ADD52R,0.063000X0.063000*%
%ADD53C,0.063000*%
%ADD54C,0.053100*%
%ADD55R,0.053100X0.053100*%
%ADD56C,0.065000*%
%ADD57C,0.060000*%
%ADD58C,0.078700*%
%ADD59R,0.072800X0.072800*%
%ADD60C,0.072800*%
%ADD61C,0.053100*%
%ADD63R,0.024800X0.032700*%
%LNde-130817-1*%
%LPD*%
G54D12*
X06656Y06522D03*
X06723D03*
X06656Y06622D03*
X06723D03*
X06656Y06722D03*
X06723D03*
X06656Y06822D03*
X06723D03*
X06656Y06922D03*
X06723D03*
X06656Y07022D03*
X06723D03*
X06656Y07122D03*
X06723D03*
X06656Y07222D03*
X06723D03*
G54D31*
X04945Y06150D03*
X04485Y06140D03*
Y06240D03*
X04585Y06140D03*
Y06240D03*
X04685Y06140D03*
X01840Y06590D03*
Y06690D03*
Y06790D03*
Y06890D03*
X01405Y06157D03*
X01505D03*
X01405Y06057D03*
X01505D03*
X01405Y05957D03*
X01505D03*
X01405Y05857D03*
X01505D03*
X01405Y05757D03*
X01505D03*
X01405Y05657D03*
X01505D03*
X01405Y05557D03*
Y06492D03*
X01505Y06592D03*
X01405D03*
X01505Y06692D03*
X01405D03*
X01505Y06792D03*
X01405D03*
X05125Y06687D03*
Y06787D03*
Y06887D03*
Y06987D03*
X06730Y07392D03*
X06830Y07492D03*
X06730D03*
X06830Y07222D03*
Y07122D03*
Y07022D03*
Y06922D03*
Y06822D03*
Y06722D03*
Y06622D03*
X06730Y06247D03*
X06830Y06347D03*
X06730D03*
X01405Y07590D03*
Y07490D03*
Y07390D03*
Y07290D03*
Y07190D03*
Y08363D03*
Y08263D03*
Y08163D03*
Y08063D03*
Y07963D03*
X04885Y03455D03*
X04785Y03355D03*
X04885D03*
X04785Y03255D03*
X04885D03*
X04785Y03155D03*
X04885D03*
X04785Y03055D03*
X04885D03*
X04785Y02955D03*
X04885D03*
X04785Y02855D03*
X04885D03*
X04785Y02755D03*
X04885D03*
X04785Y02655D03*
X04885D03*
X06250Y06243D03*
G54D47*
X03625Y02935D03*
G54D48*
X03625Y02835D03*
Y02735D03*
G54D49*
X06840Y07916D03*
Y08116D03*
Y08316D03*
X06840Y05536D03*
Y05733D03*
X06578Y05250D03*
X06378D03*
X06178D03*
X05948D03*
X05748D03*
X05548D03*
X05318D03*
X05118D03*
X04918D03*
X04688D03*
X04488D03*
X04288D03*
X04058D03*
X03858D03*
X03658D03*
X03428D03*
X03228D03*
X03028D03*
X02798D03*
X02598D03*
X02398D03*
X02168D03*
X01968D03*
X01768D03*
X01450Y03188D03*
Y02991D03*
X04766Y04635D03*
X04963D03*
X04292D03*
X04489D03*
X03818D03*
X04014D03*
X03343D03*
X03540D03*
X02869D03*
X03066D03*
X02395D03*
X02592D03*
X01920D03*
X02117D03*
X01446D03*
X01643D03*
Y01505D03*
X01446D03*
X02117D03*
X01920D03*
X02592D03*
X02395D03*
X03066D03*
X02869D03*
X03540D03*
X03343D03*
X04014D03*
X03818D03*
X04489D03*
X04292D03*
X04963D03*
X04766D03*
X01765Y08610D03*
X01965D03*
X02165D03*
X02395D03*
X02595D03*
X02795D03*
X03025D03*
X03225D03*
X03425D03*
X03655D03*
X03855D03*
X04055D03*
X04280D03*
X04480D03*
X04680D03*
X04915D03*
X05115D03*
X05315D03*
X05545D03*
X05745D03*
X05945D03*
X06175D03*
X06375D03*
X06575D03*
G54D50*
X05045Y06150D03*
X04685Y06240D03*
G54D51*
X01840Y06490D03*
X01505Y05557D03*
Y06492D03*
X05125Y06587D03*
X06830Y07392D03*
Y06522D03*
Y06247D03*
X01405Y07090D03*
Y07863D03*
X04785Y03455D03*
X06250Y06440D03*
G54D52*
X04765Y01865D03*
X04290D03*
X03815D03*
X03340D03*
X02870D03*
X02395D03*
X01920D03*
X01445D03*
X05900Y06437D03*
X04965Y04270D03*
X04490D03*
X03540D03*
X04015D03*
X02595D03*
X03065D03*
X01645D03*
X02120D03*
G54D53*
X04865Y01865D03*
X04965D03*
X04390D03*
X04490D03*
X03915D03*
X04015D03*
X03440D03*
X03540D03*
X02970D03*
X03070D03*
X02495D03*
X02595D03*
X02020D03*
X02120D03*
X01545D03*
X01645D03*
X05700Y06437D03*
X05800D03*
X04865Y04270D03*
X04765D03*
X04390D03*
X04290D03*
X03440D03*
X03340D03*
X03915D03*
X03815D03*
X02495D03*
X02395D03*
X02965D03*
X02865D03*
X01545D03*
X01445D03*
X02020D03*
X01920D03*
G54D54*
X03910Y02710D03*
X03325Y03365D03*
G54D55*
X03910Y02789D03*
X03325Y03444D03*
G54D56*
X03850Y02985D03*
X04150D03*
G54D57*
X04475Y07312D03*
Y07412D03*
Y07512D03*
Y07612D03*
X04040Y03145D03*
Y03245D03*
Y03345D03*
Y03445D03*
X03720Y03145D03*
Y03245D03*
Y03345D03*
Y03445D03*
G54D58*
X06572Y08357D03*
X06178D03*
X06572Y07955D03*
X06178D03*
X06375Y07857D03*
X05942Y08357D03*
X05548D03*
X05942Y07955D03*
X05548D03*
X05745Y07857D03*
X05312Y08357D03*
X04918D03*
X05312Y07955D03*
X04918D03*
X05115Y07857D03*
X04682Y08357D03*
X04288D03*
X04682Y07955D03*
X04288D03*
X04485Y07857D03*
X04052Y08357D03*
X03658D03*
X04052Y07955D03*
X03658D03*
X03855Y07857D03*
X03421Y08357D03*
X03028D03*
X03421Y07955D03*
X03028D03*
X03225Y07857D03*
X02791Y08357D03*
X02398D03*
X02791Y07955D03*
X02398D03*
X02595Y07857D03*
X02161Y08357D03*
X01768D03*
X02161Y07955D03*
X01768D03*
X01965Y07857D03*
X06181Y05497D03*
X06575D03*
X06181Y05898D03*
X06575D03*
X06378Y05997D03*
X05551Y05497D03*
X05945D03*
X05551Y05898D03*
X05945D03*
X05748Y05997D03*
X04921Y05497D03*
X05315D03*
X04921Y05898D03*
X05315D03*
X05118Y05997D03*
X04291Y05497D03*
X04685D03*
X04291Y05898D03*
X04685D03*
X04488Y05997D03*
X03661Y05497D03*
X04055D03*
X03661Y05898D03*
X04055D03*
X03858Y05997D03*
X03031Y05497D03*
X03425D03*
X03031Y05898D03*
X03425D03*
X03228Y05997D03*
X02401Y05497D03*
X02795D03*
X02401Y05898D03*
X02795D03*
X02598Y05997D03*
X01771Y05497D03*
X02165D03*
X01771Y05898D03*
X02165D03*
X01968Y05997D03*
G54D59*
X02845Y03204D03*
X02170D03*
G54D60*
X02845Y02909D03*
X02170D03*
G54D61*
X01720Y02886D03*
Y03286D03*
G54D63*
X06564Y07222D03*
X06476D03*
X06564Y07122D03*
X06476D03*
X06564Y07022D03*
X06476D03*
X06564Y06922D03*
X06476D03*
X06564Y06822D03*
X06476D03*
X06564Y06722D03*
X06476D03*
X06564Y06622D03*
X06476D03*
X06564Y06522D03*
X06476D03*
M02*