%FSDAX23Y23*%
%MOIN*%
%SFA1B1*%

%IPPOS*%
%ADD143C,0.002000*%
%LNde-130817-1*%
%LPD*%
G54D143*
X03603Y02935D02*
X03646D01*
X03625Y02913D02*
Y02956D01*
X03603Y02835D02*
X03646D01*
X03625Y02813D02*
Y02856D01*
X03603Y02735D02*
X03646D01*
X03625Y02713D02*
Y02756D01*
X06816Y07916D02*
X06863D01*
X06840Y07893D02*
Y07940D01*
X06816Y08116D02*
X06863D01*
X06840Y08093D02*
Y08140D01*
X06816Y08316D02*
X06863D01*
X06840Y08293D02*
Y08340D01*
X06816Y05536D02*
X06863D01*
X06840Y05513D02*
Y05560D01*
X06816Y05733D02*
X06863D01*
X06840Y05709D02*
Y05757D01*
X06555Y05250D02*
X06602D01*
X06578Y05226D02*
Y05273D01*
X06355Y05250D02*
X06402D01*
X06378Y05226D02*
Y05273D01*
X06155Y05250D02*
X06202D01*
X06178Y05226D02*
Y05273D01*
X05925Y05250D02*
X05972D01*
X05948Y05226D02*
Y05273D01*
X05725Y05250D02*
X05772D01*
X05748Y05226D02*
Y05273D01*
X05525Y05250D02*
X05572D01*
X05548Y05226D02*
Y05273D01*
X05294Y05250D02*
X05342D01*
X05318Y05226D02*
Y05273D01*
X05094Y05250D02*
X05142D01*
X05118Y05226D02*
Y05273D01*
X04894Y05250D02*
X04942D01*
X04918Y05226D02*
Y05273D01*
X04664Y05250D02*
X04712D01*
X04688Y05226D02*
Y05273D01*
X04464Y05250D02*
X04512D01*
X04488Y05226D02*
Y05273D01*
X04264Y05250D02*
X04312D01*
X04288Y05226D02*
Y05273D01*
X04034Y05250D02*
X04082D01*
X04058Y05226D02*
Y05273D01*
X03834Y05250D02*
X03882D01*
X03858Y05226D02*
Y05273D01*
X03634Y05250D02*
X03682D01*
X03658Y05226D02*
Y05273D01*
X03404Y05250D02*
X03452D01*
X03428Y05226D02*
Y05273D01*
X03204Y05250D02*
X03252D01*
X03228Y05226D02*
Y05273D01*
X03004Y05250D02*
X03052D01*
X03028Y05226D02*
Y05273D01*
X02774Y05250D02*
X02822D01*
X02798Y05226D02*
Y05273D01*
X02574Y05250D02*
X02622D01*
X02598Y05226D02*
Y05273D01*
X02374Y05250D02*
X02422D01*
X02398Y05226D02*
Y05273D01*
X02144Y05250D02*
X02191D01*
X02168Y05226D02*
Y05273D01*
X01944Y05250D02*
X01991D01*
X01968Y05226D02*
Y05273D01*
X01744Y05250D02*
X01791D01*
X01768Y05226D02*
Y05273D01*
X01426Y03188D02*
X01473D01*
X01450Y03164D02*
Y03212D01*
X01426Y02991D02*
X01473D01*
X01450Y02968D02*
Y03015D01*
X04743Y04635D02*
X04790D01*
X04766Y04611D02*
Y04658D01*
X04939Y04635D02*
X04987D01*
X04963Y04611D02*
Y04658D01*
X04268Y04635D02*
X04315D01*
X04292Y04611D02*
Y04658D01*
X04465Y04635D02*
X04512D01*
X04489Y04611D02*
Y04658D01*
X03794Y04635D02*
X03841D01*
X03818Y04611D02*
Y04658D01*
X03991Y04635D02*
X04038D01*
X04014Y04611D02*
Y04658D01*
X03320Y04635D02*
X03367D01*
X03343Y04611D02*
Y04658D01*
X03516Y04635D02*
X03564D01*
X03540Y04611D02*
Y04658D01*
X02845Y04635D02*
X02893D01*
X02869Y04611D02*
Y04658D01*
X03042Y04635D02*
X03089D01*
X03066Y04611D02*
Y04658D01*
X02371Y04635D02*
X02418D01*
X02395Y04611D02*
Y04658D01*
X02568Y04635D02*
X02615D01*
X02592Y04611D02*
Y04658D01*
X01897Y04635D02*
X01944D01*
X01920Y04611D02*
Y04658D01*
X02094Y04635D02*
X02141D01*
X02117Y04611D02*
Y04658D01*
X01423Y04635D02*
X01470D01*
X01446Y04611D02*
Y04658D01*
X01619Y04635D02*
X01667D01*
X01643Y04611D02*
Y04658D01*
X01619Y01505D02*
X01667D01*
X01643Y01481D02*
Y01528D01*
X01423Y01505D02*
X01470D01*
X01446Y01481D02*
Y01528D01*
X02094Y01505D02*
X02141D01*
X02117Y01481D02*
Y01528D01*
X01897Y01505D02*
X01944D01*
X01920Y01481D02*
Y01528D01*
X02568Y01505D02*
X02615D01*
X02592Y01481D02*
Y01528D01*
X02371Y01505D02*
X02418D01*
X02395Y01481D02*
Y01528D01*
X03042Y01505D02*
X03089D01*
X03066Y01481D02*
Y01528D01*
X02845Y01505D02*
X02893D01*
X02869Y01481D02*
Y01528D01*
X03516Y01505D02*
X03564D01*
X03540Y01481D02*
Y01528D01*
X03320Y01505D02*
X03367D01*
X03343Y01481D02*
Y01528D01*
X03991Y01505D02*
X04038D01*
X04014Y01481D02*
Y01528D01*
X03794Y01505D02*
X03841D01*
X03818Y01481D02*
Y01528D01*
X04465Y01505D02*
X04512D01*
X04489Y01481D02*
Y01528D01*
X04268Y01505D02*
X04315D01*
X04292Y01481D02*
Y01528D01*
X04939Y01505D02*
X04987D01*
X04963Y01481D02*
Y01528D01*
X04743Y01505D02*
X04790D01*
X04766Y01481D02*
Y01528D01*
X01741Y08610D02*
X01788D01*
X01765Y08586D02*
Y08633D01*
X01941Y08610D02*
X01988D01*
X01965Y08586D02*
Y08633D01*
X02141Y08610D02*
X02188D01*
X02165Y08586D02*
Y08633D01*
X02371Y08610D02*
X02418D01*
X02395Y08586D02*
Y08633D01*
X02571Y08610D02*
X02618D01*
X02595Y08586D02*
Y08633D01*
X02771Y08610D02*
X02818D01*
X02795Y08586D02*
Y08633D01*
X03001Y08610D02*
X03048D01*
X03025Y08586D02*
Y08633D01*
X03201Y08610D02*
X03248D01*
X03225Y08586D02*
Y08633D01*
X03401Y08610D02*
X03448D01*
X03425Y08586D02*
Y08633D01*
X03631Y08610D02*
X03678D01*
X03655Y08586D02*
Y08633D01*
X03831Y08610D02*
X03878D01*
X03855Y08586D02*
Y08633D01*
X04031Y08610D02*
X04078D01*
X04055Y08586D02*
Y08633D01*
X04256Y08610D02*
X04303D01*
X04280Y08586D02*
Y08633D01*
X04456Y08610D02*
X04503D01*
X04480Y08586D02*
Y08633D01*
X04656Y08610D02*
X04703D01*
X04680Y08586D02*
Y08633D01*
X04891Y08610D02*
X04938D01*
X04915Y08586D02*
Y08633D01*
X05091Y08610D02*
X05138D01*
X05115Y08586D02*
Y08633D01*
X05291Y08610D02*
X05338D01*
X05315Y08586D02*
Y08633D01*
X05521Y08610D02*
X05568D01*
X05545Y08586D02*
Y08633D01*
X05721Y08610D02*
X05768D01*
X05745Y08586D02*
Y08633D01*
X05921Y08610D02*
X05968D01*
X05945Y08586D02*
Y08633D01*
X06151Y08610D02*
X06198D01*
X06175Y08586D02*
Y08633D01*
X06351Y08610D02*
X06398D01*
X06375Y08586D02*
Y08633D01*
X06551Y08610D02*
X06598D01*
X06575Y08586D02*
Y08633D01*
X05027Y06150D02*
X05062D01*
X05045Y06132D02*
Y06167D01*
X04927Y06150D02*
X04962D01*
X04945Y06132D02*
Y06167D01*
X04467Y06140D02*
X04502D01*
X04485Y06122D02*
Y06157D01*
X04467Y06240D02*
X04502D01*
X04485Y06222D02*
Y06257D01*
X04567Y06140D02*
X04602D01*
X04585Y06122D02*
Y06157D01*
X04567Y06240D02*
X04602D01*
X04585Y06222D02*
Y06257D01*
X04667Y06140D02*
X04702D01*
X04685Y06122D02*
Y06157D01*
X04667Y06240D02*
X04702D01*
X04685Y06222D02*
Y06257D01*
X01822Y06490D02*
X01857D01*
X01840Y06472D02*
Y06507D01*
X01822Y06590D02*
X01857D01*
X01840Y06572D02*
Y06607D01*
X01822Y06690D02*
X01857D01*
X01840Y06672D02*
Y06707D01*
X01822Y06790D02*
X01857D01*
X01840Y06772D02*
Y06807D01*
X01822Y06890D02*
X01857D01*
X01840Y06872D02*
Y06907D01*
X01387Y06157D02*
X01423D01*
X01405Y06139D02*
Y06174D01*
X01487Y06157D02*
X01523D01*
X01505Y06139D02*
Y06174D01*
X01387Y06057D02*
X01423D01*
X01405Y06039D02*
Y06074D01*
X01487Y06057D02*
X01523D01*
X01505Y06039D02*
Y06074D01*
X01387Y05957D02*
X01423D01*
X01405Y05939D02*
Y05974D01*
X01487Y05957D02*
X01523D01*
X01505Y05939D02*
Y05974D01*
X01387Y05857D02*
X01423D01*
X01405Y05839D02*
Y05874D01*
X01487Y05857D02*
X01523D01*
X01505Y05839D02*
Y05874D01*
X01387Y05757D02*
X01423D01*
X01405Y05739D02*
Y05774D01*
X01487Y05757D02*
X01523D01*
X01505Y05739D02*
Y05774D01*
X01387Y05657D02*
X01423D01*
X01405Y05639D02*
Y05674D01*
X01487Y05657D02*
X01523D01*
X01505Y05639D02*
Y05674D01*
X01387Y05557D02*
X01423D01*
X01405Y05539D02*
Y05574D01*
X01487Y05557D02*
X01523D01*
X01505Y05539D02*
Y05574D01*
X01487Y06492D02*
X01523D01*
X01505Y06474D02*
Y06509D01*
X01387Y06492D02*
X01423D01*
X01405Y06474D02*
Y06509D01*
X01487Y06592D02*
X01523D01*
X01505Y06574D02*
Y06609D01*
X01387Y06592D02*
X01423D01*
X01405Y06574D02*
Y06609D01*
X01487Y06692D02*
X01523D01*
X01505Y06674D02*
Y06709D01*
X01387Y06692D02*
X01423D01*
X01405Y06674D02*
Y06709D01*
X01487Y06792D02*
X01523D01*
X01505Y06774D02*
Y06809D01*
X01387Y06792D02*
X01423D01*
X01405Y06774D02*
Y06809D01*
X05107Y06587D02*
X05143D01*
X05125Y06569D02*
Y06604D01*
X05107Y06687D02*
X05143D01*
X05125Y06669D02*
Y06704D01*
X05107Y06787D02*
X05143D01*
X05125Y06769D02*
Y06804D01*
X05107Y06887D02*
X05143D01*
X05125Y06869D02*
Y06904D01*
X05107Y06987D02*
X05143D01*
X05125Y06969D02*
Y07004D01*
X06812Y07392D02*
X06848D01*
X06830Y07374D02*
Y07409D01*
X06712Y07392D02*
X06748D01*
X06730Y07374D02*
Y07409D01*
X06812Y07492D02*
X06848D01*
X06830Y07474D02*
Y07509D01*
X06712Y07492D02*
X06748D01*
X06730Y07474D02*
Y07509D01*
X06812Y07222D02*
X06848D01*
X06830Y07204D02*
Y07239D01*
X06812Y07122D02*
X06848D01*
X06830Y07104D02*
Y07139D01*
X06812Y07022D02*
X06848D01*
X06830Y07004D02*
Y07039D01*
X06812Y06922D02*
X06848D01*
X06830Y06904D02*
Y06939D01*
X06812Y06822D02*
X06848D01*
X06830Y06804D02*
Y06839D01*
X06812Y06722D02*
X06848D01*
X06830Y06704D02*
Y06739D01*
X06812Y06622D02*
X06848D01*
X06830Y06604D02*
Y06639D01*
X06812Y06522D02*
X06848D01*
X06830Y06504D02*
Y06539D01*
X06812Y06247D02*
X06848D01*
X06830Y06229D02*
Y06264D01*
X06712Y06247D02*
X06748D01*
X06730Y06229D02*
Y06264D01*
X06812Y06347D02*
X06848D01*
X06830Y06329D02*
Y06364D01*
X06712Y06347D02*
X06748D01*
X06730Y06329D02*
Y06364D01*
X01387Y07590D02*
X01423D01*
X01405Y07572D02*
Y07607D01*
X01387Y07490D02*
X01423D01*
X01405Y07472D02*
Y07507D01*
X01387Y07390D02*
X01423D01*
X01405Y07372D02*
Y07407D01*
X01387Y07290D02*
X01423D01*
X01405Y07272D02*
Y07307D01*
X01387Y07190D02*
X01423D01*
X01405Y07172D02*
Y07207D01*
X01387Y07090D02*
X01423D01*
X01405Y07072D02*
Y07107D01*
X01387Y08363D02*
X01423D01*
X01405Y08345D02*
Y08380D01*
X01387Y08263D02*
X01423D01*
X01405Y08245D02*
Y08280D01*
X01387Y08163D02*
X01423D01*
X01405Y08145D02*
Y08180D01*
X01387Y08063D02*
X01423D01*
X01405Y08045D02*
Y08080D01*
X01387Y07963D02*
X01423D01*
X01405Y07945D02*
Y07980D01*
X01387Y07863D02*
X01423D01*
X01405Y07845D02*
Y07880D01*
X04867Y03455D02*
X04902D01*
X04885Y03437D02*
Y03472D01*
X04767Y03355D02*
X04802D01*
X04785Y03337D02*
Y03372D01*
X04867Y03355D02*
X04902D01*
X04885Y03337D02*
Y03372D01*
X04767Y03255D02*
X04802D01*
X04785Y03237D02*
Y03272D01*
X04867Y03255D02*
X04902D01*
X04885Y03237D02*
Y03272D01*
X04767Y03155D02*
X04802D01*
X04785Y03137D02*
Y03172D01*
X04867Y03155D02*
X04902D01*
X04885Y03137D02*
Y03172D01*
X04767Y03055D02*
X04802D01*
X04785Y03037D02*
Y03072D01*
X04867Y03055D02*
X04902D01*
X04885Y03037D02*
Y03072D01*
X04767Y02955D02*
X04802D01*
X04785Y02937D02*
Y02972D01*
X04867Y02955D02*
X04902D01*
X04885Y02937D02*
Y02972D01*
X04767Y02855D02*
X04802D01*
X04785Y02837D02*
Y02872D01*
X04867Y02855D02*
X04902D01*
X04885Y02837D02*
Y02872D01*
X04767Y02755D02*
X04802D01*
X04785Y02737D02*
Y02772D01*
X04867Y02755D02*
X04902D01*
X04885Y02737D02*
Y02772D01*
X04767Y02655D02*
X04802D01*
X04785Y02637D02*
Y02672D01*
X04867Y02655D02*
X04902D01*
X04885Y02637D02*
Y02672D01*
X04767Y03455D02*
X04802D01*
X04785Y03437D02*
Y03472D01*
X04745Y01865D02*
X04784D01*
X04765Y01845D02*
Y01884D01*
X04845Y01865D02*
X04884D01*
X04865Y01845D02*
Y01884D01*
X04945Y01865D02*
X04984D01*
X04965Y01845D02*
Y01884D01*
X04270Y01865D02*
X04309D01*
X04290Y01845D02*
Y01884D01*
X04370Y01865D02*
X04409D01*
X04390Y01845D02*
Y01884D01*
X04470Y01865D02*
X04509D01*
X04490Y01845D02*
Y01884D01*
X03795Y01865D02*
X03834D01*
X03815Y01845D02*
Y01884D01*
X03895Y01865D02*
X03934D01*
X03915Y01845D02*
Y01884D01*
X03995Y01865D02*
X04034D01*
X04015Y01845D02*
Y01884D01*
X03320Y01865D02*
X03359D01*
X03340Y01845D02*
Y01884D01*
X03420Y01865D02*
X03459D01*
X03440Y01845D02*
Y01884D01*
X03520Y01865D02*
X03559D01*
X03540Y01845D02*
Y01884D01*
X02850Y01865D02*
X02889D01*
X02870Y01845D02*
Y01884D01*
X02950Y01865D02*
X02989D01*
X02970Y01845D02*
Y01884D01*
X03050Y01865D02*
X03089D01*
X03070Y01845D02*
Y01884D01*
X02375Y01865D02*
X02414D01*
X02395Y01845D02*
Y01884D01*
X02475Y01865D02*
X02514D01*
X02495Y01845D02*
Y01884D01*
X02575Y01865D02*
X02614D01*
X02595Y01845D02*
Y01884D01*
X01900Y01865D02*
X01939D01*
X01920Y01845D02*
Y01884D01*
X02000Y01865D02*
X02039D01*
X02020Y01845D02*
Y01884D01*
X02100Y01865D02*
X02139D01*
X02120Y01845D02*
Y01884D01*
X01425Y01865D02*
X01464D01*
X01445Y01845D02*
Y01884D01*
X01525Y01865D02*
X01564D01*
X01545Y01845D02*
Y01884D01*
X01625Y01865D02*
X01664D01*
X01645Y01845D02*
Y01884D01*
X03894Y02710D02*
X03925D01*
X03910Y02694D02*
Y02726D01*
X03894Y02789D02*
X03925D01*
X03910Y02773D02*
Y02805D01*
X03830Y02985D02*
X03869D01*
X03850Y02965D02*
Y03004D01*
X04130Y02985D02*
X04169D01*
X04150Y02965D02*
Y03004D01*
X04381Y03105D02*
X04538D01*
X04460Y03026D02*
Y03183D01*
X01353Y03480D02*
X01510D01*
X01431Y03401D02*
Y03559D01*
X01353Y02693D02*
X01510D01*
X01431Y02614D02*
Y02771D01*
X04460Y07312D02*
X04490D01*
X04475Y07297D02*
Y07327D01*
X04460Y07412D02*
X04490D01*
X04475Y07397D02*
Y07427D01*
X04460Y07512D02*
X04490D01*
X04475Y07497D02*
Y07527D01*
X04460Y07612D02*
X04490D01*
X04475Y07597D02*
Y07627D01*
X05680Y06437D02*
X05720D01*
X05700Y06417D02*
Y06456D01*
X05780Y06437D02*
X05820D01*
X05800Y06417D02*
Y06456D01*
X05880Y06437D02*
X05920D01*
X05900Y06417D02*
Y06456D01*
X06232Y06243D02*
X06268D01*
X06250Y06225D02*
Y06261D01*
X06232Y06440D02*
X06268D01*
X06250Y06422D02*
Y06458D01*
X06544Y08357D02*
X06599D01*
X06572Y08329D02*
Y08384D01*
X06150Y08357D02*
X06206D01*
X06178Y08329D02*
Y08384D01*
X06544Y07955D02*
X06599D01*
X06572Y07927D02*
Y07983D01*
X06150Y07955D02*
X06206D01*
X06178Y07927D02*
Y07983D01*
X06347Y07857D02*
X06402D01*
X06375Y07829D02*
Y07884D01*
X05914Y08357D02*
X05969D01*
X05942Y08329D02*
Y08384D01*
X05520Y08357D02*
X05576D01*
X05548Y08329D02*
Y08384D01*
X05914Y07955D02*
X05969D01*
X05942Y07927D02*
Y07983D01*
X05520Y07955D02*
X05576D01*
X05548Y07927D02*
Y07983D01*
X05717Y07857D02*
X05772D01*
X05745Y07829D02*
Y07884D01*
X05284Y08357D02*
X05339D01*
X05312Y08329D02*
Y08384D01*
X04890Y08357D02*
X04945D01*
X04918Y08329D02*
Y08384D01*
X05284Y07955D02*
X05339D01*
X05312Y07927D02*
Y07983D01*
X04890Y07955D02*
X04945D01*
X04918Y07927D02*
Y07983D01*
X05087Y07857D02*
X05142D01*
X05115Y07829D02*
Y07884D01*
X04654Y08357D02*
X04709D01*
X04682Y08329D02*
Y08384D01*
X04260Y08357D02*
X04315D01*
X04288Y08329D02*
Y08384D01*
X04654Y07955D02*
X04709D01*
X04682Y07927D02*
Y07983D01*
X04260Y07955D02*
X04315D01*
X04288Y07927D02*
Y07983D01*
X04457Y07857D02*
X04512D01*
X04485Y07829D02*
Y07884D01*
X04024Y08357D02*
X04079D01*
X04052Y08329D02*
Y08384D01*
X03630Y08357D02*
X03685D01*
X03658Y08329D02*
Y08384D01*
X04024Y07955D02*
X04079D01*
X04052Y07927D02*
Y07983D01*
X03630Y07955D02*
X03685D01*
X03658Y07927D02*
Y07983D01*
X03827Y07857D02*
X03882D01*
X03855Y07829D02*
Y07884D01*
X03394Y08357D02*
X03449D01*
X03421Y08329D02*
Y08384D01*
X03000Y08357D02*
X03055D01*
X03028Y08329D02*
Y08384D01*
X03394Y07955D02*
X03449D01*
X03421Y07927D02*
Y07983D01*
X03000Y07955D02*
X03055D01*
X03028Y07927D02*
Y07983D01*
X03197Y07857D02*
X03252D01*
X03225Y07829D02*
Y07884D01*
X02764Y08357D02*
X02819D01*
X02791Y08329D02*
Y08384D01*
X02370Y08357D02*
X02425D01*
X02398Y08329D02*
Y08384D01*
X02764Y07955D02*
X02819D01*
X02791Y07927D02*
Y07983D01*
X02370Y07955D02*
X02425D01*
X02398Y07927D02*
Y07983D01*
X02567Y07857D02*
X02622D01*
X02595Y07829D02*
Y07884D01*
X02134Y08357D02*
X02189D01*
X02161Y08329D02*
Y08384D01*
X01740Y08357D02*
X01795D01*
X01768Y08329D02*
Y08384D01*
X02134Y07955D02*
X02189D01*
X02161Y07927D02*
Y07983D01*
X01740Y07955D02*
X01795D01*
X01768Y07927D02*
Y07983D01*
X01937Y07857D02*
X01992D01*
X01965Y07829D02*
Y07884D01*
X04025Y03145D02*
X04055D01*
X04040Y03130D02*
Y03160D01*
X04025Y03245D02*
X04055D01*
X04040Y03230D02*
Y03260D01*
X04025Y03345D02*
X04055D01*
X04040Y03330D02*
Y03360D01*
X04025Y03445D02*
X04055D01*
X04040Y03430D02*
Y03460D01*
X03705Y03145D02*
X03735D01*
X03720Y03130D02*
Y03160D01*
X03705Y03245D02*
X03735D01*
X03720Y03230D02*
Y03260D01*
X03705Y03345D02*
X03735D01*
X03720Y03330D02*
Y03360D01*
X03705Y03445D02*
X03735D01*
X03720Y03430D02*
Y03460D01*
X03309Y03365D02*
X03340D01*
X03325Y03349D02*
Y03381D01*
X03309Y03444D02*
X03340D01*
X03325Y03428D02*
Y03460D01*
X02823Y03204D02*
X02866D01*
X02845Y03182D02*
Y03225D01*
X02823Y02909D02*
X02866D01*
X02845Y02887D02*
Y02930D01*
X02148Y03204D02*
X02191D01*
X02170Y03182D02*
Y03225D01*
X02148Y02909D02*
X02191D01*
X02170Y02887D02*
Y02930D01*
X01704Y02886D02*
X01735D01*
X01720Y02870D02*
Y02902D01*
X01704Y03286D02*
X01735D01*
X01720Y03270D02*
Y03302D01*
X04945Y04270D02*
X04984D01*
X04965Y04250D02*
Y04289D01*
X04845Y04270D02*
X04884D01*
X04865Y04250D02*
Y04289D01*
X04745Y04270D02*
X04784D01*
X04765Y04250D02*
Y04289D01*
X04470Y04270D02*
X04509D01*
X04490Y04250D02*
Y04289D01*
X04370Y04270D02*
X04409D01*
X04390Y04250D02*
Y04289D01*
X04270Y04270D02*
X04309D01*
X04290Y04250D02*
Y04289D01*
X03520Y04270D02*
X03559D01*
X03540Y04250D02*
Y04289D01*
X03420Y04270D02*
X03459D01*
X03440Y04250D02*
Y04289D01*
X03320Y04270D02*
X03359D01*
X03340Y04250D02*
Y04289D01*
X03995Y04270D02*
X04034D01*
X04015Y04250D02*
Y04289D01*
X03895Y04270D02*
X03934D01*
X03915Y04250D02*
Y04289D01*
X03795Y04270D02*
X03834D01*
X03815Y04250D02*
Y04289D01*
X02575Y04270D02*
X02614D01*
X02595Y04250D02*
Y04289D01*
X02475Y04270D02*
X02514D01*
X02495Y04250D02*
Y04289D01*
X02375Y04270D02*
X02414D01*
X02395Y04250D02*
Y04289D01*
X03045Y04270D02*
X03084D01*
X03065Y04250D02*
Y04289D01*
X02945Y04270D02*
X02984D01*
X02965Y04250D02*
Y04289D01*
X02845Y04270D02*
X02884D01*
X02865Y04250D02*
Y04289D01*
X01625Y04270D02*
X01664D01*
X01645Y04250D02*
Y04289D01*
X01525Y04270D02*
X01564D01*
X01545Y04250D02*
Y04289D01*
X01425Y04270D02*
X01464D01*
X01445Y04250D02*
Y04289D01*
X02100Y04270D02*
X02139D01*
X02120Y04250D02*
Y04289D01*
X02000Y04270D02*
X02039D01*
X02020Y04250D02*
Y04289D01*
X01900Y04270D02*
X01939D01*
X01920Y04250D02*
Y04289D01*
X06825Y05173D02*
X06983D01*
X06904Y05094D02*
Y05252D01*
X01392Y05173D02*
X01550D01*
X01471Y05094D02*
Y05252D01*
X06825Y08637D02*
X06983D01*
X06904Y08559D02*
Y08716D01*
X01392Y08637D02*
X01550D01*
X01471Y08559D02*
Y08716D01*
X06154Y05497D02*
X06209D01*
X06181Y05469D02*
Y05524D01*
X06547Y05497D02*
X06603D01*
X06575Y05469D02*
Y05524D01*
X06154Y05898D02*
X06209D01*
X06181Y05871D02*
Y05926D01*
X06547Y05898D02*
X06603D01*
X06575Y05871D02*
Y05926D01*
X06351Y05997D02*
X06406D01*
X06378Y05969D02*
Y06024D01*
X05524Y05497D02*
X05579D01*
X05551Y05469D02*
Y05524D01*
X05917Y05497D02*
X05973D01*
X05945Y05469D02*
Y05524D01*
X05524Y05898D02*
X05579D01*
X05551Y05871D02*
Y05926D01*
X05917Y05898D02*
X05973D01*
X05945Y05871D02*
Y05926D01*
X05721Y05997D02*
X05776D01*
X05748Y05969D02*
Y06024D01*
X04894Y05497D02*
X04949D01*
X04921Y05469D02*
Y05524D01*
X05287Y05497D02*
X05343D01*
X05315Y05469D02*
Y05524D01*
X04894Y05898D02*
X04949D01*
X04921Y05871D02*
Y05926D01*
X05287Y05898D02*
X05343D01*
X05315Y05871D02*
Y05926D01*
X05091Y05997D02*
X05146D01*
X05118Y05969D02*
Y06024D01*
X04264Y05497D02*
X04319D01*
X04291Y05469D02*
Y05524D01*
X04657Y05497D02*
X04712D01*
X04685Y05469D02*
Y05524D01*
X04264Y05898D02*
X04319D01*
X04291Y05871D02*
Y05926D01*
X04657Y05898D02*
X04712D01*
X04685Y05871D02*
Y05926D01*
X04460Y05997D02*
X04516D01*
X04488Y05969D02*
Y06024D01*
X03634Y05497D02*
X03689D01*
X03661Y05469D02*
Y05524D01*
X04027Y05497D02*
X04082D01*
X04055Y05469D02*
Y05524D01*
X03634Y05898D02*
X03689D01*
X03661Y05871D02*
Y05926D01*
X04027Y05898D02*
X04082D01*
X04055Y05871D02*
Y05926D01*
X03830Y05997D02*
X03886D01*
X03858Y05969D02*
Y06024D01*
X03004Y05497D02*
X03059D01*
X03031Y05469D02*
Y05524D01*
X03397Y05497D02*
X03452D01*
X03425Y05469D02*
Y05524D01*
X03004Y05898D02*
X03059D01*
X03031Y05871D02*
Y05926D01*
X03397Y05898D02*
X03452D01*
X03425Y05871D02*
Y05926D01*
X03200Y05997D02*
X03256D01*
X03228Y05969D02*
Y06024D01*
X02374Y05497D02*
X02429D01*
X02401Y05469D02*
Y05524D01*
X02767Y05497D02*
X02822D01*
X02795Y05469D02*
Y05524D01*
X02374Y05898D02*
X02429D01*
X02401Y05871D02*
Y05926D01*
X02767Y05898D02*
X02822D01*
X02795Y05871D02*
Y05926D01*
X02570Y05997D02*
X02625D01*
X02598Y05969D02*
Y06024D01*
X01743Y05497D02*
X01799D01*
X01771Y05469D02*
Y05524D01*
X02137Y05497D02*
X02192D01*
X02165Y05469D02*
Y05524D01*
X01743Y05898D02*
X01799D01*
X01771Y05871D02*
Y05926D01*
X02137Y05898D02*
X02192D01*
X02165Y05871D02*
Y05926D01*
X01940Y05997D02*
X01995D01*
X01968Y05969D02*
Y06024D01*
X04152Y06765D02*
X04167D01*
X04160Y06757D02*
Y06772D01*
X04107Y06780D02*
X04122D01*
X04115Y06772D02*
Y06787D01*
X03107Y03040D02*
X03122D01*
X03115Y03032D02*
Y03047D01*
X03107Y03445D02*
X03122D01*
X03115Y03437D02*
Y03452D01*
X03002Y03615D02*
X03017D01*
X03010Y03607D02*
Y03622D01*
X04607Y02280D02*
X04622D01*
X04615Y02272D02*
Y02287D01*
X04137Y02280D02*
X04152D01*
X04145Y02272D02*
Y02287D01*
X03667Y02280D02*
X03682D01*
X03675Y02272D02*
Y02287D01*
X03277Y02335D02*
X03292D01*
X03285Y02327D02*
Y02342D01*
X02717Y02275D02*
X02732D01*
X02725Y02267D02*
Y02282D01*
X02242Y02275D02*
X02257D01*
X02250Y02267D02*
Y02282D01*
X01767Y02275D02*
X01782D01*
X01775Y02267D02*
Y02282D01*
X01397Y02350D02*
X01412D01*
X01405Y02342D02*
Y02357D01*
X05107Y03850D02*
X05122D01*
X05115Y03842D02*
Y03857D01*
X04632Y03850D02*
X04647D01*
X04640Y03842D02*
Y03857D01*
X04152Y03850D02*
X04167D01*
X04160Y03842D02*
Y03857D01*
X03677Y03850D02*
X03692D01*
X03685Y03842D02*
Y03857D01*
X03107Y03795D02*
X03122D01*
X03115Y03787D02*
Y03802D01*
X02712Y03850D02*
X02727D01*
X02720Y03842D02*
Y03857D01*
X02247Y03850D02*
X02262D01*
X02255Y03842D02*
Y03857D01*
X01772Y03850D02*
X01787D01*
X01780Y03842D02*
Y03857D01*
X03307Y03615D02*
X03322D01*
X03315Y03607D02*
Y03622D01*
X03367Y02555D02*
X03382D01*
X03375Y02547D02*
Y02562D01*
X03007Y02555D02*
X03022D01*
X03015Y02547D02*
Y02562D01*
X03537Y02520D02*
X03552D01*
X03545Y02512D02*
Y02527D01*
X04017Y02525D02*
X04032D01*
X04025Y02517D02*
Y02532D01*
X04482Y02525D02*
X04497D01*
X04490Y02517D02*
Y02532D01*
X04957Y02525D02*
X04972D01*
X04965Y02517D02*
Y02532D01*
X05312Y07105D02*
X05327D01*
X05320Y07097D02*
Y07112D01*
X04897Y02365D02*
X04912D01*
X04905Y02357D02*
Y02372D01*
X04427Y02365D02*
X04442D01*
X04435Y02357D02*
Y02372D01*
X03957Y02365D02*
X03972D01*
X03965Y02357D02*
Y02372D01*
X03482Y02365D02*
X03497D01*
X03490Y02357D02*
Y02372D01*
X03007Y02365D02*
X03022D01*
X03015Y02357D02*
Y02372D01*
X02527Y02365D02*
X02542D01*
X02535Y02357D02*
Y02372D01*
X02057Y02365D02*
X02072D01*
X02065Y02357D02*
Y02372D01*
X01582Y02365D02*
X01597D01*
X01590Y02357D02*
Y02372D01*
X04817Y03770D02*
X04832D01*
X04825Y03762D02*
Y03777D01*
X04342Y03770D02*
X04357D01*
X04350Y03762D02*
Y03777D01*
X03867Y03770D02*
X03882D01*
X03875Y03762D02*
Y03777D01*
X03387Y03770D02*
X03402D01*
X03395Y03762D02*
Y03777D01*
X02907Y03770D02*
X02922D01*
X02915Y03762D02*
Y03777D01*
X02427Y03770D02*
X02442D01*
X02435Y03762D02*
Y03777D01*
X01962Y03765D02*
X01977D01*
X01970Y03757D02*
Y03772D01*
X01482Y03765D02*
X01497D01*
X01490Y03757D02*
Y03772D01*
X04857Y06770D02*
X04872D01*
X04865Y06762D02*
Y06777D01*
X04887Y06800D02*
X04902D01*
X04895Y06792D02*
Y06807D01*
X04917Y06830D02*
X04932D01*
X04925Y06822D02*
Y06837D01*
X04717Y06980D02*
X04732D01*
X04725Y06972D02*
Y06987D01*
X04657Y07045D02*
X04672D01*
X04665Y07037D02*
Y07052D01*
X04612Y07045D02*
X04627D01*
X04620Y07037D02*
Y07052D01*
X04582Y07014D02*
X04597D01*
X04590Y07006D02*
Y07021D01*
X06597Y06520D02*
X06612D01*
X06605Y06512D02*
Y06527D01*
X06597Y06620D02*
X06612D01*
X06605Y06612D02*
Y06627D01*
X06597Y06720D02*
X06612D01*
X06605Y06712D02*
Y06727D01*
X06597Y06820D02*
X06612D01*
X06605Y06812D02*
Y06827D01*
X06597Y06920D02*
X06612D01*
X06605Y06912D02*
Y06927D01*
X06597Y07020D02*
X06612D01*
X06605Y07012D02*
Y07027D01*
X06597Y07120D02*
X06612D01*
X06605Y07112D02*
Y07127D01*
X06597Y07220D02*
X06612D01*
X06605Y07212D02*
Y07227D01*
X02987Y06910D02*
X03002D01*
X02995Y06902D02*
Y06917D01*
X03547Y06265D02*
X03562D01*
X03555Y06257D02*
Y06272D01*
X03587Y06305D02*
X03602D01*
X03595Y06297D02*
Y06312D01*
X03348Y06945D02*
X03363D01*
X03356Y06937D02*
Y06952D01*
X03347Y06465D02*
X03363D01*
X03355Y06457D02*
Y06472D01*
X03297Y06465D02*
X03312D01*
X03305Y06457D02*
Y06472D01*
X03247Y06465D02*
X03263D01*
X03255Y06457D02*
Y06472D01*
X03197Y06890D02*
X03212D01*
X03205Y06882D02*
Y06897D01*
X04429Y06717D02*
X04444D01*
X04437Y06709D02*
Y06724D01*
X04192Y06400D02*
X04207D01*
X04200Y06392D02*
Y06407D01*
X04267Y06645D02*
X04282D01*
X04275Y06637D02*
Y06652D01*
X04192Y06685D02*
X04207D01*
X04200Y06677D02*
Y06692D01*
X05488Y06963D02*
X05503D01*
X05496Y06955D02*
Y06970D01*
X05487Y07336D02*
X05502D01*
X05495Y07328D02*
Y07343D01*
X05026Y06991D02*
X05041D01*
X05034Y06983D02*
Y06998D01*
X04967Y07050D02*
X04982D01*
X04975Y07042D02*
Y07057D01*
X05194Y07197D02*
X05210D01*
X05202Y07189D02*
Y07204D01*
X05688Y07592D02*
X05703D01*
X05696Y07584D02*
Y07599D01*
X06153Y07592D02*
X06168D01*
X06161Y07584D02*
Y07599D01*
X04231Y07052D02*
X04246D01*
X04239Y07044D02*
Y07059D01*
X04420Y07061D02*
X04435D01*
X04428Y07053D02*
Y07068D01*
X04420Y07014D02*
X04435D01*
X04428Y07006D02*
Y07021D01*
X03082Y07148D02*
X03097D01*
X03090Y07140D02*
Y07156D01*
X03475Y06879D02*
X03490D01*
X03483Y06871D02*
Y06886D01*
X03447Y06120D02*
X03463D01*
X03455Y06112D02*
Y06127D01*
X03447Y06556D02*
X03463D01*
X03455Y06548D02*
Y06563D01*
X03032Y06488D02*
X03048D01*
X03040Y06480D02*
Y06495D01*
X02979Y06488D02*
X02994D01*
X02987Y06480D02*
Y06495D01*
X03032Y07145D02*
X03048D01*
X03040Y07137D02*
Y07153D01*
X03032Y06911D02*
X03048D01*
X03040Y06903D02*
Y06918D01*
X02307Y07330D02*
X02322D01*
X02315Y07322D02*
Y07337D01*
X03652Y07335D02*
X03667D01*
X03660Y07327D02*
Y07342D01*
X03097Y06120D02*
X03112D01*
X03105Y06112D02*
Y06127D01*
X03147Y06120D02*
X03162D01*
X03155Y06112D02*
Y06127D01*
X03197Y06120D02*
X03212D01*
X03205Y06112D02*
Y06127D01*
X03247Y06120D02*
X03262D01*
X03255Y06112D02*
Y06127D01*
X03297Y06120D02*
X03312D01*
X03305Y06112D02*
Y06127D01*
X02502Y06120D02*
X02517D01*
X02510Y06112D02*
Y06127D01*
X02552Y06120D02*
X02567D01*
X02560Y06112D02*
Y06127D01*
X02602Y06120D02*
X02617D01*
X02610Y06112D02*
Y06127D01*
X02652Y06120D02*
X02667D01*
X02660Y06112D02*
Y06127D01*
X02702Y06120D02*
X02717D01*
X02710Y06112D02*
Y06127D01*
X02752Y06120D02*
X02767D01*
X02760Y06112D02*
Y06127D01*
X02402Y06455D02*
X02417D01*
X02410Y06447D02*
Y06462D01*
X02787Y06805D02*
X02802D01*
X02795Y06797D02*
Y06812D01*
X02787Y06625D02*
X02802D01*
X02795Y06617D02*
Y06632D01*
X02787Y06386D02*
X02802D01*
X02795Y06378D02*
Y06394D01*
X02787Y07045D02*
X02802D01*
X02795Y07037D02*
Y07052D01*
X02402Y06935D02*
X02417D01*
X02410Y06927D02*
Y06942D01*
X04807Y06905D02*
X04822D01*
X04815Y06897D02*
Y06912D01*
X06372Y06720D02*
X06387D01*
X06380Y06712D02*
Y06727D01*
X06372Y06820D02*
X06387D01*
X06380Y06812D02*
Y06827D01*
X06372Y06620D02*
X06387D01*
X06380Y06612D02*
Y06627D01*
X06372Y06520D02*
X06387D01*
X06380Y06512D02*
Y06527D01*
X06372Y07220D02*
X06387D01*
X06380Y07212D02*
Y07227D01*
X04687Y07014D02*
X04702D01*
X04695Y07006D02*
Y07021D01*
X06372Y06920D02*
X06387D01*
X06380Y06912D02*
Y06927D01*
X04552Y06670D02*
X04567D01*
X04560Y06662D02*
Y06677D01*
X06372Y07120D02*
X06387D01*
X06380Y07112D02*
Y07127D01*
X06372Y07020D02*
X06387D01*
X06380Y07012D02*
Y07027D01*
X04132Y07115D02*
X04147D01*
X04140Y07107D02*
Y07122D01*
X04087Y07130D02*
X04102D01*
X04095Y07122D02*
Y07137D01*
X03807Y07035D02*
X03822D01*
X03815Y07027D02*
Y07042D01*
X03722Y07065D02*
X03737D01*
X03730Y07057D02*
Y07072D01*
X03742Y06315D02*
X03757D01*
X03750Y06307D02*
Y06322D01*
X04997Y07150D02*
X05012D01*
X05005Y07142D02*
Y07157D01*
X05052Y07150D02*
X05067D01*
X05060Y07142D02*
Y07157D01*
X01265Y06492D02*
X01280D01*
X01273Y06484D02*
Y06499D01*
X01942Y06310D02*
X01957D01*
X01950Y06302D02*
Y06317D01*
X01477Y07000D02*
X01492D01*
X01485Y06992D02*
Y07007D01*
X04232Y07740D02*
X04247D01*
X04240Y07732D02*
Y07747D01*
X03297Y06890D02*
X03312D01*
X03305Y06882D02*
Y06897D01*
X04102Y07085D02*
X04117D01*
X04110Y07077D02*
Y07092D01*
X03642Y07020D02*
X03657D01*
X03650Y07012D02*
Y07027D01*
X03747Y06790D02*
X03762D01*
X03755Y06782D02*
Y06797D01*
X03682Y07042D02*
X03697D01*
X03690Y07034D02*
Y07050D01*
X03607Y06830D02*
X03622D01*
X03615Y06822D02*
Y06837D01*
X03942Y07170D02*
X03957D01*
X03950Y07162D02*
Y07177D01*
X04302Y06510D02*
X04317D01*
X04310Y06502D02*
Y06517D01*
X04302Y06560D02*
X04317D01*
X04310Y06552D02*
Y06567D01*
X04062Y06370D02*
X04077D01*
X04070Y06362D02*
Y06377D01*
X04632Y06445D02*
X04647D01*
X04640Y06437D02*
Y06452D01*
X04702Y06445D02*
X04717D01*
X04710Y06437D02*
Y06452D01*
X04617Y06655D02*
X04632D01*
X04625Y06647D02*
Y06662D01*
X04322Y06445D02*
X04337D01*
X04330Y06437D02*
Y06452D01*
X04602Y06380D02*
X04617D01*
X04610Y06372D02*
Y06387D01*
X04477Y07165D02*
X04492D01*
X04485Y07157D02*
Y07172D01*
X04567Y07165D02*
X04582D01*
X04575Y07157D02*
Y07172D01*
X04702Y06525D02*
X04717D01*
X04710Y06517D02*
Y06532D01*
X04522Y06705D02*
X04537D01*
X04530Y06697D02*
Y06712D01*
X04957Y06680D02*
X04972D01*
X04965Y06672D02*
Y06687D01*
X03390Y07145D02*
X03405D01*
X03398Y07137D02*
Y07153D01*
X02787Y07195D02*
X02802D01*
X02795Y07187D02*
Y07202D01*
X02917Y07370D02*
X02932D01*
X02925Y07362D02*
Y07377D01*
X03082Y07370D02*
X03097D01*
X03090Y07362D02*
Y07377D01*
X02872Y07345D02*
X02887D01*
X02880Y07337D02*
Y07352D01*
X05310Y07240D02*
X05326D01*
X05318Y07232D02*
Y07247D01*
X05317Y06790D02*
X05332D01*
X05325Y06782D02*
Y06797D01*
X05317Y06885D02*
X05332D01*
X05325Y06877D02*
Y06892D01*
X05310Y06995D02*
X05326D01*
X05318Y06987D02*
Y07002D01*
X06057Y07215D02*
X06072D01*
X06065Y07207D02*
Y07222D01*
X03847Y06785D02*
X03862D01*
X03855Y06777D02*
Y06792D01*
X03562Y07145D02*
X03577D01*
X03570Y07137D02*
Y07152D01*
X04167Y07215D02*
X04182D01*
X04175Y07207D02*
Y07222D01*
X04612Y07165D02*
X04627D01*
X04620Y07157D02*
Y07172D01*
X03947Y07440D02*
X03962D01*
X03955Y07432D02*
Y07447D01*
X04017Y07260D02*
X04032D01*
X04025Y07252D02*
Y07267D01*
X03787Y07490D02*
X03802D01*
X03795Y07482D02*
Y07497D01*
X03982Y07490D02*
X03997D01*
X03990Y07482D02*
Y07497D01*
X05720Y06560D02*
X05735D01*
X05727Y06552D02*
Y06567D01*
X06027Y06560D02*
X06042D01*
X06035Y06552D02*
Y06567D01*
X05637Y07080D02*
X05652D01*
X05645Y07072D02*
Y07087D01*
X05687Y07080D02*
X05702D01*
X05695Y07072D02*
Y07087D01*
X05737Y07080D02*
X05752D01*
X05745Y07072D02*
Y07087D01*
X05787Y07080D02*
X05802D01*
X05795Y07072D02*
Y07087D01*
X05837Y07080D02*
X05852D01*
X05845Y07072D02*
Y07087D01*
X05887Y07080D02*
X05902D01*
X05895Y07072D02*
Y07087D01*
X05587Y07080D02*
X05602D01*
X05595Y07072D02*
Y07087D01*
X05937Y07080D02*
X05952D01*
X05945Y07072D02*
Y07087D01*
X05587Y07015D02*
X05602D01*
X05595Y07007D02*
Y07022D01*
X05937Y07015D02*
X05952D01*
X05945Y07007D02*
Y07022D01*
X05887Y07015D02*
X05902D01*
X05895Y07007D02*
Y07022D01*
X05837Y07015D02*
X05852D01*
X05845Y07007D02*
Y07022D01*
X05787Y07015D02*
X05802D01*
X05795Y07007D02*
Y07022D01*
X05737Y07015D02*
X05752D01*
X05745Y07007D02*
Y07022D01*
X05687Y07015D02*
X05702D01*
X05695Y07007D02*
Y07022D01*
X05637Y07015D02*
X05652D01*
X05645Y07007D02*
Y07022D01*
X02302Y07410D02*
X02317D01*
X02310Y07402D02*
Y07417D01*
X02332Y07375D02*
X02347D01*
X02340Y07367D02*
Y07382D01*
X03242Y06945D02*
X03257D01*
X03250Y06937D02*
Y06952D01*
X01567Y05705D02*
X01582D01*
X01575Y05697D02*
Y05712D01*
X02173Y03300D02*
X02189D01*
X02181Y03292D02*
Y03307D01*
X02244Y03300D02*
X02260D01*
X02252Y03292D02*
Y03307D01*
X02315Y03300D02*
X02331D01*
X02323Y03292D02*
Y03307D01*
X02386Y03300D02*
X02402D01*
X02394Y03292D02*
Y03307D01*
X02457Y03300D02*
X02473D01*
X02465Y03292D02*
Y03307D01*
X02529Y03300D02*
X02544D01*
X02536Y03292D02*
Y03307D01*
X02600Y03300D02*
X02616D01*
X02608Y03292D02*
Y03307D01*
X02671Y03300D02*
X02687D01*
X02679Y03292D02*
Y03307D01*
X02742Y03300D02*
X02758D01*
X02750Y03292D02*
Y03307D01*
X02813Y03300D02*
X02829D01*
X02821Y03292D02*
Y03307D01*
X02884Y03300D02*
X02900D01*
X02892Y03292D02*
Y03307D01*
X02956Y03300D02*
X02971D01*
X02963Y03292D02*
Y03307D01*
X03027Y03300D02*
X03042D01*
X03035Y03292D02*
Y03307D01*
X02102Y03300D02*
X02117D01*
X02110Y03292D02*
Y03307D01*
X02102Y03140D02*
X02117D01*
X02110Y03132D02*
Y03147D01*
X03027Y03140D02*
X03042D01*
X03035Y03132D02*
Y03147D01*
X02956Y03140D02*
X02971D01*
X02963Y03132D02*
Y03147D01*
X02884Y03140D02*
X02900D01*
X02892Y03132D02*
Y03147D01*
X02813Y03140D02*
X02829D01*
X02821Y03132D02*
Y03147D01*
X02742Y03140D02*
X02758D01*
X02750Y03132D02*
Y03147D01*
X02671Y03140D02*
X02687D01*
X02679Y03132D02*
Y03147D01*
X02600Y03140D02*
X02616D01*
X02608Y03132D02*
Y03147D01*
X02529Y03140D02*
X02544D01*
X02536Y03132D02*
Y03147D01*
X02457Y03140D02*
X02473D01*
X02465Y03132D02*
Y03147D01*
X02386Y03140D02*
X02402D01*
X02394Y03132D02*
Y03147D01*
X02315Y03140D02*
X02331D01*
X02323Y03132D02*
Y03147D01*
X02244Y03140D02*
X02260D01*
X02252Y03132D02*
Y03147D01*
X02173Y03140D02*
X02189D01*
X02181Y03132D02*
Y03147D01*
X01957Y03005D02*
X01972D01*
X01965Y02997D02*
Y03012D01*
X02882Y03005D02*
X02897D01*
X02890Y02997D02*
Y03012D01*
X02811Y03005D02*
X02826D01*
X02818Y02997D02*
Y03012D01*
X02739Y03005D02*
X02755D01*
X02747Y02997D02*
Y03012D01*
X02668Y03005D02*
X02684D01*
X02676Y02997D02*
Y03012D01*
X02597Y03005D02*
X02613D01*
X02605Y02997D02*
Y03012D01*
X02526Y03005D02*
X02542D01*
X02534Y02997D02*
Y03012D01*
X02455Y03005D02*
X02471D01*
X02463Y02997D02*
Y03012D01*
X02384Y03005D02*
X02399D01*
X02391Y02997D02*
Y03012D01*
X02312Y03005D02*
X02328D01*
X02320Y02997D02*
Y03012D01*
X02241Y03005D02*
X02257D01*
X02249Y02997D02*
Y03012D01*
X02170Y03005D02*
X02186D01*
X02178Y02997D02*
Y03012D01*
X02099Y03005D02*
X02115D01*
X02107Y02997D02*
Y03012D01*
X02028Y03005D02*
X02044D01*
X02036Y02997D02*
Y03012D01*
X01957Y02720D02*
X01972D01*
X01965Y02712D02*
Y02727D01*
X02882Y02720D02*
X02897D01*
X02890Y02712D02*
Y02727D01*
X02811Y02720D02*
X02826D01*
X02818Y02712D02*
Y02727D01*
X02739Y02720D02*
X02755D01*
X02747Y02712D02*
Y02727D01*
X02668Y02720D02*
X02684D01*
X02676Y02712D02*
Y02727D01*
X02597Y02720D02*
X02613D01*
X02605Y02712D02*
Y02727D01*
X02526Y02720D02*
X02542D01*
X02534Y02712D02*
Y02727D01*
X02455Y02720D02*
X02471D01*
X02463Y02712D02*
Y02727D01*
X02384Y02720D02*
X02399D01*
X02391Y02712D02*
Y02727D01*
X02312Y02720D02*
X02328D01*
X02320Y02712D02*
Y02727D01*
X02241Y02720D02*
X02257D01*
X02249Y02712D02*
Y02727D01*
X02170Y02720D02*
X02186D01*
X02178Y02712D02*
Y02727D01*
X02099Y02720D02*
X02115D01*
X02107Y02712D02*
Y02727D01*
X02028Y02720D02*
X02044D01*
X02036Y02712D02*
Y02727D01*
X01662Y04775D02*
X01677D01*
X01670Y04767D02*
Y04782D01*
X02587Y04775D02*
X02602D01*
X02595Y04767D02*
Y04782D01*
X02516Y04775D02*
X02531D01*
X02523Y04767D02*
Y04782D01*
X02444Y04775D02*
X02460D01*
X02452Y04767D02*
Y04782D01*
X02373Y04775D02*
X02389D01*
X02381Y04767D02*
Y04782D01*
X02302Y04775D02*
X02318D01*
X02310Y04767D02*
Y04782D01*
X02231Y04775D02*
X02247D01*
X02239Y04767D02*
Y04782D01*
X02160Y04775D02*
X02176D01*
X02168Y04767D02*
Y04782D01*
X02089Y04775D02*
X02104D01*
X02096Y04767D02*
Y04782D01*
X02017Y04775D02*
X02033D01*
X02025Y04767D02*
Y04782D01*
X01946Y04775D02*
X01962D01*
X01954Y04767D02*
Y04782D01*
X01875Y04775D02*
X01891D01*
X01883Y04767D02*
Y04782D01*
X01804Y04775D02*
X01820D01*
X01812Y04767D02*
Y04782D01*
X01733Y04775D02*
X01749D01*
X01741Y04767D02*
Y04782D01*
X02672Y04775D02*
X02687D01*
X02680Y04767D02*
Y04782D01*
X03597Y04775D02*
X03612D01*
X03605Y04767D02*
Y04782D01*
X03526Y04775D02*
X03541D01*
X03533Y04767D02*
Y04782D01*
X03454Y04775D02*
X03470D01*
X03462Y04767D02*
Y04782D01*
X03383Y04775D02*
X03399D01*
X03391Y04767D02*
Y04782D01*
X03312Y04775D02*
X03328D01*
X03320Y04767D02*
Y04782D01*
X03241Y04775D02*
X03257D01*
X03249Y04767D02*
Y04782D01*
X03170Y04775D02*
X03186D01*
X03178Y04767D02*
Y04782D01*
X03099Y04775D02*
X03114D01*
X03106Y04767D02*
Y04782D01*
X03027Y04775D02*
X03043D01*
X03035Y04767D02*
Y04782D01*
X02956Y04775D02*
X02972D01*
X02964Y04767D02*
Y04782D01*
X02885Y04775D02*
X02901D01*
X02893Y04767D02*
Y04782D01*
X02814Y04775D02*
X02830D01*
X02822Y04767D02*
Y04782D01*
X02743Y04775D02*
X02759D01*
X02751Y04767D02*
Y04782D01*
X03687Y04775D02*
X03702D01*
X03695Y04767D02*
Y04782D01*
X04612Y04775D02*
X04627D01*
X04620Y04767D02*
Y04782D01*
X04541Y04775D02*
X04556D01*
X04548Y04767D02*
Y04782D01*
X04469Y04775D02*
X04485D01*
X04477Y04767D02*
Y04782D01*
X04398Y04775D02*
X04414D01*
X04406Y04767D02*
Y04782D01*
X04327Y04775D02*
X04343D01*
X04335Y04767D02*
Y04782D01*
X04256Y04775D02*
X04272D01*
X04264Y04767D02*
Y04782D01*
X04185Y04775D02*
X04201D01*
X04193Y04767D02*
Y04782D01*
X04114Y04775D02*
X04129D01*
X04121Y04767D02*
Y04782D01*
X04042Y04775D02*
X04058D01*
X04050Y04767D02*
Y04782D01*
X03971Y04775D02*
X03987D01*
X03979Y04767D02*
Y04782D01*
X03900Y04775D02*
X03916D01*
X03908Y04767D02*
Y04782D01*
X03829Y04775D02*
X03845D01*
X03837Y04767D02*
Y04782D01*
X03758Y04775D02*
X03774D01*
X03766Y04767D02*
Y04782D01*
X01462Y01378D02*
X01477D01*
X01470Y01370D02*
Y01385D01*
X02387Y01378D02*
X02402D01*
X02395Y01370D02*
Y01385D01*
X02316Y01378D02*
X02331D01*
X02323Y01370D02*
Y01385D01*
X02244Y01378D02*
X02260D01*
X02252Y01370D02*
Y01385D01*
X02173Y01378D02*
X02189D01*
X02181Y01370D02*
Y01385D01*
X02102Y01378D02*
X02118D01*
X02110Y01370D02*
Y01385D01*
X02031Y01378D02*
X02047D01*
X02039Y01370D02*
Y01385D01*
X01960Y01378D02*
X01976D01*
X01968Y01370D02*
Y01385D01*
X01889Y01378D02*
X01904D01*
X01896Y01370D02*
Y01385D01*
X01817Y01378D02*
X01833D01*
X01825Y01370D02*
Y01385D01*
X01746Y01378D02*
X01762D01*
X01754Y01370D02*
Y01385D01*
X01675Y01378D02*
X01691D01*
X01683Y01370D02*
Y01385D01*
X01604Y01378D02*
X01620D01*
X01612Y01370D02*
Y01385D01*
X01533Y01378D02*
X01549D01*
X01541Y01370D02*
Y01385D01*
X02612Y01378D02*
X02627D01*
X02620Y01370D02*
Y01385D01*
X03537Y01378D02*
X03552D01*
X03545Y01370D02*
Y01385D01*
X03466Y01378D02*
X03481D01*
X03473Y01370D02*
Y01385D01*
X03394Y01378D02*
X03410D01*
X03402Y01370D02*
Y01385D01*
X03323Y01378D02*
X03339D01*
X03331Y01370D02*
Y01385D01*
X03252Y01378D02*
X03268D01*
X03260Y01370D02*
Y01385D01*
X03181Y01378D02*
X03197D01*
X03189Y01370D02*
Y01385D01*
X03110Y01378D02*
X03126D01*
X03118Y01370D02*
Y01385D01*
X03039Y01378D02*
X03054D01*
X03046Y01370D02*
Y01385D01*
X02967Y01378D02*
X02983D01*
X02975Y01370D02*
Y01385D01*
X02896Y01378D02*
X02912D01*
X02904Y01370D02*
Y01385D01*
X02825Y01378D02*
X02841D01*
X02833Y01370D02*
Y01385D01*
X02754Y01378D02*
X02770D01*
X02762Y01370D02*
Y01385D01*
X02683Y01378D02*
X02699D01*
X02691Y01370D02*
Y01385D01*
X03835Y01378D02*
X03851D01*
X03843Y01370D02*
Y01386D01*
X04760Y01378D02*
X04776D01*
X04768Y01370D02*
Y01386D01*
X04689Y01378D02*
X04704D01*
X04697Y01370D02*
Y01386D01*
X04618Y01378D02*
X04633D01*
X04625Y01370D02*
Y01386D01*
X04546Y01378D02*
X04562D01*
X04554Y01370D02*
Y01386D01*
X04475Y01378D02*
X04491D01*
X04483Y01370D02*
Y01386D01*
X04404Y01378D02*
X04420D01*
X04412Y01370D02*
Y01386D01*
X04333Y01378D02*
X04349D01*
X04341Y01370D02*
Y01386D01*
X04262Y01378D02*
X04277D01*
X04270Y01370D02*
Y01386D01*
X04191Y01378D02*
X04206D01*
X04198Y01370D02*
Y01386D01*
X04119Y01378D02*
X04135D01*
X04127Y01370D02*
Y01386D01*
X04048Y01378D02*
X04064D01*
X04056Y01370D02*
Y01386D01*
X03977Y01378D02*
X03993D01*
X03985Y01370D02*
Y01386D01*
X03906Y01378D02*
X03922D01*
X03914Y01370D02*
Y01386D01*
M02*